<svg xmlns="http://www.w3.org/2000/svg" viewBox="0 0 30.618 37.628"><path fill="#0C0E0F" d="M22.818 0c-1.92.18-4.14 1.26-5.52 2.88-1.26 1.44-2.28 3.66-2.04 5.82 2.1.18 4.2-1.02 5.58-2.64s2.22-3.84 1.98-6.06m7.8 27.6s-5.04-1.98-5.04-7.56c0-4.8 3.9-7.02 4.08-7.2-2.28-3.24-5.64-3.54-6.9-3.72-2.88-.18-5.76 1.74-7.2 1.74-1.5 0-3.78-1.62-6.18-1.62-3.18 0-6.18 1.86-7.8 4.68-3.36 5.7-.78 14.34 2.4 18.96 1.62 2.22 3.48 4.92 5.94 4.74 2.4 0 3.24-1.5 6.12-1.5s3.66 1.5 6.24 1.5c2.58-.06 4.14-2.28 5.76-4.62 1.86-2.7 2.58-5.22 2.58-5.4"/></svg>