<svg xmlns="http://www.w3.org/2000/svg" viewBox="0 0 108.153 61.165"><path fill="none" stroke="#0C0E0F" stroke-width="2.7" d="M28.566 25.399v-5.492h71.82v5.492"/><path fill="none" stroke="#0C0E0F" stroke-width="2.7" d="M35.406 20.512v-5.493h60.012v5.493"/><path fill="#0C0E0F" d="M23.875 58.355h81.469V26.048H23.875v32.307zm84.278 2.81H21.066V23.24h87.087v37.925z"/><path fill="#0C0E0F" d="M63.766 33.916c-3.652 0-6.742 3.933-6.742 8.709s2.95 8.709 6.742 8.709 6.742-3.933 6.742-8.709c0-4.777-3.09-8.709-6.742-8.709m0 20.226c-5.197 0-9.552-5.197-9.552-11.518 0-6.321 4.214-11.518 9.552-11.518 5.338 0 9.552 5.197 9.552 11.518-.141 6.321-4.355 11.518-9.552 11.518M26.684 28.859h8.428v2.809h-8.428zM26.684 52.738h8.428v2.81h-8.428zM94.107 28.859h7.023v2.809h-7.023zM94.107 52.738h7.023v2.81h-7.023z"/><path fill="none" stroke="#F6CE45" stroke-width="2.625" stroke-linecap="round" d="M11.271 1.312v19.917M21.229 11.27H1.312"/></svg>