<svg xmlns="http://www.w3.org/2000/svg" xmlns:xlink="http://www.w3.org/1999/xlink" viewBox="0 0 118.119 113.87"><path fill="none" stroke="#F6CE45" stroke-width="3.42" stroke-dasharray="5.641,5.363,5.684,5.387" stroke-dashoffset="11" d="M90.508 80.498l26.113-42.393"/><path fill="none" stroke="#1B1B1A" stroke-width="2.85" stroke-linecap="round" stroke-linejoin="round" d="M1.425 56.345L14 30.933l5.095 10.592 13.68 7.799 4.56 10.027 14.82-10.027 5.7 15.552 18.24-16.51 4.803 16.51 6.84 17.344"/><path fill="#FFF" d="M87.738 86.881a6.384 6.384 0 1 0 0-12.767 6.384 6.384 0 0 0 0 12.767"/><path fill="#FFF" d="M87.988 86.881a6.384 6.384 0 1 0 0-12.767 6.384 6.384 0 0 0 0 12.767"/><circle fill="none" stroke="#F6CE45" stroke-width="2.28" cx="87.988" cy="80.497" r="6.384"/><g><g opacity=".5"><defs><path id="a" d="M16 0h18.5v113.87H16z"/></defs><clipPath id="b"><use xlink:href="#a" overflow="visible"/></clipPath><path clip-path="url(#b)" fill="none" stroke="#0C0E0F" stroke-width=".5" d="M25.25 7.002v105.87"/></g><g opacity=".5"><defs><path id="c" d="M57.935 0h18.5v113.87h-18.5z"/></defs><clipPath id="d"><use xlink:href="#c" overflow="visible"/></clipPath><path clip-path="url(#d)" fill="none" stroke="#0C0E0F" stroke-width=".5" d="M67.185 7.002v105.87"/></g><g opacity=".5"><defs><path id="e" d="M36.842 0h18.5v113.87h-18.5z"/></defs><clipPath id="f"><use xlink:href="#e" overflow="visible"/></clipPath><path clip-path="url(#f)" fill="none" stroke="#0C0E0F" stroke-width=".5" d="M46.093 7.002v105.87"/></g><g opacity=".5"><defs><path id="g" d="M78.777 0h18.5v113.87h-18.5z"/></defs><clipPath id="h"><use xlink:href="#g" overflow="visible"/></clipPath><path clip-path="url(#h)" fill="none" stroke="#0C0E0F" stroke-width=".5" d="M88.027 7.002v105.87"/></g><g opacity=".5"><defs><path id="i" d="M99.619 0h18.5v113.87h-18.5z"/></defs><clipPath id="j"><use xlink:href="#i" overflow="visible"/></clipPath><path clip-path="url(#j)" fill="none" stroke="#0C0E0F" stroke-width=".5" d="M108.87 7.002v105.87"/></g></g></svg>