<svg xmlns="http://www.w3.org/2000/svg" viewBox="0 0 71.481 107.308"><path fill="#F6CE45" d="M40.542 31.973c-6.518 0-11.479-3.787-12.947-9.883H24.92c-.6 0-1.089-.489-1.089-1.089s.489-1.088 1.089-1.088h2.31a17.42 17.42 0 0 1-.095-1.811c0-.788.057-1.609.18-2.582H24.92a1.09 1.09 0 0 1 0-2.178h2.919c1.756-5.704 6.375-9.11 12.355-9.11 1.442 0 3.13.281 4.405.734.313.104.657.428.657.889 0 .153-.039.309-.116.463-.145.361-.472.58-.888.58a1.28 1.28 0 0 1-.347-.058l-.081-.02c-1.1-.381-2.334-.579-3.591-.579-4.7 0-8.46 2.655-10.057 7.101h12.127a1.09 1.09 0 0 1 0 2.178H29.592a15.558 15.558 0 0 0-.216 2.582 18 18 0 0 0 .095 1.811h12.832a1.09 1.09 0 0 1 0 2.177H29.926c1.429 4.856 5.556 7.874 10.771 7.874 1.21 0 2.196-.139 3.013-.425.17-.042.316-.077.464-.077.389 0 .675.194.85.579.044.135.077.241.077.348 0 .414-.3.784-.579.889-1.191.41-2.825.695-3.98.695M11.07 6.826c-2.938.344-4.694 2.073-4.694 4.624 0 3.099 2.423 4.365 4.693 5.309V6.826zm2.177 23.227c2.913-.485 4.723-2.352 4.723-4.873 0-3.006-2.27-4.402-4.723-5.465v10.338zm-1.088 6.329a1.09 1.09 0 0 1-1.089-1.089v-3.176c-3.013-.217-5.813-1.503-7.134-3.276a1.082 1.082 0 0 1-.191-.648c0-.267.098-.517.268-.686.184-.186.453-.306.686-.306.251 0 .557.139.762.344 1.369 1.431 3.464 2.399 5.609 2.593V18.831c-3.912-1.556-6.905-3.088-6.905-7.381 0-3.65 2.71-6.254 6.905-6.631V1.088a1.09 1.09 0 0 1 2.178 0v3.745c2.125.213 4.033.924 5.371 2.003.211.175.42.512.42.876 0 .18-.068.37-.191.535-.252.353-.648.381-.763.381-.237 0-.461-.079-.648-.229-1.134-.889-2.544-1.422-4.189-1.582v10.794c3.794 1.461 6.935 3.036 6.935 7.531 0 3.706-2.722 6.422-6.935 6.919v3.232a1.091 1.091 0 0 1-1.089 1.089"/><path fill="#1B2822" d="M3.256 94.387a.515.515 0 1 0 0 1.031h42.747a.516.516 0 0 0 0-1.031h-1.37V88.1H4.627v6.287H3.256zm42.747 3.771H3.256A3.26 3.26 0 0 1 0 94.902c0-1.306.773-2.435 1.886-2.954V85.36h45.487v6.588a3.262 3.262 0 0 1 1.886 2.954 3.26 3.26 0 0 1-3.256 3.256M4.626 42.612h40.007v-6.285h1.37a.517.517 0 0 0 0-1.032H3.256a.516.516 0 0 0 0 1.032h1.37v6.285zm42.747 2.741H1.886v-6.588A3.26 3.26 0 0 1 0 35.811a3.259 3.259 0 0 1 3.256-3.256h42.747a3.26 3.26 0 0 1 3.256 3.256 3.262 3.262 0 0 1-1.886 2.954v6.588z"/><path fill="#1B2822" d="M4.627 85.36h40.006V45.354H4.627V85.36zm42.746 2.74H1.886V42.612h45.487V88.1z"/><path fill="#1B2822" d="M24.277 76.004a7.605 7.605 0 0 1-7.605-7.605c0-4.201 7.605-15.211 7.605-15.211s7.605 11.01 7.605 15.211c0 4.2-3.405 7.605-7.605 7.605"/><path fill="#FFF" d="M25.599 107.308l3.072-17.703h14.724l3.073 17.703z"/><path fill="#FFF" d="M39.433 107.308l3.072-17.703h15.724l3.072 17.703z"/><path fill="#FFF" d="M33.014 92.574l3.075-17.702h14.723l3.072 17.702z"/><path fill="#FFF" d="M39.433 78.233l3.072-17.702h15.724l3.072 17.702zM41.688 101.008H30.592l1.582-9.083h7.931z"/><path fill="#F6CE45" d="M31.929 99.883h8.421l-1.19-6.834h-6.041l-1.19 6.834zm11.096 2.249h-13.77L31.229 90.8h9.822l1.974 11.332zM46.156 99.883h8.422l-1.191-6.834h-6.041l-1.19 6.834zm11.096 2.249H43.481L45.455 90.8h9.823l1.974 11.332zM60.385 99.883h8.421l-1.19-6.834h-6.041l-1.19 6.834zm11.096 2.249H57.71L59.684 90.8h9.822l1.975 11.332zM39.042 85.805h8.421l-1.19-6.833h-6.04l-1.191 6.833zm11.095 2.248h-13.77l1.975-11.331h9.822l1.973 11.331zM53.27 85.805h8.422l-1.191-6.833H54.46l-1.19 6.833zm11.096 2.248H50.595l1.974-11.331h9.823l1.974 11.331z"/><path fill="#FFF" d="M55.915 73.226H44.819l1.582-9.082h7.931z"/><path fill="#F6CE45" d="M46.156 72.102h8.422l-1.191-6.833h-6.041l-1.19 6.833zm11.096 2.249H43.481l1.974-11.331h9.823l1.974 11.331z"/></svg>