<svg xmlns="http://www.w3.org/2000/svg" viewBox="0 0 43.81 43.81"><path fill="#0C0E0F" d="M21.905 1.874c-11.045 0-20.031 8.986-20.031 20.031s8.986 20.031 20.031 20.031c11.045 0 20.031-8.986 20.031-20.031S32.95 1.874 21.905 1.874m0 41.936C9.827 43.81 0 33.984 0 21.905 0 9.827 9.827 0 21.905 0 33.983 0 43.81 9.827 43.81 21.905c0 12.079-9.827 21.905-21.905 21.905"/><path fill="#0C0E0F" d="M16.435 20.082h8.204c2.227 0 4.331-2.216 4.331-4.559 0-2.2-1.558-4.558-3.875-4.558h-8.66v9.117zm0 12.763h8.66c3.434 0 5.926-2.302 5.926-5.47 0-3.169-2.492-5.47-5.926-5.47h-8.66v10.94zm8.66 1.823h-9.572a.914.914 0 0 1-.911-.912V10.053c0-.501.41-.911.911-.911h9.572c3.408 0 5.698 3.302 5.698 6.381 0 2.013-1.066 3.917-2.622 5.117 2.801 1.075 4.674 3.619 4.674 6.735 0 4.157-3.332 7.293-7.75 7.293"/><path fill="#0C0E0F" d="M19.17 10.053a.915.915 0 0 1-.912-.912V5.496c0-.502.411-.912.912-.912.501 0 .912.41.912.912v3.646a.914.914 0 0 1-.912.911M22.817 10.053a.915.915 0 0 1-.912-.912V5.496c0-.502.411-.912.912-.912.501 0 .912.41.912.912v3.646a.914.914 0 0 1-.912.911M19.17 39.226a.915.915 0 0 1-.912-.912v-3.646c0-.502.411-.912.912-.912.501 0 .912.41.912.912v3.646a.915.915 0 0 1-.912.912M22.817 39.226a.915.915 0 0 1-.912-.912v-3.646c0-.502.411-.912.912-.912.501 0 .912.41.912.912v3.646a.915.915 0 0 1-.912.912"/></svg>