<svg xmlns="http://www.w3.org/2000/svg" viewBox="0 0 756.655 344.375"><path fill="none" stroke="#FFF" stroke-width="2" stroke-linejoin="round" stroke-miterlimit="10" d="M.902 109.37l.856 1.784.985-1.801 1.401-10.55.655-.027.881 5.561 1.162 2.848.806-2.726 1.317-14.962.296-1.034 2.318-2.792 3.966 20.101 1.57-13.841.962-.049 3.844 19.011 1.469-10.536.453-.03 1.146 4.855 1.467-4.371.451-.007 1.518 5.528.365.021 1.923-15.174.579-.03 2.042 11.337 4.553-30.749.808.044 2.623 25.352 1.681-1.306 1.31 7.457 1.377 1.44.672 1.521 1.005 14.077 1.854 13.81.925 1.165.897-1.199 2.288-15.419.91-1.356 2.77 9.162 3.298-23.434 1.562 1.576 1.297-1.978.632-.097 2.521 7.097.965 6.266 4.702 8.388.773-1.842.506.001 1.325 12.734 1.723-1.991 4.606 15.925 3.734 13.426.749-.027 2.685-8.284 3.947-8.849.209-.301 2.757-3.963.808-1.753.697 1.937 6.179 29.886 2.887 6.23 1.092-9.6.504.001 1.014 6.251.528.032 3.264-17.746 1.032 9.019 1.606-2.705 7.252 43.348 1.76-11.378.83-.047 7.176 42.328 1.263-.313 1.387 11.204.792 1.455.786-1.464 1.402-12.96 1.744.721 1.741-19.466.405-.016.434 3.53 1.002 18.787.426 1.742 4.188 5.667 1.423-10.711.634-.036 1.071 6.425.522 3.767.782 1.11.838-1.183.815-12.093.538-.705.761 5.272 2.316 26.49 2.416 27.393 1.033 16.067.503 9.573.799 1.244 1.023-1.294.049-4.671.732-.02 1.078 18.426.38.062 1.629-4.15 4.181 4.061 3.001-28.344.565-.044 1.692 8.074 1.618 13.303.863 1.456.805-1.609 1.025-4.777.552 6.438.956 1.492.695-1.441 1.377-17.326 2.543 23.816.247.031 1.054-4.393.531-.016 1.396 15.812.445.054 1.73-7.597 4.496-39.73 1.774-43.919.892-7.405 1.127 4.081 4.545-46.171.807 7.839 1.884 18.181.302 1.228.914.6.662-.799.039-.717.47-24.598.997-42.862 1.642-28.533.967-1.583.725-1.541.824-28.751.028-25.875 4.342-2.06 1.441-8.499.612-.032 1.087 4.821 1.905 5.438.694 16.444 6.852 31.377 5.725-29.941.627-4.232.535-.036 1.071 5.465.567.046 5.833-22.749.583 7.133 1.846 45.179.745 19.703.815 1.424.756-1.464.617-10.993.545-.047.422 3.38.659 1.172.899-1.173 1.271-17.322.783-9.316.63-.005.854 7.065.101.896 2.4 16.499.702 14.453 2.35 1.105.655 17.547 2.09 25.23.813 1.446.78-1.465 1.204-10.686 1.532 1.867 1.043-3.15.493-.014 1.309 6.907.395.042 2.31-8.423.584-.013 5.508 25.069 2.077-8.392.598.025 1.608 13.069 3.115-2.343 4.233 32.972 3.194-4.961 4.748 33.642.694-.02 1.303-19.272.342.004 2.666 8.532 1.232-1.721.489.005 7.356-43.479 1.334.828 1.377-2.608 1.384 5.404 3.023-5.398 2.745-36.988 1.77-17.468 2.508-6.02 3.647 4.416.861 5.918.669 1.181.891-1.178 1.309-14.237 1.509-8.565 1.37 2.514 3.967.102 1.4-7.519 3.084-38.714 1.677-34.33.653-1.378.041 3.001.859 1.204.994-1.269.93-15.165 1.408-22.388.311-1.105.566.018 1.924 25.457 1.973-.368 5.167 45.586 1.09-.656.326.5 2.184 18.701.696 7.931 1.022 1.322.674-1.351.903-25.127.532-15.367.618-2.535.923-.012 1.128 5.856.905 5.732.905.979.646-1.011.884-3.53.496 6.883.938 18.971 1.889 37.94 2.594 26.29 2.056 4.915 3.156-2.294 2.523 10.338.193-.02 1.382-24.475.429-6.861.111-.708 1.985-10.795.596-13.19.185-1.23.471.064 1.049 1.76.822-2.003 1.415-12.412 1.74-4.188.64.05.237 1.598.965 13.533.795 1.244.715-1.315.525-12.29.531-2.779 2.436 36.689.773.34 2.915-7.648 7.008 39.714 1.116-3.485.443.054 1.462 20.5.182.046 1.504-6.052 3.562 29.203 1.259-2.61.471.01 1.135 7.432 1.418 18.58.806 1.225.799-1.275.699-14.092.982-24.581 1.286-13.284.551-.022.782 5.078 1.849 22.174.57 10.295.992 1.287.817-1.238 1.431-20.935 1.851-6.204.548.027.238 1.658.956 16.072.705 1.514.827-1.588 1.75-20.733.412-.88 4.103 14.149 2.004-10.883.443.017 3.863 22.52.633-.032 3.18-63.444 1.912-.707 1.309-19.132 1.462-10.944.743-1.265.429 5.732 1.044 29.287 1.549 6.396.947 6.741.966 12.084.818 1.22.696-1.334 1.392-23.114 1.591-7.578.859-6.266 1.885-24.534.702-1.91.701 3.209 2.937-2.606 1.387-24.2 1.273-2.201.719-1.247 2.18-15.235.959-10.921.625-.006 3.223 43.562.375.082 1.853-4.972 1.615 2.31.928-.995.363.638.598 7.937.583 10.475.722 1.693.88-1.562 1.646-18.567.834-3.841.62-.012 4.463 17.691.467-.031 1.86-22.51 4.969 14.049 7.447-64.968.701-.075 2.736 15.37 1.399-4.356.515-.033 1.7 7.661.367-.025.584-10.005 1.395-24.2 2.182-5.942 3.246 15.201.714-.029 1.499-6.914.713.007.855 6.302 2.366 13.737 1.065 9.893 2.354 34.835.947 1.297.882-1.384 1.761-13.447.659-.03 1.389 10.893 1.661-6.133.493-.05 1.333 3.533.589.013 4.898-24.802.526.003.805 8.199.959 9.724 2.116 3.308 1.329-1.321.31.557.933 12.084 4.194 7.547.53-.069.765-3.889.439.026 1.111 14.428 1.771-1.018 1.16 7.708 1.821 15.466.788 1.26.749-1.296 1.35-18.404 1.673-3.612.431-1.328 3.051-25.352.739-.976 1.989 6.349.413-.004 2.993-15.359 2.81 17.988.534.095 2.432-6.513.612.037 1.849 7.412.395-.027 3.048-19.385.863-.042 2.333 13.959 3.462 27.024 5.111-37.622.367 3.924 3.695 22.351.338.991 2.729 4.035 1.882 1.414 1.003.979 1.949 3.552 1.973-14.801.759-.036 1.092 6.596 1.641 17.115 1.498 1.896 1.496 1.668 1.76 1.454.463-.282 2.747 16.995 1.241 2.6.712-2.604 1.767-24.72.791-2.343 1.942 7.167 4.014 14.158 2.564 4.533 1.223-3.212.384.01 1.464 5.125.396-.016 1.312-10.138.528-.077 1.284 4.05 1.205-7.044.489-.027 1.374 8.471.38.03 1.257-11.61 10.119 29.073 4.741-14.987 1.602 14.068.225.005 1.934-7.293.594-.072 2.667 4.886 5.02-21.101 3.667 1.236 1.21-5.118.493-.1 2.9 6.815 1.913-5.236 1.736.636.437-1.068 2.799-12.062 1.838-2.162 3.993-5.117 4.127-30.697.426-2.159h1.688l4.282-31.027.538-.024 2.587 16.372.549.007 4.297-24.543.604-.045 1.453 4.347.336.025 1.409-9.052.48-.043 1.16 3.071.369-.014.985-7.529.499.016.622 4.715.712 1.329.834-1.222 1.359-15.14.942-4.609 1.974-10.846L755.662.114"/></svg>