<svg xmlns="http://www.w3.org/2000/svg" viewBox="0 0 101.057 30.902"><path fill="#0C0E0F" d="M95.132 29.496h-.213v-.355h.225c.117 0 .187.004.211.005a.175.175 0 0 1 .107.055.17.17 0 0 1 .04.114.17.17 0 0 1-.031.106.151.151 0 0 1-.08.059 1.116 1.116 0 0 1-.259.016m.447.311a.775.775 0 0 0-.156-.118.452.452 0 0 0 .286-.132.364.364 0 0 0 .093-.259.405.405 0 0 0-.062-.222.319.319 0 0 0-.167-.135 1.013 1.013 0 0 0-.334-.039h-.612v1.409h.292v-.588h.059c.066 0 .115.006.145.018a.19.19 0 0 1 .087.058c.029.027.079.097.154.207l.207.305h.348l-.175-.273a1.715 1.715 0 0 0-.165-.231m-1.936.056l-.263-.961h-.435v1.409h.268l.003-1.109.283 1.109h.283l.284-1.109.001 1.109h.269v-1.409h-.44l-.253.961zm-55.65-12.444c-.259.396-.529.778-.766 1.085a8.068 8.068 0 0 1-.612.714 4.069 4.069 0 0 1-.441.415c-.217.169-.393.266-.571.318a.787.787 0 0 1-.812-.236c-.231-.292-.254-.47-.23-.803a3.14 3.14 0 0 1 .118-.579c.069-.244.168-.539.334-.919.165-.373.392-.835.728-1.413.335-.571.778-1.263 1.305-1.986a30.301 30.301 0 0 1 1.684-2.113 18.862 18.862 0 0 1 1.45-1.496c.393-.366.684-.582.907-.728a2.24 2.24 0 0 1 .497-.269c.226-.088.431-.092.631 0 .342.228.192.638.162.851-.025.089-.054.163-.209.438-.158.27-.451.74-.743 1.211l-3.432 5.51zm-16.168-6.378a4.77 4.77 0 0 1-.088.576 3.48 3.48 0 0 1-.233.69c-.141.33-.367.803-.61 1.279a8.139 8.139 0 0 1-.846-.351 3.56 3.56 0 0 1-.529-.326 2.054 2.054 0 0 1-.322-.296c-.087-.089-.152-.184-.21-.265-.414-.739-.38-1.502.399-2.261.113-.11.243-.211.384-.305.14-.095.293-.181.442-.24.457-.172.887-.343 1.286-.01.43.525.35.989.327 1.509m-3.909 7.014c-.589.79-.842 1.038-1.046 1.234-.209.19-.372.329-.518.43a2.452 2.452 0 0 1-.402.232c-.577.248-1.221.286-1.622-.333-.136-.266-.174-.498-.135-.837a3.74 3.74 0 0 1 .18-.779c.111-.334.278-.753.554-1.291a17.71 17.71 0 0 1 1.148-1.907 28.357 28.357 0 0 1 1.73-2.256c.277.386.577.751.817 1.006.24.254.421.396.695.559.271.16.64.335 1.018.483a81.189 81.189 0 0 1-2.419 3.459m25.057.127c-.53.636-.769.869-.949 1.036a2.776 2.776 0 0 1-.408.332.89.89 0 0 1-.655.171c-.129.006-.317-.153-.295-.356.01-.112-.033-.115.078-.377.062-.143.17-.392.475-.988a123.3 123.3 0 0 1 1.312-2.502l4.44-7.564h-2.829l-.529.642a8.122 8.122 0 0 0-1.048-.542 2.298 2.298 0 0 0-.644-.183 3.884 3.884 0 0 0-.598-.046c-.666.01-1.329.201-2.136.672a11.58 11.58 0 0 0-1.086.763c-.439.338-.97.78-1.962 1.895-.995 1.116-2.451 2.905-3.656 4.355-1.204 1.456-2.162 2.57-2.842 3.296-.686.724-1.091 1.042-1.422 1.282a5.77 5.77 0 0 1-.82.513 2.645 2.645 0 0 1-.612.234c-.483.115-.987.107-1.347-.149-.22-.185-.27-.348-.32-.543-.101-.541-.004-.97.114-1.494.071-.305.179-.664.33-1.062.15-.403.352-.86.626-1.38.271-.523.615-1.111 1.04-1.747.842-1.277 2.061-2.739 3.013-3.638.471-.453.86-.765 1.162-.978.301-.207.515-.321.675-.387a.99.99 0 0 1 .386-.093c.154.004.288.023.42.125.166.151.188.25.21.492.006.107.001.258-.012.412a5.403 5.403 0 0 0-.748.17 2.929 2.929 0 0 0-.488.203c-.13.073-.233.139-.324.205-.63.481-.743 1.09-.724 1.49a.99.99 0 0 0 .331.541c.495.44 1.149.151 1.812-.634.12-.142.246-.311.359-.488a4.997 4.997 0 0 0 .7-1.587c.166-.75.142-1.63-.74-2.289a1.764 1.764 0 0 0-1.052-.307 4.11 4.11 0 0 0-.81.09c-.292.064-.589.16-.927.295-.338.139-.715.319-1.423.883-.706.567-1.747 1.523-2.563 2.219-.822.692-1.421 1.125-1.937 1.446a8.997 8.997 0 0 1-1.37.699 8.482 8.482 0 0 1-1.235.394c.245-.54.468-1.093.637-1.565.171-.476.287-.876.363-1.177.079-.301.114-.513.132-.73.035-.424-.013-.872-.143-1.216a1.954 1.954 0 0 0-.23-.439 1.686 1.686 0 0 0-.683-.57c-.659-.285-1.237-.239-1.944-.068a6.844 6.844 0 0 0-1.24.474c-.47.231-.998.542-1.579.963-.581.417-1.212.94-1.84 1.551a21.306 21.306 0 0 0-1.819 2.011c-1.116 1.417-1.963 2.88-2.477 4.104a11.801 11.801 0 0 0-.569 1.655c-.129.51-.206.963-.245 1.33a4.412 4.412 0 0 0-.005.904c.025.255.076.479.148.677.072.205.164.385.279.542.116.158.251.297.413.414.163.116.348.207.564.273.214.062.456.102.727.102.27 0 .571-.04.881-.109.311-.073.635-.184.985-.349a7.706 7.706 0 0 0 1.138-.678c.421-.302.884-.689 1.425-1.213a22.69 22.69 0 0 0 1.938-2.201 55.506 55.506 0 0 0 2.581-3.656l2.168-.515a52.15 52.15 0 0 0-1.583 3.111c-.347.761-.441 1.084-.515 1.437-.236 1.105-.307 2.231.198 3.106.153.267.351.5.589.7.241.195.521.355.852.458a3.34 3.34 0 0 0 1.083.159c.981-.008 1.849-.225 3.016-.969.399-.254.849-.578 1.465-1.128a30.96 30.96 0 0 0 2.138-2.134 24.733 24.733 0 0 0-.112 1.874c-.001.458.03.667.064.833.035.168.07.295.113.407a1.7 1.7 0 0 0 .141.28c.193.285.395.395.626.483.789.209 1.422.1 2.23-.271a6.406 6.406 0 0 0 1.02-.619 17.73 17.73 0 0 0 1.42-1.188 7.622 7.622 0 0 0-.038.792c.005.209.023.339.047.447.037.181.077.306.186.459.277.344.576.396.958.453.154.019.345.031.538.031.755-.008 1.521-.263 2.438-.862.478-.311.995-.733 1.556-1.29a17.876 17.876 0 0 0 1.804-2.141c.639-.872 1.31-1.93 1.919-3.017l-.58-.13a83.731 83.731 0 0 1-2.15 2.684M71.128 2.567a10.846 10.846 0 0 1-.341 1.763 18.756 18.756 0 0 1-.715 2.104 17.939 17.939 0 0 1-.904 1.889c-.306.541-.593.972-.858 1.326-.683.899-1.266 1.392-1.882 1.678-.641.272-1.231.31-1.747-.022a.94.94 0 0 1-.344-.491c-.106-.638.079-1.181.348-1.877a7.17 7.17 0 0 1 .471-.924c.2-.341.456-.715.792-1.138.336-.422.752-.894 1.275-1.4a18.813 18.813 0 0 1 1.831-1.569 16.79 16.79 0 0 1 2.074-1.339m-7.792 17.134c.165-.65.269-1.263.323-1.878.041-.458.008-.919-.108-1.258a1.875 1.875 0 0 0-.2-.409 1.53 1.53 0 0 0-.657-.552 2.044 2.044 0 0 0-.513-.156 3.397 3.397 0 0 0-.69-.061 5.22 5.22 0 0 0-.863.082c-1.2.227-2.461.873-3.775 2.328-.334.375-.669.805-1 1.296-.328.493-.65 1.049-.948 1.661-.3.605-.581 1.27-.821 1.964a18.806 18.806 0 0 0-.593 2.157 41.875 41.875 0 0 1 1.869-1.478 9.616 9.616 0 0 1 1.207-.769c.404-.218.914-.469 1.43-.705.179-.815.458-1.639.789-2.325.151-.324.312-.606.466-.848.154-.246.307-.446.455-.622.417-.497.809-.772 1.194-.933.571-.189 1.019-.269 1.49.176.202.254.245.461.273.727-.003.974-.22 1.85-.583 2.855a11.85 11.85 0 0 1-.634 1.401c-.257.482-.57.988-.947 1.511a15.849 15.849 0 0 1-2.933 3.08c-1.089.87-2.224 1.489-3 1.732a3.262 3.262 0 0 1-.936.171 2.387 2.387 0 0 1-.765-.113 2.948 2.948 0 0 1-1.375-.962 3.716 3.716 0 0 1-.472-.788 3.544 3.544 0 0 1-.275-1.726c.079-.661.24-1.309.662-2.423a45.476 45.476 0 0 1 2.028-4.486 68.63 68.63 0 0 1 3.189-5.455 51.283 51.283 0 0 1 3.161-4.352 33.774 33.774 0 0 1 2.6-2.884 22.995 22.995 0 0 1 2.07-1.817 14.694 14.694 0 0 1 1.647-1.092 9.716 9.716 0 0 1 1.348-.641c1.087-.432 2.073-.456 3.177-.439A19.96 19.96 0 0 0 68.2 3.304c-1.488 1.165-2.584 2.384-3.297 3.422-.36.528-.636 1.014-.855 1.47a7.684 7.684 0 0 0-.48 1.286 7.29 7.29 0 0 0-.21 1.079 2.844 2.844 0 0 0 0 .701c.023.192.073.357.133.505.064.147.141.27.239.382.097.113.214.21.346.286.136.081.294.141.482.189.184.048.398.071.611.071.451 0 .91-.119 1.465-.374.288-.139.606-.324.95-.575.346-.25.722-.561 1.111-.944.385-.384.78-.833 1.156-1.323.375-.491.732-1.029 1.036-1.563.59-1.029 1.007-2.071 1.229-2.97.111-.434.175-.828.211-1.226.008-.097.011-.197.012-.392a37.959 37.959 0 0 1-.013-.695 4.055 4.055 0 0 1 .019-.452c.978-.013 1.947.103 2.842.344.899.241 1.726.609 2.933 1.366 1.203.76 2.785 1.909 4.289 3.166l2.853-2.951a27.57 27.57 0 0 0-2.796-2.13A14.593 14.593 0 0 0 80.198.743a10.032 10.032 0 0 0-1.784-.572c-.826-.176-1.488-.214-2.402-.116-.313.035-.632.089-1.275.266-.639.181-1.593.492-2.536.836a11.949 11.949 0 0 0-1.427-.808 3.198 3.198 0 0 0-.883-.279c-.946-.156-1.811-.046-2.974.289-.845.253-1.857.648-3.048 1.272-1.193.628-2.56 1.485-3.973 2.544a40.91 40.91 0 0 0-4.195 3.636 40.901 40.901 0 0 0-3.578 4.049 34.218 34.218 0 0 0-2.593 3.851 26.992 26.992 0 0 0-1.678 3.405 22.16 22.16 0 0 0-.973 2.98c-.23.93-.371 1.788-.433 2.481a7.127 7.127 0 0 0 .017 1.726c.068.502.195.989.384 1.443.192.451.44.878.748 1.263.309.387.685.726 1.102 1.015.42.277.894.501 1.392.651 1.042.298 2.023.318 3.166-.029.592-.177 1.27-.45 2.007-.854 1.497-.808 3.182-2.167 4.477-3.641 1.336-1.5 2.288-3.058 2.896-4.442.304-.704.531-1.369.701-2.008m23.402 5.044a16.173 16.173 0 0 1-1.096 1.498 6.569 6.569 0 0 1-.781.833 2.165 2.165 0 0 1-.565.373c-.353.153-.739.18-.983-.039-.205-.251-.18-.442-.157-.803.017-.161.052-.376.105-.619.058-.246.138-.523.251-.835.111-.313.26-.661.461-1.068.202-.406.458-.866.779-1.381.324-.514.714-1.081 1.165-1.665.454-.58.968-1.188 1.46-1.714.5-.528.976-.984 1.376-1.323.4-.345.718-.572.965-.724.248-.152.421-.231.557-.282a.952.952 0 0 1 .338-.07c.179.001.313.001.448.084.2.185.09.397.025.647-.044.148-.12.337-.228.561a8.114 8.114 0 0 1-.426.758l-3.694 5.769zm-13.957-6.168a5.241 5.241 0 0 1-.083.552c-.036.184-.084.362-.247.741-.159.38-.44.962-.742 1.534a6.535 6.535 0 0 1-.864-.35 2.292 2.292 0 0 1-.748-.566 1.625 1.625 0 0 1-.313-.537c-.267-.966-.118-1.961 1.002-2.741.336-.204.664-.295.967-.288.309.004.538.018.786.237.237.269.249.498.269.869 0 .152-.01.353-.027.549m-2.481 5.46c-.385.555-.78 1.072-1.164 1.519-.379.452-.752.837-1.064 1.129-.316.297-.581.51-.797.654-.214.145-.38.228-.506.282a.78.78 0 0 1-.322.074c-.299-.005-.59-.137-.828-.466a1.493 1.493 0 0 1-.191-.369c-.113-.329-.145-.6-.105-1.032a6.333 6.333 0 0 1 .513-1.913c.53-1.236 1.508-2.547 2.805-3.657.126.289.291.568.548.846.117.131.259.255.432.389.171.13.377.256.68.399a9.07 9.07 0 0 0 1.106.415c-.345.6-.718 1.181-1.107 1.73m23.29-.842a40.672 40.672 0 0 1-1.567 2.013c-.455.55-.803.912-1.083 1.19a6.98 6.98 0 0 1-.669.587 2.884 2.884 0 0 1-.429.283c-.238.122-.4.181-.626.142-.222-.054-.213-.251-.205-.371.034-.094-.04.037.275-.566.234-.444.683-1.286 1.14-2.128l5.272-8.97h-2.594l-.893.766a7.535 7.535 0 0 0-.905-.531 2.015 2.015 0 0 0-.559-.192 2.552 2.552 0 0 0-.492-.043c-.894.004-1.744.294-2.688.854a9.886 9.886 0 0 0-.924.634c-.337.263-.714.593-1.168 1.016-.46.425-.994.949-1.939 2.134-.946 1.186-2.304 3.027-3.26 4.286-.951 1.263-1.504 1.951-1.893 2.374-.378.429-.589.597-.758.719a1.894 1.894 0 0 1-.4.225.778.778 0 0 1-.419.058c-.242-.013-.525-.37-.565-.616-.09-.464-.038-.672.128-1.382.099-.418.27-1.037.529-1.828.253-.791.596-1.753.962-2.705 2.008-1.293 3.959-2.714 5.45-3.949a27.062 27.062 0 0 0 3.61-3.549 44 44 0 0 0 3.18-4.302l-1.192.13a33.795 33.795 0 0 1-2.593 3.257 41.725 41.725 0 0 1-3.356 3.343 43.962 43.962 0 0 1-3.983 3.141 89.368 89.368 0 0 1 2.813-4.923 83.75 83.75 0 0 1 3.048-4.605 61.931 61.931 0 0 1 2.954-3.833 36.275 36.275 0 0 1 2.389-2.59c.661-.639 1.174-1.06 1.573-1.346a4.87 4.87 0 0 1 .9-.527c.217-.087.366-.121.516-.121.07 0 .142.023.208.07.279.246.23.386.18.658-.009.076-.032.156-.154.466-.122.306-.345.84-.58 1.368l1.074-.125c.198-.312.38-.635.492-.861.113-.221.15-.339.183-.484.033-.137.058-.295.071-.453.038-.525-.059-1.034-.535-1.46a1.373 1.373 0 0 0-.439-.248c-.552-.172-1.05-.073-1.685.099a7.57 7.57 0 0 0-1.56.661c-.605.328-1.313.79-2.165 1.466a29.629 29.629 0 0 0-2.986 2.761 51.033 51.033 0 0 0-3.712 4.377 69.972 69.972 0 0 0-3.885 5.68 69.34 69.34 0 0 0-3.371 6.154h-1.417c.279-.587.542-1.188.71-1.618.163-.437.237-.697.295-.96.163-.72.197-1.523-.074-2.16a1.987 1.987 0 0 0-.307-.51c-.467-.533-.876-.642-1.445-.653a3.785 3.785 0 0 0-.819.12 5.179 5.179 0 0 0-1.081.397 9.553 9.553 0 0 0-1.392.825c-.522.37-1.102.837-1.716 1.425a22.271 22.271 0 0 0-1.874 2.037c-1.254 1.552-2.256 3.232-2.822 4.516a12.8 12.8 0 0 0-.635 1.736 8.06 8.06 0 0 0-.256 1.325c-.032.375-.024.7.024.988.044.29.125.548.241.774.116.231.265.432.444.597a1.9 1.9 0 0 0 .624.383c.237.09.5.131.768.135.551.002 1.097-.138 1.774-.475.348-.18.733-.416 1.176-.748.442-.34.934-.766 1.501-1.348a23.73 23.73 0 0 0 1.958-2.309 46.597 46.597 0 0 0 2.343-3.45h1.415a73.83 73.83 0 0 0-1.169 3.247c-.255.786-.324 1.118-.38 1.437-.103.604-.177 1.191-.126 1.701.026.234.075.447.144.643.07.195.161.367.274.528.114.151.247.294.406.412.156.112.336.202.534.266.2.059.419.096.651.098.781-.006 1.534-.272 2.467-.918.35-.246.746-.562 1.223-1.011a22.625 22.625 0 0 0 1.568-1.661c-.034.385-.048.77-.041 1.092.007.319.032.569.065.779.035.203.08.371.128.518.048.144.103.261.161.363.126.22.261.356.404.463.288.188.526.25.91.246a3.38 3.38 0 0 0 .556-.058c.405-.08.786-.22 1.272-.514.246-.151.521-.345.905-.681.379-.331.87-.811 1.337-1.308a10.46 10.46 0 0 0-.042.977c.006.268.032.45.06.592.027.153.056.266.097.366.093.294.397.603.642.667.785.209 1.428.031 2.3-.389.344-.18.73-.416 1.155-.744.423-.333.892-.755 1.423-1.316a20.241 20.241 0 0 0 1.739-2.145 32.938 32.938 0 0 0 1.906-3.011l-.719.13zm3.49-20.152c-1.266.752-2.393 1.244-3.69 1.57a16.418 16.418 0 0 1-4.206.496l-2.643 3.204c.218.034.432.059.615.074.357.043.753.06 1.261.055a11.13 11.13 0 0 0 2.916-.391c2.029-.525 4.304-1.702 6.067-3.207a15.055 15.055 0 0 0 2.248-2.348 11.03 11.03 0 0 0 1.409-2.389c-1.307 1.153-2.71 2.177-3.977 2.936m-44.571 4.91h-3.064l-1.547 2.82h2.946l1.665-2.82zM35.628 25.821c-1.392-.301-3.037-.467-4.697-.45-1.479-.081-2.977.035-5.677.649-2.703.62-6.609 1.736-9.2 2.375-2.593.636-3.871.798-5.146.824-.626 0-1.249-.054-1.795-.154a6.51 6.51 0 0 1-1.431-.42 5.006 5.006 0 0 1-1.066-.594 4.652 4.652 0 0 1-.784-.729 4.138 4.138 0 0 1-.56-.846 4.775 4.775 0 0 1-.371-.975 6.142 6.142 0 0 1-.183-1.142 7.917 7.917 0 0 1 .015-1.294c.065-.67.201-1.338.481-2.234.282-.901.706-2.03 1.359-3.408a47.867 47.867 0 0 1 2.531-4.599A52.159 52.159 0 0 1 12.293 8.3a35.775 35.775 0 0 1 2.925-3.278 21.267 21.267 0 0 1 2.281-1.965 11.285 11.285 0 0 1 1.679-1.033c.477-.239.9-.388 1.275-.485a4.107 4.107 0 0 1 1.042-.141c.217.006.383.016.556.159.163.175.174.318.183.577.005.112-.001.267-.014.417a6.85 6.85 0 0 0-1.474.972c-.196.17-.34.319-.458.45-.299.345-.487.667-.523 1.008-.058.248.217.698.412.819.602.47 1.354.156 2.103-.691.147-.17.292-.371.425-.589.132-.219.252-.456.349-.692.369-.954.581-1.938.034-2.776a1.926 1.926 0 0 0-.486-.497 2.298 2.298 0 0 0-.7-.326c-.268-.078-.572-.122-1.03-.108a9.01 9.01 0 0 0-1.752.228c-.688.159-1.454.411-2.319.794-.863.388-1.82.904-2.884 1.612a30.909 30.909 0 0 0-3.434 2.679 39.818 39.818 0 0 0-3.584 3.695c-2.328 2.727-4.151 5.649-5.195 7.938a21.404 21.404 0 0 0-1.171 3.106c-.26.913-.408 1.71-.479 2.507-.095 1.054-.067 2.104.108 2.984.084.418.193.795.331 1.151.137.356.299.682.492.983.193.308.418.586.677.85a5.4 5.4 0 0 0 .914.735c.353.228.756.43 1.243.615a8.7 8.7 0 0 0 1.755.453c.7.116 1.54.178 2.381.178 1.32.041 2.654-.06 4.896-.551 2.243-.493 5.394-1.363 7.645-1.851 2.25-.49 3.596-.594 4.926-.547.84-.004 1.676.057 2.349.174.67.11 1.177.27 1.647.48.47.201.906.455 1.375.841.471.382.983.893 1.442 1.454 1.474-.992 2.984-1.578 4.119-1.766a8.253 8.253 0 0 1 1.591-.159c.215.003.427.024.68.059.251.032.54.087 1.352.35.812.27 2.151.752 3.476 1.257-1.296-1.22-2.723-2.302-4.007-3.06a12.115 12.115 0 0 0-3.818-1.489"/></svg>