<svg xmlns="http://www.w3.org/2000/svg" viewBox="0 0 51.644 45.177"><path fill="#0C0E0F" d="M46.049 39.618c-8.05 0-14.176-4.672-15.987-12.195l-.064-.267H26.35a1.025 1.025 0 0 1 0-2.048h3.3l-.04-.384a21.447 21.447 0 0 1-.118-2.247c0-.979.071-2 .225-3.213l.049-.392H26.35a1.025 1.025 0 0 1 0-2.049h3.939l.076-.245C32.532 9.539 38.231 5.336 45.61 5.336c1.781 0 3.864.347 5.437.906.3.1.597.402.597.792 0 .14-.037.284-.11.429-.142.352-.432.539-.809.539-.116 0-.214-.026-.351-.062l-.1-.026c-1.388-.481-2.993-.74-4.615-.74-6.079 0-10.943 3.433-13.009 9.184l-.167.465h14.785a1.026 1.026 0 0 1 0 2.049H31.947l-.048.291a20.014 20.014 0 0 0-.278 3.314c0 .745.042 1.525.122 2.318l.032.313h15.493c.565 0 1.025.46 1.025 1.024 0 .565-.46 1.024-1.025 1.024h-15.07l.131.447c1.848 6.278 7.18 10.178 13.914 10.178 1.566 0 2.847-.182 3.914-.555.151-.036.319-.078.471-.078.351 0 .591.167.755.526.027.091.066.206.066.295 0 .356-.266.705-.505.794-1.456.502-3.473.855-4.895.855M8.848 7.913c-3.898.457-6.225 2.766-6.225 6.176 0 4.121 3.165 5.782 6.132 7.016l.482.2V7.867l-.389.046zm2.438 30.044l.405-.068c3.853-.642 6.246-3.128 6.246-6.488 0-3.991-2.963-5.824-6.165-7.209l-.486-.21v13.975zm-1.025 7.22a1.025 1.025 0 0 1-1.024-1.024v-4.329l-.323-.023C5.21 39.533 1.779 37.967.172 35.81.063 35.664 0 35.442 0 35.2c0-.241.088-.473.235-.619.169-.17.418-.283.62-.283.223 0 .524.139.716.33 1.773 1.857 4.5 3.119 7.286 3.372l.38.034V23.159l-.22-.086C4.208 21.159.529 19.283.529 14.089c0-4.409 3.294-7.555 8.391-8.015l.317-.028V1.024a1.025 1.025 0 0 1 2.049 0v5.037l.313.031c2.613.262 4.954 1.132 6.589 2.45.19.158.4.49.4.834a.806.806 0 0 1-.172.466c-.226.317-.579.341-.683.341a.942.942 0 0 1-.599-.213c-1.487-1.165-3.325-1.86-5.466-2.069l-.382-.037v14.233l.223.086c4.662 1.794 8.522 3.723 8.522 9.17 0 4.485-3.313 7.774-8.438 8.379l-.307.036v4.385c0 .565-.46 1.024-1.025 1.024"/></svg>