<svg xmlns="http://www.w3.org/2000/svg" viewBox="0 0 97.364 19.013"><path fill="#0C0E0F" d="M54.105 14.231c-.17 1.204-1.129 1.836-2.267 1.747a2.655 2.655 0 0 1-.773-.171c-.918-.527-1.195-1.408-1.276-1.962l-.001.001c-.063-.857-.131-2.649.287-3.495.355-.65.974-1.003 1.796-1.03 1.166-.039 2.049.54 2.223 1.724.154 1.044.161 2.143.011 3.186m-.579-7.912c-1.463-.156-2.729.287-3.799 1.574V0l-3.875.469v18.269h3.875v-1.085c.522.374 1.031.823 1.625 1.036 2.258.809 5.235.149 6.277-2.871.668-1.937.651-3.923.148-5.882-.559-2.177-2.007-3.378-4.251-3.617M67.423 14.035c-.013.08-.026.16-.045.239-.257 1.144-1.087 1.762-2.194 1.71-1.191-.054-2.007-.75-2.122-1.939a14.849 14.849 0 0 1-.017-2.625c.113-1.373.971-2.123 2.258-2.098 1.059.021 1.812.62 2.081 1.638.244 1.023.063 2.842.039 3.075m-.164-7.491a7.75 7.75 0 0 0-4.05.002c-2.012.536-3.36 1.809-3.795 3.834-.237 1.104-.284 2.279-.221 3.412.143 2.592 1.745 4.438 4.233 5.011.035.009.071.015.107.023h-.001l.018.004c.096.019.191.036.288.051.032.003.065.005.096.009h.003c.121.022.265.038.417.05.487.052 1.107.089 1.624.028a.015.015 0 0 0 .008-.002c.027 0 .053 0 .08-.002 2.568-.133 4.517-1.753 5.086-4.237a9.223 9.223 0 0 0 .01-4.096c-.472-2.139-1.77-3.515-3.903-4.087M9.089 6.48H6.323V4.642c.202-1.739 3.074-1.409 3.074-1.409l.001-.119-.001-.013V.244h-.002C9.296.221 3.682-1.111 2.567 3.162c0 0 0 .002-.002.003a.268.268 0 0 1-.007.027c-.175.535-.163 2.981-.161 3.288H0v3.271h2.546v8.898h3.707V9.752h2.836l.319-3.272h-.319zM17.612 14.213c-.121 1.134-1.038 1.814-2.122 1.771-1.111-.042-1.846-.637-2.086-1.703-.287-1.516.049-3.318.078-3.464.29-1.017 1.03-1.521 2.116-1.495 1.067.024 1.889.655 2.009 1.76a14.63 14.63 0 0 1 .005 3.131m.318-6.168a4.975 4.975 0 0 0-.129-.139l-.017-.018-.092-.093c-.873-.888-1.202-1.108-1.886-1.31-2.63-.775-5.19.602-6 3.248-.498 1.625-.506 3.298-.214 4.945.631 3.565 3.283 4.759 6.109 4.17.867-.18 1.512-.72 2.11-1.472 0 0 .054-.066.119-.194v1.568h3.617V6.495H17.93v1.55zM32.592 17.872a48.013 48.013 0 0 0-.544-1.804l-.174-.651s-4.532 2.176-5.239-1.958a8.865 8.865 0 0 1 .048-2.06c.177-1.271.952-1.952 2.185-2.069a4.902 4.902 0 0 1 1.263.051c.562.095 1.11.264 1.725.415.214-.653.432-1.3.636-1.951.032-.102.059-.19.08-.269l.102-.392a.462.462 0 0 0-.17-.158c-.104-.087-.282-.159-.559-.261a6.873 6.873 0 0 0-.334-.111c-.099-.032-.164-.051-.164-.051-1.191-.34-2.413-.366-3.655-.235-2.617.276-4.394 1.821-4.887 4.371a9.934 9.934 0 0 0 .051 4.045c.444 2.015 1.666 3.317 3.652 3.9 1.295.379 2.623.398 3.944.192.556-.087 1.353-.375 1.925-.58l.217-.076-.102-.348zM41.039 11.406h-4.187c.021-.833.126-1.607.866-2.078.786-.5 1.654-.519 2.463-.071.817.452.881 1.267.858 2.149m3.485 1.671c-.017-.848-.006-1.701-.126-2.535-.331-2.286-1.723-3.733-3.974-4.111-.859-.143-1.767-.124-2.64-.041-2.389.228-4.203 1.716-4.575 3.956a14.286 14.286 0 0 0-.072 4.165c.276 2.052 1.275 3.359 3.004 3.987h.001c.008 0 .015.002.023.003l-.001.001c.789.236 4.652 1.246 8.056-.465l-.136-.501-.005.001c-.158-.668-.347-1.33-.526-1.993l-.019-.065s-.071.026-.196.066h-.009a6.813 6.813 0 0 0-.442.134l-.081.025c-.515.145-1.252.324-2.03.424a10.63 10.63 0 0 1-1.979.012c-1.081-.179-1.908-.758-1.869-2.127h.618l6.359-.001h.152v.001s.455-.006.474-.011v-.134l-.007-.791zM97.364 6.622h-4.11l-3.57 5.581V.011L85.809.48v18.27h3.875v-5.591l3.57 5.599h4.11L93.49 12.68zM80.638 14.033a3.73 3.73 0 0 1-.044.239c-.258 1.144-1.088 1.762-2.195 1.711-1.19-.056-2.006-.751-2.121-1.94a14.754 14.754 0 0 1-.018-2.625c.114-1.373.972-2.124 2.26-2.098 1.056.02 1.811.62 2.08 1.637.243 1.022.063 2.843.038 3.076m-.163-7.491a7.753 7.753 0 0 0-4.051.002c-2.011.536-3.359 1.809-3.794 3.833-.237 1.105-.284 2.28-.221 3.413.142 2.591 1.745 4.438 4.232 5.011.036.008.072.014.108.023h-.001l.017.003c.096.019.193.037.289.051l.096.008.003.001c.121.023.265.039.417.051.487.052 1.108.089 1.624.028l.008-.002c.028 0 .053 0 .079-.002 2.569-.133 4.518-1.753 5.087-4.237a9.238 9.238 0 0 0 .011-4.096c-.474-2.139-1.771-3.516-3.904-4.087"/></svg>