<svg xmlns="http://www.w3.org/2000/svg" viewBox="0 0 91.952 48.344"><path fill="#0C0E0F" d="M39.038 40.096v7.903H37.48l-.526-1.03c-.138.251-.39.503-.757.709-.365.206-.709.321-1.052.321h-1.512c-.504 0-.939-.161-1.283-.481-.367-.298-.55-.665-.55-1.1V34.507c0-.526.183-.962.55-1.328a1.766 1.766 0 0 1 1.283-.526h3.344c.573 0 1.077.159 1.466.503.388.343.595.757.595 1.283v3.55h-3.069v-2.313c0-.366-.183-.55-.549-.55-.367 0-.551.184-.551.55v9.275c0 .162.046.299.161.414.115.114.228.16.39.16.366 0 .549-.183.549-.574v-1.786c0-.251-.047-.435-.114-.504-.092-.067-.252-.091-.459-.091v-2.474h3.642zM41.898 32.653L40.02 47.999h3.001l.205-2.955h1.329l.207 2.955h3l-1.878-15.346h-3.986zm2.474 9.803h-.962l.504-6.688.458 6.688zM54.212 32.652v2.474l-2.863 10.398h2.863v2.475h-5.909v-1.924l3.001-10.949h-2.75v-2.474zM55.504 47.912h3.07v-5.176h2.428c.481 0 .893-.183 1.237-.527.343-.343.504-.756.504-1.238v-6.802c0-.458-.161-.848-.481-1.145a1.668 1.668 0 0 0-1.168-.458h-5.59v15.346zm3.07-12.872h.55c.114 0 .229.044.366.16a.567.567 0 0 1 .184.389v4.123a.489.489 0 0 1-.16.367.568.568 0 0 1-.39.184h-.55V35.04zM67.054 47.912v-5.84h.55c.114 0 .229.045.366.16a.56.56 0 0 1 .184.389v5.291h3.069v-5.634c0-.459-.092-.847-.298-1.192-.205-.343-.458-.549-.779-.618.321-.045.574-.229.779-.526.206-.298.298-.619.298-1.009v-4.672c0-.48-.137-.893-.435-1.214-.299-.32-.642-.481-1.077-.481h-5.727v15.346h3.07zm0-12.872h.55c.114 0 .229.044.366.16a.563.563 0 0 1 .184.389v3.093a.491.491 0 0 1-.16.366.565.565 0 0 1-.39.183h-.55V35.04zM79.973 34.307c0-.482-.183-.893-.527-1.238-.343-.342-.779-.503-1.282-.503H74.5c-.505 0-.916.161-1.261.503a1.678 1.678 0 0 0-.504 1.238v11.865c0 .503.184.916.527 1.236.344.345.756.504 1.238.504h3.664c.503 0 .939-.159 1.282-.504.344-.343.527-.755.527-1.236V34.307zm-4.169 1.281c0-.366.184-.549.551-.549.365 0 .549.183.549.549v9.277c0 .389-.184.573-.549.573a.504.504 0 0 1-.39-.161.554.554 0 0 1-.161-.412v-9.277zM85.563 32.565l1.122 7.903 1.145-7.903h4.122v15.347H88.86v-8.726l-1.26 8.726h-1.809l-1.214-8.726-.045 8.726H81.44V32.565zM19.214 14.823c.332-4.405 1.661-8.369 3.71-12.347l.02.017c2.358 4.254 3.595 8.425 3.827 13.257.115 2.127-.097 4.195-.541 6.281.096-2.146-.02-4.154-.407-6.242-.521-2.898-1.525-5.489-2.879-8.116l-.02-.021c-1.196 2.377-2.105 4.715-2.665 7.286-.521 2.397-.638 4.62-.638 7.093-.348-2.415-.58-4.776-.407-7.208m3.73 16.018v-.017a12.73 12.73 0 0 1-1.41-5.798c0-1.971.483-4.04 1.41-5.778v-.02c.89 1.836 1.412 3.749 1.412 5.798 0 2.107-.522 3.922-1.412 5.815m0 1.161v.02c3.326-4.967 5.006-10.011 5.025-15.982 0-5.933-1.798-11.09-5.025-16.04h-.02c-2.917 4.658-4.77 9.526-4.946 14.958a28.598 28.598 0 0 0 4.966 17.044"/><path fill="#0C0E0F" d="M17.843 37.895c.967-.947 1.874-1.43 3.247-1.295 2.203.212 3.613 1.527 3.729 3.71.213 4.174-5.314 6.707-8.771 6.513-5.006-.252-8.33-3.478-9.122-8.076-.482-2.804.558-5.877 2.532-8.001 1.949-2.088 4.598-2.919 7.341-2.976V15.228C7.427 15.228.51 21.876.026 30.978-.496 41.123 6.867 48 16.258 48.33c4.986.193 8.715-1.681 12.137-4.907V32.619H17.843v5.276z"/></svg>