<svg xmlns="http://www.w3.org/2000/svg" viewBox="0 0 52.335 52.82"><path fill="#0C0E0F" d="M36.307 5.828h2.929l-1.457-3.557-1.472 3.557zm-.671 1.643l-.886 2.157a.62.62 0 0 1-.585.4h-.515a.549.549 0 0 1-.514-.757L36.879.4c.1-.243.342-.4.6-.4h.685c.257 0 .5.157.6.4l3.744 8.871a.548.548 0 0 1-.515.757h-.614a.62.62 0 0 1-.586-.4l-.886-2.157h-4.271zM50.592.556c0-.285.243-.528.529-.528h.686c.285 0 .528.243.528.528v5.329c0 3.057-1.871 4.3-3.971 4.3-2.486 0-4.257-1.471-4.257-4.4V.556c0-.285.242-.528.528-.528h.7c.286 0 .528.243.528.528v4.857c0 1.872.772 3.129 2.501 3.129 1.514 0 2.228-1.071 2.228-3.014V.556zM1.984 51.152h10.837l-1.537-8.827H3.521l-1.537 8.827zM0 52.82l2.119-12.163h10.568l2.118 12.163H0zM18.423 51.152H29.26l-1.537-8.827H19.96l-1.537 8.827zm-1.984 1.668l2.119-12.163h10.568l2.119 12.163H16.439zM34.863 51.152H45.7l-1.537-8.827H36.4l-1.537 8.827zm-1.984 1.668l2.119-12.163h10.567l2.119 12.163H32.879zM10.203 34.886h10.838l-1.537-8.826h-7.763l-1.538 8.826zm-1.984 1.667l2.12-12.162h10.567l2.118 12.162H8.219zM26.643 34.886h10.838l-1.538-8.826H28.18l-1.537 8.826zm-1.984 1.667l2.119-12.162h10.568l2.119 12.162H24.659zM18.423 19.052H29.26l-1.537-8.826H19.96l-1.537 8.826zm-1.984 1.668l2.119-12.162h10.568l2.119 12.162H16.439z"/></svg>