<?xml version="1.0" encoding="utf-8"?>
<!-- Generator: Adobe Illustrator 18.0.0, SVG Export Plug-In . SVG Version: 6.00 Build 0)  -->
<!DOCTYPE svg PUBLIC "-//W3C//DTD SVG 1.1//EN" "http://www.w3.org/Graphics/SVG/1.1/DTD/svg11.dtd">
<svg version="1.1" id="Слой_1" xmlns="http://www.w3.org/2000/svg" xmlns:xlink="http://www.w3.org/1999/xlink" x="0px" y="0px"
	 viewBox="0 0 19.645 12.045" enable-background="new 0 0 19.645 12.045" xml:space="preserve">
<path fill="#52A962" d="M0.777,11.268h16.537V2.331H0.777V11.268z M18.091,12.045H0V1.554h18.091V12.045z"/>
<polygon fill="#52A962" points="19.645,10.103 18.868,10.103 18.868,0.777 1.942,0.777 1.942,0 19.645,0 "/>
<path fill="#52A962" d="M8.812,4.508c-1.01,0-1.865,1.088-1.865,2.409c0,1.321,0.816,2.409,1.865,2.409
	c1.049,0,1.865-1.088,1.865-2.409C10.677,5.596,9.822,4.508,8.812,4.508 M8.812,10.103c-1.438,0-2.642-1.437-2.642-3.186
	S7.335,3.73,8.812,3.73c1.477,0,2.642,1.438,2.642,3.187C11.415,8.666,10.25,10.103,8.812,10.103"/>
<rect x="1.554" y="3.108" fill="#52A962" width="2.331" height="0.777"/>
<rect x="1.554" y="9.714" fill="#52A962" width="2.331" height="0.777"/>
<rect x="14.205" y="3.108" fill="#52A962" width="1.943" height="0.777"/>
<rect x="14.205" y="9.714" fill="#52A962" width="1.943" height="0.777"/>
</svg>
