<svg xmlns="http://www.w3.org/2000/svg" viewBox="0 0 17.991 14.666"><path fill="#0D0F0F" d="M16.752 10.555a.844.844 0 0 1-.842.843h-.37V7.163h.37c.464 0 .842.378.842.842v2.55zm-14.301.843H2.08a.843.843 0 0 1-.841-.843v-2.55c0-.464.377-.842.841-.842h.371v4.235zM15.91 5.925h-.402C15.195 2.606 12.395 0 8.996 0c-3.4 0-6.201 2.606-6.514 5.925H2.08C.933 5.925 0 6.858 0 8.005v2.55c0 1.147.933 2.081 2.08 2.081h.99a.619.619 0 0 0 .619-.619V6.544a5.312 5.312 0 0 1 5.306-5.306 5.312 5.312 0 0 1 5.306 5.306v5.473a.844.844 0 0 1-.842.843h-1.955a1.186 1.186 0 0 0-1.008-.568c-.654 0-1.187.532-1.187 1.187a1.184 1.184 0 1 0 2.195.619h1.955c.93 0 1.711-.618 1.976-1.462h.475a2.084 2.084 0 0 0 2.081-2.081v-2.55c0-1.147-.934-2.08-2.081-2.08"/></svg>