<?xml version="1.0" encoding="utf-8"?>
<!-- Generator: Adobe Illustrator 18.0.0, SVG Export Plug-In . SVG Version: 6.00 Build 0)  -->
<!DOCTYPE svg PUBLIC "-//W3C//DTD SVG 1.1//EN" "http://www.w3.org/Graphics/SVG/1.1/DTD/svg11.dtd">
<svg version="1.1" id="Слой_1" xmlns="http://www.w3.org/2000/svg" xmlns:xlink="http://www.w3.org/1999/xlink" x="0px" y="0px"
	 viewBox="0 0 96.198 60.864" enable-background="new 0 0 96.198 60.864" xml:space="preserve">
<polyline fill="none" stroke="#010101" stroke-width="2.982" points="8.284,18.972 8.284,15.299 87.618,15.299 87.618,18.972 "/>
<polyline fill="none" stroke="#010101" stroke-width="2.982" points="13.807,13.808 13.807,10.135 82.095,10.135 82.095,13.808 "/>
<polyline fill="none" stroke="#010101" stroke-width="2.982" points="19.331,9.306 19.331,5.634 76.572,5.634 76.572,9.306 "/>
<polyline fill="none" stroke="#010101" stroke-width="2.982" points="24.847,4.667 24.847,1.491 71.042,1.491 71.042,4.667 "/>
<path fill="#010101" d="M3.103,57.762h89.992V22.074H3.103V57.762z M96.198,60.864H0V18.971h96.198V60.864z"/>
<path fill="#010101" d="M47.168,30.764c-4.034,0-7.448,4.345-7.448,9.62s3.259,9.62,7.448,9.62c4.189,0,7.448-4.345,7.448-9.62
	S51.202,30.764,47.168,30.764 M47.168,53.106c-5.741,0-10.551-5.741-10.551-12.723s4.655-12.723,10.551-12.723
	c5.896,0,10.551,5.741,10.551,12.723C57.564,47.366,52.909,53.106,47.168,53.106"/>
<rect x="6.206" y="25.178" fill="#010101" width="9.31" height="3.103"/>
<rect x="6.206" y="51.555" fill="#010101" width="9.31" height="3.103"/>
<rect x="80.682" y="25.178" fill="#010101" width="7.758" height="3.103"/>
<rect x="80.682" y="51.555" fill="#010101" width="7.758" height="3.103"/>
</svg>
