<svg xmlns="http://www.w3.org/2000/svg" xmlns:xlink="http://www.w3.org/1999/xlink" viewBox="0 0 90.412 46.708"><defs><path id="a" d="M0 0h90.412v46.708H0z"/></defs><clipPath id="b"><use xlink:href="#a" overflow="visible"/></clipPath><path clip-path="url(#b)" fill="none" stroke="#F6CE45" stroke-width="1.5" d="M40.867 1.655c0 27.151-18.831 42.128-38.369 42.128M32.445 9.543l8.411-8.436 7.517 8.867"/><path fill="none" stroke="#FFF" stroke-width="1.5" d="M33.48 34.769h17.884M38.954 29.884h12.41M42.422 25h8.942"/><defs><path id="c" d="M0 0h90.412v46.708H0z"/></defs><clipPath id="d"><use xlink:href="#c" overflow="visible"/></clipPath><path clip-path="url(#d)" fill="none" stroke="#FFF" stroke-width="1.5" stroke-linecap="round" d="M55.724 22.359h33.938v15.049H55.724z"/><ellipse clip-path="url(#d)" fill="none" stroke="#FFF" stroke-width="1.25" stroke-linecap="round" cx="72.693" cy="29.885" rx="3.102" ry="4.262"/><path fill="none" stroke="#FFF" stroke-width="1.5" d="M58.435 25.828h4.722M58.435 33.939h4.722M82.228 25.828h4.722M82.228 33.939h4.722"/><g><defs><path id="e" d="M0 0h90.412v46.708H0z"/></defs><clipPath id="f"><use xlink:href="#e" overflow="visible"/></clipPath><path clip-path="url(#f)" fill="#252525" d="M2.95 46.083a2.325 2.325 0 1 0 0-4.65 2.325 2.325 0 0 0 0 4.65"/><circle clip-path="url(#f)" fill="none" stroke="#F6CE45" stroke-width="1.25" cx="2.95" cy="43.758" r="2.325"/></g></svg>