<?xml version="1.0" encoding="utf-8"?>
<!-- Generator: Adobe Illustrator 19.1.0, SVG Export Plug-In . SVG Version: 6.00 Build 0)  -->
<svg version="1.1" id="Слой_1" xmlns="http://www.w3.org/2000/svg" xmlns:xlink="http://www.w3.org/1999/xlink" x="0px" y="0px"
	 viewBox="0 0 36.63 75.254" enable-background="new 0 0 36.63 75.254" xml:space="preserve">
<path fill="#F6CE45" d="M9.132,70.531v0.105c-0.21-2.798-1.75-4.338-4.618-4.618c-2.729,0.28-4.235,1.82-4.514,4.618
	c0.279,2.799,1.785,4.339,4.514,4.618c2.868-0.279,4.408-1.819,4.618-4.618V70.531z M22.881,70.636
	c-0.28-2.798-1.784-4.338-4.513-4.618c-2.8,0.28-4.339,1.82-4.618,4.618c0.279,2.799,1.818,4.339,4.618,4.618
	C21.097,74.975,22.601,73.435,22.881,70.636 M22.881,57.411c-0.28-2.797-1.784-4.337-4.513-4.618
	c-2.8,0.281-4.339,1.821-4.618,4.618c0.279,2.8,1.818,4.34,4.618,4.618C21.097,61.751,22.601,60.211,22.881,57.411 M36.63,70.636
	c-0.21-2.798-1.749-4.338-4.618-4.618c-2.729,0.28-4.234,1.82-4.513,4.618c0.279,2.799,1.784,4.339,4.513,4.618
	C34.881,74.975,36.42,73.435,36.63,70.636 M22.881,44.187c-0.28-2.798-1.784-4.338-4.513-4.618c-2.8,0.28-4.339,1.82-4.618,4.618
	c0.279,2.87,1.818,4.408,4.618,4.618C21.097,48.595,22.601,47.057,22.881,44.187 M9.132,17.738c-0.21-2.729-1.75-4.233-4.618-4.514
	C1.785,13.505,0.279,15.009,0,17.738c0.279,2.869,1.785,4.444,4.514,4.723C7.382,22.182,8.922,20.607,9.132,17.738 M22.881,30.962
	c-0.28-2.798-1.784-4.303-4.513-4.513c-2.8,0.21-4.339,1.715-4.618,4.513c0.279,2.87,1.818,4.444,4.618,4.723
	C21.097,35.406,22.601,33.832,22.881,30.962 M22.881,17.738c-0.28-2.729-1.784-4.233-4.513-4.514
	c-2.8,0.281-4.339,1.785-4.618,4.514c0.279,2.869,1.818,4.444,4.618,4.723C21.097,22.182,22.601,20.607,22.881,17.738 M22.881,4.513
	C22.601,1.784,21.097,0.28,18.368,0c-2.8,0.28-4.339,1.784-4.618,4.513c0.279,2.87,1.818,4.479,4.618,4.828
	C21.097,8.992,22.601,7.383,22.881,4.513"/>
</svg>
