<?xml version="1.0" encoding="utf-8"?>
<!-- Generator: Adobe Illustrator 19.1.0, SVG Export Plug-In . SVG Version: 6.00 Build 0)  -->
<svg version="1.1" id="Слой_1" xmlns="http://www.w3.org/2000/svg" xmlns:xlink="http://www.w3.org/1999/xlink" x="0px" y="0px"
	 viewBox="0 0 52.583 77.143" enable-background="new 0 0 52.583 77.143" xml:space="preserve">
<path fill="#F6CE45" d="M9.131,59.615v0.105c-0.281-2.868-1.784-4.408-4.513-4.618c-2.8,0.21-4.34,1.75-4.618,4.618
	c0.278,2.8,1.818,4.34,4.618,4.618C7.347,64.06,8.85,62.52,9.131,59.72V59.615z M19.207,69.271c-0.21-2.868-1.75-4.408-4.618-4.618
	c-2.729,0.21-4.235,1.75-4.513,4.618c0.278,2.8,1.784,4.34,4.513,4.618C17.457,73.611,18.997,72.071,19.207,69.271 M32.851,72.525
	c-0.21-2.798-1.715-4.338-4.513-4.618c-2.799,0.28-4.339,1.82-4.618,4.618c0.279,2.798,1.819,4.338,4.618,4.618
	C31.136,76.863,32.641,75.323,32.851,72.525 M46.915,68.117c-0.28-2.868-1.854-4.408-4.723-4.618
	c-2.729,0.21-4.234,1.75-4.513,4.618c0.279,2.799,1.784,4.339,4.513,4.618C45.061,72.456,46.635,70.916,46.915,68.117
	 M23.615,32.746c-0.21-2.728-1.715-4.232-4.513-4.513c-2.729,0.281-4.235,1.785-4.513,4.513c0.278,2.8,1.784,4.34,4.513,4.619
	C21.9,37.086,23.405,35.546,23.615,32.746 M52.058,55.312c-0.28-2.868-1.784-4.443-4.513-4.723c-2.87,0.28-4.408,1.855-4.618,4.723
	c0.21,2.799,1.748,4.303,4.618,4.513C50.274,59.615,51.778,58.111,52.058,55.312 M37.259,35.475
	c-0.21-2.797-1.715-4.337-4.513-4.618c-2.589,0.281-4.059,1.821-4.408,4.618c0.349,2.8,1.819,4.304,4.408,4.513
	C35.544,39.779,37.049,38.275,37.259,35.475 M9.236,4.618C8.955,1.889,7.452,0.351,4.723,0c-2.8,0.351-4.34,1.889-4.618,4.618
	c0.278,2.87,1.818,4.444,4.618,4.723C7.452,9.062,8.955,7.488,9.236,4.618 M49.434,42.612c-0.21-2.868-1.75-4.442-4.618-4.723
	c-2.799,0.281-4.339,1.855-4.618,4.723c0.279,2.729,1.819,4.235,4.618,4.514C47.684,46.847,49.224,45.341,49.434,42.612
	 M32.956,23.51c-0.21-2.729-1.679-4.233-4.408-4.513c-2.729,0.28-4.234,1.784-4.513,4.513c0.279,2.8,1.784,4.304,4.513,4.513
	C31.277,27.814,32.746,26.31,32.956,23.51 M23.09,4.618C22.88,1.889,21.34,0.351,18.472,0c-2.729,0.351-4.234,1.889-4.513,4.618
	c0.279,2.87,1.784,4.444,4.513,4.723C21.34,9.062,22.88,7.488,23.09,4.618 M42.927,15.114c-0.28-2.869-1.784-4.408-4.513-4.618
	c-2.729,0.21-4.198,1.749-4.408,4.618c0.21,2.66,1.679,4.129,4.408,4.408C41.143,19.243,42.647,17.774,42.927,15.114 M36.735,4.618
	C36.454,1.889,34.95,0.351,32.221,0c-2.799,0.351-4.339,1.889-4.618,4.618c0.279,2.87,1.819,4.444,4.618,4.723
	C34.95,9.062,36.454,7.488,36.735,4.618 M52.583,4.618C52.303,1.889,50.728,0.351,47.86,0c-2.729,0.351-4.234,1.889-4.513,4.618
	c0.279,2.87,1.784,4.444,4.513,4.723C50.728,9.062,52.303,7.488,52.583,4.618"/>
</svg>
