<?xml version="1.0" encoding="utf-8"?>
<!-- Generator: Adobe Illustrator 19.1.0, SVG Export Plug-In . SVG Version: 6.00 Build 0)  -->
<svg version="1.1" id="Слой_1" xmlns="http://www.w3.org/2000/svg" xmlns:xlink="http://www.w3.org/1999/xlink" x="0px" y="0px"
	 viewBox="0 0 21.693 12.377" enable-background="new 0 0 21.693 12.377" xml:space="preserve">
<path fill="#FFFFFF" d="M0,1.03c0-0.083,0.011-0.143,0.034-0.181l0.045-0.067c0.113-0.144,0.327-0.215,0.644-0.215l3.095-0.022
	c0.09,0.014,0.176,0.039,0.259,0.073C4.16,0.652,4.22,0.684,4.258,0.714l0.057,0.034c0.12,0.083,0.21,0.203,0.271,0.361
	c0.15,0.377,0.323,0.766,0.519,1.169c0.196,0.403,0.35,0.71,0.463,0.92l0.181,0.328C5.967,3.978,6.178,4.37,6.381,4.701
	C6.585,5.032,6.767,5.29,6.929,5.474c0.162,0.185,0.318,0.33,0.469,0.435c0.15,0.106,0.278,0.158,0.384,0.158
	c0.105,0,0.207-0.018,0.305-0.056c0.015-0.007,0.034-0.026,0.056-0.057c0.023-0.03,0.068-0.112,0.136-0.248s0.118-0.312,0.152-0.531
	c0.034-0.218,0.07-0.523,0.108-0.915c0.037-0.391,0.037-0.862,0-1.412C8.523,2.547,8.49,2.272,8.437,2.024
	c-0.053-0.249-0.105-0.422-0.158-0.52L8.211,1.369c-0.188-0.256-0.508-0.418-0.96-0.486C7.153,0.868,7.172,0.778,7.307,0.612
	c0.128-0.143,0.271-0.256,0.429-0.339c0.399-0.195,1.3-0.286,2.7-0.271c0.617,0.008,1.126,0.057,1.525,0.147
	c0.15,0.038,0.277,0.089,0.378,0.153c0.102,0.063,0.179,0.154,0.232,0.27c0.053,0.117,0.092,0.238,0.118,0.362
	c0.027,0.124,0.04,0.296,0.04,0.514c0,0.218-0.004,0.425-0.012,0.621c-0.007,0.196-0.016,0.462-0.028,0.796
	c-0.011,0.336-0.016,0.646-0.016,0.932c0,0.083-0.005,0.241-0.012,0.475c-0.007,0.233-0.009,0.414-0.005,0.542
	c0.003,0.128,0.017,0.28,0.039,0.457s0.066,0.324,0.13,0.441c0.064,0.116,0.149,0.209,0.254,0.276
	c0.06,0.016,0.124,0.03,0.192,0.046c0.068,0.015,0.165-0.027,0.294-0.125c0.128-0.097,0.271-0.228,0.429-0.389
	c0.158-0.162,0.354-0.415,0.587-0.757c0.234-0.343,0.49-0.747,0.768-1.214c0.452-0.783,0.855-1.63,1.209-2.542
	c0.03-0.075,0.068-0.141,0.113-0.197c0.045-0.057,0.086-0.096,0.124-0.119l0.045-0.034c0.015-0.007,0.034-0.017,0.057-0.028
	c0.022-0.011,0.071-0.023,0.147-0.034c0.075-0.011,0.15-0.013,0.225-0.006l3.253-0.022c0.294-0.038,0.535-0.028,0.723,0.028
	c0.188,0.057,0.305,0.119,0.35,0.187l0.068,0.113c0.173,0.481-0.392,1.588-1.694,3.32c-0.181,0.241-0.426,0.561-0.734,0.96
	c-0.588,0.753-0.926,1.246-1.017,1.48c-0.128,0.308-0.075,0.614,0.158,0.915c0.128,0.158,0.433,0.466,0.915,0.926h0.011l0.012,0.011
	l0.011,0.011l0.023,0.023c1.061,0.987,1.78,1.818,2.157,2.496c0.023,0.038,0.047,0.085,0.073,0.141
	c0.026,0.057,0.053,0.156,0.079,0.299c0.027,0.144,0.025,0.272-0.006,0.385c-0.03,0.112-0.123,0.216-0.282,0.31
	c-0.158,0.094-0.38,0.141-0.666,0.141l-2.891,0.046c-0.181,0.037-0.392,0.018-0.633-0.057s-0.437-0.158-0.588-0.249l-0.225-0.135
	c-0.226-0.158-0.49-0.399-0.791-0.723c-0.301-0.323-0.559-0.615-0.774-0.875c-0.214-0.26-0.444-0.478-0.688-0.655
	c-0.245-0.177-0.458-0.235-0.639-0.175c-0.022,0.007-0.052,0.021-0.09,0.039c-0.038,0.019-0.102,0.073-0.192,0.164
	c-0.09,0.09-0.171,0.201-0.243,0.333c-0.071,0.132-0.135,0.328-0.192,0.587c-0.056,0.26-0.081,0.552-0.073,0.876
	c0,0.113-0.013,0.216-0.04,0.31c-0.026,0.095-0.055,0.164-0.085,0.21l-0.045,0.056c-0.135,0.143-0.335,0.226-0.598,0.248h-1.299
	c-0.535,0.03-1.084-0.031-1.649-0.186c-0.565-0.154-1.06-0.354-1.486-0.599c-0.425-0.244-0.813-0.493-1.163-0.745
	s-0.616-0.469-0.796-0.65L5.241,9.862C5.165,9.787,5.062,9.674,4.93,9.523c-0.132-0.15-0.401-0.492-0.808-1.027
	C3.716,7.961,3.316,7.393,2.925,6.79C2.534,6.188,2.072,5.394,1.542,4.407C1.011,3.421,0.52,2.397,0.068,1.335
	C0.023,1.214,0,1.113,0,1.03"/>
</svg>
