<?xml version="1.0" encoding="utf-8"?>
<!-- Generator: Adobe Illustrator 19.1.0, SVG Export Plug-In . SVG Version: 6.00 Build 0)  -->
<svg version="1.1" id="Слой_1" xmlns="http://www.w3.org/2000/svg" xmlns:xlink="http://www.w3.org/1999/xlink" x="0px" y="0px"
	 viewBox="0 0 30.618 37.628" enable-background="new 0 0 30.618 37.628" xml:space="preserve">
<path fill="#0C0E0F" d="M22.818,0c-1.92,0.18-4.14,1.26-5.52,2.88c-1.26,1.44-2.28,3.66-2.04,5.82c2.1,0.18,4.2-1.02,5.58-2.64
	C22.218,4.44,23.058,2.22,22.818,0 M30.618,27.6c0,0-5.04-1.98-5.04-7.56c0-4.8,3.9-7.02,4.08-7.2c-2.28-3.24-5.64-3.54-6.9-3.72
	c-2.88-0.18-5.76,1.74-7.2,1.74c-1.5,0-3.78-1.62-6.18-1.62c-3.18,0-6.18,1.86-7.8,4.68c-3.36,5.7-0.78,14.34,2.4,18.96
	c1.62,2.22,3.48,4.92,5.94,4.74c2.4,0,3.24-1.5,6.12-1.5s3.66,1.5,6.24,1.5c2.58-0.06,4.14-2.28,5.76-4.62
	C29.898,30.3,30.618,27.78,30.618,27.6"/>
</svg>
