<?xml version="1.0" encoding="utf-8"?>
<!-- Generator: Adobe Illustrator 19.1.0, SVG Export Plug-In . SVG Version: 6.00 Build 0)  -->
<svg version="1.1" id="Слой_1" xmlns="http://www.w3.org/2000/svg" xmlns:xlink="http://www.w3.org/1999/xlink" x="0px" y="0px"
	 viewBox="0 0 108.153 61.165" enable-background="new 0 0 108.153 61.165" xml:space="preserve">
<polyline fill="none" stroke="#0C0E0F" stroke-width="2.7" points="28.566,25.399 28.566,19.907 100.386,19.907 100.386,25.399 "/>
<polyline fill="none" stroke="#0C0E0F" stroke-width="2.7" points="35.406,20.512 35.406,15.019 95.418,15.019 95.418,20.512 "/>
<path fill="#0C0E0F" d="M23.875,58.355h81.469V26.048H23.875V58.355z M108.153,61.165H21.066V23.24h87.087V61.165z"/>
<g>
	<path fill="#0C0E0F" d="M63.766,33.916c-3.652,0-6.742,3.933-6.742,8.709c0,4.776,2.95,8.709,6.742,8.709
		c3.792,0,6.742-3.933,6.742-8.709C70.508,37.848,67.418,33.916,63.766,33.916 M63.766,54.142c-5.197,0-9.552-5.197-9.552-11.518
		c0-6.321,4.214-11.518,9.552-11.518c5.338,0,9.552,5.197,9.552,11.518C73.177,48.945,68.963,54.142,63.766,54.142"/>
</g>
<rect x="26.684" y="28.859" fill="#0C0E0F" width="8.428" height="2.809"/>
<rect x="26.684" y="52.738" fill="#0C0E0F" width="8.428" height="2.81"/>
<rect x="94.107" y="28.859" fill="#0C0E0F" width="7.023" height="2.809"/>
<rect x="94.107" y="52.738" fill="#0C0E0F" width="7.023" height="2.81"/>
<line fill="none" stroke="#F6CE45" stroke-width="2.625" stroke-linecap="round" x1="11.271" y1="1.312" x2="11.271" y2="21.229"/>
<line fill="none" stroke="#F6CE45" stroke-width="2.625" stroke-linecap="round" x1="21.229" y1="11.27" x2="1.312" y2="11.27"/>
</svg>
