<?xml version="1.0" encoding="utf-8"?>
<!-- Generator: Adobe Illustrator 19.1.0, SVG Export Plug-In . SVG Version: 6.00 Build 0)  -->
<svg version="1.1" id="Слой_1" xmlns="http://www.w3.org/2000/svg" xmlns:xlink="http://www.w3.org/1999/xlink" x="0px" y="0px"
	 viewBox="0 0 71.481 107.308" enable-background="new 0 0 71.481 107.308" xml:space="preserve">
<path fill="#F6CE45" d="M40.542,31.973c-6.518,0-11.479-3.787-12.947-9.883h-2.675c-0.6,0-1.089-0.489-1.089-1.089
	s0.489-1.088,1.089-1.088h2.31c-0.064-0.627-0.095-1.202-0.095-1.811c0-0.788,0.057-1.609,0.18-2.582h-2.395
	c-0.6,0-1.089-0.489-1.089-1.089c0-0.601,0.489-1.089,1.089-1.089h2.919c1.756-5.704,6.375-9.11,12.355-9.11
	c1.442,0,3.13,0.281,4.405,0.734c0.313,0.104,0.657,0.428,0.657,0.889c0,0.153-0.039,0.309-0.116,0.463
	c-0.145,0.361-0.472,0.58-0.888,0.58c-0.128,0-0.23-0.027-0.347-0.058l-0.081-0.02c-1.1-0.381-2.334-0.579-3.591-0.579
	c-4.7,0-8.46,2.655-10.057,7.101h12.127c0.6,0,1.088,0.488,1.088,1.089c0,0.6-0.488,1.089-1.088,1.089H29.592
	c-0.146,0.877-0.216,1.722-0.216,2.582c0,0.582,0.032,1.191,0.095,1.811h12.832c0.6,0,1.088,0.488,1.088,1.088
	s-0.488,1.089-1.088,1.089H29.926c1.429,4.856,5.556,7.874,10.771,7.874c1.21,0,2.196-0.139,3.013-0.425
	c0.17-0.042,0.316-0.077,0.464-0.077c0.389,0,0.675,0.194,0.85,0.579c0.044,0.135,0.077,0.241,0.077,0.348
	c0,0.414-0.3,0.784-0.579,0.889C43.331,31.688,41.697,31.973,40.542,31.973 M11.07,6.826C8.132,7.17,6.376,8.899,6.376,11.45
	c0,3.099,2.423,4.365,4.693,5.309V6.826z M13.247,30.053c2.913-0.485,4.723-2.352,4.723-4.873c0-3.006-2.27-4.402-4.723-5.465
	V30.053z M12.159,36.382c-0.6,0-1.089-0.488-1.089-1.089v-3.176c-3.013-0.217-5.813-1.503-7.134-3.276
	c-0.123-0.163-0.191-0.394-0.191-0.648c0-0.267,0.098-0.517,0.268-0.686c0.184-0.186,0.453-0.306,0.686-0.306
	c0.251,0,0.557,0.139,0.762,0.344c1.369,1.431,3.464,2.399,5.609,2.593V18.831c-3.912-1.556-6.905-3.088-6.905-7.381
	c0-3.65,2.71-6.254,6.905-6.631V1.088C11.07,0.487,11.559,0,12.159,0c0.6,0,1.089,0.487,1.089,1.088v3.745
	c2.125,0.213,4.033,0.924,5.371,2.003c0.211,0.175,0.42,0.512,0.42,0.876c0,0.18-0.068,0.37-0.191,0.535
	c-0.252,0.353-0.648,0.381-0.763,0.381c-0.237,0-0.461-0.079-0.648-0.229c-1.134-0.889-2.544-1.422-4.189-1.582v10.794
	c3.794,1.461,6.935,3.036,6.935,7.531c0,3.706-2.722,6.422-6.935,6.919v3.232C13.247,35.894,12.758,36.382,12.159,36.382"/>
<path fill="#1B2822" d="M3.256,94.387c-0.284,0-0.515,0.23-0.515,0.515c0,0.284,0.231,0.516,0.515,0.516h42.747
	c0.284,0,0.516-0.232,0.516-0.516c0-0.285-0.232-0.515-0.516-0.515h-1.37v-6.287H4.627v6.287H3.256z M46.003,98.158H3.256
	C1.461,98.158,0,96.698,0,94.902c0-1.306,0.773-2.435,1.886-2.954V85.36h45.487v6.588c1.113,0.519,1.886,1.648,1.886,2.954
	C49.259,96.698,47.798,98.158,46.003,98.158"/>
<path fill="#1B2822" d="M4.626,42.612h40.007v-6.285h1.37c0.284,0,0.516-0.231,0.516-0.516c0-0.285-0.232-0.516-0.516-0.516H3.256
	c-0.284,0-0.515,0.231-0.515,0.516c0,0.285,0.231,0.516,0.515,0.516h1.37V42.612z M47.373,45.353H1.886v-6.588
	C0.772,38.246,0,37.117,0,35.811c0-1.796,1.46-3.256,3.256-3.256h42.747c1.795,0,3.256,1.46,3.256,3.256
	c0,1.306-0.773,2.435-1.886,2.954V45.353z"/>
<path fill="#1B2822" d="M4.627,85.36h40.006V45.354H4.627V85.36z M47.373,88.1H1.886V42.612h45.487V88.1z"/>
<g>
	<path fill="#1B2822" d="M24.277,76.004c-4.2,0-7.605-3.405-7.605-7.605c0-4.201,7.605-15.211,7.605-15.211
		s7.605,11.01,7.605,15.211C31.882,72.599,28.477,76.004,24.277,76.004"/>
</g>
<polygon fill="#FFFFFF" points="25.599,107.308 28.671,89.605 43.395,89.605 46.468,107.308 "/>
<polygon fill="#FFFFFF" points="39.433,107.308 42.505,89.605 58.229,89.605 61.301,107.308 "/>
<polygon fill="#FFFFFF" points="33.014,92.574 36.089,74.872 50.812,74.872 53.884,92.574 "/>
<polygon fill="#FFFFFF" points="39.433,78.233 42.505,60.531 58.229,60.531 61.301,78.233 "/>
<polygon fill="#FFFFFF" points="41.688,101.008 30.592,101.008 32.174,91.925 40.105,91.925 "/>
<path fill="#F6CE45" d="M31.929,99.883h8.421l-1.19-6.834h-6.041L31.929,99.883z M43.025,102.132h-13.77L31.229,90.8h9.822
	L43.025,102.132z"/>
<path fill="#F6CE45" d="M46.156,99.883h8.422l-1.191-6.834h-6.041L46.156,99.883z M57.252,102.132H43.481L45.455,90.8h9.823
	L57.252,102.132z"/>
<path fill="#F6CE45" d="M60.385,99.883h8.421l-1.19-6.834h-6.041L60.385,99.883z M71.481,102.132H57.71L59.684,90.8h9.822
	L71.481,102.132z"/>
<path fill="#F6CE45" d="M39.042,85.805h8.421l-1.19-6.833h-6.04L39.042,85.805z M50.137,88.053h-13.77l1.975-11.331h9.822
	L50.137,88.053z"/>
<path fill="#F6CE45" d="M53.27,85.805h8.422l-1.191-6.833H54.46L53.27,85.805z M64.366,88.053H50.595l1.974-11.331h9.823
	L64.366,88.053z"/>
<polygon fill="#FFFFFF" points="55.915,73.226 44.819,73.226 46.401,64.144 54.332,64.144 "/>
<path fill="#F6CE45" d="M46.156,72.102h8.422l-1.191-6.833h-6.041L46.156,72.102z M57.252,74.351H43.481l1.974-11.331h9.823
	L57.252,74.351z"/>
</svg>
