<?xml version="1.0" encoding="utf-8"?>
<!-- Generator: Adobe Illustrator 19.1.0, SVG Export Plug-In . SVG Version: 6.00 Build 0)  -->
<svg version="1.1" id="Слой_1" xmlns="http://www.w3.org/2000/svg" xmlns:xlink="http://www.w3.org/1999/xlink" x="0px" y="0px"
	 viewBox="0 0 43.81 43.81" enable-background="new 0 0 43.81 43.81" xml:space="preserve">
<path fill="#0C0E0F" d="M21.905,1.874c-11.045,0-20.031,8.986-20.031,20.031s8.986,20.031,20.031,20.031
	c11.045,0,20.031-8.986,20.031-20.031S32.95,1.874,21.905,1.874 M21.905,43.81C9.827,43.81,0,33.984,0,21.905
	C0,9.827,9.827,0,21.905,0C33.983,0,43.81,9.827,43.81,21.905C43.81,33.984,33.983,43.81,21.905,43.81"/>
<path fill="#0C0E0F" d="M16.435,20.082h8.204c2.227,0,4.331-2.216,4.331-4.559c0-2.2-1.558-4.558-3.875-4.558h-8.66V20.082z
	 M16.435,32.845h8.66c3.434,0,5.926-2.302,5.926-5.47c0-3.169-2.492-5.47-5.926-5.47h-8.66V32.845z M25.095,34.668h-9.572
	c-0.501,0-0.911-0.41-0.911-0.912V10.053c0-0.501,0.41-0.911,0.911-0.911h9.572c3.408,0,5.698,3.302,5.698,6.381
	c0,2.013-1.066,3.917-2.622,5.117c2.801,1.075,4.674,3.619,4.674,6.735C32.845,31.532,29.513,34.668,25.095,34.668"/>
<path fill="#0C0E0F" d="M19.17,10.053c-0.501,0-0.912-0.41-0.912-0.912V5.496c0-0.502,0.411-0.912,0.912-0.912
	c0.501,0,0.912,0.41,0.912,0.912v3.646C20.082,9.644,19.671,10.053,19.17,10.053"/>
<path fill="#0C0E0F" d="M22.817,10.053c-0.501,0-0.912-0.41-0.912-0.912V5.496c0-0.502,0.411-0.912,0.912-0.912
	c0.501,0,0.912,0.41,0.912,0.912v3.646C23.729,9.644,23.318,10.053,22.817,10.053"/>
<path fill="#0C0E0F" d="M19.17,39.226c-0.501,0-0.912-0.41-0.912-0.912v-3.646c0-0.502,0.411-0.912,0.912-0.912
	c0.501,0,0.912,0.41,0.912,0.912v3.646C20.082,38.816,19.671,39.226,19.17,39.226"/>
<path fill="#0C0E0F" d="M22.817,39.226c-0.501,0-0.912-0.41-0.912-0.912v-3.646c0-0.502,0.411-0.912,0.912-0.912
	c0.501,0,0.912,0.41,0.912,0.912v3.646C23.729,38.816,23.318,39.226,22.817,39.226"/>
</svg>
