<?xml version="1.0" encoding="utf-8"?>
<!-- Generator: Adobe Illustrator 18.0.0, SVG Export Plug-In . SVG Version: 6.00 Build 0)  -->
<!DOCTYPE svg PUBLIC "-//W3C//DTD SVG 1.1//EN" "http://www.w3.org/Graphics/SVG/1.1/DTD/svg11.dtd">
<svg version="1.1" id="Слой_1" xmlns="http://www.w3.org/2000/svg" xmlns:xlink="http://www.w3.org/1999/xlink" x="0px" y="0px"
	 viewBox="0 0 756.655 344.375" enable-background="new 0 0 756.655 344.375" xml:space="preserve">
<polyline fill="none" stroke="#FFFFFF" stroke-width="2" stroke-linejoin="round" stroke-miterlimit="10" points="0.902,109.37 
	1.758,111.154 2.743,109.353 4.144,98.803 4.799,98.776 5.68,104.337 6.842,107.185 7.648,104.459 8.965,89.497 9.261,88.463 
	11.579,85.671 15.545,105.772 17.115,91.931 18.077,91.882 21.921,110.893 23.39,100.357 23.843,100.327 24.989,105.182 
	26.456,100.811 26.907,100.804 28.425,106.332 28.79,106.353 30.713,91.179 31.292,91.149 33.334,102.486 37.887,71.737 
	38.695,71.781 41.318,97.133 42.999,95.827 44.309,103.284 45.686,104.724 46.358,106.245 47.363,120.322 49.217,134.132 
	50.142,135.297 51.039,134.098 53.327,118.679 54.237,117.323 57.007,126.485 60.305,103.051 61.867,104.627 63.164,102.649 
	63.796,102.552 66.317,109.649 67.282,115.915 71.984,124.303 72.757,122.461 73.263,122.462 74.588,135.196 76.311,133.205 
	80.917,149.13 84.651,162.556 85.4,162.529 88.085,154.245 92.032,145.396 92.241,145.095 94.998,141.132 95.806,139.379 
	96.503,141.316 102.682,171.202 105.569,177.432 106.661,167.832 107.165,167.833 108.179,174.084 108.707,174.116 111.971,156.37 
	113.003,165.389 114.609,162.684 121.861,206.032 123.621,194.654 124.451,194.607 131.627,236.935 132.89,236.622 134.277,247.826 
	135.069,249.281 135.855,247.817 137.257,234.857 139.001,235.578 140.742,216.112 141.147,216.096 141.581,219.626 
	142.583,238.413 143.009,240.155 147.197,245.822 148.62,235.111 149.254,235.075 150.325,241.5 150.847,245.267 151.629,246.377 
	152.467,245.194 153.282,233.101 153.82,232.396 154.581,237.668 156.897,264.158 159.313,291.551 160.346,307.618 160.849,317.191 
	161.648,318.435 162.671,317.141 162.72,312.47 163.452,312.45 164.53,330.876 164.91,330.938 166.539,326.788 170.72,330.849 
	173.721,302.505 174.286,302.461 175.978,310.535 177.596,323.838 178.459,325.294 179.264,323.685 180.289,318.908 
	180.841,325.346 181.797,326.838 182.492,325.397 183.869,308.071 186.412,331.887 186.659,331.918 187.713,327.525 
	188.244,327.509 189.64,343.321 190.085,343.375 191.815,335.778 196.311,296.048 198.085,252.129 198.977,244.724 200.104,248.805 
	204.649,202.634 205.456,210.473 207.34,228.654 207.642,229.882 208.556,230.482 209.218,229.683 209.257,228.966 209.727,204.368 
	210.724,161.506 212.366,132.973 213.333,131.39 214.058,129.849 214.882,101.098 214.91,75.223 219.252,73.163 220.693,64.664 
	221.305,64.632 222.392,69.453 224.297,74.891 224.991,91.335 231.843,122.712 237.568,92.771 238.195,88.539 238.73,88.503 
	239.801,93.968 240.368,94.014 246.201,71.265 246.784,78.398 248.63,123.577 249.375,143.28 250.19,144.704 250.946,143.24 
	251.563,132.247 252.108,132.2 252.53,135.58 253.189,136.752 254.088,135.579 255.359,118.257 256.142,108.941 256.772,108.936 
	257.626,116.001 257.727,116.897 260.127,133.396 260.829,147.849 263.179,148.954 263.834,166.501 265.924,191.731 
	266.737,193.177 267.517,191.712 268.721,181.026 270.253,182.893 271.296,179.743 271.789,179.729 273.098,186.636 
	273.493,186.678 275.803,178.255 276.387,178.242 281.895,203.311 283.972,194.919 284.57,194.944 286.178,208.013 289.293,205.67 
	293.526,238.642 296.72,233.681 301.468,267.323 302.162,267.303 303.465,248.031 303.807,248.035 306.473,256.567 307.705,254.846 
	308.194,254.851 315.55,211.372 316.884,212.2 318.261,209.592 319.645,214.996 322.668,209.598 325.413,172.61 327.183,155.142 
	329.691,149.122 333.338,153.538 334.199,159.456 334.868,160.637 335.759,159.459 337.068,145.222 338.577,136.657 
	339.947,139.171 343.914,139.273 345.314,131.754 348.398,93.04 350.075,58.71 350.728,57.332 350.769,60.333 351.628,61.537 
	352.622,60.268 353.552,45.103 354.96,22.715 355.271,21.61 355.837,21.628 357.761,47.085 359.734,46.717 364.901,92.303 
	365.991,91.647 366.317,92.147 368.501,110.848 369.197,118.779 370.219,120.101 370.893,118.75 371.796,93.623 372.328,78.256 
	372.946,75.721 373.869,75.709 374.997,81.565 375.902,87.297 376.807,88.276 377.453,87.265 378.337,83.735 378.833,90.618 
	379.771,109.589 381.66,147.529 384.254,173.819 386.31,178.734 389.466,176.44 391.989,186.778 392.182,186.758 393.564,162.283 
	393.993,155.422 394.104,154.714 396.089,143.919 396.685,130.729 396.87,129.499 397.341,129.563 398.39,131.323 399.212,129.32 
	400.627,116.908 402.367,112.72 403.007,112.77 403.244,114.368 404.209,127.901 405.004,129.145 405.719,127.83 406.244,115.54 
	406.775,112.761 409.211,149.45 409.984,149.79 412.899,142.142 419.907,181.856 421.023,178.371 421.466,178.425 422.928,198.925 
	423.11,198.971 424.614,192.919 428.176,222.122 429.435,219.512 429.906,219.522 431.041,226.954 432.459,245.534 433.265,246.759 
	434.064,245.484 434.763,231.392 435.745,206.811 437.031,193.527 437.582,193.505 438.364,198.583 440.213,220.757 
	440.783,231.052 441.775,232.339 442.592,231.101 444.023,210.166 445.874,203.962 446.422,203.989 446.66,205.647 447.616,221.719 
	448.321,223.233 449.148,221.645 450.898,200.912 451.31,200.032 455.413,214.181 457.417,203.298 457.86,203.315 461.723,225.835 
	462.356,225.803 465.536,162.359 467.448,161.652 468.757,142.52 470.219,131.576 470.962,130.311 471.391,136.043 472.435,165.33 
	473.984,171.726 474.931,178.467 475.897,190.551 476.715,191.771 477.411,190.437 478.803,167.323 480.394,159.745 
	481.253,153.479 483.138,128.945 483.84,127.035 484.541,130.244 487.478,127.638 488.865,103.438 490.138,101.237 490.857,99.99 
	493.037,84.755 493.996,73.834 494.621,73.828 497.844,117.39 498.219,117.472 500.072,112.5 501.687,114.81 502.615,113.815 
	502.978,114.453 503.576,122.39 504.159,132.865 504.881,134.558 505.761,132.996 507.407,114.429 508.241,110.588 508.861,110.576 
	513.324,128.267 513.791,128.236 515.651,105.726 520.62,119.775 528.067,54.807 528.768,54.732 531.504,70.102 532.903,65.746 
	533.418,65.713 535.118,73.374 535.485,73.349 536.069,63.344 537.464,39.144 539.646,33.202 542.892,48.403 543.606,48.374 
	545.105,41.46 545.818,41.467 546.673,47.769 549.039,61.506 550.104,71.399 552.458,106.234 553.405,107.531 554.287,106.147 
	556.048,92.7 556.707,92.67 558.096,103.563 559.757,97.43 560.25,97.38 561.583,100.913 562.172,100.926 567.07,76.124 
	567.596,76.127 568.401,84.326 569.36,94.05 571.476,97.358 572.805,96.037 573.115,96.594 574.048,108.678 578.242,116.225 
	578.772,116.156 579.537,112.267 579.976,112.293 581.087,126.721 582.858,125.703 584.018,133.411 585.839,148.877 
	586.627,150.137 587.376,148.841 588.726,130.437 590.399,126.825 590.83,125.497 593.881,100.145 594.62,99.169 596.609,105.518 
	597.022,105.514 600.015,90.155 602.825,108.143 603.359,108.238 605.791,101.725 606.403,101.762 608.252,109.174 608.647,109.147 
	611.695,89.762 612.558,89.72 614.891,103.679 618.353,130.703 623.464,93.081 623.831,97.005 627.526,119.356 627.864,120.347 
	630.593,124.382 632.475,125.796 633.478,126.775 635.427,130.327 637.4,115.526 638.159,115.49 639.251,122.086 640.892,139.201 
	642.39,141.097 643.886,142.765 645.646,144.219 646.109,143.937 648.856,160.932 650.097,163.532 650.809,160.928 652.576,136.208 
	653.367,133.865 655.309,141.032 659.323,155.19 661.887,159.723 663.11,156.511 663.494,156.521 664.958,161.646 665.354,161.63 
	666.666,151.492 667.194,151.415 668.478,155.465 669.683,148.421 670.172,148.394 671.546,156.865 671.926,156.895 
	673.183,145.285 683.302,174.358 688.043,159.371 689.645,173.439 689.87,173.444 691.804,166.151 692.398,166.079 695.065,170.965 
	700.085,149.864 703.752,151.1 704.962,145.982 705.455,145.882 708.355,152.697 710.268,147.461 712.004,148.097 712.441,147.029 
	715.24,134.967 717.078,132.805 721.071,127.688 725.198,96.991 725.624,94.832 727.312,94.832 731.594,63.805 732.132,63.781 
	734.719,80.153 735.268,80.16 739.565,55.617 740.169,55.572 741.622,59.919 741.958,59.944 743.367,50.892 743.847,50.849 
	745.007,53.92 745.376,53.906 746.361,46.377 746.86,46.393 747.482,51.108 748.194,52.437 749.028,51.215 750.387,36.075 
	751.329,31.466 753.303,20.62 755.662,0.114 "/>
</svg>
