<?xml version="1.0" encoding="utf-8"?>
<!-- Generator: Adobe Illustrator 19.1.0, SVG Export Plug-In . SVG Version: 6.00 Build 0)  -->
<svg version="1.1" id="Слой_1" xmlns="http://www.w3.org/2000/svg" xmlns:xlink="http://www.w3.org/1999/xlink" x="0px" y="0px"
	 viewBox="0 0 101.057 30.902" enable-background="new 0 0 101.057 30.902" xml:space="preserve">
<path fill="#0C0E0F" d="M95.132,29.496h-0.213v-0.355h0.225c0.117,0,0.187,0.004,0.211,0.005c0.046,0.008,0.082,0.026,0.107,0.055
	c0.026,0.03,0.04,0.069,0.04,0.114c0,0.043-0.01,0.078-0.031,0.106c-0.019,0.028-0.045,0.047-0.08,0.059
	C95.357,29.492,95.27,29.496,95.132,29.496 M95.579,29.807c-0.042-0.042-0.092-0.08-0.156-0.118
	c0.127-0.017,0.221-0.061,0.286-0.132c0.062-0.065,0.093-0.154,0.093-0.259c0-0.084-0.021-0.157-0.062-0.222
	c-0.042-0.066-0.098-0.111-0.167-0.135c-0.07-0.027-0.182-0.039-0.334-0.039h-0.612v1.409h0.292v-0.588h0.059
	c0.066,0,0.115,0.006,0.145,0.018c0.031,0.009,0.061,0.029,0.087,0.058c0.029,0.027,0.079,0.097,0.154,0.207l0.207,0.305h0.348
	l-0.175-0.273C95.674,29.926,95.619,29.851,95.579,29.807 M93.643,29.863l-0.263-0.961h-0.435v1.409h0.268l0.003-1.109l0.283,1.109
	h0.283l0.284-1.109l0.001,1.109h0.269v-1.409h-0.44L93.643,29.863z M37.993,17.419c-0.259,0.396-0.529,0.778-0.766,1.085
	c-0.236,0.307-0.439,0.536-0.612,0.714c-0.172,0.185-0.316,0.315-0.441,0.415c-0.217,0.169-0.393,0.266-0.571,0.318
	c-0.269,0.075-0.586,0.018-0.812-0.236c-0.231-0.292-0.254-0.47-0.23-0.803c0.013-0.147,0.048-0.335,0.118-0.579
	c0.069-0.244,0.168-0.539,0.334-0.919c0.165-0.373,0.392-0.835,0.728-1.413c0.335-0.571,0.778-1.263,1.305-1.986
	c0.521-0.72,1.132-1.483,1.684-2.113c0.555-0.632,1.054-1.137,1.45-1.496c0.393-0.366,0.684-0.582,0.907-0.728
	c0.222-0.15,0.372-0.224,0.497-0.269c0.226-0.088,0.431-0.092,0.631,0c0.342,0.228,0.192,0.638,0.162,0.851
	c-0.025,0.089-0.054,0.163-0.209,0.438c-0.158,0.27-0.451,0.74-0.743,1.211L37.993,17.419z M21.825,11.041
	c-0.016,0.178-0.046,0.385-0.088,0.576c-0.043,0.193-0.094,0.368-0.233,0.69c-0.141,0.33-0.367,0.803-0.61,1.279
	c-0.309-0.109-0.612-0.236-0.846-0.351c-0.232-0.12-0.396-0.225-0.529-0.326c-0.133-0.1-0.237-0.198-0.322-0.296
	c-0.087-0.089-0.152-0.184-0.21-0.265c-0.414-0.739-0.38-1.502,0.399-2.261c0.113-0.11,0.243-0.211,0.384-0.305
	c0.14-0.095,0.293-0.181,0.442-0.24c0.457-0.172,0.887-0.343,1.286-0.01C21.928,10.057,21.848,10.521,21.825,11.041 M17.916,18.055
	c-0.589,0.79-0.842,1.038-1.046,1.234c-0.209,0.19-0.372,0.329-0.518,0.43c-0.146,0.104-0.279,0.175-0.402,0.232
	c-0.577,0.248-1.221,0.286-1.622-0.333c-0.136-0.266-0.174-0.498-0.135-0.837c0.021-0.199,0.071-0.448,0.18-0.779
	c0.111-0.334,0.278-0.753,0.554-1.291c0.273-0.536,0.655-1.185,1.148-1.907c0.491-0.718,1.094-1.505,1.73-2.256
	c0.277,0.386,0.577,0.751,0.817,1.006c0.24,0.254,0.421,0.396,0.695,0.559c0.271,0.16,0.64,0.335,1.018,0.483
	C19.439,15.946,18.505,17.27,17.916,18.055 M42.973,18.182c-0.53,0.636-0.769,0.869-0.949,1.036
	c-0.182,0.171-0.304,0.266-0.408,0.332c-0.219,0.153-0.441,0.203-0.655,0.171c-0.129,0.006-0.317-0.153-0.295-0.356
	c0.01-0.112-0.033-0.115,0.078-0.377c0.062-0.143,0.17-0.392,0.475-0.988c0.304-0.601,0.803-1.556,1.312-2.502l4.44-7.564h-2.829
	l-0.529,0.642c-0.375-0.226-0.762-0.426-1.048-0.542c-0.279-0.12-0.457-0.156-0.644-0.183c-0.191-0.03-0.394-0.046-0.598-0.046
	c-0.666,0.01-1.329,0.201-2.136,0.672c-0.305,0.185-0.649,0.424-1.086,0.763c-0.439,0.338-0.97,0.78-1.962,1.895
	c-0.995,1.116-2.451,2.905-3.656,4.355c-1.204,1.456-2.162,2.57-2.842,3.296c-0.686,0.724-1.091,1.042-1.422,1.282
	c-0.333,0.24-0.591,0.401-0.82,0.513c-0.229,0.117-0.428,0.192-0.612,0.234c-0.483,0.115-0.987,0.107-1.347-0.149
	c-0.22-0.185-0.27-0.348-0.32-0.543c-0.101-0.541-0.004-0.97,0.114-1.494c0.071-0.305,0.179-0.664,0.33-1.062
	c0.15-0.403,0.352-0.86,0.626-1.38c0.271-0.523,0.615-1.111,1.04-1.747c0.842-1.277,2.061-2.739,3.013-3.638
	c0.471-0.453,0.86-0.765,1.162-0.978c0.301-0.207,0.515-0.321,0.675-0.387c0.164-0.067,0.275-0.093,0.386-0.093
	c0.154,0.004,0.288,0.023,0.42,0.125c0.166,0.151,0.188,0.25,0.21,0.492c0.006,0.107,0.001,0.258-0.012,0.412
	c-0.269,0.044-0.537,0.102-0.748,0.17c-0.209,0.067-0.361,0.136-0.488,0.203c-0.13,0.073-0.233,0.139-0.324,0.205
	c-0.63,0.481-0.743,1.09-0.724,1.49c0.035,0.192,0.159,0.391,0.331,0.541c0.495,0.44,1.149,0.151,1.812-0.634
	c0.12-0.142,0.246-0.311,0.359-0.488c0.369-0.567,0.592-1.114,0.7-1.587c0.166-0.75,0.142-1.63-0.74-2.289
	c-0.332-0.217-0.633-0.307-1.052-0.307c-0.232,0-0.516,0.029-0.81,0.09c-0.292,0.064-0.589,0.16-0.927,0.295
	c-0.338,0.139-0.715,0.319-1.423,0.883c-0.706,0.567-1.747,1.523-2.563,2.219c-0.822,0.692-1.421,1.125-1.937,1.446
	c-0.516,0.318-0.948,0.527-1.37,0.699c-0.417,0.168-0.823,0.297-1.235,0.394c0.245-0.54,0.468-1.093,0.637-1.565
	c0.171-0.476,0.287-0.876,0.363-1.177c0.079-0.301,0.114-0.513,0.132-0.73c0.035-0.424-0.013-0.872-0.143-1.216
	c-0.062-0.166-0.141-0.312-0.23-0.439c-0.208-0.291-0.436-0.453-0.683-0.57c-0.659-0.285-1.237-0.239-1.944-0.068
	c-0.361,0.096-0.773,0.246-1.24,0.474c-0.47,0.231-0.998,0.542-1.579,0.963c-0.581,0.417-1.212,0.94-1.84,1.551
	c-0.627,0.608-1.255,1.301-1.819,2.011c-1.116,1.417-1.963,2.88-2.477,4.104c-0.256,0.602-0.438,1.151-0.569,1.655
	c-0.129,0.51-0.206,0.963-0.245,1.33c-0.035,0.365-0.032,0.647-0.005,0.904c0.025,0.255,0.076,0.479,0.148,0.677
	c0.072,0.205,0.164,0.385,0.279,0.542c0.116,0.158,0.251,0.297,0.413,0.414c0.163,0.116,0.348,0.207,0.564,0.273
	c0.214,0.062,0.456,0.102,0.727,0.102c0.27,0,0.571-0.04,0.881-0.109c0.311-0.073,0.635-0.184,0.985-0.349
	c0.348-0.166,0.723-0.384,1.138-0.678c0.421-0.302,0.884-0.689,1.425-1.213c0.537-0.533,1.159-1.205,1.938-2.201
	c0.773-0.993,1.707-2.312,2.581-3.656l2.168-0.515c-0.638,1.162-1.237,2.353-1.583,3.111c-0.347,0.761-0.441,1.084-0.515,1.437
	c-0.236,1.105-0.307,2.231,0.198,3.106c0.153,0.267,0.351,0.5,0.589,0.7c0.241,0.195,0.521,0.355,0.852,0.458
	c0.327,0.107,0.704,0.166,1.083,0.159c0.981-0.008,1.849-0.225,3.016-0.969c0.399-0.254,0.849-0.578,1.465-1.128
	c0.617-0.549,1.394-1.32,2.138-2.134c-0.067,0.707-0.107,1.416-0.112,1.874c-0.001,0.458,0.03,0.667,0.064,0.833
	c0.035,0.168,0.07,0.295,0.113,0.407c0.041,0.106,0.091,0.199,0.141,0.28c0.193,0.285,0.395,0.395,0.626,0.483
	c0.789,0.209,1.422,0.1,2.23-0.271c0.285-0.137,0.604-0.317,1.02-0.619c0.414-0.303,0.928-0.736,1.42-1.188
	c-0.028,0.291-0.041,0.576-0.038,0.792c0.005,0.209,0.023,0.339,0.047,0.447c0.037,0.181,0.077,0.306,0.186,0.459
	c0.277,0.344,0.576,0.396,0.958,0.453c0.154,0.019,0.345,0.031,0.538,0.031c0.755-0.008,1.521-0.263,2.438-0.862
	c0.478-0.311,0.995-0.733,1.556-1.29c0.56-0.562,1.168-1.263,1.804-2.141c0.639-0.872,1.31-1.93,1.919-3.017l-0.58-0.13
	C44.323,16.539,43.501,17.555,42.973,18.182 M71.128,2.567c-0.059,0.553-0.162,1.111-0.341,1.763
	c-0.176,0.655-0.431,1.404-0.715,2.104c-0.286,0.697-0.601,1.345-0.904,1.889c-0.306,0.541-0.593,0.972-0.858,1.326
	c-0.683,0.899-1.266,1.392-1.882,1.678c-0.641,0.272-1.231,0.31-1.747-0.022c-0.144-0.098-0.296-0.302-0.344-0.491
	c-0.106-0.638,0.079-1.181,0.348-1.877c0.12-0.284,0.268-0.587,0.471-0.924c0.2-0.341,0.456-0.715,0.792-1.138
	c0.336-0.422,0.752-0.894,1.275-1.4c0.525-0.514,1.164-1.069,1.831-1.569C69.717,3.404,70.412,2.959,71.128,2.567 M63.336,19.701
	c0.165-0.65,0.269-1.263,0.323-1.878c0.041-0.458,0.008-0.919-0.108-1.258c-0.054-0.155-0.122-0.289-0.2-0.409
	c-0.193-0.285-0.403-0.429-0.657-0.552c-0.143-0.067-0.314-0.121-0.513-0.156c-0.2-0.042-0.431-0.061-0.69-0.061
	c-0.268,0-0.566,0.031-0.863,0.082c-1.2,0.227-2.461,0.873-3.775,2.328c-0.334,0.375-0.669,0.805-1,1.296
	c-0.328,0.493-0.65,1.049-0.948,1.661c-0.3,0.605-0.581,1.27-0.821,1.964c-0.237,0.699-0.439,1.425-0.593,2.157
	c0.676-0.564,1.371-1.112,1.869-1.478c0.499-0.365,0.801-0.547,1.207-0.769c0.404-0.218,0.914-0.469,1.43-0.705
	c0.179-0.815,0.458-1.639,0.789-2.325c0.151-0.324,0.312-0.606,0.466-0.848c0.154-0.246,0.307-0.446,0.455-0.622
	c0.417-0.497,0.809-0.772,1.194-0.933c0.571-0.189,1.019-0.269,1.49,0.176c0.202,0.254,0.245,0.461,0.273,0.727
	c-0.003,0.974-0.22,1.85-0.583,2.855c-0.166,0.446-0.376,0.913-0.634,1.401c-0.257,0.482-0.57,0.988-0.947,1.511
	c-0.744,1.046-1.796,2.175-2.933,3.08c-1.089,0.87-2.224,1.489-3,1.732c-0.375,0.118-0.667,0.166-0.936,0.171
	c-0.269,0.002-0.516-0.033-0.765-0.113c-0.485-0.153-0.987-0.481-1.375-0.962c-0.19-0.242-0.349-0.51-0.472-0.788
	c-0.249-0.579-0.324-1.164-0.275-1.726c0.079-0.661,0.24-1.309,0.662-2.423c0.427-1.119,1.11-2.706,2.028-4.486
	c0.922-1.771,2.075-3.74,3.189-5.455c1.114-1.71,2.194-3.163,3.161-4.352c0.968-1.195,1.827-2.126,2.6-2.884
	c0.772-0.758,1.457-1.344,2.07-1.817c0.613-0.465,1.155-0.813,1.647-1.092c0.491-0.279,0.936-0.484,1.348-0.641
	c1.087-0.432,2.073-0.456,3.177-0.439c-0.857,0.493-1.687,1.048-2.426,1.634c-1.488,1.165-2.584,2.384-3.297,3.422
	c-0.36,0.528-0.636,1.014-0.855,1.47c-0.215,0.457-0.372,0.882-0.48,1.286c-0.112,0.404-0.175,0.783-0.21,1.079
	c-0.031,0.297-0.026,0.515,0,0.701c0.023,0.192,0.073,0.357,0.133,0.505c0.064,0.147,0.141,0.27,0.239,0.382
	c0.097,0.113,0.214,0.21,0.346,0.286c0.136,0.081,0.294,0.141,0.482,0.189c0.184,0.048,0.398,0.071,0.611,0.071
	c0.451,0,0.91-0.119,1.465-0.374c0.288-0.139,0.606-0.324,0.95-0.575c0.346-0.25,0.722-0.561,1.111-0.944
	c0.385-0.384,0.78-0.833,1.156-1.323c0.375-0.491,0.732-1.029,1.036-1.563c0.59-1.029,1.007-2.071,1.229-2.97
	c0.111-0.434,0.175-0.828,0.211-1.226c0.008-0.097,0.011-0.197,0.012-0.392c-0.005-0.194-0.012-0.488-0.013-0.695
	c-0.001-0.208,0.007-0.328,0.019-0.452c0.978-0.013,1.947,0.103,2.842,0.344c0.899,0.241,1.726,0.609,2.933,1.366
	c1.203,0.76,2.785,1.909,4.289,3.166l2.853-2.951c-0.943-0.814-1.931-1.563-2.796-2.13c-0.864-0.567-1.606-0.948-2.268-1.233
	c-0.661-0.277-1.244-0.456-1.784-0.572c-0.826-0.176-1.488-0.214-2.402-0.116c-0.313,0.035-0.632,0.089-1.275,0.266
	c-0.639,0.181-1.593,0.492-2.536,0.836c-0.507-0.331-1.037-0.629-1.427-0.808c-0.391-0.176-0.63-0.239-0.883-0.279
	c-0.946-0.156-1.811-0.046-2.974,0.289c-0.845,0.253-1.857,0.648-3.048,1.272c-1.193,0.628-2.56,1.485-3.973,2.544
	c-1.411,1.054-2.862,2.317-4.195,3.636c-1.333,1.323-2.545,2.706-3.578,4.049c-1.034,1.335-1.89,2.632-2.593,3.851
	c-0.704,1.215-1.248,2.344-1.678,3.405c-0.431,1.068-0.745,2.058-0.973,2.98c-0.23,0.93-0.371,1.788-0.433,2.481
	c-0.067,0.696-0.053,1.223,0.017,1.726c0.068,0.502,0.195,0.989,0.384,1.443c0.192,0.451,0.44,0.878,0.748,1.263
	c0.309,0.387,0.685,0.726,1.102,1.015c0.42,0.277,0.894,0.501,1.392,0.651c1.042,0.298,2.023,0.318,3.166-0.029
	c0.592-0.177,1.27-0.45,2.007-0.854c1.497-0.808,3.182-2.167,4.477-3.641c1.336-1.5,2.288-3.058,2.896-4.442
	C62.939,21.005,63.166,20.34,63.336,19.701 M86.738,24.745c-0.362,0.564-0.767,1.099-1.096,1.498
	c-0.319,0.397-0.571,0.647-0.781,0.833c-0.213,0.182-0.388,0.299-0.565,0.373c-0.353,0.153-0.739,0.18-0.983-0.039
	c-0.205-0.251-0.18-0.442-0.157-0.803c0.017-0.161,0.052-0.376,0.105-0.619c0.058-0.246,0.138-0.523,0.251-0.835
	c0.111-0.313,0.26-0.661,0.461-1.068c0.202-0.406,0.458-0.866,0.779-1.381c0.324-0.514,0.714-1.081,1.165-1.665
	c0.454-0.58,0.968-1.188,1.46-1.714c0.5-0.528,0.976-0.984,1.376-1.323c0.4-0.345,0.718-0.572,0.965-0.724
	c0.248-0.152,0.421-0.231,0.557-0.282c0.136-0.05,0.238-0.07,0.338-0.07c0.179,0.001,0.313,0.001,0.448,0.084
	c0.2,0.185,0.09,0.397,0.025,0.647c-0.044,0.148-0.12,0.337-0.228,0.561c-0.111,0.228-0.262,0.499-0.426,0.758L86.738,24.745z
	 M72.781,18.577c-0.019,0.188-0.045,0.371-0.083,0.552c-0.036,0.184-0.084,0.362-0.247,0.741c-0.159,0.38-0.44,0.962-0.742,1.534
	c-0.32-0.106-0.637-0.234-0.864-0.35c-0.225-0.11-0.362-0.207-0.473-0.298c-0.116-0.09-0.203-0.18-0.275-0.268
	c-0.153-0.18-0.246-0.346-0.313-0.537c-0.267-0.966-0.118-1.961,1.002-2.741c0.336-0.204,0.664-0.295,0.967-0.288
	c0.309,0.004,0.538,0.018,0.786,0.237c0.237,0.269,0.249,0.498,0.269,0.869C72.808,18.18,72.798,18.381,72.781,18.577 M70.3,24.037
	c-0.385,0.555-0.78,1.072-1.164,1.519c-0.379,0.452-0.752,0.837-1.064,1.129c-0.316,0.297-0.581,0.51-0.797,0.654
	c-0.214,0.145-0.38,0.228-0.506,0.282c-0.127,0.054-0.221,0.074-0.322,0.074c-0.299-0.005-0.59-0.137-0.828-0.466
	c-0.077-0.106-0.141-0.231-0.191-0.369c-0.113-0.329-0.145-0.6-0.105-1.032c0.024-0.241,0.075-0.555,0.157-0.882
	c0.083-0.325,0.199-0.67,0.356-1.031c0.53-1.236,1.508-2.547,2.805-3.657c0.126,0.289,0.291,0.568,0.548,0.846
	c0.117,0.131,0.259,0.255,0.432,0.389c0.171,0.13,0.377,0.256,0.68,0.399c0.304,0.139,0.699,0.292,1.106,0.415
	C71.062,22.907,70.689,23.488,70.3,24.037 M93.59,23.195c-0.543,0.743-1.11,1.467-1.567,2.013c-0.455,0.55-0.803,0.912-1.083,1.19
	c-0.278,0.271-0.492,0.454-0.669,0.587c-0.171,0.135-0.314,0.221-0.429,0.283c-0.238,0.122-0.4,0.181-0.626,0.142
	c-0.222-0.054-0.213-0.251-0.205-0.371c0.034-0.094-0.04,0.037,0.275-0.566c0.234-0.444,0.683-1.286,1.14-2.128l5.272-8.97h-2.594
	l-0.893,0.766c-0.322-0.216-0.656-0.414-0.905-0.531c-0.247-0.122-0.405-0.162-0.559-0.192c-0.161-0.031-0.319-0.043-0.492-0.043
	c-0.894,0.004-1.744,0.294-2.688,0.854c-0.281,0.168-0.582,0.373-0.924,0.634c-0.337,0.263-0.714,0.593-1.168,1.016
	c-0.46,0.425-0.994,0.949-1.939,2.134c-0.946,1.186-2.304,3.027-3.26,4.286c-0.951,1.263-1.504,1.951-1.893,2.374
	c-0.378,0.429-0.589,0.597-0.758,0.719c-0.168,0.118-0.291,0.182-0.4,0.225c-0.15,0.059-0.27,0.078-0.419,0.058
	c-0.242-0.013-0.525-0.37-0.565-0.616c-0.09-0.464-0.038-0.672,0.128-1.382c0.099-0.418,0.27-1.037,0.529-1.828
	c0.253-0.791,0.596-1.753,0.962-2.705c2.008-1.293,3.959-2.714,5.45-3.949c1.498-1.236,2.535-2.286,3.61-3.549
	c1.067-1.27,2.172-2.747,3.18-4.302l-1.192,0.13c-0.769,1.104-1.607,2.155-2.593,3.257c-0.983,1.097-2.115,2.242-3.356,3.343
	c-1.24,1.103-2.59,2.166-3.983,3.141c0.883-1.666,1.825-3.315,2.813-4.923c0.986-1.6,2.023-3.166,3.048-4.605
	c1.025-1.436,2.04-2.747,2.954-3.833c0.918-1.086,1.727-1.948,2.389-2.59c0.661-0.639,1.174-1.06,1.573-1.346
	c0.395-0.282,0.683-0.433,0.9-0.527c0.217-0.087,0.366-0.121,0.516-0.121c0.07,0,0.142,0.023,0.208,0.07
	c0.279,0.246,0.23,0.386,0.18,0.658c-0.009,0.076-0.032,0.156-0.154,0.466c-0.122,0.306-0.345,0.84-0.58,1.368l1.074-0.125
	c0.198-0.312,0.38-0.635,0.492-0.861c0.113-0.221,0.15-0.339,0.183-0.484c0.033-0.137,0.058-0.295,0.071-0.453
	c0.038-0.525-0.059-1.034-0.535-1.46c-0.129-0.109-0.279-0.193-0.439-0.248c-0.552-0.172-1.05-0.073-1.685,0.099
	c-0.442,0.126-0.951,0.328-1.56,0.661c-0.605,0.328-1.313,0.79-2.165,1.466c-0.852,0.677-1.854,1.574-2.986,2.761
	c-1.137,1.185-2.404,2.659-3.712,4.377c-1.307,1.715-2.653,3.675-3.885,5.68c-1.233,2.004-2.356,4.055-3.371,6.154h-1.417
	c0.279-0.587,0.542-1.188,0.71-1.618c0.163-0.437,0.237-0.697,0.295-0.96c0.163-0.72,0.197-1.523-0.074-2.16
	c-0.082-0.196-0.186-0.365-0.307-0.51c-0.467-0.533-0.876-0.642-1.445-0.653c-0.227,0.007-0.501,0.039-0.819,0.12
	c-0.317,0.074-0.673,0.199-1.081,0.397c-0.411,0.194-0.869,0.459-1.392,0.825c-0.522,0.37-1.102,0.837-1.716,1.425
	c-0.615,0.587-1.263,1.285-1.874,2.037c-1.254,1.552-2.256,3.232-2.822,4.516c-0.29,0.651-0.492,1.229-0.635,1.736
	c-0.141,0.511-0.217,0.947-0.256,1.325c-0.032,0.375-0.024,0.7,0.024,0.988c0.044,0.29,0.125,0.548,0.241,0.774
	c0.116,0.231,0.265,0.432,0.444,0.597c0.18,0.163,0.388,0.297,0.624,0.383c0.237,0.09,0.5,0.131,0.768,0.135
	c0.551,0.002,1.097-0.138,1.774-0.475c0.348-0.18,0.733-0.416,1.176-0.748c0.442-0.34,0.934-0.766,1.501-1.348
	c0.574-0.587,1.218-1.329,1.958-2.309c0.734-0.973,1.569-2.197,2.343-3.45h1.415c-0.471,1.227-0.914,2.463-1.169,3.247
	c-0.255,0.786-0.324,1.118-0.38,1.437c-0.103,0.604-0.177,1.191-0.126,1.701c0.026,0.234,0.075,0.447,0.144,0.643
	c0.07,0.195,0.161,0.367,0.274,0.528c0.114,0.151,0.247,0.294,0.406,0.412c0.156,0.112,0.336,0.202,0.534,0.266
	c0.2,0.059,0.419,0.096,0.651,0.098c0.781-0.006,1.534-0.272,2.467-0.918c0.35-0.246,0.746-0.562,1.223-1.011
	c0.476-0.451,1.037-1.04,1.568-1.661c-0.034,0.385-0.048,0.77-0.041,1.092c0.007,0.319,0.032,0.569,0.065,0.779
	c0.035,0.203,0.08,0.371,0.128,0.518c0.048,0.144,0.103,0.261,0.161,0.363c0.126,0.22,0.261,0.356,0.404,0.463
	c0.288,0.188,0.526,0.25,0.91,0.246c0.155-0.004,0.352-0.018,0.556-0.058c0.405-0.08,0.786-0.22,1.272-0.514
	c0.246-0.151,0.521-0.345,0.905-0.681c0.379-0.331,0.87-0.811,1.337-1.308c-0.031,0.354-0.045,0.707-0.042,0.977
	c0.006,0.268,0.032,0.45,0.06,0.592c0.027,0.153,0.056,0.266,0.097,0.366c0.093,0.294,0.397,0.603,0.642,0.667
	c0.785,0.209,1.428,0.031,2.3-0.389c0.344-0.18,0.73-0.416,1.155-0.744c0.423-0.333,0.892-0.755,1.423-1.316
	c0.53-0.565,1.116-1.267,1.739-2.145c0.625-0.87,1.295-1.923,1.906-3.011L93.59,23.195z M97.08,3.043
	c-1.266,0.752-2.393,1.244-3.69,1.57c-1.298,0.333-2.763,0.514-4.206,0.496l-2.643,3.204c0.218,0.034,0.432,0.059,0.615,0.074
	c0.357,0.043,0.753,0.06,1.261,0.055c0.947,0.005,1.906-0.125,2.916-0.391c2.029-0.525,4.304-1.702,6.067-3.207
	c0.89-0.751,1.645-1.558,2.248-2.348c0.604-0.794,1.061-1.57,1.409-2.389C99.75,1.26,98.347,2.284,97.08,3.043 M52.509,7.953h-3.064
	l-1.547,2.82h2.946L52.509,7.953z M35.628,25.821c-1.392-0.301-3.037-0.467-4.697-0.45c-1.479-0.081-2.977,0.035-5.677,0.649
	c-2.703,0.62-6.609,1.736-9.2,2.375c-2.593,0.636-3.871,0.798-5.146,0.824c-0.626,0-1.249-0.054-1.795-0.154
	c-0.551-0.098-1.022-0.245-1.431-0.42c-0.413-0.169-0.762-0.372-1.066-0.594c-0.302-0.222-0.561-0.468-0.784-0.729
	c-0.224-0.263-0.408-0.541-0.56-0.846c-0.156-0.302-0.279-0.627-0.371-0.975c-0.091-0.352-0.156-0.73-0.183-1.142
	c-0.03-0.409-0.026-0.851,0.015-1.294c0.065-0.67,0.201-1.338,0.481-2.234c0.282-0.901,0.706-2.03,1.359-3.408
	c0.652-1.373,1.53-2.989,2.531-4.599c1.004-1.6,2.128-3.183,3.189-4.524c1.058-1.335,2.053-2.42,2.925-3.278
	c0.873-0.858,1.63-1.484,2.281-1.965c0.652-0.475,1.195-0.795,1.679-1.033c0.477-0.239,0.9-0.388,1.275-0.485
	c0.379-0.097,0.709-0.141,1.042-0.141c0.217,0.006,0.383,0.016,0.556,0.159c0.163,0.175,0.174,0.318,0.183,0.577
	c0.005,0.112-0.001,0.267-0.014,0.417c-0.499,0.233-1.05,0.606-1.474,0.972c-0.196,0.17-0.34,0.319-0.458,0.45
	c-0.299,0.345-0.487,0.667-0.523,1.008c-0.058,0.248,0.217,0.698,0.412,0.819c0.602,0.47,1.354,0.156,2.103-0.691
	c0.147-0.17,0.292-0.371,0.425-0.589c0.132-0.219,0.252-0.456,0.349-0.692c0.369-0.954,0.581-1.938,0.034-2.776
	c-0.127-0.189-0.289-0.357-0.486-0.497c-0.196-0.137-0.429-0.25-0.7-0.326c-0.268-0.078-0.572-0.122-1.03-0.108
	c-0.456,0.008-1.061,0.074-1.752,0.228c-0.688,0.159-1.454,0.411-2.319,0.794c-0.863,0.388-1.82,0.904-2.884,1.612
	c-1.06,0.706-2.229,1.601-3.434,2.679c-1.202,1.085-2.44,2.351-3.584,3.695c-2.328,2.727-4.151,5.649-5.195,7.938
	c-0.54,1.164-0.909,2.195-1.171,3.106c-0.26,0.913-0.408,1.71-0.479,2.507c-0.095,1.054-0.067,2.104,0.108,2.984
	c0.084,0.418,0.193,0.795,0.331,1.151c0.137,0.356,0.299,0.682,0.492,0.983c0.193,0.308,0.418,0.586,0.677,0.85
	c0.262,0.262,0.561,0.509,0.914,0.735c0.353,0.228,0.756,0.43,1.243,0.615c0.484,0.182,1.052,0.344,1.755,0.453
	c0.7,0.116,1.54,0.178,2.381,0.178c1.32,0.041,2.654-0.06,4.896-0.551c2.243-0.493,5.394-1.363,7.645-1.851
	c2.25-0.49,3.596-0.594,4.926-0.547c0.84-0.004,1.676,0.057,2.349,0.174c0.67,0.11,1.177,0.27,1.647,0.48
	c0.47,0.201,0.906,0.455,1.375,0.841c0.471,0.382,0.983,0.893,1.442,1.454c1.474-0.992,2.984-1.578,4.119-1.766
	c0.57-0.11,1.082-0.159,1.591-0.159c0.215,0.003,0.427,0.024,0.68,0.059c0.251,0.032,0.54,0.087,1.352,0.35
	c0.812,0.27,2.151,0.752,3.476,1.257c-1.296-1.22-2.723-2.302-4.007-3.06C38.161,26.554,37.022,26.12,35.628,25.821"/>
</svg>
