<?xml version="1.0" encoding="utf-8"?>
<!-- Generator: Adobe Illustrator 19.1.0, SVG Export Plug-In . SVG Version: 6.00 Build 0)  -->
<svg version="1.1" id="Слой_1" xmlns="http://www.w3.org/2000/svg" xmlns:xlink="http://www.w3.org/1999/xlink" x="0px" y="0px"
	 viewBox="0 0 51.644 45.177" enable-background="new 0 0 51.644 45.177" xml:space="preserve">
<path fill="#0C0E0F" d="M46.049,39.618c-8.05,0-14.176-4.672-15.987-12.195l-0.064-0.267H26.35c-0.565,0-1.024-0.459-1.024-1.024
	c0-0.564,0.459-1.024,1.024-1.024h3.3l-0.04-0.384c-0.08-0.777-0.118-1.492-0.118-2.247c0-0.979,0.071-2,0.225-3.213l0.049-0.392
	H26.35c-0.565,0-1.024-0.459-1.024-1.024s0.459-1.025,1.024-1.025h3.939l0.076-0.245C32.532,9.539,38.231,5.336,45.61,5.336
	c1.781,0,3.864,0.347,5.437,0.906c0.3,0.1,0.597,0.402,0.597,0.792c0,0.14-0.037,0.284-0.11,0.429
	c-0.142,0.352-0.432,0.539-0.809,0.539c-0.116,0-0.214-0.026-0.351-0.062l-0.1-0.026c-1.388-0.481-2.993-0.74-4.615-0.74
	c-6.079,0-10.943,3.433-13.009,9.184l-0.167,0.465h14.785c0.565,0,1.025,0.46,1.025,1.025s-0.46,1.024-1.025,1.024H31.947
	l-0.048,0.291c-0.187,1.126-0.278,2.21-0.278,3.314c0,0.745,0.042,1.525,0.122,2.318l0.032,0.313h15.493
	c0.565,0,1.025,0.46,1.025,1.024c0,0.565-0.46,1.024-1.025,1.024h-15.07l0.131,0.447c1.848,6.278,7.18,10.178,13.914,10.178
	c1.566,0,2.847-0.182,3.914-0.555c0.151-0.036,0.319-0.078,0.471-0.078c0.351,0,0.591,0.167,0.755,0.526
	c0.027,0.091,0.066,0.206,0.066,0.295c0,0.356-0.266,0.705-0.505,0.794C49.488,39.265,47.471,39.618,46.049,39.618 M8.848,7.913
	C4.95,8.37,2.623,10.679,2.623,14.089c0,4.121,3.165,5.782,6.132,7.016l0.482,0.2V7.867L8.848,7.913z M11.286,37.957l0.405-0.068
	c3.853-0.642,6.246-3.128,6.246-6.488c0-3.991-2.963-5.824-6.165-7.209l-0.486-0.21V37.957z M10.261,45.177
	c-0.565,0-1.024-0.459-1.024-1.024v-4.329l-0.323-0.023c-3.704-0.268-7.135-1.834-8.742-3.991C0.063,35.664,0,35.442,0,35.2
	c0-0.241,0.088-0.473,0.235-0.619c0.169-0.17,0.418-0.283,0.62-0.283c0.223,0,0.524,0.139,0.716,0.33
	c1.773,1.857,4.5,3.119,7.286,3.372l0.38,0.034V23.159l-0.22-0.086c-4.809-1.914-8.488-3.79-8.488-8.984
	c0-4.409,3.294-7.555,8.391-8.015l0.317-0.028V1.024C9.237,0.459,9.696,0,10.261,0c0.565,0,1.025,0.459,1.025,1.024v5.037
	l0.313,0.031c2.613,0.262,4.954,1.132,6.589,2.45c0.19,0.158,0.4,0.49,0.4,0.834c0,0.151-0.063,0.321-0.172,0.466
	c-0.226,0.317-0.579,0.341-0.683,0.341c-0.219,0-0.426-0.073-0.599-0.213c-1.487-1.165-3.325-1.86-5.466-2.069l-0.382-0.037v14.233
	l0.223,0.086c4.662,1.794,8.522,3.723,8.522,9.17c0,4.485-3.313,7.774-8.438,8.379l-0.307,0.036v4.385
	C11.286,44.718,10.826,45.177,10.261,45.177"/>
</svg>
