<?xml version="1.0" encoding="utf-8"?>
<!-- Generator: Adobe Illustrator 19.1.0, SVG Export Plug-In . SVG Version: 6.00 Build 0)  -->
<svg version="1.1" id="Слой_1" xmlns="http://www.w3.org/2000/svg" xmlns:xlink="http://www.w3.org/1999/xlink" x="0px" y="0px"
	 viewBox="0 0 97.364 19.013" enable-background="new 0 0 97.364 19.013" xml:space="preserve">
<path fill="#0C0E0F" d="M54.105,14.231c-0.17,1.204-1.129,1.836-2.267,1.747c-0.285-0.022-0.542-0.08-0.773-0.171
	c-0.918-0.527-1.195-1.408-1.276-1.962c0,0-0.001,0-0.001,0.001c-0.063-0.857-0.131-2.649,0.287-3.495
	c0.355-0.65,0.974-1.003,1.796-1.03c1.166-0.039,2.049,0.54,2.223,1.724C54.248,12.089,54.255,13.188,54.105,14.231 M53.526,6.319
	c-1.463-0.156-2.729,0.287-3.799,1.574v-0.4V0.546V0.469V0l-3.875,0.469v18.269h3.875v-1.085c0.522,0.374,1.031,0.823,1.625,1.036
	c2.258,0.809,5.235,0.149,6.277-2.871c0.668-1.937,0.651-3.923,0.148-5.882C57.218,7.759,55.77,6.558,53.526,6.319"/>
<path fill="#0C0E0F" d="M67.423,14.035c-0.013,0.08-0.026,0.16-0.045,0.239c-0.257,1.144-1.087,1.762-2.194,1.71
	c-1.191-0.054-2.007-0.75-2.122-1.939c-0.083-0.869-0.089-1.756-0.017-2.625c0.113-1.373,0.971-2.123,2.258-2.098
	c1.059,0.021,1.812,0.62,2.081,1.638C67.628,11.983,67.447,13.802,67.423,14.035 M67.259,6.544c-1.347-0.36-2.706-0.356-4.05,0.002
	c-2.012,0.536-3.36,1.809-3.795,3.834c-0.237,1.104-0.284,2.279-0.221,3.412c0.143,2.592,1.745,4.438,4.233,5.011
	c0.035,0.009,0.071,0.015,0.107,0.023h-0.001c0,0,0.007,0.001,0.018,0.004c0.096,0.019,0.191,0.036,0.288,0.051
	c0.032,0.003,0.065,0.005,0.096,0.009h0.003c0.121,0.022,0.265,0.038,0.417,0.05c0.487,0.052,1.107,0.089,1.624,0.028
	c0.004,0,0.006-0.001,0.008-0.002c0.027,0,0.053,0,0.08-0.002c2.568-0.133,4.517-1.753,5.086-4.237
	c0.312-1.363,0.312-2.732,0.01-4.096C70.69,8.492,69.392,7.116,67.259,6.544"/>
<path fill="#0C0E0F" d="M9.089,6.48H6.323V4.642c0.202-1.739,3.074-1.409,3.074-1.409l0.001-0.119L9.397,3.101V0.245V0.244H9.395
	C9.296,0.221,3.682-1.111,2.567,3.162c0,0,0,0.002-0.002,0.003C2.563,3.174,2.561,3.183,2.558,3.192
	C2.383,3.727,2.395,6.173,2.397,6.48H0v3.271h2.546v8.898h3.707V9.752h2.836L9.408,6.48H9.089z"/>
<path fill="#0C0E0F" d="M17.612,14.213c-0.121,1.134-1.038,1.814-2.122,1.771c-1.111-0.042-1.846-0.637-2.086-1.703
	c-0.287-1.516,0.049-3.318,0.078-3.464c0.29-1.017,1.03-1.521,2.116-1.495c1.067,0.024,1.889,0.655,2.009,1.76
	C17.72,12.115,17.723,13.179,17.612,14.213 M17.93,8.045c-0.045-0.05-0.09-0.099-0.129-0.139V7.906
	c-0.006-0.006-0.011-0.011-0.017-0.018c-0.054-0.056-0.092-0.093-0.092-0.093c-0.873-0.888-1.202-1.108-1.886-1.31
	c-2.63-0.775-5.19,0.602-6,3.248c-0.498,1.625-0.506,3.298-0.214,4.945c0.631,3.565,3.283,4.759,6.109,4.17
	c0.867-0.18,1.512-0.72,2.11-1.472c0,0,0.054-0.066,0.119-0.194v1.568h3.617V6.495H17.93V8.045z"/>
<path fill="#0C0E0F" d="M32.592,17.872c-0.168-0.614-0.359-1.219-0.544-1.804l-0.174-0.651c0,0-4.532,2.176-5.239-1.958
	c-0.066-0.683-0.046-1.387,0.048-2.06c0.177-1.271,0.952-1.952,2.185-2.069c0.417-0.039,0.851-0.019,1.263,0.051
	c0.562,0.095,1.11,0.264,1.725,0.415c0.214-0.653,0.432-1.3,0.636-1.951c0.032-0.102,0.059-0.19,0.08-0.269l0.102-0.392
	c-0.025-0.052-0.087-0.105-0.17-0.158c-0.104-0.087-0.282-0.159-0.559-0.261c-0.111-0.04-0.222-0.077-0.334-0.111
	c-0.099-0.032-0.164-0.051-0.164-0.051c-1.191-0.34-2.413-0.366-3.655-0.235c-2.617,0.276-4.394,1.821-4.887,4.371
	c-0.258,1.341-0.246,2.699,0.051,4.045c0.444,2.015,1.666,3.317,3.652,3.9c1.295,0.379,2.623,0.398,3.944,0.192
	c0.556-0.087,1.353-0.375,1.925-0.58l0.217-0.076L32.592,17.872L32.592,17.872z"/>
<path fill="#0C0E0F" d="M41.039,11.406h-4.187c0.021-0.833,0.126-1.607,0.866-2.078c0.786-0.5,1.654-0.519,2.463-0.071
	C40.998,9.709,41.062,10.524,41.039,11.406 M44.524,13.077c-0.017-0.848-0.006-1.701-0.126-2.535
	c-0.331-2.286-1.723-3.733-3.974-4.111c-0.859-0.143-1.767-0.124-2.64-0.041c-2.389,0.228-4.203,1.716-4.575,3.956
	c-0.225,1.358-0.254,2.8-0.072,4.165c0.276,2.052,1.275,3.359,3.004,3.987h0.001c0.008,0,0.015,0.002,0.023,0.003
	c-0.001,0.001-0.001,0.001-0.001,0.001c0.789,0.236,4.652,1.246,8.056-0.465l-0.136-0.501c-0.002,0.001-0.004,0.001-0.005,0.001
	c-0.158-0.668-0.347-1.33-0.526-1.993l-0.019-0.065c0,0-0.071,0.026-0.196,0.066c-0.003,0-0.007,0-0.009,0
	c-0.149,0.039-0.296,0.085-0.442,0.134c-0.027,0.008-0.054,0.017-0.081,0.025c-0.515,0.145-1.252,0.324-2.03,0.424
	c-0.653,0.066-1.313,0.069-1.979,0.012c-1.081-0.179-1.908-0.758-1.869-2.127h0.618c2.12,0,4.239,0,6.359-0.001
	c0.051,0,0.102,0.001,0.152,0v0.001c0,0,0.455-0.006,0.474-0.011c0,0,0-0.12,0-0.134L44.524,13.077z"/>
<polygon fill="#0C0E0F" points="97.364,6.622 93.254,6.622 89.684,12.203 89.684,0.557 89.684,0.48 89.684,0.011 85.809,0.48 
	85.809,18.75 89.684,18.75 89.684,13.159 93.254,18.758 97.364,18.758 93.49,12.68 "/>
<path fill="#0C0E0F" d="M80.638,14.033c-0.013,0.081-0.026,0.16-0.044,0.239c-0.258,1.144-1.088,1.762-2.195,1.711
	c-1.19-0.056-2.006-0.751-2.121-1.94c-0.083-0.869-0.091-1.756-0.018-2.625c0.114-1.373,0.972-2.124,2.26-2.098
	c1.056,0.02,1.811,0.62,2.08,1.637C80.843,11.979,80.663,13.8,80.638,14.033 M80.475,6.542c-1.346-0.36-2.707-0.356-4.051,0.002
	c-2.011,0.536-3.359,1.809-3.794,3.833c-0.237,1.105-0.284,2.28-0.221,3.413c0.142,2.591,1.745,4.438,4.232,5.011
	c0.036,0.008,0.072,0.014,0.108,0.023h-0.001c0,0,0.006,0.001,0.017,0.003c0.096,0.019,0.193,0.037,0.289,0.051
	c0.032,0.003,0.064,0.006,0.096,0.008c0.001,0.001,0.002,0.001,0.003,0.001c0.121,0.023,0.265,0.039,0.417,0.051
	c0.487,0.052,1.108,0.089,1.624,0.028c0.003-0.001,0.005-0.001,0.008-0.002c0.028,0,0.053,0,0.079-0.002
	c2.569-0.133,4.518-1.753,5.087-4.237c0.312-1.362,0.312-2.732,0.011-4.096C83.905,8.49,82.608,7.113,80.475,6.542"/>
</svg>
