<?xml version="1.0" encoding="utf-8"?>
<!-- Generator: Adobe Illustrator 19.1.0, SVG Export Plug-In . SVG Version: 6.00 Build 0)  -->
<svg version="1.1" id="Слой_1" xmlns="http://www.w3.org/2000/svg" xmlns:xlink="http://www.w3.org/1999/xlink" x="0px" y="0px"
	 viewBox="0 0 52.335 52.82" enable-background="new 0 0 52.335 52.82" xml:space="preserve">
<path fill="#0C0E0F" d="M36.307,5.828h2.929l-1.457-3.557L36.307,5.828z M35.636,7.471L34.75,9.628
	c-0.086,0.243-0.328,0.4-0.585,0.4H33.65c-0.328,0-0.557-0.257-0.557-0.557c0-0.057,0.014-0.128,0.043-0.2L36.879,0.4
	c0.1-0.243,0.342-0.4,0.6-0.4h0.685c0.257,0,0.5,0.157,0.6,0.4l3.744,8.871c0.027,0.072,0.042,0.143,0.042,0.2
	c0,0.3-0.228,0.557-0.557,0.557h-0.614c-0.258,0-0.5-0.157-0.586-0.4l-0.886-2.157H35.636z"/>
<path fill="#0C0E0F" d="M50.592,0.556c0-0.285,0.243-0.528,0.529-0.528h0.686c0.285,0,0.528,0.243,0.528,0.528v5.329
	c0,3.057-1.871,4.3-3.971,4.3c-2.486,0-4.257-1.471-4.257-4.4V0.556c0-0.285,0.242-0.528,0.528-0.528h0.7
	c0.286,0,0.528,0.243,0.528,0.528v4.857c0,1.872,0.772,3.129,2.501,3.129c1.514,0,2.228-1.071,2.228-3.014V0.556z"/>
<path fill="#0C0E0F" d="M1.984,51.152h10.837l-1.537-8.827H3.521L1.984,51.152z M0,52.82l2.119-12.163h10.568l2.118,12.163H0z"/>
<path fill="#0C0E0F" d="M18.423,51.152H29.26l-1.537-8.827H19.96L18.423,51.152z M16.439,52.82l2.119-12.163h10.568l2.119,12.163
	H16.439z"/>
<path fill="#0C0E0F" d="M34.863,51.152H45.7l-1.537-8.827H36.4L34.863,51.152z M32.879,52.82l2.119-12.163h10.567l2.119,12.163
	H32.879z"/>
<path fill="#0C0E0F" d="M10.203,34.886h10.838l-1.537-8.826h-7.763L10.203,34.886z M8.219,36.553l2.12-12.162h10.567l2.118,12.162
	H8.219z"/>
<path fill="#0C0E0F" d="M26.643,34.886h10.838l-1.538-8.826H28.18L26.643,34.886z M24.659,36.553l2.119-12.162h10.568l2.119,12.162
	H24.659z"/>
<path fill="#0C0E0F" d="M18.423,19.052H29.26l-1.537-8.826H19.96L18.423,19.052z M16.439,20.72l2.119-12.162h10.568l2.119,12.162
	H16.439z"/>
</svg>
