<?xml version="1.0" encoding="utf-8"?>
<!-- Generator: Adobe Illustrator 18.0.0, SVG Export Plug-In . SVG Version: 6.00 Build 0)  -->
<!DOCTYPE svg PUBLIC "-//W3C//DTD SVG 1.1//EN" "http://www.w3.org/Graphics/SVG/1.1/DTD/svg11.dtd">
<svg version="1.1" id="Слой_1" xmlns="http://www.w3.org/2000/svg" xmlns:xlink="http://www.w3.org/1999/xlink" x="0px" y="0px"
	 viewBox="0 0 83.556 119.553" enable-background="new 0 0 83.556 119.553" xml:space="preserve">
<path fill="none" stroke="#07AD55" stroke-width="3" stroke-linecap="round" d="M81.283,49.667c1.653-1.644,0.496-4.603-1.984-4.603
	h-8.925c-1.323,0-2.48-1.151-2.48-2.466V27.31c0-0.658,0.331-1.315,0.661-1.644l12.563-12.494c1.653-1.644,0.496-4.603-1.984-4.603
	h-8.76c-1.323,0-2.48-1.151-2.48-2.465V4.789c0-1.809-1.487-3.289-3.306-3.289H19.794c-1.819,0-3.306,1.48-3.306,3.289v1.315
	c0,1.314-1.157,2.465-2.48,2.465H4.917c-2.479,0-3.636,2.959-1.983,4.603l12.562,12.494c0.496,0.493,0.661,0.986,0.661,1.644v15.288
	c0,1.315-1.157,2.466-2.479,2.466H4.587c-2.48,0-3.637,2.959-1.984,4.603l12.562,12.494c0.496,0.493,0.662,0.986,0.662,1.643v15.289
	c0,1.315-1.158,2.466-2.48,2.466H4.256c-2.479,0-3.637,2.959-1.984,4.603l12.563,12.493c0.496,0.493,0.661,0.987,0.661,1.644v14.466
	c0,1.809,1.488,3.288,3.306,3.288h44.96c1.818,0,3.306-1.479,3.306-3.288v-14.466c0-0.657,0.33-1.315,0.661-1.644l12.562-12.493
	c1.653-1.644,0.496-4.603-1.983-4.603h-7.934c-1.323,0-2.48-1.151-2.48-2.466V63.804c0-0.657,0.331-1.315,0.661-1.643L81.283,49.667
	z"/>
<path fill="none" stroke="#07AD55" stroke-width="3" stroke-linecap="round" d="M44.277,37.143c-8.007,0-14.38-6.325-14.38-14.271
	c0-7.946,6.373-14.271,14.38-14.271c8.007,0,14.38,6.325,14.38,14.271C58.657,30.818,52.284,37.143,44.277,37.143z"/>
<path fill="none" stroke="#07AD55" stroke-width="3" stroke-linecap="round" d="M42.277,111.118c-8.007,0-14.38-6.325-14.38-14.271
	c0-7.946,6.373-14.271,14.38-14.271c8.007,0,14.38,6.325,14.38,14.271C56.657,104.793,50.284,111.118,42.277,111.118z"/>
<path fill="none" stroke="#FED208" stroke-width="3" d="M42.277,74.13c-8.007,0-14.38-6.325-14.38-14.271
	c0-7.946,6.373-14.271,14.38-14.271c8.007,0,14.38,6.325,14.38,14.271C56.657,67.806,50.284,74.13,42.277,74.13z"/>
<circle fill="none" stroke="#FED208" stroke-width="3" cx="42.277" cy="59.871" r="6.072"/>
</svg>
