<?xml version="1.0" encoding="utf-8"?>
<!-- Generator: Adobe Illustrator 18.0.0, SVG Export Plug-In . SVG Version: 6.00 Build 0)  -->
<!DOCTYPE svg PUBLIC "-//W3C//DTD SVG 1.1//EN" "http://www.w3.org/Graphics/SVG/1.1/DTD/svg11.dtd">
<svg version="1.1" id="Слой_1" xmlns="http://www.w3.org/2000/svg" xmlns:xlink="http://www.w3.org/1999/xlink" x="0px" y="0px"
	 viewBox="0 0 84.846 72.671" enable-background="new 0 0 84.846 72.671" xml:space="preserve">
<path fill="#07AD55" d="M79.448,55.903L68.502,67.179V55.903H79.448z M3.239,20.337h78.372v32.398H66.919
	c-0.876,0-1.585,0.708-1.585,1.584v15.183H3.242L3.239,20.337z M4.536,9.499c1.006-1.248,3.792-1.353,6.803-1.353l1.724,0.006
	c0.225,0,1.137,0.002,2.535,0.004v2.224c0,0.875,0.71,1.585,1.584,1.585c0.875,0,1.585-0.71,1.585-1.585V8.156
	c11.256,0.003,36.059,0.003,47.314,0v2.224c0,0.875,0.708,1.585,1.584,1.585s1.585-0.71,1.585-1.585V8.156
	c1.397-0.002,2.31-0.002,2.535-0.004l1.724-0.006c3.01,0,5.798,0.103,6.805,1.353c1.081,1.342,1.387,4.9,1.352,7.669H3.18
	C3.137,14.462,3.437,10.862,4.536,9.499 M84.778,54.319L84.773,18.87c0.062-0.833,0.528-8.232-1.991-11.359
	c-1.888-2.342-5.317-2.532-9.273-2.532l-1.74,0.006c-0.223,0-1.131,0.001-2.519,0.003V1.585C69.25,0.71,68.541,0,67.665,0
	s-1.584,0.71-1.584,1.585V4.99c-11.249,0.003-36.067,0.003-47.314,0V1.585C18.767,0.71,18.057,0,17.182,0
	c-0.874,0-1.584,0.71-1.584,1.585v3.403c-1.388-0.002-2.296-0.002-2.52-0.003l-1.739-0.006c-3.957,0-7.384,0.19-9.271,2.532
	c-2.523,3.126-2.054,10.527-1.997,11.243v52.332c0,0.877,0.71,1.585,1.585,1.585h65.26c0.442,0,0.839-0.182,1.128-0.476
	c0.003-0.003,0.006-0.003,0.009-0.006l16.261-16.748c0-0.002,0-0.002,0.001-0.002l0.016-0.017c0.06-0.064,0.092-0.146,0.141-0.217
	c0.065-0.094,0.141-0.176,0.184-0.284C84.735,54.731,84.778,54.527,84.778,54.319"/>
<text transform="matrix(1 0 0 1 30.1369 56.9528)" fill="#FED208" font-family="'Stem-Regular'" font-size="38">$</text>
</svg>
