<?xml version="1.0" encoding="utf-8"?>
<!-- Generator: Adobe Illustrator 19.1.0, SVG Export Plug-In . SVG Version: 6.00 Build 0)  -->
<svg version="1.1" id="Слой_1" xmlns="http://www.w3.org/2000/svg" xmlns:xlink="http://www.w3.org/1999/xlink" x="0px" y="0px"
	 viewBox="0 0 17.991 14.666" enable-background="new 0 0 17.991 14.666" xml:space="preserve">
	<path fill="#0D0F0F" d="M16.752,10.555c0,0.465-0.378,0.843-0.842,0.843h-0.37V7.163h0.37c0.464,0,0.842,0.378,0.842,0.842V10.555z
	 M2.451,11.398H2.08c-0.464,0-0.841-0.378-0.841-0.843v-2.55c0-0.464,0.377-0.842,0.841-0.842h0.371V11.398z M15.91,5.925h-0.402
	C15.195,2.606,12.395,0,8.996,0c-3.4,0-6.201,2.606-6.514,5.925H2.08C0.933,5.925,0,6.858,0,8.005v2.55
	c0,1.147,0.933,2.081,2.08,2.081h0.99c0.342,0,0.619-0.277,0.619-0.619V6.544c0-2.926,2.381-5.306,5.306-5.306
	c2.926,0,5.306,2.381,5.306,5.306v5.473c0,0.465-0.378,0.843-0.842,0.843h-1.955c-0.21-0.339-0.581-0.568-1.008-0.568
	c-0.654,0-1.187,0.532-1.187,1.187c0,0.654,0.533,1.187,1.187,1.187c0.427,0,0.799-0.229,1.008-0.568h1.955
	c0.93,0,1.711-0.618,1.976-1.462h0.475c1.147,0,2.081-0.934,2.081-2.081v-2.55C17.991,6.858,17.057,5.925,15.91,5.925"/>
</svg>
