<?xml version="1.0" encoding="utf-8"?>
<!-- Generator: Adobe Illustrator 19.1.0, SVG Export Plug-In . SVG Version: 6.00 Build 0)  -->
<svg version="1.1" id="Слой_1" xmlns="http://www.w3.org/2000/svg" xmlns:xlink="http://www.w3.org/1999/xlink" x="0px" y="0px"
	 viewBox="0 0 46.735 51.199" enable-background="new 0 0 46.735 51.199" xml:space="preserve">
<path fill="#252525" d="M28.688,46.326c0.335,0.576-0.13,0.985-0.781,0.985c0-0.223,0-0.315-0.056-0.576
	C28.148,46.716,28.502,46.604,28.688,46.326 M17.916,46.326c0.167,0.26,0.502,0.39,0.8,0.409c-0.019,0.261-0.019,0.353-0.019,0.576
	C18.046,47.311,17.581,46.902,17.916,46.326 M21.767,41.879c-0.335,0.595-0.837,1.135-1.265,1.656
	c-0.502,0.688-0.893,1.172-1.21,2.028c-0.576-0.056-0.464-0.763-0.278-1.117C19.404,43.739,20.986,42.809,21.767,41.879
	 M27.572,44.446L27.572,44.446c0.186,0.354,0.298,1.061-0.279,1.117c-0.316-0.856-0.707-1.34-1.191-2.028
	c-0.447-0.521-0.93-1.061-1.284-1.656C25.6,42.81,27.181,43.739,27.572,44.446 M22.382,9.005c0.576,0.018,1.302,0.037,1.879,0.018
	c0.67,0.707,2.177,1.544,3.684,1.861c-0.875,0-2.401-0.075-2.587-0.298c0.056,0.558,1.228,1.172,1.991,1.339
	c-0.633,0.093-1.21,0-1.712-0.223c0.26,0.391,0.577,0.689,1.079,0.856c-0.539,0.67-1.637,1.098-2.716,0.986
	c0.261,0.316,0.763,0.521,1.191,0.465c-0.986,1.563-1.712,3.163-1.879,5.042c-0.149-1.861-0.875-3.479-1.861-5.042
	c0.428,0.056,0.912-0.149,1.173-0.465c-1.098,0.093-2.14-0.335-2.698-0.986c0.502-0.167,0.818-0.465,1.079-0.856
	c-0.484,0.223-1.079,0.298-1.712,0.223c0.763-0.167,1.935-0.781,1.991-1.339c-0.204,0.223-1.73,0.298-2.605,0.298
	C20.168,10.567,21.693,9.711,22.382,9.005 M14.567,41.19c-0.54,0.279-1.545,0.67-2.121,0.745c-0.484,0.092-1.284-0.187-1.507-0.837
	c-0.186-0.633-0.707-0.838-1.117-0.447c-0.111-0.074-0.409-0.131-0.52,0.055c0,0-0.131-0.297-0.298-0.446
	c0.111-0.316,0.037-0.707-0.261-0.837c-0.037-0.613-0.428-0.613-0.558-0.837c-0.074-0.13-0.074-0.297,0.112-0.316
	c-0.075-0.13-0.242-0.149-0.261-0.149c0.056-0.261-0.037-0.596-0.39-0.707l-2.729-5.616c-0.008-0.001-0.017-0.002-0.025-0.003
	l-0.111-0.26c-0.002-0.01-0.004-0.02-0.006-0.03l-0.311-0.64c0.205-0.223,0.093-0.521-0.13-0.632v-0.056
	c0.019-0.056,0.019-0.093,0.019-0.13c0.074-0.019,0.186-0.037,0.279-0.056c0.632-0.149,1.618-1.079,2.456-1.656
	c-0.298,0.316-1.526,1.209-2.084,1.73c-0.509,0.491-0.307,1-0.229,1.44l0.001,0.001c0.001,0.01,0.003,0.019,0.005,0.029l0.112,0.26
	c0.007,0.001,0.016,0.002,0.024,0.003c0.466,0.045,1.156,0.306,1.668-0.114c0.149-0.148,2.438-2.995,2.754-3.274
	c-0.13,0.26-1.582,2.084-2.233,3.126c-0.465,0.781,0.242,1.321,0.316,1.767c0.521-0.167,1.229,0.149,1.6-0.484
	c0.373-0.613,1.489-2.772,1.898-3.367c-0.149,0.465-1.34,2.902-1.414,3.126c-0.279,0.836,0.428,0.986,0.707,1.544
	c0.428-0.298,1.209-0.075,1.507-0.856c0.186-0.54,0.651-2.4,0.893-2.902c-0.037,0.539-0.186,1.283-0.297,2.102
	c-0.112,0.819,0.651,0.8,1.06,1.265c0.39-0.335,1.098-0.241,1.209-0.986c0.112-0.651,0.13-2.251,0.13-2.251
	c0.112,0.093,0.167,0.112,0.279,0.223c0.26-0.316,0.819-0.316,1.005-0.688c0.074,0.019,0.111,0.074,0.186,0.13
	c0.595,1.005,0.651,2.94-0.186,3.628c0.241,0,0.558-0.038,0.744-0.112c-0.371,0.762-1.209,1.041-2.157,0.688
	c0.018,0.186,0.055,0.297,0.13,0.409c-1.023,0.167-1.47,0.577-1.842,1.228c-0.521,0.893,0.037,2.028-0.112,2.493
	c-0.111,0.298-0.446,0.577-1.005,0.317c0.261,1.171,1.731,1.041,2.121,0.39c0.149,0.539,0,1.172-0.26,1.414
	c0.446,0.037,0.837-0.168,1.079-0.521c0.056,0.112,0.056,0.26,0.074,0.39c0.261-0.13,0.41-0.278,0.521-0.409
	c0.037,0.131,0.093,0.428,0.019,0.689C15.106,40.893,14.883,41.023,14.567,41.19 M21.767,48.744
	c-1.117-0.577-0.484-2.809-0.056-3.777c0.595-1.339,1.023-2.976,1.153-4.018c0.354,0.781-0.409,3.014-0.65,3.851
	C21.897,46.065,21.655,47.907,21.767,48.744 M24.372,44.8c-0.224-0.837-1.005-3.07-0.651-3.851c0.13,1.042,0.558,2.679,1.153,4.018
	c0.428,0.968,1.06,3.2-0.056,3.777C24.93,47.907,24.707,46.065,24.372,44.8 M44.13,20.893c1.526-0.54,2.549-1.656,2.605-2.661
	c-0.8-0.223-1.619-0.111-2.326,0.056c0.725-0.558,1.935-1.563,1.786-3.033c-0.726-0.185-2.01,0.317-2.568,0.558
	c1.749-0.985,2.382-3.293,1.452-4.613c-0.54,0.316-3.033,2.865-3.442,3.162c1.284-1.469,1.879-2.53,2.233-3.516
	c0.427-1.098,0.446-2.976-0.894-3.609c-0.632,1.451-2.846,5.153-4.074,6.698c-0.13-0.131-0.242-0.298-0.41-0.317
	c-0.297,0.949-1.171,2.195-1.953,2.791c-0.037-0.075-0.13-0.298-0.261-0.521c-0.836,1.247-3.032,2.977-3.739,4.037
	C32,20.706,32,21.414,32.763,22.158c0.315,0.297,0.893,0.856,0.39,1.618c-0.837,1.21-2.642,1.135-3.2,0.112
	c1.172-0.13,1.526-1.563,0.782-2.4c-0.298,0.558-0.986,0.819-1.638,0.539c-0.446-0.186-0.762-0.39-0.967-0.595
	c0.967,0.297,1.786-0.279,1.674-1.228c-0.762,0.651-1.525,0.019-1.693-0.149c-0.483-0.558-0.613-1.191-0.427-2.158
	c0.149-0.837,1.023-2.177,1.6-2.605c0.093,0.093,0.223,0.242,0.502,0.224c0.167-0.038,0.428-0.186,0.633-0.261
	c0.576-0.167,1.153-0.037,1.507,0.186c0.651,0.41,0.595,0.856,0.576,1.172c1.005-0.558,0.67-1.488-0.651-1.842
	c0.893,0,1.637,0.819,1.823,0.931c0.502,0.353,1.209,0.279,1.619,0.074c0.8-0.39,0.967-1.32,0.744-1.507
	c-0.074,0.335-0.335,0.633-0.781,0.689c-0.689,0.074-1.34-0.224-1.86-0.447c-0.447-0.186-1.154-0.316-1.638-0.298
	c0.893-0.502,2.289-0.446,2.791,0.317c0.297-0.242,0.484-0.447,0.558-0.949c0.26-1.34-0.781-2.028-1.897-2.028
	c0.018-0.316-0.205-0.484-0.503-0.372c0-0.13-0.037-0.242-0.111-0.298c0.037,0,0.074-0.018,0.093-0.018
	c1.116-0.075,2.176-0.428,2.753-1.023c1.005-1.079-0.595-2.438-0.018-3.498c0.539,0.242,0.948,0.539,1.711,0.651
	c0.075,0.149,0.149,0.484,0.167,0.651c0.242,1.191-0.949,1.396-0.632,2.661c0.13,0.558,0.558,0.763,0.707,1.451
	c0,0,0.055,0.484-0.354,0.893c0.949,0.019,1.47-0.8,1.172-1.563c-0.13-0.316-0.465-0.614-0.465-0.967
	c0.484,0.651,0.931,0.632,1.694,0.391c0.353-0.112,0.39,0.372,0.167,0.762c0.521-0.298,0.651-0.819,0.651-1.042
	c0-0.539-0.409-0.799-0.819-0.688c-0.223,0.018-0.688,0.335-0.707-0.111C38.623,8.67,39.833,8.688,39.59,7.46
	c-0.148-0.613-0.818-0.948-1.897-1.079c-0.111-0.112-0.372-0.353-0.521-0.576c-0.596-0.968-1.209-1.228-1.563-1.024
	c-0.428,0.224-0.651,0.41-1.005,0.596c-0.279,0.148-0.576,0.223-0.762,0.446c-0.466,0.577-0.019,1.47,0.223,2.028
	c0.148,0.316,0.539,1.042,0.372,1.6c-0.186,0.651-1.284,1.079-1.935,1.21c-0.037,0-0.074,0.018-0.112,0.018v-0.261
	c0.187-0.334,0.354-0.744,0.485-1.097c0.446-1.191-0.205-1.675-1.192-1.898c-0.111-0.074-0.241-0.111-0.409-0.055h-0.018
	l-0.019,0.204l-0.13-0.037l0.019-0.242H31.07c0.112-0.092,0.167-0.223,0.167-0.353c0-0.149-0.056-0.26-0.112-0.335h0.131L31.2,6.549
	c-0.037-0.055-0.093-0.111-0.168-0.186c-0.037-0.037-0.055-0.093-0.055-0.111c0.037,0.018,0.055,0.056,0.111,0.074
	c0.056,0.056,0.149,0.112,0.168,0.168l0.074,0.055V5.452l-0.074,0.074c-0.038,0.019-0.112,0.075-0.168,0.13
	c-0.055,0.056-0.093,0.056-0.111,0.075c0-0.037,0.037-0.056,0.055-0.112c0.093-0.056,0.15-0.13,0.168-0.167l0.056-0.075h-1.098
	l0.055,0.075c0.056,0.037,0.112,0.111,0.168,0.167c0.018,0.056,0.056,0.093,0.074,0.112c-0.037-0.019-0.093-0.019-0.112-0.075
	c-0.093-0.055-0.148-0.111-0.204-0.13l-0.056-0.074v1.097l0.056-0.055c0.056-0.056,0.111-0.112,0.204-0.168
	c0.038-0.018,0.093-0.056,0.112-0.074c-0.018,0.037-0.056,0.093-0.074,0.111c-0.056,0.075-0.112,0.131-0.168,0.186l-0.055,0.056
	h0.167c-0.093,0.075-0.112,0.186-0.112,0.335c0,0.13,0.056,0.279,0.149,0.353h-0.018l0.018,0.242l-0.149,0.037l-0.018-0.204h-0.019
	c-0.167-0.056-0.297-0.019-0.409,0.055c-0.986,0.242-1.656,0.726-1.21,1.898c0.15,0.353,0.298,0.762,0.503,1.097v0.168
	c-0.986-0.316-2.772-1.414-3.256-2.065c-0.037-0.074-0.093-0.13-0.111-0.168l0.018-0.707c0.335-0.576,0.651-1.283,0.893-1.934
	c0.633-1.694-0.297-2.401-1.767-2.698c-0.149-0.093-0.335-0.149-0.577-0.075L24.204,3.2l-0.316-0.018l0.019-0.354
	c-0.056,0.019-0.112,0.019-0.168,0.019c0.205-0.112,0.354-0.372,0.354-0.633c0-0.186-0.093-0.409-0.261-0.521h0.261
	c-0.149-0.13-0.391-0.409-0.447-0.595c0.186,0.056,0.465,0.316,0.596,0.446V0.149c-0.131,0.112-0.41,0.391-0.596,0.41
	C23.702,0.41,23.944,0.131,24.093,0h-1.396c0.112,0.13,0.391,0.391,0.41,0.559c-0.168-0.038-0.428-0.298-0.577-0.41v1.395
	c0.149-0.13,0.409-0.39,0.577-0.446c-0.037,0.186-0.298,0.465-0.41,0.595h0.242c-0.167,0.112-0.242,0.335-0.242,0.521
	c0,0.28,0.131,0.521,0.354,0.633c-0.056,0-0.112,0-0.186-0.018l0.018,0.353L22.567,3.2l-0.019-0.26
	c-0.241-0.093-0.428-0.037-0.595,0.074c-1.451,0.279-2.381,1.005-1.749,2.698c0.205,0.651,0.521,1.358,0.893,1.935v0.744
	c-0.037,0.019-0.056,0.074-0.111,0.13c-0.465,0.651-2.27,1.749-3.256,2.065v-0.167c0.204-0.335,0.372-0.744,0.502-1.098
	c0.446-1.191-0.223-1.674-1.209-1.897c-0.112-0.075-0.242-0.112-0.41-0.056h-0.018l-0.019,0.205l-0.13-0.037l0.019-0.243h-0.019
	c0.075-0.092,0.13-0.223,0.13-0.353c0-0.149-0.037-0.26-0.111-0.335h0.167c-0.124-0.108-0.222-0.23-0.316-0.353
	c0.129,0.086,0.249,0.182,0.353,0.298V5.452c-0.106,0.11-0.217,0.213-0.353,0.279c0.076-0.139,0.2-0.241,0.316-0.354h-1.098
	c0.102,0.113,0.213,0.22,0.279,0.354c-0.124-0.052-0.249-0.167-0.353-0.279V6.55c0.108-0.116,0.223-0.22,0.353-0.298
	c-0.074,0.134-0.169,0.257-0.279,0.353h0.149c-0.056,0.075-0.111,0.186-0.111,0.335c0,0.13,0.055,0.279,0.167,0.353h-0.056
	l0.019,0.243l-0.149,0.037l-0.019-0.205h-0.018c-0.168-0.056-0.298-0.019-0.41,0.056c-0.985,0.241-1.655,0.725-1.209,1.897
	c0.149,0.354,0.298,0.763,0.502,1.098v0.26c-0.037,0-0.092-0.018-0.111-0.018c-0.651-0.13-1.749-0.559-1.935-1.209
	c-0.186-0.54,0.205-1.285,0.372-1.601c0.242-0.558,0.67-1.451,0.224-2.027c-0.205-0.224-0.503-0.298-0.782-0.447
	c-0.353-0.186-0.558-0.372-1.005-0.595c-0.353-0.205-0.967,0.037-1.563,1.023C9.469,6.028,9.19,6.27,9.078,6.381
	C8.018,6.512,7.33,6.847,7.181,7.46C6.958,8.688,8.148,8.67,8.074,9.433C8.055,9.879,7.59,9.563,7.367,9.544
	C6.939,9.451,6.53,9.693,6.53,10.232c0,0.223,0.149,0.726,0.651,1.042c-0.223-0.39-0.186-0.874,0.167-0.762
	c0.763,0.241,1.191,0.26,1.693-0.391c0,0.372-0.316,0.651-0.465,0.967c-0.297,0.782,0.186,1.582,1.172,1.563
	c-0.446-0.409-0.353-0.893-0.353-0.893c0.13-0.67,0.558-0.874,0.707-1.451c0.298-1.265-0.893-1.47-0.633-2.661
	c0.038-0.167,0.093-0.483,0.168-0.65c0.762-0.094,1.172-0.41,1.711-0.652c0.558,1.061-1.023,2.419-0.018,3.498
	c0.576,0.595,1.637,0.948,2.753,1.023c0.037,0,0.075,0.019,0.093,0.019c-0.074,0.055-0.112,0.167-0.112,0.297
	c-0.297-0.111-0.52,0.056-0.483,0.372c-1.154,0-2.177,0.689-1.917,2.028c0.075,0.502,0.261,0.707,0.577,0.949
	c0.484-0.763,1.879-0.819,2.791-0.316c-0.502-0.019-1.209,0.111-1.656,0.298c-0.502,0.223-1.154,0.52-1.842,0.446
	c-0.465-0.056-0.707-0.353-0.8-0.689c-0.223,0.187-0.056,1.136,0.745,1.508c0.39,0.204,1.097,0.279,1.6-0.075
	c0.186-0.111,0.93-0.93,1.823-0.93c-1.303,0.335-1.675,1.284-0.651,1.842c-0.038-0.335-0.093-0.763,0.558-1.173
	c0.372-0.223,0.949-0.353,1.507-0.186c0.204,0.075,0.465,0.205,0.632,0.261c0.279,0.019,0.428-0.149,0.503-0.223
	c0.576,0.428,1.414,1.767,1.6,2.604c0.204,0.968,0.055,1.6-0.428,2.159c-0.149,0.167-0.931,0.799-1.693,0.148
	c-0.112,0.968,0.707,1.544,1.674,1.228c-0.204,0.186-0.521,0.409-0.968,0.595c-0.651,0.28-1.339,0.019-1.637-0.539
	c-0.744,0.837-0.39,2.27,0.782,2.4c-0.54,1.023-2.363,1.098-3.182-0.112c-0.521-0.762,0.075-1.302,0.373-1.618
	c0.781-0.725,0.781-1.451,0.223-2.232c-0.707-1.042-2.902-2.773-3.739-4.038c-0.131,0.224-0.224,0.447-0.242,0.521
	c-0.8-0.614-1.675-1.86-1.972-2.79c-0.149,0.037-0.279,0.204-0.409,0.316c-1.229-1.544-3.442-5.247-4.075-6.698
	c-1.321,0.633-1.303,2.53-0.893,3.61c0.353,0.985,0.967,2.046,2.232,3.516c-0.409-0.298-2.884-2.847-3.441-3.163
	c-0.912,1.32-0.298,3.628,1.451,4.614c-0.54-0.242-1.861-0.726-2.568-0.558c-0.149,1.47,1.042,2.474,1.786,3.033
	C1.6,18.121,0.781,18.01,0,18.233c0.055,1.004,1.097,2.139,2.567,2.66c-0.93-0.093-1.879,0.019-2.456,0.372
	c0.093,1.042,1.284,1.935,2.698,2.158c-0.949,0.112-1.786,0.521-2.233,1.098c0.522,0.67,1.284,1.191,2.456,1.172
	c-0.26,0.093-0.576,0.279-0.837,0.539c-0.018-0.037-0.074-0.055-0.13-0.055c-0.056,0.037-0.074,0.111-0.056,0.167v0.037
	c-0.111,0.093-0.167,0.186-0.186,0.279c-0.111,0.168-0.223,0.335-0.279,0.503C1.563,27.181,1.6,27.2,1.619,27.218
	c-0.019,0.093,0,0.205,0.074,0.298c-0.056,0.056-0.093,0.149-0.111,0.223l-0.689-0.261c-0.037,0.633,0.093,1.136,0.41,1.452
	c0.241,0.279,0.52,0.242,0.446,0.335l0.744,0.446c0.149,0.279,0.41,0.279,0.596,0.205v0.056c0,0.298,0.204,0.539,0.465,0.633
	c-0.056,0.241,0.055,0.39,0.39,0.501l2.791,6.754c-0.111,0.316,0,0.595,0.242,0.707c-0.056,0.075-0.112,0.149-0.112,0.316
	c0.112-0.093,0.279-0.112,0.354,0.112c0.056,0.149-0.242,0.669,0.204,1.023c-0.056,0.316,0.112,0.633,0.428,0.763
	c0,0.167,0.149,0.688,0.167,0.874c-0.186,0.279-0.651,0.707-0.595,1.172c0.037,0.335,0.186,0.447,0.447,0.521
	c-0.093,0.596,0.241,0.875,0.744,0.893c0,0.447,0.427,0.614,0.688,0.633c0.242,0.186,0.353,0.261,0.651,0.409
	c-0.279,0.316-0.093,0.745,0.409,0.875c0.056,0.186,0.186,0.335,0.465,0.409c0.168,0.261,0.466,0.261,0.633,0.186
	c0.112-0.056,0.298-0.372,0.13-0.632c0.112-0.149,0.056-0.391-0.018-0.559c0.148-0.297,0.018-0.651-0.205-0.763
	c0.019-0.167-0.056-0.409-0.111-0.576c0.39-0.242,0.874-0.539,1.041-0.651c0.949-0.67,2.01-1.284,3.238-1.359
	c0.316-0.018,0.893-0.037,1.209-0.018c0.502,0.056,1.172,0.204,1.581-0.112c0.112-0.093,0.186-0.223,0.168-0.353
	c-0.056-0.298-0.391-0.577-0.502-0.856c-0.038-0.075-0.075-0.205-0.131-0.316c0.354,0.074,0.67,0.018,0.875-0.075
	c0.204-0.074,0.725-0.465,0.707-1.042c-0.41,0.186-1.414,0.465-1.526-0.558c-0.111-0.893,0.688-1.656,1.916-1.321
	c0.837,0.224,2.065,2.009,0.949,2.791c-0.539,0.372-1.395,0.726-1.283,1.711c0.353-0.427,0.836-0.651,1.469-0.595
	c-0.93,0.689-1.637,0.763-2.604,1.284c-0.837,0.502-1.47,1.321-2.121,1.339c-0.521,0.038-0.8-0.576-0.298-1.041
	c-0.502-0.112-1.153,0.279-1.34,0.8c-0.241,0.725-0.055,1.228,0.391,1.506c-0.614,0.316-1.061,0.949-0.837,1.842
	c0.204,0.745,0.93,0.745,0.651,1.674c0.409-0.092,0.688-0.372,0.8-0.781c0.056-0.279,0.111-0.576,0.242-0.707
	c-0.056,0.558,0.26,1.395,1.023,1.767c0.521,0.261,1.34,0.354,1.972-0.297c0.26,0.744,1.135,1.358,2.028,1.34
	c0.409,0,0.8-0.168,1.116-0.353c0.223,0.538,0.763,1.097,1.321,1.357c0.558-0.26,1.116-0.8,1.34-1.357
	c0.297,0.185,0.707,0.353,1.116,0.353c0.874,0.018,1.786-0.596,2.028-1.34c0.633,0.651,1.451,0.558,1.972,0.297
	c0.763-0.372,1.079-1.209,1.023-1.767c0.149,0.13,0.205,0.428,0.261,0.707c0.093,0.391,0.372,0.67,0.781,0.781
	c-0.279-0.93,0.465-0.93,0.651-1.674c0.205-0.893-0.223-1.525-0.818-1.842c0.427-0.278,0.632-0.799,0.372-1.506
	c-0.186-0.521-0.838-0.912-1.34-0.8c0.484,0.465,0.223,1.06-0.298,1.041c-0.651-0.018-1.284-0.837-2.12-1.339
	c-0.968-0.521-1.675-0.595-2.605-1.284c0.633-0.056,1.116,0.149,1.47,0.595c0.111-0.967-0.726-1.339-1.284-1.711
	c-1.116-0.782,0.112-2.567,0.968-2.791c1.209-0.335,2.009,0.428,1.897,1.321c-0.149,1.023-1.116,0.763-1.563,0.558
	c0,0.577,0.521,0.968,0.745,1.042c0.26,0.112,0.707,0.168,1.134,0c-0.018,0.112-0.037,0.205-0.037,0.242
	c-0.074,0.875-0.558,0.967-0.39,1.321c0.223,0.279,1.711,0.223,2.12,0.298c0.708,0.092,1.303,0.372,1.991,0.502
	c0.763,0.167,1.581,0.167,2.27,0.446c0.428,0.186,0.93,0.54,1.358,0.763c0.651,0.112,0.558,0.373,0.967,0.373
	c0.373,0,0.522-0.317,1.005-0.448c0.335-0.074,0.707,0.057,1.042-0.055c0.242-0.056,0.354-0.316,0.577-0.447
	c0.26-0.167,0.633-0.167,0.893-0.39c0.138-0.104,0.164-0.319,0.152-0.467c0.519-0.373,0.89-0.893,1.113-1.487
	c0.13-0.018,0.242-0.149,0.242-0.279V40.8c0.148-0.112,0.223-0.261,0.223-0.428c0-0.205-0.093-0.372-0.223-0.502v-0.056
	c0-0.111-0.056-0.186-0.112-0.26c-0.205-1.172-1.098-2.103-2.233-2.401v-0.055h-0.018c0-0.056-0.037-0.075-0.075-0.075
	c-0.149-0.167-0.353-0.409-0.372-0.577c0.186,0.056,0.484,0.354,0.651,0.466v-1.545c-0.149,0.112-0.465,0.41-0.651,0.465
	c0.019-0.186,0.316-0.521,0.465-0.651h-1.563c0.149,0.13,0.447,0.465,0.465,0.651c-0.186-0.056-0.484-0.353-0.651-0.465v1.545
	c0.149-0.112,0.465-0.41,0.651-0.466c-0.018,0.186-0.316,0.521-0.465,0.652l0.056,0.018c-1.172,0.26-2.102,1.228-2.326,2.419
	c-0.074,0.074-0.13,0.149-0.13,0.26v0.056c-0.13,0.148-0.204,0.297-0.074,0.465c0,0.167,0.093,0.316,0.223,0.428v0.055
	c0,0.167,0.112,0.261,0.242,0.279c0.056,0.149,0.111,0.298,0.186,0.428l0.018-0.019c-0.092,0.447-0.632,0.707-0.744,0.707
	c-0.949,0.131-2.009-0.279-2.977-0.632c-0.427-0.168-1.004-0.353-1.283-0.763c-0.186-0.298-0.261-0.502-0.168-0.762
	c0.112,0.129,0.279,0.279,0.522,0.409c0.018-0.13,0.018-0.279,0.074-0.39c0.242,0.353,0.633,0.539,1.097,0.52
	c-0.278-0.242-0.409-0.856-0.278-1.414c0.372,0.651,1.86,0.782,2.121-0.391c-0.559,0.261-0.894-0.018-1.005-0.316
	c-0.168-0.464,0.372-1.6-0.112-2.492c-0.39-0.671-0.837-1.061-1.86-1.228c0.074-0.112,0.111-0.224,0.13-0.41
	c-0.949,0.335-1.768,0.074-2.158-0.688c0.186,0.093,0.484,0.111,0.744,0.111c-0.837-0.688-0.781-2.623-0.186-3.627
	c0.074-0.056,0.112-0.112,0.186-0.13c0.186,0.372,0.744,0.372,1.023,0.688c0.093-0.112,0.149-0.13,0.261-0.223
	c0,0,0.018,1.6,0.13,2.251c0.093,0.744,0.818,0.67,1.172,0.986c0.428-0.484,1.191-0.447,1.079-1.265
	c-0.112-0.819-0.279-1.545-0.298-2.103c0.242,0.503,0.707,2.363,0.894,2.902c0.316,0.782,1.079,0.54,1.506,0.856
	c0.28-0.558,0.987-0.707,0.707-1.544c-0.074-0.204-1.246-2.661-1.414-3.125c0.428,0.613,1.544,2.772,1.898,3.367
	c0.372,0.633,1.097,0.316,1.6,0.484c0.093-0.447,0.781-0.986,0.279-1.768c-0.614-1.041-2.103-2.865-2.177-3.125
	c0.298,0.278,2.586,3.106,2.753,3.274c0.54,0.465,1.321,0.111,1.768,0.111c0-0.52,0.409-1.116-0.186-1.711
	c-0.558-0.521-1.823-1.414-2.084-1.73c0.837,0.577,1.823,1.507,2.419,1.656c1.042,0.26,1.414-0.149,1.804-0.316
	c-0.316-0.968,0.112-1.396-2.102-2.326c1.916,0.688,2.754,0.353,3.442-0.187c-0.279-0.688-0.949-1.264-1.507-1.451
	c1.172,0.038,1.953-0.483,2.455-1.172c-0.427-0.576-1.283-0.985-2.269-1.097c1.452-0.223,2.606-1.116,2.736-2.158
	C46.046,20.912,45.097,20.8,44.13,20.893"/>
</svg>
