<?xml version="1.0" encoding="utf-8"?>
<!-- Generator: Adobe Illustrator 18.0.0, SVG Export Plug-In . SVG Version: 6.00 Build 0)  -->
<!DOCTYPE svg PUBLIC "-//W3C//DTD SVG 1.1//EN" "http://www.w3.org/Graphics/SVG/1.1/DTD/svg11.dtd">
<svg version="1.1" id="Слой_1" xmlns="http://www.w3.org/2000/svg" xmlns:xlink="http://www.w3.org/1999/xlink" x="0px" y="0px"
	 viewBox="0 0 70 33.992" enable-background="new 0 0 70 33.992" xml:space="preserve">
<polyline fill="none" stroke="#010101" stroke-width="2.2" points="6.294,3.508 6.294,1.1 63.492,1.1 63.492,3.508 "/>
<path fill="#010101" d="M2.258,31.735h65.484V5.767H2.258V31.735z M70,33.992H0V3.508h70V33.992z"/>
<path fill="#010101" d="M34.323,12.089c-2.935,0-5.419,3.161-5.419,7c0,3.839,2.371,7,5.419,7c3.048,0,5.419-3.161,5.419-7
	C39.742,15.25,37.258,12.089,34.323,12.089 M34.323,28.347c-4.177,0-7.677-4.177-7.677-9.258s3.387-9.258,7.677-9.258
	c4.29,0,7.677,4.177,7.677,9.258C41.888,24.17,38.5,28.347,34.323,28.347"/>
<rect x="4.516" y="8.024" fill="#010101" width="6.774" height="2.258"/>
<rect x="4.516" y="27.218" fill="#010101" width="6.774" height="2.258"/>
<rect x="58.71" y="8.024" fill="#010101" width="5.645" height="2.258"/>
<rect x="58.71" y="27.218" fill="#010101" width="5.645" height="2.258"/>
</svg>
