<?xml version="1.0" encoding="utf-8"?>
<!-- Generator: Adobe Illustrator 18.0.0, SVG Export Plug-In . SVG Version: 6.00 Build 0)  -->
<!DOCTYPE svg PUBLIC "-//W3C//DTD SVG 1.1//EN" "http://www.w3.org/Graphics/SVG/1.1/DTD/svg11.dtd">
<svg version="1.1" id="Слой_1" xmlns="http://www.w3.org/2000/svg" xmlns:xlink="http://www.w3.org/1999/xlink" x="0px" y="0px"
	 viewBox="0 0 102.027 121.099" enable-background="new 0 0 102.027 121.099" xml:space="preserve">
<line fill="none" stroke="#FED208" stroke-width="3" stroke-linecap="round" x1="91.194" y1="93.013" x2="100.527" y2="93.013"/>
<line fill="none" stroke="#FED208" stroke-width="3" stroke-linecap="round" x1="84.205" y1="78.12" x2="91.849" y2="72.767"/>
<line fill="none" stroke="#FED208" stroke-width="3" stroke-linecap="round" x1="71.404" y1="70.917" x2="75.348" y2="62.458"/>
<line fill="none" stroke="#FED208" stroke-width="3" stroke-linecap="round" x1="20.421" y1="93.013" x2="11.088" y2="93.013"/>
<line fill="none" stroke="#FED208" stroke-width="3" stroke-linecap="round" x1="27.411" y1="78.12" x2="19.766" y2="72.767"/>
<line fill="none" stroke="#FED208" stroke-width="3" stroke-linecap="round" x1="40.211" y1="70.917" x2="36.267" y2="62.458"/>
<path fill="none" stroke="#07AD55" stroke-width="3" stroke-linecap="round" d="M35.04,89.71c0,0-2.61,0-2.61,2.61v11.897
	c0,0,0,2.609,2.61,2.609h43.268c0,0,2.61,0,2.61-2.609V92.32c0,0,0-2.61-2.61-2.61H35.04z"/>
<path fill="none" stroke="#07AD55" stroke-width="3" stroke-linecap="round" d="M21.035,107.188c0,0-2.61,0-2.61,2.609v7.192
	c0,0,0,2.609,2.61,2.609h71.278c0,0,2.61,0,2.61-2.609v-7.192c0,0,0-2.609-2.61-2.609H21.035z"/>
<path fill="none" stroke="#07AD55" stroke-width="3" stroke-linecap="round" d="M63.671,42.982v-32.88
	c0-4.751-3.862-8.602-8.625-8.602H10.125C5.362,1.5,1.5,5.351,1.5,10.102v32.88 M63.671,30.236v35.596
	c0,4.282-3.48,7.753-7.773,7.753c-4.293,0-7.773-3.471-7.773-7.753v-32.92 M48.125,32.912V45.38c0,4.282-3.48,7.752-7.773,7.752
	c-4.293,0-7.773-3.47-7.773-7.752V32.912 M32.579,32.912V45.38c0,4.282-3.48,7.752-7.773,7.752c-4.292,0-7.772-3.47-7.772-7.752
	V32.912 M17.046,32.912V45.38c0,4.282-3.48,7.752-7.773,7.752c-4.293,0-7.773-3.47-7.773-7.752V30.236"/>
</svg>
