<?xml version="1.0" encoding="utf-8"?>
<!-- Generator: Adobe Illustrator 19.1.0, SVG Export Plug-In . SVG Version: 6.00 Build 0)  -->
<svg version="1.1" id="Слой_1" xmlns="http://www.w3.org/2000/svg" xmlns:xlink="http://www.w3.org/1999/xlink" x="0px" y="0px"
	 viewBox="0 0 40.648 39.627" enable-background="new 0 0 40.648 39.627" xml:space="preserve">
<line fill="none" stroke="#FFFFFF" stroke-width="1.25" stroke-miterlimit="10" x1="16.238" y1="31.191" x2="24.41" y2="31.191"/>
<line fill="none" stroke="#FFFFFF" stroke-width="1.25" stroke-miterlimit="10" x1="16.238" y1="27.347" x2="24.41" y2="27.347"/>
<line fill="none" stroke="#FFFFFF" stroke-width="1.25" stroke-miterlimit="10" x1="16.238" y1="12.285" x2="24.41" y2="12.285"/>
<path fill="none" stroke="#FFFFFF" stroke-width="1.25" stroke-miterlimit="10" d="M40.023,31.191V12.285
	c0-4.314-3.495-7.812-7.807-7.812c-4.311,0-7.806,3.498-7.806,7.812v18.906"/>
<circle fill="none" stroke="#FFFFFF" stroke-width="1.25" stroke-miterlimit="10" cx="32.216" cy="31.191" r="7.806"/>
<path fill="none" stroke="#FFFFFF" stroke-width="1.25" stroke-miterlimit="10" d="M16.238,31.191V12.285
	c0-4.314-3.495-7.812-7.807-7.812c-4.311,0-7.806,3.498-7.806,7.812v18.906"/>
<circle fill="none" stroke="#FFFFFF" stroke-width="1.25" stroke-miterlimit="10" cx="8.431" cy="31.191" r="7.806"/>
<path fill="#F6CD45" d="M8.023,27.13c-0.945,0.151-1.505,0.731-1.505,1.571c0,1.002,0.751,1.456,1.505,1.783V27.13z M9.033,35.384
	c0.939-0.199,1.516-0.824,1.516-1.656c0-0.978-0.71-1.47-1.516-1.836V35.384z M8.528,37.936c-0.279,0-0.505-0.226-0.505-0.504
	v-1.066c-1.094-0.101-2.104-0.58-2.591-1.233c-0.059-0.079-0.091-0.185-0.091-0.301c0-0.126,0.047-0.245,0.129-0.327
	c0.088-0.089,0.214-0.143,0.327-0.143c0.119,0,0.259,0.062,0.354,0.157c0.46,0.481,1.153,0.814,1.872,0.906v-3.949
	c-1.438-0.576-2.529-1.161-2.529-2.775c0-1.367,0.989-2.35,2.529-2.525v-1.269c0-0.278,0.226-0.504,0.505-0.504
	c0.279,0,0.505,0.226,0.505,0.504v1.276c0.761,0.091,1.442,0.355,1.927,0.746c0.09,0.074,0.194,0.224,0.194,0.404
	c0,0.09-0.033,0.181-0.091,0.259c-0.121,0.17-0.31,0.183-0.365,0.183c-0.111,0-0.217-0.037-0.304-0.108
	c-0.371-0.29-0.829-0.473-1.361-0.542v3.76c1.396,0.542,2.54,1.143,2.54,2.83c0,1.386-0.994,2.409-2.54,2.627v1.09
	C9.033,37.71,8.807,37.936,8.528,37.936"/>
<path fill="#F6CD45" d="M33.337,36.322c-2.409,0-4.25-1.384-4.824-3.619h-0.896c-0.279,0-0.505-0.226-0.505-0.505
	c0-0.278,0.226-0.504,0.505-0.504h0.728c-0.016-0.189-0.023-0.369-0.023-0.557c0-0.259,0.017-0.528,0.052-0.84h-0.757
	c-0.279,0-0.505-0.226-0.505-0.504c0-0.279,0.226-0.505,0.505-0.505h0.991c0.674-2.091,2.389-3.336,4.601-3.336
	c0.539,0,1.171,0.106,1.648,0.275c0.149,0.05,0.312,0.205,0.312,0.426c0,0.072-0.018,0.145-0.053,0.217
	c-0.067,0.167-0.226,0.271-0.421,0.271c-0.056,0-0.099-0.01-0.141-0.021c-0.439-0.148-0.882-0.219-1.331-0.219
	c-1.623,0-2.931,0.888-3.528,2.387h4.286c0.279,0,0.505,0.226,0.505,0.505c0,0.278-0.226,0.504-0.505,0.504h-4.562
	c-0.044,0.286-0.064,0.561-0.064,0.84c0,0.179,0.008,0.366,0.025,0.557h4.601c0.279,0,0.505,0.226,0.505,0.504
	c0,0.279-0.226,0.505-0.505,0.505h-4.387c0.545,1.652,1.988,2.671,3.799,2.671c0.431,0,0.781-0.049,1.068-0.15
	c0.08-0.02,0.14-0.034,0.206-0.034c0.185,0,0.326,0.094,0.408,0.273c0.022,0.066,0.038,0.117,0.038,0.172
	c0,0.201-0.143,0.374-0.283,0.425C34.385,36.215,33.771,36.322,33.337,36.322"/>
<path fill="none" stroke="#FFFFFF" d="M11.572,4.749l-0.021-1.781C11.524,1.602,10.151,0.5,8.456,0.5S5.388,1.602,5.361,2.968
	L5.34,4.749"/>
<path fill="none" stroke="#FFFFFF" d="M23.419,19.568c-0.027-1.366-1.4-2.468-3.095-2.468s-3.068,1.102-3.095,2.468H23.419z"/>
<path fill="none" stroke="#FFFFFF" d="M35.493,4.749l-0.021-1.781c-0.027-1.366-1.4-2.468-3.095-2.468s-3.068,1.102-3.095,2.468
	l-0.021,1.781"/>
</svg>
