<?xml version="1.0" encoding="utf-8"?>
<!-- Generator: Adobe Illustrator 19.1.0, SVG Export Plug-In . SVG Version: 6.00 Build 0)  -->
<svg version="1.1" id="Слой_1" xmlns="http://www.w3.org/2000/svg" xmlns:xlink="http://www.w3.org/1999/xlink" x="0px" y="0px"
	 viewBox="0 0 51.114 76.304" enable-background="new 0 0 51.114 76.304" xml:space="preserve">
<path fill="#F6CE45" d="M9.131,71.476v0.105c-0.209-2.729-1.715-4.233-4.513-4.514C1.819,67.348,0.279,68.852,0,71.581
	c0.279,2.869,1.819,4.444,4.618,4.723c2.798-0.279,4.304-1.854,4.513-4.723V71.476z M23.196,71.581
	c-0.281-2.729-1.821-4.233-4.618-4.514c-2.8,0.281-4.304,1.785-4.514,4.514c0.21,2.869,1.714,4.444,4.514,4.723
	C21.375,76.025,22.915,74.45,23.196,71.581 M16.269,60.245c-0.281-2.939-1.821-4.477-4.619-4.618
	c-2.728,0.141-4.234,1.679-4.513,4.618c0.279,2.8,1.785,4.303,4.513,4.513C14.448,64.548,15.988,63.045,16.269,60.245
	 M37.155,71.581c-0.28-2.729-1.784-4.233-4.513-4.514c-2.87,0.281-4.408,1.785-4.618,4.514c0.21,2.869,1.748,4.444,4.618,4.723
	C35.371,76.025,36.875,74.45,37.155,71.581 M26.869,51.744c-0.21-2.729-1.679-4.199-4.408-4.409c-2.799,0.21-4.303,1.68-4.513,4.409
	c0.21,2.799,1.714,4.339,4.513,4.618C25.19,56.083,26.659,54.543,26.869,51.744 M51.114,71.581c-0.28-2.729-1.82-4.233-4.618-4.514
	c-2.729,0.281-4.234,1.785-4.513,4.514c0.279,2.869,1.784,4.444,4.513,4.723C49.294,76.025,50.834,74.45,51.114,71.581
	 M10.286,22.881c-0.351-2.798-1.855-4.338-4.513-4.619c-2.87,0.281-4.444,1.821-4.723,4.619c0.279,2.869,1.853,4.408,4.723,4.618
	C8.431,27.289,9.935,25.75,10.286,22.881 M38.1,44.502c-0.21-2.659-1.68-4.128-4.409-4.409c-2.799,0.281-4.303,1.75-4.513,4.409
	c0.21,2.87,1.714,4.408,4.513,4.618C36.42,48.91,37.89,47.372,38.1,44.502 M16.898,10.076c-0.21-2.868-1.715-4.408-4.513-4.618
	c-2.799,0.21-4.339,1.75-4.618,4.618c0.279,2.87,1.819,4.444,4.618,4.723C15.183,14.52,16.688,12.946,16.898,10.076 M47.231,35.056
	c-0.21-2.798-1.68-4.338-4.408-4.619c-2.8,0.281-4.304,1.821-4.514,4.619c0.21,2.728,1.714,4.198,4.514,4.408
	C45.551,39.254,47.021,37.784,47.231,35.056 M30.648,4.618C30.367,1.82,28.863,0.281,26.134,0c-2.799,0.281-4.339,1.82-4.618,4.618
	c0.279,2.799,1.819,4.303,4.618,4.513C28.863,8.921,30.367,7.417,30.648,4.618 M50.799,22.356c-0.28-2.798-1.784-4.338-4.513-4.618
	c-2.87,0.28-4.408,1.82-4.618,4.618c0.21,2.87,1.748,4.408,4.618,4.618C49.015,26.764,50.519,25.226,50.799,22.356 M44.292,9.656
	c-0.28-2.868-1.82-4.408-4.618-4.618c-2.729,0.21-4.269,1.75-4.618,4.618c0.349,2.87,1.889,4.408,4.618,4.618
	C42.472,14.064,44.012,12.526,44.292,9.656"/>
</svg>
