<?xml version="1.0" encoding="utf-8"?>
<!-- Generator: Adobe Illustrator 19.1.0, SVG Export Plug-In . SVG Version: 6.00 Build 0)  -->
<svg version="1.1" id="Слой_1" xmlns="http://www.w3.org/2000/svg" xmlns:xlink="http://www.w3.org/1999/xlink" x="0px" y="0px"
	 viewBox="0 0 11.565 19.227" enable-background="new 0 0 11.565 19.227" xml:space="preserve">
<path fill="#FFFFFF" d="M11.391,10.326c-0.274-0.552-1.035-1.011-2.047-0.214c-1.366,1.077-3.562,1.077-3.562,1.077
	s-2.196,0-3.563-1.077c-1.011-0.797-1.772-0.338-2.046,0.214c-0.479,0.962,0.062,1.427,1.283,2.211
	c1.043,0.67,2.476,0.92,3.402,1.013l-0.773,0.773c-1.088,1.088-2.138,2.139-2.867,2.868c-0.436,0.435-0.436,1.142,0,1.578
	L1.349,18.9c0.436,0.436,1.142,0.436,1.578,0l2.868-2.868c1.088,1.089,2.139,2.139,2.867,2.868c0.436,0.436,1.143,0.436,1.578,0
	l0.132-0.132c0.436-0.435,0.436-1.142,0-1.578l-2.868-2.867l-0.775-0.775c0.927-0.095,2.345-0.347,3.379-1.011
	C11.329,11.753,11.87,11.288,11.391,10.326 M5.782,2.472c1.322,0,2.394,1.072,2.394,2.394c0,1.322-1.072,2.394-2.394,2.394
	c-1.322,0-2.394-1.072-2.394-2.394C3.388,3.544,4.46,2.472,5.782,2.472 M5.782,9.732c2.688,0,4.866-2.179,4.866-4.866
	C10.648,2.178,8.47,0,5.782,0C3.094,0,0.916,2.178,0.916,4.866C0.916,7.553,3.094,9.732,5.782,9.732"/>
</svg>
