<?xml version="1.0" encoding="utf-8"?>
<!-- Generator: Adobe Illustrator 19.1.0, SVG Export Plug-In . SVG Version: 6.00 Build 0)  -->
<svg version="1.1" id="Слой_1" xmlns="http://www.w3.org/2000/svg" xmlns:xlink="http://www.w3.org/1999/xlink" x="0px" y="0px"
	 viewBox="0 0 35.685 47.641" enable-background="new 0 0 35.685 47.641" xml:space="preserve">
<path fill="#0D0F0F" d="M3.036,7.358h29.613V2.76h0.828c0.304,0,0.551-0.248,0.551-0.552c0-0.303-0.247-0.551-0.551-0.551H2.208
	c-0.304,0-0.552,0.248-0.552,0.551c0,0.304,0.248,0.552,0.552,0.552h0.828V7.358z M3.036,10.117h29.613V9.014H3.036V10.117z
	 M3.036,35.869h29.613V11.773H3.036V35.869z M3.036,38.627h29.613v-1.103H3.036V38.627z M2.208,44.882
	c-0.304,0-0.552,0.247-0.552,0.551c0,0.304,0.248,0.552,0.552,0.552h31.269c0.304,0,0.551-0.248,0.551-0.552
	c0-0.304-0.247-0.551-0.551-0.551h-0.828v-4.598H3.036v4.598H2.208z M2.208,47.641C0.991,47.641,0,46.651,0,45.433
	c0-0.855,0.502-1.641,1.279-2.002l0.1-0.047V4.258l-0.1-0.047C0.502,3.849,0,3.063,0,2.208C0,0.991,0.991,0,2.208,0h31.269
	c1.217,0,2.208,0.991,2.208,2.208c0,0.855-0.502,1.641-1.279,2.003l-0.101,0.047v39.126l0.101,0.047
	c0.777,0.361,1.279,1.147,1.279,2.002c0,1.218-0.991,2.208-2.208,2.208H2.208z"/>
<path fill="#0D0F0F" d="M17.604,30.842c-2.774,0-5.022-2.249-5.022-5.022c0-2.774,5.022-10.045,5.022-10.045
	s5.022,7.271,5.022,10.045C22.626,28.593,20.377,30.842,17.604,30.842"/>
</svg>
