<?xml version="1.0" encoding="utf-8"?>
<!-- Generator: Adobe Illustrator 19.1.0, SVG Export Plug-In . SVG Version: 6.00 Build 0)  -->
<svg version="1.1" id="Слой_1" xmlns="http://www.w3.org/2000/svg" xmlns:xlink="http://www.w3.org/1999/xlink" x="0px" y="0px"
	 viewBox="0 0 21.424 21.07" enable-background="new 0 0 21.424 21.07" xml:space="preserve">
<path fill="#FFFFFF" d="M20.491,10.648c0-5.436-4.375-9.811-9.843-9.811c-0.547,0-1.062,0.032-1.577,0.128
	C8.138,0.354,7.045,0,5.854,0C2.605,0,0,2.638,0,5.887c0,1.19,0.322,2.252,0.933,3.185c-0.097,0.514-0.129,1.029-0.129,1.576
	c0,5.404,4.407,9.779,9.844,9.779c0.643,0,1.19-0.064,1.801-0.161c0.901,0.483,1.962,0.804,3.12,0.804
	c3.249,0,5.855-2.541,5.855-5.79c0-1.254-0.322-2.348-0.997-3.313C20.459,11.549,20.491,11.13,20.491,10.648 M15.119,4.922
	c1.512,1.351,0.804,2.895-0.29,2.992C13.8,8.075,12.674,5.63,10.422,5.63c-2.284,0-3.86,2.412-1.029,3.088
	c2.895,0.675,5.919,1.029,7.045,3.603c1.126,2.573-1.705,5.372-4.858,5.533c-3.184,0.16-4.567-0.515-5.951-1.802
	c-1.479-1.415-0.9-2.991,0.322-3.088c1.222-0.096,1.93,1.383,2.606,1.802c0.611,0.418,3.184,1.286,4.471-0.161
	c1.383-1.641-0.901-2.477-2.734-2.735c-2.477-0.354-5.598-1.737-5.34-4.375c0.257-2.637,2.219-4.021,4.342-4.181
	C11.999,3.088,13.704,3.764,15.119,4.922"/>
</svg>
