<?xml version="1.0" encoding="utf-8"?>
<!-- Generator: Adobe Illustrator 18.0.0, SVG Export Plug-In . SVG Version: 6.00 Build 0)  -->
<!DOCTYPE svg PUBLIC "-//W3C//DTD SVG 1.1//EN" "http://www.w3.org/Graphics/SVG/1.1/DTD/svg11.dtd">
<svg version="1.1" id="Слой_1" xmlns="http://www.w3.org/2000/svg" xmlns:xlink="http://www.w3.org/1999/xlink" x="0px" y="0px"
	 viewBox="0 0 791.948 106.443" enable-background="new 0 0 791.948 106.443" xml:space="preserve">
<path fill="#FFFFFF" d="M15.707,100.282c0,3.28,2.589,5.869,5.868,5.869c3.28,0,6.042-2.589,6.042-5.869
	c0-3.279-2.762-6.041-6.042-6.041C18.296,94.241,15.707,97.003,15.707,100.282"/>
<path fill="#FFFFFF" d="M31.413,100.282c0,3.28,2.589,5.869,5.868,5.869c3.28,0,6.042-2.589,6.042-5.869
	c0-3.279-2.762-6.041-6.042-6.041C34.002,94.241,31.413,97.003,31.413,100.282"/>
<path fill="#FFFFFF" d="M0,84.575c0,3.279,2.589,5.869,5.868,5.869c3.28,0,6.042-2.59,6.042-5.869c0-3.279-2.762-6.041-6.042-6.041
	C2.589,78.535,0,81.296,0,84.575"/>
<path fill="#FFFFFF" d="M0,68.868c0,3.28,2.589,5.869,5.868,5.869c3.28,0,6.042-2.589,6.042-5.869c0-3.279-2.762-6.041-6.042-6.041
	C2.589,62.828,0,65.589,0,68.868"/>
<path fill="#FFFFFF" d="M0,53.162c0,3.279,2.589,5.869,5.868,5.869c3.28,0,6.042-2.59,6.042-5.869c0-3.279-2.762-6.041-6.042-6.041
	C2.589,47.121,0,49.883,0,53.162"/>
<path fill="#FFFFFF" d="M0,37.455c0,3.279,2.589,6.041,5.868,6.041c3.28,0,6.042-2.762,6.042-6.041c0-3.28-2.762-6.042-6.042-6.042
	C2.589,31.413,0,34.175,0,37.455"/>
<path fill="#FFFFFF" d="M0,21.748c0,3.279,2.589,6.041,5.868,6.041c3.28,0,6.042-2.762,6.042-6.041c0-3.279-2.762-6.041-6.042-6.041
	C2.589,15.708,0,18.469,0,21.748"/>
<path fill="#FFFFFF" d="M15.707,6.042c0,3.279,2.589,6.041,5.868,6.041c3.28,0,6.042-2.762,6.042-6.041
	c0-3.28-2.762-6.041-6.042-6.041C18.296,0.001,15.707,2.762,15.707,6.042"/>
<path fill="#FFFFFF" d="M31.413,6.042c0,3.279,2.589,6.041,5.868,6.041c3.28,0,6.042-2.762,6.042-6.041
	c0-3.28-2.762-6.041-6.042-6.041C34.002,0.001,31.413,2.762,31.413,6.042"/>
<path fill="#FFFFFF" d="M15.707,84.575c0,3.279,2.589,5.869,5.868,5.869c3.28,0,6.042-2.59,6.042-5.869
	c0-3.279-2.762-6.041-6.042-6.041C18.296,78.535,15.707,81.296,15.707,84.575"/>
<path fill="#FFFFFF" d="M15.707,68.868c0,3.28,2.589,5.869,5.868,5.869c3.28,0,6.042-2.589,6.042-5.869
	c0-3.279-2.762-6.041-6.042-6.041C18.296,62.828,15.707,65.589,15.707,68.868"/>
<path fill="#FFFFFF" d="M15.707,53.162c0,3.279,2.589,5.869,5.868,5.869c3.28,0,6.042-2.59,6.042-5.869
	c0-3.279-2.762-6.041-6.042-6.041C18.296,47.121,15.707,49.883,15.707,53.162"/>
<path fill="#FFFFFF" d="M15.707,37.455c0,3.279,2.589,6.041,5.868,6.041c3.28,0,6.042-2.762,6.042-6.041
	c0-3.28-2.762-6.042-6.042-6.042C18.296,31.413,15.707,34.175,15.707,37.455"/>
<path fill="#FFFFFF" d="M15.707,21.748c0,3.279,2.589,6.041,5.868,6.041c3.28,0,6.042-2.762,6.042-6.041
	c0-3.279-2.762-6.041-6.042-6.041C18.296,15.708,15.707,18.469,15.707,21.748"/>
<path fill="#FFFFFF" d="M62.654,21.748c0,3.279,2.762,6.041,6.041,6.041c3.279,0,6.041-2.762,6.041-6.041
	c0-3.279-2.762-6.041-6.041-6.041C65.416,15.708,62.654,18.469,62.654,21.748"/>
<path fill="#FFFFFF" d="M46.948,100.282c0,3.28,2.762,5.869,6.041,5.869c3.279,0,6.041-2.589,6.041-5.869
	c0-3.279-2.762-6.041-6.041-6.041C49.71,94.241,46.948,97.003,46.948,100.282"/>
<path fill="#FFFFFF" d="M46.948,6.042c0,3.279,2.762,6.041,6.041,6.041c3.279,0,6.041-2.762,6.041-6.041
	c0-3.28-2.762-6.041-6.041-6.041C49.71,0.001,46.948,2.762,46.948,6.042"/>
<path fill="#FFFFFF" d="M62.654,100.282c0,3.28,2.762,5.869,6.041,5.869c3.279,0,6.041-2.589,6.041-5.869
	c0-3.279-2.762-6.041-6.041-6.041C65.416,94.241,62.654,97.003,62.654,100.282"/>
<path fill="#FFFFFF" d="M115.124,100.282c0,3.28,2.589,5.869,5.868,5.869c3.28,0,6.042-2.589,6.042-5.869
	c0-3.279-2.762-6.041-6.042-6.041C117.713,94.241,115.124,97.003,115.124,100.282"/>
<path fill="#FFFFFF" d="M130.83,100.282c0,3.28,2.589,5.869,5.868,5.869c3.28,0,6.042-2.589,6.042-5.869
	c0-3.279-2.762-6.041-6.042-6.041C133.419,94.241,130.83,97.003,130.83,100.282"/>
<path fill="#FFFFFF" d="M146.537,100.282c0,3.28,2.589,5.869,5.868,5.869c3.28,0,6.042-2.589,6.042-5.869
	c0-3.279-2.762-6.041-6.042-6.041C149.126,94.241,146.537,97.003,146.537,100.282"/>
<path fill="#FFFFFF" d="M162.071,100.282c0,3.28,2.762,5.869,6.041,5.869s6.041-2.589,6.041-5.869c0-3.279-2.762-6.041-6.041-6.041
	S162.071,97.003,162.071,100.282"/>
<path fill="#FFFFFF" d="M99.417,84.575c0,3.279,2.589,5.869,5.868,5.869c3.28,0,6.042-2.59,6.042-5.869
	c0-3.279-2.762-6.041-6.042-6.041C102.006,78.535,99.417,81.296,99.417,84.575"/>
<path fill="#FFFFFF" d="M99.417,68.868c0,3.28,2.589,5.869,5.868,5.869c3.28,0,6.042-2.589,6.042-5.869
	c0-3.279-2.762-6.041-6.042-6.041C102.006,62.828,99.417,65.589,99.417,68.868"/>
<path fill="#FFFFFF" d="M99.417,53.162c0,3.279,2.589,5.869,5.868,5.869c3.28,0,6.042-2.59,6.042-5.869
	c0-3.279-2.762-6.041-6.042-6.041C102.006,47.121,99.417,49.883,99.417,53.162"/>
<path fill="#FFFFFF" d="M115.124,53.162c0,3.279,2.589,5.869,5.868,5.869c3.28,0,6.042-2.59,6.042-5.869
	c0-3.279-2.762-6.041-6.042-6.041C117.713,47.121,115.124,49.883,115.124,53.162"/>
<path fill="#FFFFFF" d="M99.417,37.455c0,3.279,2.589,6.041,5.868,6.041c3.28,0,6.042-2.762,6.042-6.041
	c0-3.28-2.762-6.042-6.042-6.042C102.006,31.413,99.417,34.175,99.417,37.455"/>
<path fill="#FFFFFF" d="M99.417,21.748c0,3.279,2.589,6.041,5.868,6.041c3.28,0,6.042-2.762,6.042-6.041
	c0-3.279-2.762-6.041-6.042-6.041C102.006,15.708,99.417,18.469,99.417,21.748"/>
<path fill="#FFFFFF" d="M99.417,6.042c0,3.279,2.589,6.041,5.868,6.041c3.28,0,6.042-2.762,6.042-6.041
	c0-3.28-2.762-6.041-6.042-6.041C102.006,0.001,99.417,2.762,99.417,6.042"/>
<path fill="#FFFFFF" d="M115.124,84.575c0,3.279,2.589,5.869,5.868,5.869c3.28,0,6.042-2.59,6.042-5.869
	c0-3.279-2.762-6.041-6.042-6.041C117.713,78.535,115.124,81.296,115.124,84.575"/>
<path fill="#FFFFFF" d="M115.124,68.868c0,3.28,2.589,5.869,5.868,5.869c3.28,0,6.042-2.589,6.042-5.869
	c0-3.279-2.762-6.041-6.042-6.041C117.713,62.828,115.124,65.589,115.124,68.868"/>
<path fill="#FFFFFF" d="M115.124,37.455c0,3.279,2.589,6.041,5.868,6.041c3.28,0,6.042-2.762,6.042-6.041
	c0-3.28-2.762-6.042-6.042-6.042C117.713,31.413,115.124,34.175,115.124,37.455"/>
<path fill="#FFFFFF" d="M115.124,21.748c0,3.279,2.589,6.041,5.868,6.041c3.28,0,6.042-2.762,6.042-6.041
	c0-3.279-2.762-6.041-6.042-6.041C117.713,15.708,115.124,18.469,115.124,21.748"/>
<path fill="#FFFFFF" d="M115.124,6.042c0,3.279,2.589,6.041,5.868,6.041c3.28,0,6.042-2.762,6.042-6.041
	c0-3.28-2.762-6.041-6.042-6.041C117.713,0.001,115.124,2.762,115.124,6.042"/>
<path fill="#FFFFFF" d="M162.244,84.575c0,3.279,2.589,5.869,5.868,5.869c3.28,0,6.042-2.59,6.042-5.869
	c0-3.279-2.762-6.041-6.042-6.041C164.833,78.535,162.244,81.296,162.244,84.575"/>
<path fill="#FFFFFF" d="M162.244,68.868c0,3.28,2.589,5.869,5.868,5.869c3.28,0,6.042-2.589,6.042-5.869
	c0-3.279-2.762-6.041-6.042-6.041C164.833,62.828,162.244,65.589,162.244,68.868"/>
<path fill="#FFFFFF" d="M162.244,53.162c0,3.279,2.589,5.869,5.868,5.869c3.28,0,6.042-2.59,6.042-5.869
	c0-3.279-2.762-6.041-6.042-6.041C164.833,47.121,162.244,49.883,162.244,53.162"/>
<path fill="#FFFFFF" d="M177.951,53.162c0,3.279,2.589,5.869,5.868,5.869c3.28,0,6.042-2.59,6.042-5.869
	c0-3.279-2.762-6.041-6.042-6.041C180.54,47.121,177.951,49.883,177.951,53.162"/>
<path fill="#FFFFFF" d="M162.244,37.455c0,3.279,2.589,6.041,5.868,6.041c3.28,0,6.042-2.762,6.042-6.041
	c0-3.28-2.762-6.042-6.042-6.042C164.833,31.413,162.244,34.175,162.244,37.455"/>
<path fill="#FFFFFF" d="M162.244,21.748c0,3.279,2.589,6.041,5.868,6.041c3.28,0,6.042-2.762,6.042-6.041
	c0-3.279-2.762-6.041-6.042-6.041C164.833,15.708,162.244,18.469,162.244,21.748"/>
<path fill="#FFFFFF" d="M162.244,6.042c0,3.279,2.589,6.041,5.868,6.041c3.28,0,6.042-2.762,6.042-6.041
	c0-3.28-2.762-6.041-6.042-6.041C164.833,0.001,162.244,2.762,162.244,6.042"/>
<path fill="#FFFFFF" d="M177.951,84.575c0,3.279,2.589,5.869,5.868,5.869c3.28,0,6.042-2.59,6.042-5.869
	c0-3.279-2.762-6.041-6.042-6.041C180.54,78.535,177.951,81.296,177.951,84.575"/>
<path fill="#FFFFFF" d="M177.951,100.574c0,3.279,2.589,5.869,5.868,5.869c3.28,0,6.042-2.59,6.042-5.869
	c0-3.279-2.762-6.041-6.042-6.041C180.54,94.534,177.951,97.295,177.951,100.574"/>
<path fill="#FFFFFF" d="M177.951,68.868c0,3.28,2.589,5.869,5.868,5.869c3.28,0,6.042-2.589,6.042-5.869
	c0-3.279-2.762-6.041-6.042-6.041C180.54,62.828,177.951,65.589,177.951,68.868"/>
<path fill="#FFFFFF" d="M177.951,37.455c0,3.279,2.589,6.041,5.868,6.041c3.28,0,6.042-2.762,6.042-6.041
	c0-3.28-2.762-6.042-6.042-6.042C180.54,31.413,177.951,34.175,177.951,37.455"/>
<path fill="#FFFFFF" d="M177.951,21.748c0,3.279,2.589,6.041,5.868,6.041c3.28,0,6.042-2.762,6.042-6.041
	c0-3.279-2.762-6.041-6.042-6.041C180.54,15.708,177.951,18.469,177.951,21.748"/>
<path fill="#FFFFFF" d="M177.951,6.042c0,3.279,2.589,6.041,5.868,6.041c3.28,0,6.042-2.762,6.042-6.041
	c0-3.28-2.762-6.041-6.042-6.041C180.54,0.001,177.951,2.762,177.951,6.042"/>
<path fill="#FFFFFF" d="M245.955,5.869c0-3.28,2.589-5.869,5.868-5.869c3.28,0,6.042,2.589,6.042,5.869
	c0,3.279-2.762,6.041-6.042,6.041C248.544,11.91,245.955,9.148,245.955,5.869"/>
<path fill="#FFFFFF" d="M277.368,5.869c0-3.28,2.589-5.869,5.868-5.869c3.28,0,6.042,2.589,6.042,5.869
	c0,3.279-2.762,6.041-6.042,6.041C279.957,11.91,277.368,9.148,277.368,5.869"/>
<path fill="#FFFFFF" d="M261.661,5.869c0-3.28,2.589-5.869,5.868-5.869c3.28,0,6.042,2.589,6.042,5.869
	c0,3.279-2.762,6.041-6.042,6.041C264.25,11.91,261.661,9.148,261.661,5.869"/>
<path fill="#FFFFFF" d="M277.368,21.575c0-3.279,2.589-5.869,5.868-5.869c3.28,0,6.042,2.59,6.042,5.869
	c0,3.279-2.762,6.041-6.042,6.041C279.957,27.616,277.368,24.854,277.368,21.575"/>
<path fill="#FFFFFF" d="M214.541,5.869c0-3.28,2.589-5.869,5.868-5.869c3.28,0,6.042,2.589,6.042,5.869
	c0,3.279-2.762,6.041-6.042,6.041C217.13,11.91,214.541,9.148,214.541,5.869"/>
<path fill="#FFFFFF" d="M214.541,21.575c0-3.279,2.589-5.869,5.868-5.869c3.28,0,6.042,2.59,6.042,5.869
	c0,3.279-2.762,6.041-6.042,6.041C217.13,27.616,214.541,24.854,214.541,21.575"/>
<path fill="#FFFFFF" d="M214.541,37.282c0-3.28,2.589-5.869,5.868-5.869c3.28,0,6.042,2.589,6.042,5.869
	c0,3.279-2.762,6.041-6.042,6.041C217.13,43.323,214.541,40.562,214.541,37.282"/>
<path fill="#FFFFFF" d="M214.541,52.989c0-3.279,2.589-5.869,5.868-5.869c3.28,0,6.042,2.59,6.042,5.869
	c0,3.279-2.762,6.041-6.042,6.041C217.13,59.03,214.541,56.268,214.541,52.989"/>
<path fill="#FFFFFF" d="M230.248,52.989c0-3.279,2.589-5.869,5.868-5.869c3.28,0,6.042,2.59,6.042,5.869
	c0,3.279-2.762,6.041-6.042,6.041C232.837,59.03,230.248,56.268,230.248,52.989"/>
<path fill="#FFFFFF" d="M214.541,68.695c0-3.279,2.589-6.041,5.868-6.041c3.28,0,6.042,2.762,6.042,6.041
	c0,3.28-2.762,6.042-6.042,6.042C217.13,74.738,214.541,71.976,214.541,68.695"/>
<path fill="#FFFFFF" d="M214.541,84.402c0-3.279,2.589-6.041,5.868-6.041c3.28,0,6.042,2.762,6.042,6.041
	c0,3.279-2.762,6.041-6.042,6.041C217.13,90.443,214.541,87.682,214.541,84.402"/>
<path fill="#FFFFFF" d="M214.541,100.109c0-3.279,2.589-6.041,5.868-6.041c3.28,0,6.042,2.762,6.042,6.041
	c0,3.28-2.762,6.041-6.042,6.041C217.13,106.15,214.541,103.389,214.541,100.109"/>
<path fill="#FFFFFF" d="M230.248,5.869c0-3.28,2.589-5.869,5.868-5.869c3.28,0,6.042,2.589,6.042,5.869
	c0,3.279-2.762,6.041-6.042,6.041C232.837,11.91,230.248,9.148,230.248,5.869"/>
<path fill="#FFFFFF" d="M230.248,21.575c0-3.279,2.589-5.869,5.868-5.869c3.28,0,6.042,2.59,6.042,5.869
	c0,3.279-2.762,6.041-6.042,6.041C232.837,27.616,230.248,24.854,230.248,21.575"/>
<path fill="#FFFFFF" d="M230.248,37.282c0-3.28,2.589-5.869,5.868-5.869c3.28,0,6.042,2.589,6.042,5.869
	c0,3.279-2.762,6.041-6.042,6.041C232.837,43.323,230.248,40.562,230.248,37.282"/>
<path fill="#FFFFFF" d="M230.248,68.695c0-3.279,2.589-6.041,5.868-6.041c3.28,0,6.042,2.762,6.042,6.041
	c0,3.28-2.762,6.042-6.042,6.042C232.837,74.738,230.248,71.976,230.248,68.695"/>
<path fill="#FFFFFF" d="M230.248,84.402c0-3.279,2.589-6.041,5.868-6.041c3.28,0,6.042,2.762,6.042,6.041
	c0,3.279-2.762,6.041-6.042,6.041C232.837,90.443,230.248,87.682,230.248,84.402"/>
<path fill="#FFFFFF" d="M230.248,100.109c0-3.279,2.589-6.041,5.868-6.041c3.28,0,6.042,2.762,6.042,6.041
	c0,3.28-2.762,6.041-6.042,6.041C232.837,106.15,230.248,103.389,230.248,100.109"/>
<path fill="#FFFFFF" d="M313.958,100.282c0,3.28,2.589,5.869,5.868,5.869c3.28,0,6.042-2.589,6.042-5.869
	c0-3.279-2.762-6.041-6.042-6.041C316.547,94.241,313.958,97.003,313.958,100.282"/>
<path fill="#FFFFFF" d="M313.958,84.575c0,3.279,2.589,5.869,5.868,5.869c3.28,0,6.042-2.59,6.042-5.869
	c0-3.279-2.762-6.041-6.042-6.041C316.547,78.535,313.958,81.296,313.958,84.575"/>
<path fill="#FFFFFF" d="M313.958,68.868c0,3.28,2.589,5.869,5.868,5.869c3.28,0,6.042-2.589,6.042-5.869
	c0-3.279-2.762-6.041-6.042-6.041C316.547,62.828,313.958,65.589,313.958,68.868"/>
<path fill="#FFFFFF" d="M313.958,53.162c0,3.279,2.589,5.869,5.868,5.869c3.28,0,6.042-2.59,6.042-5.869
	c0-3.279-2.762-6.041-6.042-6.041C316.547,47.121,313.958,49.883,313.958,53.162"/>
<path fill="#FFFFFF" d="M329.665,53.162c0,3.279,2.589,5.869,5.868,5.869c3.28,0,6.042-2.59,6.042-5.869
	c0-3.279-2.762-6.041-6.042-6.041C332.254,47.121,329.665,49.883,329.665,53.162"/>
<path fill="#FFFFFF" d="M345.372,53.162c0,3.279,2.589,5.869,5.868,5.869c3.28,0,6.042-2.59,6.042-5.869
	c0-3.279-2.762-6.041-6.042-6.041C347.961,47.121,345.372,49.883,345.372,53.162"/>
<path fill="#FFFFFF" d="M361.078,53.162c0,3.279,2.589,5.869,5.868,5.869c3.28,0,6.042-2.59,6.042-5.869
	c0-3.279-2.762-6.041-6.042-6.041C363.667,47.121,361.078,49.883,361.078,53.162"/>
<path fill="#FFFFFF" d="M313.958,37.455c0,3.279,2.589,6.041,5.868,6.041c3.28,0,6.042-2.762,6.042-6.041
	c0-3.28-2.762-6.042-6.042-6.042C316.547,31.413,313.958,34.175,313.958,37.455"/>
<path fill="#FFFFFF" d="M313.958,21.748c0,3.279,2.589,6.041,5.868,6.041c3.28,0,6.042-2.762,6.042-6.041
	c0-3.279-2.762-6.041-6.042-6.041C316.547,15.708,313.958,18.469,313.958,21.748"/>
<path fill="#FFFFFF" d="M313.958,6.042c0,3.279,2.589,6.041,5.868,6.041c3.28,0,6.042-2.762,6.042-6.041
	c0-3.28-2.762-6.041-6.042-6.041C316.547,0.001,313.958,2.762,313.958,6.042"/>
<path fill="#FFFFFF" d="M329.665,100.282c0,3.28,2.589,5.869,5.868,5.869c3.28,0,6.042-2.589,6.042-5.869
	c0-3.279-2.762-6.041-6.042-6.041C332.254,94.241,329.665,97.003,329.665,100.282"/>
<path fill="#FFFFFF" d="M329.665,84.575c0,3.279,2.589,5.869,5.868,5.869c3.28,0,6.042-2.59,6.042-5.869
	c0-3.279-2.762-6.041-6.042-6.041C332.254,78.535,329.665,81.296,329.665,84.575"/>
<path fill="#FFFFFF" d="M329.665,68.868c0,3.28,2.589,5.869,5.868,5.869c3.28,0,6.042-2.589,6.042-5.869
	c0-3.279-2.762-6.041-6.042-6.041C332.254,62.828,329.665,65.589,329.665,68.868"/>
<path fill="#FFFFFF" d="M329.665,37.455c0,3.279,2.589,6.041,5.868,6.041c3.28,0,6.042-2.762,6.042-6.041
	c0-3.28-2.762-6.042-6.042-6.042C332.254,31.413,329.665,34.175,329.665,37.455"/>
<path fill="#FFFFFF" d="M329.665,21.748c0,3.279,2.589,6.041,5.868,6.041c3.28,0,6.042-2.762,6.042-6.041
	c0-3.279-2.762-6.041-6.042-6.041C332.254,15.708,329.665,18.469,329.665,21.748"/>
<path fill="#FFFFFF" d="M329.665,6.042c0,3.279,2.589,6.041,5.868,6.041c3.28,0,6.042-2.762,6.042-6.041
	c0-3.28-2.762-6.041-6.042-6.041C332.254,0.001,329.665,2.762,329.665,6.042"/>
<path fill="#FFFFFF" d="M376.785,100.282c0,3.28,2.589,5.869,5.868,5.869c3.28,0,6.042-2.589,6.042-5.869
	c0-3.279-2.762-6.041-6.042-6.041C379.374,94.241,376.785,97.003,376.785,100.282"/>
<path fill="#FFFFFF" d="M376.785,84.575c0,3.279,2.589,5.869,5.868,5.869c3.28,0,6.042-2.59,6.042-5.869
	c0-3.279-2.762-6.041-6.042-6.041C379.374,78.535,376.785,81.296,376.785,84.575"/>
<path fill="#FFFFFF" d="M376.785,68.868c0,3.28,2.589,5.869,5.868,5.869c3.28,0,6.042-2.589,6.042-5.869
	c0-3.279-2.762-6.041-6.042-6.041C379.374,62.828,376.785,65.589,376.785,68.868"/>
<path fill="#FFFFFF" d="M376.785,53.162c0,3.279,2.589,5.869,5.868,5.869c3.28,0,6.042-2.59,6.042-5.869
	c0-3.279-2.762-6.041-6.042-6.041C379.374,47.121,376.785,49.883,376.785,53.162"/>
<path fill="#FFFFFF" d="M392.492,53.162c0,3.279,2.589,5.869,5.868,5.869c3.28,0,6.042-2.59,6.042-5.869
	c0-3.279-2.762-6.041-6.042-6.041C395.081,47.121,392.492,49.883,392.492,53.162"/>
<path fill="#FFFFFF" d="M376.785,37.455c0,3.279,2.589,6.041,5.868,6.041c3.28,0,6.042-2.762,6.042-6.041
	c0-3.28-2.762-6.042-6.042-6.042C379.374,31.413,376.785,34.175,376.785,37.455"/>
<path fill="#FFFFFF" d="M376.785,21.748c0,3.279,2.589,6.041,5.868,6.041c3.28,0,6.042-2.762,6.042-6.041
	c0-3.279-2.762-6.041-6.042-6.041C379.374,15.708,376.785,18.469,376.785,21.748"/>
<path fill="#FFFFFF" d="M376.785,6.042c0,3.279,2.589,6.041,5.868,6.041c3.28,0,6.042-2.762,6.042-6.041
	c0-3.28-2.762-6.041-6.042-6.041C379.374,0.001,376.785,2.762,376.785,6.042"/>
<path fill="#FFFFFF" d="M392.492,100.282c0,3.28,2.589,5.869,5.868,5.869c3.28,0,6.042-2.589,6.042-5.869
	c0-3.279-2.762-6.041-6.042-6.041C395.081,94.241,392.492,97.003,392.492,100.282"/>
<path fill="#FFFFFF" d="M392.492,84.575c0,3.279,2.589,5.869,5.868,5.869c3.28,0,6.042-2.59,6.042-5.869
	c0-3.279-2.762-6.041-6.042-6.041C395.081,78.535,392.492,81.296,392.492,84.575"/>
<path fill="#FFFFFF" d="M392.492,68.868c0,3.28,2.589,5.869,5.868,5.869c3.28,0,6.042-2.589,6.042-5.869
	c0-3.279-2.762-6.041-6.042-6.041C395.081,62.828,392.492,65.589,392.492,68.868"/>
<path fill="#FFFFFF" d="M392.492,37.455c0,3.279,2.589,6.041,5.868,6.041c3.28,0,6.042-2.762,6.042-6.041
	c0-3.28-2.762-6.042-6.042-6.042C395.081,31.413,392.492,34.175,392.492,37.455"/>
<path fill="#FFFFFF" d="M392.492,21.748c0,3.279,2.589,6.041,5.868,6.041c3.28,0,6.042-2.762,6.042-6.041
	c0-3.279-2.762-6.041-6.042-6.041C395.081,15.708,392.492,18.469,392.492,21.748"/>
<path fill="#FFFFFF" d="M392.492,6.042c0,3.279,2.589,6.041,5.868,6.041c3.28,0,6.042-2.762,6.042-6.041
	c0-3.28-2.762-6.041-6.042-6.041C395.081,0.001,392.492,2.762,392.492,6.042"/>
<path fill="#FFFFFF" d="M429.082,100.282c0,3.28,2.589,5.869,5.868,5.869c3.28,0,6.042-2.589,6.042-5.869
	c0-3.279-2.762-6.041-6.042-6.041C431.671,94.241,429.082,97.003,429.082,100.282"/>
<path fill="#FFFFFF" d="M491.737,100.282c0,3.28,2.762,5.869,6.041,5.869c3.28,0,6.041-2.589,6.041-5.869
	c0-3.279-2.761-6.041-6.041-6.041C494.499,94.241,491.737,97.003,491.737,100.282"/>
<path fill="#FFFFFF" d="M429.082,84.575c0,3.279,2.589,5.869,5.868,5.869c3.28,0,6.042-2.59,6.042-5.869
	c0-3.279-2.762-6.041-6.042-6.041C431.671,78.535,429.082,81.296,429.082,84.575"/>
<path fill="#FFFFFF" d="M491.737,84.575c0,3.279,2.762,5.869,6.041,5.869c3.28,0,6.041-2.59,6.041-5.869
	c0-3.279-2.761-6.041-6.041-6.041C494.499,78.535,491.737,81.296,491.737,84.575"/>
<path fill="#FFFFFF" d="M429.082,68.868c0,3.28,2.589,5.869,5.868,5.869c3.28,0,6.042-2.589,6.042-5.869
	c0-3.279-2.762-6.041-6.042-6.041C431.671,62.828,429.082,65.589,429.082,68.868"/>
<path fill="#FFFFFF" d="M491.737,68.868c0,3.28,2.762,5.869,6.041,5.869c3.28,0,6.041-2.589,6.041-5.869
	c0-3.279-2.761-6.041-6.041-6.041C494.499,62.828,491.737,65.589,491.737,68.868"/>
<path fill="#FFFFFF" d="M429.082,53.162c0,3.279,2.589,5.869,5.868,5.869c3.28,0,6.042-2.59,6.042-5.869
	c0-3.279-2.762-6.041-6.042-6.041C431.671,47.121,429.082,49.883,429.082,53.162"/>
<path fill="#FFFFFF" d="M444.789,53.162c0,3.279,2.589,5.869,5.868,5.869c3.28,0,6.041-2.59,6.041-5.869
	c0-3.279-2.761-6.041-6.041-6.041C447.378,47.121,444.789,49.883,444.789,53.162"/>
<path fill="#FFFFFF" d="M460.496,53.162c0,3.279,2.589,5.869,5.868,5.869c3.28,0,6.041-2.59,6.041-5.869
	c0-3.279-2.761-6.041-6.041-6.041C463.085,47.121,460.496,49.883,460.496,53.162"/>
<path fill="#FFFFFF" d="M476.203,53.162c0,3.279,2.589,5.869,5.868,5.869c3.28,0,6.041-2.59,6.041-5.869
	c0-3.279-2.761-6.041-6.041-6.041C478.792,47.121,476.203,49.883,476.203,53.162"/>
<path fill="#FFFFFF" d="M491.737,53.162c0,3.279,2.762,5.869,6.041,5.869c3.28,0,6.041-2.59,6.041-5.869
	c0-3.279-2.761-6.041-6.041-6.041C494.499,47.121,491.737,49.883,491.737,53.162"/>
<path fill="#FFFFFF" d="M429.082,37.455c0,3.279,2.589,6.041,5.868,6.041c3.28,0,6.042-2.762,6.042-6.041
	c0-3.28-2.762-6.042-6.042-6.042C431.671,31.413,429.082,34.175,429.082,37.455"/>
<path fill="#FFFFFF" d="M491.737,37.455c0,3.279,2.762,6.041,6.041,6.041c3.28,0,6.041-2.762,6.041-6.041
	c0-3.28-2.761-6.042-6.041-6.042C494.499,31.413,491.737,34.175,491.737,37.455"/>
<path fill="#FFFFFF" d="M429.082,21.748c0,3.279,2.589,6.041,5.868,6.041c3.28,0,6.042-2.762,6.042-6.041
	c0-3.279-2.762-6.041-6.042-6.041C431.671,15.708,429.082,18.469,429.082,21.748"/>
<path fill="#FFFFFF" d="M491.737,21.748c0,3.279,2.762,6.041,6.041,6.041c3.28,0,6.041-2.762,6.041-6.041
	c0-3.279-2.761-6.041-6.041-6.041C494.499,15.708,491.737,18.469,491.737,21.748"/>
<path fill="#FFFFFF" d="M444.789,6.042c0,3.279,2.589,6.041,5.868,6.041c3.28,0,6.041-2.762,6.041-6.041
	c0-3.28-2.761-6.041-6.041-6.041C447.378,0.001,444.789,2.762,444.789,6.042"/>
<path fill="#FFFFFF" d="M460.496,6.042c0,3.279,2.589,6.041,5.868,6.041c3.28,0,6.041-2.762,6.041-6.041
	c0-3.28-2.761-6.041-6.041-6.041C463.085,0.001,460.496,2.762,460.496,6.042"/>
<path fill="#FFFFFF" d="M476.203,6.042c0,3.279,2.589,6.041,5.868,6.041c3.28,0,6.041-2.762,6.041-6.041
	c0-3.28-2.761-6.041-6.041-6.041C478.792,0.001,476.203,2.762,476.203,6.042"/>
<path fill="#FFFFFF" d="M444.789,100.282c0,3.28,2.589,5.869,5.868,5.869c3.28,0,6.041-2.589,6.041-5.869
	c0-3.279-2.761-6.041-6.041-6.041C447.378,94.241,444.789,97.003,444.789,100.282"/>
<path fill="#FFFFFF" d="M507.443,100.282c0,3.28,2.762,5.869,6.041,5.869s6.041-2.589,6.041-5.869c0-3.279-2.762-6.041-6.041-6.041
	S507.443,97.003,507.443,100.282"/>
<path fill="#FFFFFF" d="M444.789,84.575c0,3.279,2.589,5.869,5.868,5.869c3.28,0,6.041-2.59,6.041-5.869
	c0-3.279-2.761-6.041-6.041-6.041C447.378,78.535,444.789,81.296,444.789,84.575"/>
<path fill="#FFFFFF" d="M507.443,84.575c0,3.279,2.762,5.869,6.041,5.869s6.041-2.59,6.041-5.869c0-3.279-2.762-6.041-6.041-6.041
	S507.443,81.296,507.443,84.575"/>
<path fill="#FFFFFF" d="M444.789,68.868c0,3.28,2.589,5.869,5.868,5.869c3.28,0,6.041-2.589,6.041-5.869
	c0-3.279-2.761-6.041-6.041-6.041C447.378,62.828,444.789,65.589,444.789,68.868"/>
<path fill="#FFFFFF" d="M507.443,68.868c0,3.28,2.762,5.869,6.041,5.869s6.041-2.589,6.041-5.869c0-3.279-2.762-6.041-6.041-6.041
	S507.443,65.589,507.443,68.868"/>
<path fill="#FFFFFF" d="M444.789,37.455c0,3.279,2.589,6.041,5.868,6.041c3.28,0,6.041-2.762,6.041-6.041
	c0-3.28-2.761-6.042-6.041-6.042C447.378,31.413,444.789,34.175,444.789,37.455"/>
<path fill="#FFFFFF" d="M507.443,37.455c0,3.279,2.762,6.041,6.041,6.041s6.041-2.762,6.041-6.041c0-3.28-2.762-6.042-6.041-6.042
	S507.443,34.175,507.443,37.455"/>
<path fill="#FFFFFF" d="M444.789,21.748c0,3.279,2.589,6.041,5.868,6.041c3.28,0,6.041-2.762,6.041-6.041
	c0-3.279-2.761-6.041-6.041-6.041C447.378,15.708,444.789,18.469,444.789,21.748"/>
<path fill="#FFFFFF" d="M507.443,21.748c0,3.279,2.762,6.041,6.041,6.041s6.041-2.762,6.041-6.041c0-3.279-2.762-6.041-6.041-6.041
	S507.443,18.469,507.443,21.748"/>
<path fill="#FFFFFF" d="M507.443,53.162c0,3.279,2.762,5.869,6.041,5.869s6.041-2.59,6.041-5.869c0-3.279-2.762-6.041-6.041-6.041
	S507.443,49.883,507.443,53.162"/>
<path fill="#FFFFFF" d="M491.737,6.042c0,3.279,2.762,6.041,6.041,6.041c3.28,0,6.041-2.762,6.041-6.041
	c0-3.28-2.761-6.041-6.041-6.041C494.499,0.001,491.737,2.762,491.737,6.042"/>
<path fill="#FFFFFF" d="M575.62,5.869c0-3.28,2.589-5.869,5.868-5.869c3.28,0,6.042,2.589,6.042,5.869
	c0,3.279-2.762,6.041-6.042,6.041C578.209,11.91,575.62,9.148,575.62,5.869"/>
<path fill="#FFFFFF" d="M559.913,21.575c0-3.279,2.589-5.869,5.868-5.869c3.28,0,6.042,2.59,6.042,5.869
	c0,3.279-2.762,6.041-6.042,6.041C562.502,27.616,559.913,24.854,559.913,21.575"/>
<path fill="#FFFFFF" d="M544.207,37.282c0-3.28,2.589-5.869,5.868-5.869c3.28,0,6.041,2.589,6.041,5.869
	c0,3.279-2.761,6.041-6.041,6.041C546.796,43.323,544.207,40.562,544.207,37.282"/>
<path fill="#FFFFFF" d="M606.861,37.282c0-3.28,2.762-5.869,6.041-5.869s6.041,2.589,6.041,5.869c0,3.279-2.762,6.041-6.041,6.041
	S606.861,40.562,606.861,37.282"/>
<path fill="#FFFFFF" d="M544.207,52.989c0-3.279,2.589-5.869,5.868-5.869c3.28,0,6.041,2.59,6.041,5.869
	c0,3.279-2.761,6.041-6.041,6.041C546.796,59.03,544.207,56.268,544.207,52.989"/>
<path fill="#FFFFFF" d="M606.861,52.989c0-3.279,2.762-5.869,6.041-5.869s6.041,2.59,6.041,5.869c0,3.279-2.762,6.041-6.041,6.041
	S606.861,56.268,606.861,52.989"/>
<path fill="#FFFFFF" d="M544.207,68.695c0-3.279,2.589-6.041,5.868-6.041c3.28,0,6.041,2.762,6.041,6.041
	c0,3.28-2.761,6.042-6.041,6.042C546.796,74.738,544.207,71.976,544.207,68.695"/>
<path fill="#FFFFFF" d="M606.861,68.695c0-3.279,2.762-6.041,6.041-6.041s6.041,2.762,6.041,6.041c0,3.28-2.762,6.042-6.041,6.042
	S606.861,71.976,606.861,68.695"/>
<path fill="#FFFFFF" d="M544.207,84.402c0-3.279,2.589-6.041,5.868-6.041c3.28,0,6.041,2.762,6.041,6.041
	c0,3.279-2.761,6.041-6.041,6.041C546.796,90.443,544.207,87.682,544.207,84.402"/>
<path fill="#FFFFFF" d="M606.861,84.402c0-3.279,2.762-6.041,6.041-6.041s6.041,2.762,6.041,6.041c0,3.279-2.762,6.041-6.041,6.041
	S606.861,87.682,606.861,84.402"/>
<path fill="#FFFFFF" d="M544.207,100.109c0-3.279,2.589-6.041,5.868-6.041c3.28,0,6.041,2.762,6.041,6.041
	c0,3.28-2.761,6.041-6.041,6.041C546.796,106.15,544.207,103.389,544.207,100.109"/>
<path fill="#FFFFFF" d="M591.327,5.869c0-3.28,2.589-5.869,5.868-5.869c3.28,0,6.042,2.589,6.042,5.869
	c0,3.279-2.762,6.041-6.042,6.041C593.916,11.91,591.327,9.148,591.327,5.869"/>
<path fill="#FFFFFF" d="M606.861,21.575c0-3.279,2.762-5.869,6.041-5.869s6.041,2.59,6.041,5.869c0,3.279-2.762,6.041-6.041,6.041
	S606.861,24.854,606.861,21.575"/>
<path fill="#FFFFFF" d="M559.913,37.282c0-3.28,2.589-5.869,5.868-5.869c3.28,0,6.042,2.589,6.042,5.869
	c0,3.279-2.762,6.041-6.042,6.041C562.502,43.323,559.913,40.562,559.913,37.282"/>
<path fill="#FFFFFF" d="M622.568,37.282c0-3.28,2.762-5.869,6.041-5.869s6.041,2.589,6.041,5.869c0,3.279-2.762,6.041-6.041,6.041
	S622.568,40.562,622.568,37.282"/>
<path fill="#FFFFFF" d="M559.913,52.989c0-3.279,2.589-5.869,5.868-5.869c3.28,0,6.042,2.59,6.042,5.869
	c0,3.279-2.762,6.041-6.042,6.041C562.502,59.03,559.913,56.268,559.913,52.989"/>
<path fill="#FFFFFF" d="M622.568,52.989c0-3.279,2.762-5.869,6.041-5.869s6.041,2.59,6.041,5.869c0,3.279-2.762,6.041-6.041,6.041
	S622.568,56.268,622.568,52.989"/>
<path fill="#FFFFFF" d="M559.913,68.695c0-3.279,2.589-6.041,5.868-6.041c3.28,0,6.042,2.762,6.042,6.041
	c0,3.28-2.762,6.042-6.042,6.042C562.502,74.738,559.913,71.976,559.913,68.695"/>
<path fill="#FFFFFF" d="M622.568,68.695c0-3.279,2.762-6.041,6.041-6.041s6.041,2.762,6.041,6.041c0,3.28-2.762,6.042-6.041,6.042
	S622.568,71.976,622.568,68.695"/>
<path fill="#FFFFFF" d="M559.913,84.402c0-3.279,2.589-6.041,5.868-6.041c3.28,0,6.042,2.762,6.042,6.041
	c0,3.279-2.762,6.041-6.042,6.041C562.502,90.443,559.913,87.682,559.913,84.402"/>
<path fill="#FFFFFF" d="M622.568,84.402c0-3.279,2.762-6.041,6.041-6.041s6.041,2.762,6.041,6.041c0,3.279-2.762,6.041-6.041,6.041
	S622.568,87.682,622.568,84.402"/>
<path fill="#FFFFFF" d="M622.568,100.109c0-3.279,2.762-6.041,6.041-6.041s6.041,2.762,6.041,6.041c0,3.28-2.762,6.041-6.041,6.041
	S622.568,103.389,622.568,100.109"/>
<path fill="#FFFFFF" d="M575.62,21.575c0-3.279,2.589-5.869,5.868-5.869c3.28,0,6.042,2.59,6.042,5.869
	c0,3.279-2.762,6.041-6.042,6.041C578.209,27.616,575.62,24.854,575.62,21.575"/>
<path fill="#FFFFFF" d="M591.327,21.575c0-3.279,2.589-5.869,5.868-5.869c3.28,0,6.042,2.59,6.042,5.869
	c0,3.279-2.762,6.041-6.042,6.041C593.916,27.616,591.327,24.854,591.327,21.575"/>
<path fill="#FFFFFF" d="M690.744,52.989c0-3.279,2.589-5.869,5.868-5.869c3.28,0,6.042,2.59,6.042,5.869
	c0,3.279-2.762,6.041-6.042,6.041C693.333,59.03,690.744,56.268,690.744,52.989"/>
<path fill="#FFFFFF" d="M706.451,52.989c0-3.279,2.589-5.869,5.868-5.869c3.28,0,6.041,2.59,6.041,5.869
	c0,3.279-2.761,6.041-6.041,6.041C709.04,59.03,706.451,56.268,706.451,52.989"/>
<path fill="#FFFFFF" d="M721.985,68.695c0-3.279,2.762-6.041,6.041-6.041s6.041,2.762,6.041,6.041c0,3.28-2.762,6.042-6.041,6.042
	S721.985,71.976,721.985,68.695"/>
<path fill="#FFFFFF" d="M721.985,84.402c0-3.279,2.762-6.041,6.041-6.041s6.041,2.762,6.041,6.041c0,3.279-2.762,6.041-6.041,6.041
	S721.985,87.682,721.985,84.402"/>
<path fill="#FFFFFF" d="M659.331,100.109c0-3.279,2.589-6.041,5.868-6.041c3.28,0,6.042,2.762,6.042,6.041
	c0,3.28-2.762,6.041-6.042,6.041C661.92,106.15,659.331,103.389,659.331,100.109"/>
<path fill="#FFFFFF" d="M675.038,100.109c0-3.279,2.589-6.041,5.869-6.041c3.279,0,6.041,2.762,6.041,6.041
	c0,3.28-2.762,6.041-6.041,6.041C677.627,106.15,675.038,103.389,675.038,100.109"/>
<path fill="#FFFFFF" d="M690.744,100.109c0-3.279,2.589-6.041,5.868-6.041c3.28,0,6.042,2.762,6.042,6.041
	c0,3.28-2.762,6.041-6.042,6.041C693.333,106.15,690.744,103.389,690.744,100.109"/>
<path fill="#FFFFFF" d="M706.451,100.109c0-3.279,2.589-6.041,5.868-6.041c3.28,0,6.041,2.762,6.041,6.041
	c0,3.28-2.761,6.041-6.041,6.041C709.04,106.15,706.451,103.389,706.451,100.109"/>
<path fill="#FFFFFF" d="M721.985,52.989c0-3.279,2.762-5.869,6.041-5.869s6.041,2.59,6.041,5.869c0,3.279-2.762,6.041-6.041,6.041
	S721.985,56.268,721.985,52.989"/>
<path fill="#FFFFFF" d="M737.692,68.695c0-3.279,2.762-6.041,6.041-6.041s6.041,2.762,6.041,6.041c0,3.28-2.762,6.042-6.041,6.042
	S737.692,71.976,737.692,68.695"/>
<path fill="#FFFFFF" d="M737.692,84.402c0-3.279,2.762-6.041,6.041-6.041s6.041,2.762,6.041,6.041c0,3.279-2.762,6.041-6.041,6.041
	S737.692,87.682,737.692,84.402"/>
<path fill="#FFFFFF" d="M721.985,100.109c0-3.279,2.762-6.041,6.041-6.041s6.041,2.762,6.041,6.041c0,3.28-2.762,6.041-6.041,6.041
	S721.985,103.389,721.985,100.109"/>
<path fill="#FFFFFF" d="M659.331,5.869c0-3.28,2.589-5.869,5.868-5.869c3.28,0,6.042,2.589,6.042,5.869
	c0,3.279-2.762,6.041-6.042,6.041C661.92,11.91,659.331,9.148,659.331,5.869"/>
<path fill="#FFFFFF" d="M659.331,21.575c0-3.279,2.589-5.869,5.868-5.869c3.28,0,6.042,2.59,6.042,5.869
	c0,3.279-2.762,6.041-6.042,6.041C661.92,27.616,659.331,24.854,659.331,21.575"/>
<path fill="#FFFFFF" d="M659.331,37.282c0-3.28,2.589-5.869,5.868-5.869c3.28,0,6.042,2.589,6.042,5.869
	c0,3.279-2.762,6.041-6.042,6.041C661.92,43.323,659.331,40.562,659.331,37.282"/>
<path fill="#FFFFFF" d="M659.331,52.989c0-3.279,2.589-5.869,5.868-5.869c3.28,0,6.042,2.59,6.042,5.869
	c0,3.279-2.762,6.041-6.042,6.041C661.92,59.03,659.331,56.268,659.331,52.989"/>
<path fill="#FFFFFF" d="M675.038,52.989c0-3.279,2.589-5.869,5.869-5.869c3.279,0,6.041,2.59,6.041,5.869
	c0,3.279-2.762,6.041-6.041,6.041C677.627,59.03,675.038,56.268,675.038,52.989"/>
<path fill="#FFFFFF" d="M659.331,68.695c0-3.279,2.589-6.041,5.868-6.041c3.28,0,6.042,2.762,6.042,6.041
	c0,3.28-2.762,6.042-6.042,6.042C661.92,74.738,659.331,71.976,659.331,68.695"/>
<path fill="#FFFFFF" d="M659.331,84.402c0-3.279,2.589-6.041,5.868-6.041c3.28,0,6.042,2.762,6.042,6.041
	c0,3.279-2.762,6.041-6.042,6.041C661.92,90.443,659.331,87.682,659.331,84.402"/>
<path fill="#FFFFFF" d="M675.038,5.869c0-3.28,2.589-5.869,5.869-5.869c3.279,0,6.041,2.589,6.041,5.869
	c0,3.279-2.762,6.041-6.041,6.041C677.627,11.91,675.038,9.148,675.038,5.869"/>
<path fill="#FFFFFF" d="M675.038,21.575c0-3.279,2.589-5.869,5.869-5.869c3.279,0,6.041,2.59,6.041,5.869
	c0,3.279-2.762,6.041-6.041,6.041C677.627,27.616,675.038,24.854,675.038,21.575"/>
<path fill="#FFFFFF" d="M675.038,37.282c0-3.28,2.589-5.869,5.869-5.869c3.279,0,6.041,2.589,6.041,5.869
	c0,3.279-2.762,6.041-6.041,6.041C677.627,43.323,675.038,40.562,675.038,37.282"/>
<path fill="#FFFFFF" d="M675.038,68.695c0-3.279,2.589-6.041,5.869-6.041c3.279,0,6.041,2.762,6.041,6.041
	c0,3.28-2.762,6.042-6.041,6.042C677.627,74.738,675.038,71.976,675.038,68.695"/>
<path fill="#FFFFFF" d="M764.332,100.282c0,3.28,2.589,5.869,5.868,5.869c3.28,0,6.041-2.589,6.041-5.869
	c0-3.279-2.761-6.041-6.041-6.041C766.921,94.241,764.332,97.003,764.332,100.282"/>
<path fill="#FFFFFF" d="M764.332,84.575c0,3.279,2.589,5.869,5.868,5.869c3.28,0,6.041-2.59,6.041-5.869
	c0-3.279-2.761-6.041-6.041-6.041C766.921,78.535,764.332,81.296,764.332,84.575"/>
<path fill="#FFFFFF" d="M764.332,68.868c0,3.28,2.589,5.869,5.868,5.869c3.28,0,6.041-2.589,6.041-5.869
	c0-3.279-2.761-6.041-6.041-6.041C766.921,62.828,764.332,65.589,764.332,68.868"/>
<path fill="#FFFFFF" d="M764.332,53.162c0,3.279,2.589,5.869,5.868,5.869c3.28,0,6.041-2.59,6.041-5.869
	c0-3.279-2.761-6.041-6.041-6.041C766.921,47.121,764.332,49.883,764.332,53.162"/>
<path fill="#FFFFFF" d="M780.039,53.162c0,3.279,2.589,5.869,5.868,5.869c3.28,0,6.041-2.59,6.041-5.869
	c0-3.279-2.761-6.041-6.041-6.041C782.628,47.121,780.039,49.883,780.039,53.162"/>
<path fill="#FFFFFF" d="M764.332,37.455c0,3.279,2.589,6.041,5.868,6.041c3.28,0,6.041-2.762,6.041-6.041
	c0-3.28-2.761-6.042-6.041-6.042C766.921,31.413,764.332,34.175,764.332,37.455"/>
<path fill="#FFFFFF" d="M764.332,21.748c0,3.279,2.589,6.041,5.868,6.041c3.28,0,6.041-2.762,6.041-6.041
	c0-3.279-2.761-6.041-6.041-6.041C766.921,15.708,764.332,18.469,764.332,21.748"/>
<path fill="#FFFFFF" d="M764.332,6.042c0,3.279,2.589,6.041,5.868,6.041c3.28,0,6.041-2.762,6.041-6.041
	c0-3.28-2.761-6.041-6.041-6.041C766.921,0.001,764.332,2.762,764.332,6.042"/>
<path fill="#FFFFFF" d="M780.039,100.282c0,3.28,2.589,5.869,5.868,5.869c3.28,0,6.041-2.589,6.041-5.869
	c0-3.279-2.761-6.041-6.041-6.041C782.628,94.241,780.039,97.003,780.039,100.282"/>
<path fill="#FFFFFF" d="M780.039,84.575c0,3.279,2.589,5.869,5.868,5.869c3.28,0,6.041-2.59,6.041-5.869
	c0-3.279-2.761-6.041-6.041-6.041C782.628,78.535,780.039,81.296,780.039,84.575"/>
<path fill="#FFFFFF" d="M780.039,68.868c0,3.28,2.589,5.869,5.868,5.869c3.28,0,6.041-2.589,6.041-5.869
	c0-3.279-2.761-6.041-6.041-6.041C782.628,62.828,780.039,65.589,780.039,68.868"/>
<path fill="#FFFFFF" d="M780.039,37.455c0,3.279,2.589,6.041,5.868,6.041c3.28,0,6.041-2.762,6.041-6.041
	c0-3.28-2.761-6.042-6.041-6.042C782.628,31.413,780.039,34.175,780.039,37.455"/>
<path fill="#FFFFFF" d="M780.039,21.748c0,3.279,2.589,6.041,5.868,6.041c3.28,0,6.041-2.762,6.041-6.041
	c0-3.279-2.761-6.041-6.041-6.041C782.628,15.708,780.039,18.469,780.039,21.748"/>
<path fill="#FFFFFF" d="M780.039,6.042c0,3.279,2.589,6.041,5.868,6.041c3.28,0,6.041-2.762,6.041-6.041
	c0-3.28-2.761-6.041-6.041-6.041C782.628,0.001,780.039,2.762,780.039,6.042"/>
</svg>
