<?xml version="1.0" encoding="utf-8"?>
<!-- Generator: Adobe Illustrator 19.1.0, SVG Export Plug-In . SVG Version: 6.00 Build 0)  -->
<svg version="1.1" id="Слой_1" xmlns="http://www.w3.org/2000/svg" xmlns:xlink="http://www.w3.org/1999/xlink" x="0px" y="0px"
	 viewBox="0 0 127.495 43.409" enable-background="new 0 0 127.495 43.409" xml:space="preserve">
<g>
	<g>
		<path fill="#1B1C1A" d="M127.495,39.058c0,2.404-1.775,4.351-3.97,4.351H3.974C1.781,43.409,0,41.462,0,39.058V4.357
			C0,1.954,1.781,0,3.974,0h119.55c2.196,0,3.97,1.954,3.97,4.357L127.495,39.058z"/>
		<path fill="#FFFFFF" d="M28.245,21.632c-0.028-3.142,2.573-4.671,2.692-4.742c-1.473-2.148-3.757-2.442-4.559-2.465
			c-1.918-0.202-3.778,1.147-4.755,1.147c-0.997,0-2.501-1.128-4.123-1.094c-2.086,0.032-4.038,1.24-5.109,3.116
			c-2.209,3.824-0.561,9.445,1.555,12.537c1.06,1.514,2.297,3.205,3.916,3.145c1.584-0.065,2.177-1.01,4.088-1.01
			c1.895,0,2.451,1.01,4.102,0.972c1.701-0.027,2.771-1.521,3.793-3.049c1.223-1.735,1.715-3.444,1.734-3.532
			C31.539,26.644,28.277,25.399,28.245,21.632"/>
		<path fill="#FFFFFF" d="M25.125,12.392c0.852-1.066,1.435-2.516,1.273-3.987c-1.233,0.055-2.776,0.853-3.664,1.896
			c-0.786,0.918-1.488,2.423-1.306,3.839C22.813,14.243,24.236,13.441,25.125,12.392"/>
		<path fill="#FFFFFF" d="M44.457,27.649l-1.098-3.388c-0.116-0.346-0.333-1.162-0.654-2.445h-0.039
			c-0.127,0.552-0.333,1.367-0.616,2.445l-1.077,3.388H44.457z M48.249,33.059h-2.214l-1.213-3.811h-4.216l-1.156,3.811h-2.155
			l4.177-12.975h2.579L48.249,33.059z"/>
		<path fill="#FFFFFF" d="M56.872,28.342c0-0.911-0.205-1.661-0.616-2.252c-0.449-0.616-1.053-0.924-1.809-0.924
			c-0.513,0-0.979,0.171-1.396,0.509c-0.417,0.342-0.69,0.787-0.818,1.339c-0.064,0.258-0.096,0.468-0.096,0.634v1.56
			c0,0.68,0.208,1.255,0.625,1.724c0.418,0.469,0.96,0.703,1.627,0.703c0.783,0,1.392-0.303,1.828-0.905
			C56.654,30.126,56.872,29.331,56.872,28.342 M58.99,28.266c0,1.591-0.43,2.849-1.29,3.772c-0.77,0.822-1.727,1.233-2.868,1.233
			c-1.233,0-2.118-0.443-2.657-1.328h-0.039v4.928h-2.079V26.783c0-1-0.026-2.027-0.077-3.08h1.828l0.116,1.483h0.039
			c0.694-1.117,1.746-1.675,3.157-1.675c1.104,0,2.025,0.436,2.762,1.308C58.622,25.693,58.99,26.842,58.99,28.266"/>
		<path fill="#FFFFFF" d="M67.633,28.342c0-0.911-0.205-1.661-0.617-2.252c-0.449-0.616-1.051-0.924-1.808-0.924
			c-0.514,0-0.979,0.171-1.397,0.509c-0.417,0.342-0.689,0.787-0.817,1.339c-0.063,0.258-0.096,0.468-0.096,0.634v1.56
			c0,0.68,0.208,1.255,0.624,1.724c0.417,0.468,0.959,0.703,1.628,0.703c0.783,0,1.392-0.303,1.828-0.905
			C67.415,30.126,67.633,29.331,67.633,28.342 M69.751,28.266c0,1.591-0.43,2.849-1.291,3.772c-0.769,0.822-1.726,1.233-2.867,1.233
			c-1.233,0-2.118-0.443-2.656-1.328h-0.039v4.928h-2.079V26.783c0-1-0.026-2.027-0.077-3.08h1.828l0.116,1.483h0.039
			c0.692-1.117,1.745-1.675,3.157-1.675c1.103,0,2.024,0.436,2.763,1.308C69.381,25.693,69.751,26.842,69.751,28.266"/>
		<path fill="#FFFFFF" d="M81.782,29.421c0,1.104-0.383,2.002-1.152,2.695c-0.846,0.757-2.023,1.136-3.535,1.136
			c-1.396,0-2.515-0.269-3.363-0.809l0.482-1.732c0.912,0.552,1.914,0.829,3.005,0.829c0.783,0,1.392-0.178,1.83-0.531
			c0.436-0.353,0.653-0.827,0.653-1.417c0-0.527-0.179-0.97-0.539-1.33c-0.358-0.36-0.955-0.694-1.79-1.004
			c-2.272-0.847-3.407-2.088-3.407-3.72c0-1.067,0.398-1.941,1.195-2.622c0.793-0.681,1.852-1.022,3.176-1.022
			c1.181,0,2.162,0.206,2.945,0.617l-0.52,1.694c-0.731-0.398-1.558-0.597-2.483-0.597c-0.731,0-1.303,0.181-1.712,0.54
			c-0.346,0.32-0.52,0.711-0.52,1.174c0,0.513,0.198,0.937,0.596,1.271c0.346,0.308,0.975,0.641,1.888,1.001
			c1.116,0.45,1.936,0.975,2.463,1.578C81.52,27.772,81.782,28.524,81.782,29.421"/>
		<path fill="#FFFFFF" d="M88.655,25.263h-2.291v4.542c0,1.156,0.403,1.733,1.212,1.733c0.372,0,0.68-0.032,0.924-0.097l0.058,1.579
			c-0.41,0.153-0.949,0.23-1.617,0.23c-0.821,0-1.463-0.25-1.926-0.751c-0.461-0.501-0.693-1.341-0.693-2.522v-4.716h-1.365v-1.56
			h1.365v-1.713l2.042-0.616v2.329h2.291V25.263z"/>
		<path fill="#FFFFFF" d="M96.836,28.371c0-0.863-0.184-1.603-0.558-2.22c-0.435-0.747-1.058-1.119-1.866-1.119
			c-0.835,0-1.47,0.373-1.906,1.119c-0.373,0.618-0.557,1.37-0.557,2.259c0,0.863,0.184,1.603,0.557,2.219
			c0.45,0.747,1.078,1.12,1.888,1.12c0.794,0,1.417-0.381,1.866-1.139C96.643,29.981,96.836,29.233,96.836,28.371 M98.993,28.304
			c0,1.438-0.411,2.619-1.232,3.542c-0.861,0.951-2.004,1.425-3.429,1.425c-1.372,0-2.465-0.456-3.28-1.366
			c-0.815-0.911-1.223-2.061-1.223-3.446c0-1.45,0.419-2.637,1.261-3.561c0.839-0.924,1.972-1.386,3.397-1.386
			c1.372,0,2.477,0.455,3.311,1.367C98.595,25.763,98.993,26.905,98.993,28.304"/>
		<path fill="#FFFFFF" d="M105.749,25.531c-0.206-0.038-0.425-0.058-0.655-0.058c-0.731,0-1.297,0.276-1.694,0.829
			c-0.347,0.488-0.52,1.104-0.52,1.848v4.909h-2.078l0.02-6.41c0-1.078-0.027-2.06-0.078-2.945h1.81l0.076,1.79h0.058
			c0.219-0.615,0.565-1.111,1.039-1.482c0.463-0.334,0.963-0.501,1.502-0.501c0.193,0,0.366,0.013,0.52,0.038V25.531z"/>
		<path fill="#FFFFFF" d="M113.064,27.4c0.013-0.616-0.122-1.149-0.404-1.598c-0.36-0.578-0.912-0.867-1.656-0.867
			c-0.68,0-1.233,0.282-1.655,0.847c-0.346,0.45-0.552,0.989-0.615,1.617L113.064,27.4L113.064,27.4z M115.046,27.939
			c0,0.372-0.024,0.686-0.076,0.943h-6.236c0.024,0.924,0.326,1.631,0.905,2.118c0.525,0.436,1.205,0.655,2.04,0.655
			c0.923,0,1.765-0.148,2.523-0.443l0.325,1.443c-0.885,0.386-1.93,0.578-3.136,0.578c-1.451,0-2.59-0.427-3.418-1.28
			c-0.827-0.853-1.242-1.999-1.242-3.436c0-1.411,0.386-2.586,1.157-3.523c0.807-1,1.898-1.5,3.271-1.5c1.348,0,2.369,0.5,3.062,1.5
			C114.77,25.789,115.046,26.772,115.046,27.939"/>
		<path fill="#FFFFFF" d="M42.691,12.13c0-0.744-0.197-1.314-0.591-1.712c-0.394-0.397-0.969-0.596-1.727-0.596
			c-0.322,0-0.596,0.022-0.823,0.067v4.767c0.126,0.019,0.356,0.028,0.691,0.028c0.781,0,1.385-0.218,1.81-0.652
			C42.476,13.597,42.691,12.963,42.691,12.13 M43.768,12.102c0,1.148-0.344,2.011-1.031,2.592c-0.637,0.535-1.542,0.803-2.714,0.803
			c-0.581,0-1.078-0.025-1.495-0.076v-6.27c0.543-0.088,1.129-0.133,1.761-0.133c1.116,0,1.957,0.243,2.524,0.728
			C43.449,10.295,43.768,11.08,43.768,12.102"/>
		<path fill="#FFFFFF" d="M48.421,13.137c0-0.424-0.092-0.788-0.274-1.091c-0.215-0.366-0.52-0.55-0.916-0.55
			c-0.411,0-0.723,0.184-0.937,0.55c-0.184,0.303-0.274,0.673-0.274,1.11c0,0.424,0.091,0.787,0.274,1.091
			c0.221,0.366,0.529,0.55,0.927,0.55c0.39,0,0.696-0.187,0.916-0.56C48.326,13.928,48.421,13.561,48.421,13.137 M49.481,13.104
			c0,0.707-0.202,1.286-0.606,1.74c-0.423,0.467-0.983,0.7-1.684,0.7c-0.674,0-1.211-0.223-1.612-0.671
			c-0.4-0.448-0.599-1.012-0.599-1.693c0-0.712,0.205-1.296,0.619-1.749c0.413-0.453,0.969-0.681,1.669-0.681
			c0.674,0,1.216,0.224,1.627,0.671C49.285,11.856,49.481,12.418,49.481,13.104"/>
		<path fill="#FFFFFF" d="M57.14,10.844l-1.438,4.596h-0.936l-0.596-1.996c-0.151-0.498-0.274-0.993-0.369-1.485h-0.018
			c-0.09,0.505-0.212,1-0.37,1.485L52.78,15.44h-0.947l-1.352-4.596h1.05l0.52,2.185c0.126,0.517,0.229,1.009,0.312,1.475h0.018
			c0.076-0.384,0.202-0.873,0.38-1.465l0.652-2.194h0.832l0.625,2.147c0.152,0.523,0.274,1.028,0.369,1.513h0.028
			c0.069-0.473,0.174-0.977,0.312-1.513l0.558-2.147h1.003V10.844z"/>
		<path fill="#FFFFFF" d="M62.437,15.44h-1.021v-2.632c0-0.812-0.309-1.217-0.927-1.217c-0.303,0-0.548,0.111-0.738,0.334
			c-0.188,0.223-0.284,0.487-0.284,0.788v2.726h-1.021v-3.282c0-0.403-0.013-0.841-0.038-1.315h0.898l0.048,0.719h0.029
			c0.119-0.224,0.296-0.408,0.529-0.555c0.277-0.172,0.587-0.259,0.926-0.259c0.429,0,0.786,0.139,1.07,0.417
			c0.353,0.34,0.529,0.848,0.529,1.523V15.44z"/>
	</g>
	<rect x="64.235" y="8.735" fill="#FFFFFF" width="1.021" height="6.705"/>
	<g>
		<path fill="#FFFFFF" d="M70.21,13.137c0-0.424-0.091-0.788-0.273-1.091c-0.214-0.366-0.52-0.55-0.916-0.55
			c-0.411,0-0.723,0.184-0.937,0.55c-0.183,0.303-0.274,0.673-0.274,1.11c0,0.424,0.092,0.787,0.274,1.091
			c0.221,0.366,0.529,0.55,0.927,0.55c0.39,0,0.695-0.187,0.916-0.56C70.117,13.928,70.21,13.561,70.21,13.137 M71.271,13.104
			c0,0.707-0.202,1.286-0.605,1.74c-0.424,0.467-0.985,0.7-1.684,0.7c-0.676,0-1.213-0.223-1.613-0.671
			c-0.4-0.448-0.599-1.012-0.599-1.693c0-0.712,0.205-1.296,0.619-1.749c0.413-0.453,0.969-0.681,1.668-0.681
			c0.675,0,1.217,0.224,1.628,0.671C71.075,11.856,71.271,12.418,71.271,13.104"/>
		<path fill="#FFFFFF" d="M75.155,13.861v-0.709c-1.127-0.02-1.69,0.289-1.69,0.926c0,0.24,0.064,0.419,0.195,0.539
			c0.132,0.12,0.3,0.18,0.5,0.18c0.224,0,0.434-0.072,0.625-0.213c0.192-0.142,0.31-0.323,0.354-0.544
			C75.149,13.99,75.155,13.93,75.155,13.861 M76.216,15.44h-0.917l-0.077-0.529h-0.028c-0.314,0.422-0.761,0.633-1.343,0.633
			c-0.433,0-0.784-0.139-1.048-0.416c-0.24-0.251-0.36-0.565-0.36-0.936c0-0.562,0.234-0.99,0.705-1.286
			c0.47-0.296,1.131-0.442,1.982-0.435v-0.086c0-0.605-0.318-0.907-0.955-0.907c-0.453,0-0.853,0.114-1.198,0.34l-0.208-0.671
			c0.427-0.264,0.955-0.397,1.577-0.397c1.201,0,1.804,0.634,1.804,1.902v1.692C76.15,14.803,76.172,15.169,76.216,15.44"/>
		<path fill="#FFFFFF" d="M80.963,13.502v-0.767c0-0.132-0.01-0.239-0.028-0.321c-0.058-0.246-0.182-0.453-0.37-0.619
			c-0.19-0.167-0.419-0.251-0.683-0.251c-0.381,0-0.68,0.151-0.899,0.454c-0.218,0.304-0.328,0.691-0.328,1.163
			c0,0.455,0.105,0.823,0.314,1.107c0.221,0.302,0.52,0.453,0.893,0.453c0.336,0,0.604-0.125,0.807-0.378
			C80.866,14.11,80.963,13.829,80.963,13.502 M82.022,15.44h-0.907l-0.047-0.738h-0.029c-0.29,0.562-0.783,0.842-1.476,0.842
			c-0.554,0-1.015-0.217-1.381-0.652c-0.365-0.435-0.548-0.999-0.548-1.693c0-0.743,0.199-1.346,0.596-1.806
			c0.385-0.429,0.857-0.644,1.419-0.644c0.617,0,1.049,0.208,1.294,0.624h0.02V8.735h1.023v5.467
			C81.986,14.649,81.998,15.062,82.022,15.44"/>
		<path fill="#FFFFFF" d="M89.702,13.137c0-0.424-0.091-0.788-0.274-1.091c-0.215-0.366-0.519-0.55-0.917-0.55
			c-0.41,0-0.722,0.184-0.937,0.55c-0.183,0.303-0.274,0.673-0.274,1.11c0,0.424,0.092,0.787,0.274,1.091
			c0.221,0.366,0.529,0.55,0.927,0.55c0.39,0,0.698-0.187,0.918-0.56C89.607,13.928,89.702,13.561,89.702,13.137 M90.761,13.104
			c0,0.707-0.202,1.286-0.605,1.74c-0.424,0.467-0.983,0.7-1.684,0.7c-0.674,0-1.211-0.223-1.613-0.671
			c-0.4-0.448-0.599-1.012-0.599-1.693c0-0.712,0.205-1.296,0.619-1.749c0.413-0.453,0.969-0.681,1.67-0.681
			c0.673,0,1.217,0.224,1.626,0.671C90.565,11.856,90.761,12.418,90.761,13.104"/>
		<path fill="#FFFFFF" d="M96.255,15.44h-1.021v-2.632c0-0.812-0.308-1.217-0.927-1.217c-0.303,0-0.548,0.111-0.737,0.334
			c-0.189,0.223-0.284,0.487-0.284,0.788v2.726h-1.022v-3.282c0-0.403-0.012-0.841-0.037-1.315h0.897l0.048,0.719h0.029
			c0.119-0.224,0.297-0.408,0.529-0.555c0.278-0.172,0.587-0.259,0.927-0.259c0.428,0,0.785,0.139,1.069,0.417
			c0.353,0.34,0.529,0.848,0.529,1.523V15.44z"/>
		<path fill="#FFFFFF" d="M103.132,11.61h-1.125v2.233c0,0.567,0.2,0.851,0.596,0.851c0.183,0,0.335-0.016,0.455-0.048l0.026,0.775
			c-0.202,0.076-0.467,0.114-0.794,0.114c-0.403,0-0.717-0.123-0.944-0.368c-0.228-0.246-0.342-0.659-0.342-1.24V11.61h-0.671
			v-0.765h0.671v-0.843l1.002-0.302v1.144h1.125v0.766H103.132z"/>
		<path fill="#FFFFFF" d="M108.541,15.44h-1.023v-2.613c0-0.824-0.308-1.236-0.925-1.236c-0.474,0-0.797,0.239-0.975,0.716
			c-0.03,0.101-0.048,0.224-0.048,0.368v2.764h-1.021V8.735h1.021v2.77h0.02c0.322-0.504,0.783-0.756,1.38-0.756
			c0.424,0,0.773,0.139,1.051,0.417c0.346,0.346,0.52,0.861,0.52,1.541V15.44z"/>
		<path fill="#FFFFFF" d="M113.146,12.661c0.008-0.303-0.059-0.565-0.198-0.785c-0.177-0.284-0.447-0.426-0.813-0.426
			c-0.333,0-0.606,0.138-0.813,0.416c-0.17,0.221-0.27,0.486-0.303,0.795H113.146z M114.121,12.925c0,0.183-0.013,0.337-0.038,0.463
			h-3.064c0.013,0.454,0.16,0.801,0.443,1.041c0.26,0.214,0.594,0.321,1.004,0.321c0.453,0,0.866-0.072,1.239-0.217l0.159,0.71
			c-0.435,0.189-0.948,0.283-1.542,0.283c-0.711,0-1.272-0.209-1.678-0.629c-0.407-0.419-0.609-0.981-0.609-1.687
			c0-0.693,0.188-1.271,0.567-1.731c0.396-0.491,0.932-0.737,1.607-0.737c0.661,0,1.163,0.246,1.503,0.737
			C113.986,11.869,114.121,12.352,114.121,12.925"/>
	</g>
</g>
</svg>
