<?xml version="1.0" encoding="utf-8"?>
<!-- Generator: Adobe Illustrator 19.1.0, SVG Export Plug-In . SVG Version: 6.00 Build 0)  -->
<svg version="1.1" id="Слой_1" xmlns="http://www.w3.org/2000/svg" xmlns:xlink="http://www.w3.org/1999/xlink" x="0px" y="0px"
	 viewBox="0 0 128.544 42.049" enable-background="new 0 0 128.544 42.049" xml:space="preserve">
<path fill="#F9F9F9" d="M84.039,27.899c-0.539,0-1.032-0.099-1.477-0.298c-0.446-0.2-0.82-0.506-1.122-0.918h-0.091
	c0.061,0.483,0.091,0.942,0.091,1.375v3.408h-1.254V19.467h1.02L81.38,20.6h0.06c0.323-0.453,0.699-0.78,1.126-0.982
	c0.428-0.201,0.92-0.302,1.473-0.302c1.099,0,1.946,0.375,2.543,1.125c0.597,0.751,0.896,1.804,0.896,3.158
	c0,1.361-0.304,2.417-0.91,3.171C85.96,27.523,85.118,27.899,84.039,27.899 M83.858,20.381c-0.847,0-1.458,0.234-1.836,0.703
	c-0.378,0.468-0.572,1.213-0.582,2.236v0.279c0,1.165,0.194,1.997,0.582,2.498c0.388,0.502,1.01,0.752,1.866,0.752
	c0.716,0,1.277-0.289,1.682-0.869c0.406-0.579,0.608-1.377,0.608-2.396c0-1.031-0.202-1.824-0.608-2.376
	C85.165,20.657,84.593,20.381,83.858,20.381"/>
<rect x="89.127" y="15.991" fill="#F9F9F9" width="1.254" height="11.757"/>
<path fill="#F9F9F9" d="M97.592,27.748l-0.25-1.179h-0.06c-0.413,0.519-0.824,0.87-1.235,1.054c-0.41,0.185-0.923,0.276-1.538,0.276
	c-0.821,0-1.464-0.212-1.93-0.634c-0.466-0.424-0.699-1.025-0.699-1.806c0-1.673,1.338-2.549,4.012-2.63l1.406-0.045V22.27
	c0-0.65-0.14-1.13-0.42-1.439c-0.28-0.31-0.727-0.465-1.341-0.465c-0.691,0-1.471,0.211-2.342,0.635l-0.386-0.96
	c0.409-0.221,0.855-0.395,1.342-0.521c0.486-0.126,0.973-0.189,1.462-0.189c0.987,0,1.718,0.219,2.194,0.657
	c0.477,0.438,0.714,1.141,0.714,2.108v5.652H97.592z M94.76,26.864c0.781,0,1.393-0.214,1.839-0.642
	c0.446-0.428,0.67-1.028,0.67-1.799v-0.747l-1.255,0.052c-0.997,0.036-1.716,0.19-2.158,0.465c-0.44,0.274-0.66,0.702-0.66,1.281
	c0,0.453,0.136,0.799,0.411,1.035C93.881,26.746,94.266,26.864,94.76,26.864"/>
<path fill="#F9F9F9" d="M99.25,19.467h1.344l1.814,4.722c0.397,1.079,0.645,1.856,0.741,2.336h0.06
	c0.065-0.258,0.203-0.697,0.412-1.32c0.209-0.622,0.893-2.534,2.051-5.738h1.346l-3.56,9.43c-0.352,0.931-0.764,1.593-1.235,1.984
	c-0.471,0.39-1.049,0.585-1.734,0.585c-0.383,0-0.76-0.043-1.134-0.128v-1.006c0.277,0.061,0.587,0.092,0.93,0.092
	c0.862,0,1.475-0.484,1.843-1.452l0.461-1.178L99.25,19.467z"/>
<path fill="#F9F9F9" d="M60.805,20.236c0.399,0.33,1.23,1.023,1.23,2.339c0,1.281-0.727,1.889-1.455,2.459
	c-0.225,0.225-0.485,0.468-0.485,0.85c0,0.38,0.26,0.588,0.45,0.745l0.624,0.483c0.763,0.642,1.454,1.231,1.454,2.426
	c0,1.629-1.576,3.273-4.554,3.273c-2.512,0-3.724-1.194-3.724-2.477c0-0.623,0.31-1.506,1.333-2.113
	c1.073-0.658,2.53-0.744,3.309-0.797c-0.244-0.312-0.52-0.641-0.52-1.177c0-0.294,0.086-0.467,0.173-0.676
	c-0.192,0.017-0.381,0.035-0.555,0.035c-1.835,0-2.875-1.369-2.875-2.72c0-0.796,0.365-1.68,1.108-2.32
	c0.988-0.815,2.166-0.953,3.102-0.953h3.567l-1.109,0.623H60.805z M59.576,27.928c-0.139-0.019-0.226-0.019-0.399-0.019
	c-0.155,0-1.092,0.035-1.818,0.279c-0.382,0.137-1.491,0.553-1.491,1.783c0,1.229,1.197,2.115,3.049,2.115
	c1.663,0,2.547-0.799,2.547-1.872C61.464,29.329,60.892,28.863,59.576,27.928 M60.078,24.636c0.398-0.399,0.432-0.952,0.432-1.265
	c0-1.247-0.744-3.186-2.182-3.186c-0.45,0-0.935,0.225-1.213,0.571c-0.294,0.364-0.381,0.832-0.381,1.282
	c0,1.161,0.676,3.083,2.166,3.083C59.333,25.121,59.8,24.913,60.078,24.636"/>
<path fill="#F9F9F9" d="M49.901,27.651c-2.75,0-4.22-2.145-4.22-4.082c0-2.266,1.851-4.202,4.48-4.202
	c2.541,0,4.132,1.988,4.132,4.081C54.293,25.488,52.72,27.651,49.901,27.651 M52.062,26.25c0.416-0.554,0.52-1.246,0.52-1.92
	c0-1.523-0.727-4.427-2.871-4.427c-0.57,0-1.141,0.225-1.556,0.589c-0.675,0.604-0.796,1.365-0.796,2.11
	c0,1.711,0.847,4.529,2.94,4.529C50.973,27.131,51.665,26.802,52.062,26.25"/>
<path fill="#F9F9F9" d="M40.528,27.651c-2.75,0-4.219-2.145-4.219-4.082c0-2.266,1.85-4.202,4.479-4.202
	c2.542,0,4.132,1.988,4.132,4.081C44.92,25.488,43.347,27.651,40.528,27.651 M42.69,26.25c0.415-0.554,0.519-1.246,0.519-1.92
	c0-1.523-0.727-4.427-2.871-4.427c-0.57,0-1.142,0.225-1.556,0.589c-0.675,0.604-0.795,1.365-0.795,2.11
	c0,1.711,0.846,4.529,2.94,4.529C41.601,27.131,42.293,26.802,42.69,26.25"/>
<path fill="#F9F9F9" d="M34.987,27.379l-2.486,0.574c-1.009,0.156-1.913,0.295-2.869,0.295c-4.799,0-6.624-3.53-6.624-6.294
	c0-3.373,2.59-6.501,7.025-6.501c0.938,0,1.842,0.138,2.659,0.364c1.304,0.365,1.912,0.817,2.295,1.078l-1.443,1.374l-0.609,0.138
	l0.435-0.695c-0.591-0.573-1.67-1.634-3.721-1.634c-2.747,0-4.816,2.087-4.816,5.13c0,3.267,2.365,6.344,6.154,6.344
	c1.115,0,1.687-0.225,2.208-0.435v-2.798l-2.624,0.139l1.39-0.748h3.687l-0.453,0.434c-0.122,0.105-0.139,0.14-0.174,0.278
	c-0.017,0.157-0.034,0.661-0.034,0.835V27.379z"/>
<path fill="#F9F9F9" d="M66.301,26.878c-0.574-0.052-0.694-0.156-0.694-0.835v-0.191v-9.649c0.003-0.038,0.006-0.076,0.01-0.112
	c0.069-0.608,0.243-0.713,0.783-1.027h-2.488l-1.304,0.627h1.329v0.008l-0.001-0.007v10.16v0.574c0,0.347-0.068,0.4-0.469,0.921
	h3.078l0.643-0.382C66.893,26.93,66.597,26.913,66.301,26.878"/>
<path fill="#F9F9F9" d="M73.375,27.038c-0.189,0.103-0.379,0.225-0.568,0.311c-0.571,0.259-1.158,0.328-1.676,0.328
	c-0.552,0-1.416-0.036-2.297-0.674c-1.225-0.864-1.76-2.349-1.76-3.643c0-2.676,2.175-3.988,3.953-3.988
	c0.622,0,1.262,0.155,1.78,0.484c0.862,0.569,1.087,1.311,1.207,1.708l-4.057,1.641l-1.329,0.103c0.43,2.194,1.915,3.47,3.557,3.47
	c0.88,0,1.519-0.31,2.106-0.603L73.375,27.038z M71.753,21.892c0.327-0.121,0.5-0.224,0.5-0.466c0-0.69-0.777-1.485-1.71-1.485
	c-0.691,0-1.985,0.536-1.985,2.4c0,0.293,0.035,0.604,0.053,0.916L71.753,21.892z"/>
<polygon fill="#F9F9F9" points="75.042,19.49 75.042,20.629 74.904,20.629 74.904,19.49 74.527,19.49 74.527,19.372 75.419,19.372 
	75.419,19.49 "/>
<polygon fill="#F9F9F9" points="76.595,20.629 76.595,19.479 76.589,19.479 76.237,20.629 76.129,20.629 75.775,19.479 
	75.772,19.479 75.772,20.629 75.645,20.629 75.645,19.372 75.861,19.372 76.181,20.388 76.186,20.388 76.501,19.372 76.72,19.372 
	76.72,20.629 "/>
<path fill="#FCFCFC" d="M26.461,12.067h-0.864c0-0.118-0.082-0.455-0.245-1.009h-1.248c-0.169,0.545-0.253,0.881-0.253,1.009h-0.813
	c0-0.07,0.21-0.646,0.631-1.728c0.419-1.081,0.63-1.677,0.63-1.787h1.02c0,0.103,0.191,0.69,0.571,1.762
	C26.271,11.385,26.461,11.97,26.461,12.067 M25.214,10.542c-0.308-0.928-0.462-1.431-0.462-1.506h-0.043
	c0,0.07-0.159,0.572-0.477,1.506H25.214z"/>
<path fill="#FCFCFC" d="M29.943,12.067h-0.667c0-0.074-0.247-0.463-0.742-1.169c-0.519-0.743-0.813-1.251-0.886-1.526h-0.043
	c0.045,0.395,0.068,0.752,0.068,1.069c0,0.446,0.012,0.987,0.037,1.626h-0.664c0.027-0.558,0.041-1.171,0.041-1.839
	c0-0.656-0.014-1.216-0.041-1.676h0.802c0,0.095,0.222,0.476,0.667,1.142c0.473,0.707,0.745,1.187,0.815,1.439h0.041
	c-0.043-0.401-0.066-0.761-0.066-1.08c0-0.487-0.011-0.988-0.037-1.501h0.675c-0.025,0.447-0.038,1.006-0.038,1.676
	C29.905,10.905,29.918,11.518,29.943,12.067"/>
<path fill="#FCFCFC" d="M33.856,10.188c0,0.511-0.164,0.957-0.491,1.339c-0.328,0.382-0.787,0.573-1.377,0.573
	c-0.266,0-0.634-0.011-1.102-0.033c0.024-0.544,0.035-1.157,0.035-1.839c0-0.654-0.011-1.213-0.035-1.676h0.473
	c0.077,0,0.192-0.003,0.345-0.008s0.253-0.009,0.3-0.009c0.65,0,1.121,0.163,1.413,0.487C33.71,9.345,33.856,9.734,33.856,10.188
	 M33.119,10.304c0-0.346-0.101-0.637-0.302-0.874c-0.202-0.236-0.51-0.354-0.924-0.354c-0.077,0-0.183,0.008-0.318,0.024
	c0.018,0.36,0.027,0.736,0.027,1.128c0,0.431,0.009,0.857,0.027,1.28c0.116,0.023,0.233,0.035,0.351,0.035
	c0.387,0,0.673-0.12,0.859-0.361C33.026,10.942,33.119,10.65,33.119,10.304"/>
<path fill="#FCFCFC" d="M37.464,12.067h-0.8c-0.208-0.637-0.369-1.031-0.48-1.18c-0.112-0.15-0.292-0.224-0.541-0.224
	c-0.104,0-0.204,0.001-0.299,0.003c0,0.462,0.008,0.93,0.024,1.401h-0.75c0.023-0.544,0.035-1.157,0.035-1.839
	c0-0.655-0.012-1.213-0.035-1.676h0.467c0.054,0,0.167-0.003,0.339-0.009c0.172-0.004,0.331-0.008,0.476-0.008
	c0.826,0,1.239,0.283,1.239,0.848c0,0.448-0.236,0.76-0.707,0.937v0.04c0.182,0.05,0.341,0.193,0.478,0.426
	C37.046,11.019,37.232,11.446,37.464,12.067 M36.451,9.583c0-0.358-0.23-0.537-0.691-0.537c-0.169,0-0.318,0.012-0.448,0.038
	c0.02,0.279,0.029,0.642,0.029,1.09c0.1,0.004,0.183,0.006,0.252,0.006C36.165,10.18,36.451,9.981,36.451,9.583"/>
<path fill="#FCFCFC" d="M41.334,10.245c0,0.553-0.169,1.01-0.507,1.374c-0.339,0.364-0.757,0.545-1.255,0.545
	c-0.476,0-0.874-0.167-1.194-0.501c-0.321-0.334-0.48-0.758-0.48-1.272c0-0.553,0.169-1.012,0.507-1.375
	c0.338-0.363,0.756-0.545,1.256-0.545c0.474,0,0.872,0.166,1.193,0.499C41.174,9.303,41.334,9.728,41.334,10.245 M40.589,10.323
	c0-0.376-0.096-0.681-0.289-0.915c-0.193-0.234-0.43-0.351-0.713-0.351c-0.263,0-0.485,0.117-0.669,0.353
	c-0.183,0.237-0.276,0.534-0.276,0.894c0,0.374,0.097,0.679,0.29,0.914c0.194,0.235,0.431,0.352,0.712,0.352
	c0.263,0,0.486-0.118,0.67-0.355C40.498,10.979,40.589,10.681,40.589,10.323"/>
<path fill="#FCFCFC" d="M42.86,12.067h-0.764c0.023-0.558,0.035-1.171,0.035-1.839c0-0.656-0.012-1.216-0.035-1.676h0.764
	c-0.024,0.453-0.035,1.013-0.035,1.676C42.825,10.907,42.836,11.52,42.86,12.067"/>
<path fill="#FCFCFC" d="M46.773,10.188c0,0.511-0.164,0.957-0.491,1.339c-0.328,0.382-0.787,0.573-1.377,0.573
	c-0.266,0-0.634-0.011-1.102-0.033c0.024-0.544,0.035-1.157,0.035-1.839c0-0.654-0.011-1.213-0.035-1.676h0.473
	c0.077,0,0.192-0.003,0.345-0.008c0.154-0.005,0.253-0.009,0.3-0.009c0.65,0,1.121,0.163,1.413,0.487
	C46.627,9.345,46.773,9.734,46.773,10.188 M46.036,10.304c0-0.346-0.101-0.637-0.302-0.874c-0.202-0.236-0.51-0.354-0.924-0.354
	c-0.077,0-0.183,0.008-0.318,0.024c0.018,0.36,0.027,0.736,0.027,1.128c0,0.431,0.008,0.857,0.027,1.28
	c0.116,0.023,0.233,0.035,0.351,0.035c0.386,0,0.673-0.12,0.859-0.361C45.943,10.942,46.036,10.65,46.036,10.304"/>
<path fill="#FCFCFC" d="M51.964,12.067H51.1c0-0.118-0.082-0.455-0.245-1.009h-1.248c-0.169,0.545-0.253,0.881-0.253,1.009h-0.813
	c0-0.07,0.21-0.646,0.63-1.728c0.42-1.081,0.63-1.677,0.63-1.787h1.021c0,0.103,0.191,0.69,0.571,1.762
	C51.774,11.385,51.964,11.97,51.964,12.067 M50.717,10.542c-0.308-0.928-0.462-1.431-0.462-1.506h-0.043
	c0,0.07-0.159,0.572-0.477,1.506H50.717z"/>
<path fill="#FCFCFC" d="M55.113,9.472c0,0.43-0.159,0.748-0.479,0.953c-0.319,0.205-0.711,0.308-1.176,0.308
	c-0.084,0-0.144-0.002-0.18-0.005c0,0.338,0.009,0.785,0.029,1.339h-0.758c0.023-0.52,0.035-1.133,0.035-1.839
	c0-0.648-0.012-1.206-0.035-1.676h0.47c0.066,0,0.194-0.003,0.383-0.008c0.189-0.006,0.353-0.008,0.491-0.008
	c0.342,0,0.631,0.077,0.867,0.232C54.996,8.923,55.113,9.158,55.113,9.472 M54.417,9.621c0-0.385-0.255-0.578-0.767-0.578
	c-0.127,0-0.262,0.014-0.405,0.041c0.02,0.34,0.03,0.725,0.03,1.155c0.045,0.004,0.098,0.006,0.156,0.006
	C54.089,10.245,54.417,10.037,54.417,9.621"/>
<path fill="#FCFCFC" d="M58.351,9.472c0,0.43-0.16,0.748-0.478,0.953c-0.32,0.205-0.712,0.308-1.177,0.308
	c-0.084,0-0.144-0.002-0.18-0.005c0,0.338,0.009,0.785,0.029,1.339h-0.758c0.023-0.52,0.035-1.133,0.035-1.839
	c0-0.648-0.012-1.206-0.035-1.676h0.47c0.066,0,0.194-0.003,0.383-0.008c0.189-0.006,0.353-0.008,0.491-0.008
	c0.342,0,0.631,0.077,0.867,0.232C58.234,8.923,58.351,9.158,58.351,9.472 M57.655,9.621c0-0.385-0.255-0.578-0.767-0.578
	c-0.127,0-0.262,0.014-0.405,0.041c0.02,0.34,0.03,0.725,0.03,1.155c0.045,0.004,0.098,0.006,0.156,0.006
	C57.327,10.245,57.655,10.037,57.655,9.621"/>
<path fill="#FCFCFC" d="M63.645,10.245c0,0.553-0.169,1.01-0.507,1.374c-0.339,0.364-0.757,0.545-1.255,0.545
	c-0.476,0-0.874-0.167-1.194-0.501c-0.321-0.334-0.48-0.758-0.48-1.272c0-0.553,0.169-1.012,0.507-1.375
	c0.338-0.363,0.757-0.545,1.256-0.545c0.474,0,0.872,0.166,1.193,0.499C63.485,9.303,63.645,9.728,63.645,10.245 M62.9,10.323
	c0-0.376-0.096-0.681-0.289-0.915c-0.193-0.234-0.43-0.351-0.713-0.351c-0.263,0-0.485,0.117-0.669,0.353
	c-0.183,0.237-0.276,0.534-0.276,0.894c0,0.374,0.097,0.679,0.291,0.914c0.193,0.235,0.43,0.352,0.711,0.352
	c0.263,0,0.486-0.118,0.67-0.355C62.809,10.979,62.9,10.681,62.9,10.323"/>
<path fill="#FCFCFC" d="M67.305,12.067h-0.667c0-0.074-0.247-0.463-0.742-1.169c-0.519-0.743-0.813-1.251-0.886-1.526h-0.043
	c0.045,0.395,0.068,0.752,0.068,1.069c0,0.446,0.012,0.987,0.037,1.626h-0.664c0.027-0.558,0.041-1.171,0.041-1.839
	c0-0.656-0.014-1.216-0.041-1.676h0.802c0,0.095,0.222,0.476,0.667,1.142c0.473,0.707,0.745,1.187,0.815,1.439h0.041
	c-0.043-0.401-0.065-0.761-0.065-1.08c0-0.487-0.012-0.988-0.038-1.501h0.675c-0.025,0.447-0.038,1.006-0.038,1.676
	C67.267,10.905,67.28,11.518,67.305,12.067"/>
<g>
	<g>
		<defs>
			<rect id="SVGID_1_" width="128.544" height="42.049"/>
		</defs>
		<clipPath id="SVGID_2_">
			<use xlink:href="#SVGID_1_"  overflow="visible"/>
		</clipPath>
		<path clip-path="url(#SVGID_2_)" fill="#1B1C1A" d="M128.545,36.366c0,3.138-2.544,5.683-5.681,5.683H5.683
			c-3.138,0-5.682-2.545-5.682-5.683V5.682C0.001,2.545,2.545,0,5.683,0h117.181c3.137,0,5.681,2.545,5.681,5.683V36.366z"/>
	</g>
	<g>
		<defs>
			<path id="SVGID_3_" d="M9.642,9.315v26.3c0,0.315,0.14,0.529,0.356,0.602l14.003-13.884L10.116,8.564
				C9.837,8.643,9.642,8.895,9.642,9.315"/>
		</defs>
		<clipPath id="SVGID_4_">
			<use xlink:href="#SVGID_3_"  overflow="visible"/>
		</clipPath>
		
			<linearGradient id="SVGID_5_" gradientUnits="userSpaceOnUse" x1="-374.9636" y1="612.6638" x2="-373.9636" y2="612.6638" gradientTransform="matrix(0 28.4751 28.4751 0 -17428.8223 10685.208)">
			<stop  offset="0" style="stop-color:#4C7AA1"/>
			<stop  offset="0.3741" style="stop-color:#6393AA"/>
			<stop  offset="0.7949" style="stop-color:#84B6B4"/>
			<stop  offset="1" style="stop-color:#94C7B8"/>
		</linearGradient>
		<rect x="9.642" y="8.564" clip-path="url(#SVGID_4_)" fill="url(#SVGID_5_)" width="14.359" height="27.653"/>
	</g>
	<g>
		<defs>
			<path id="SVGID_6_" d="M10.116,8.564l13.885,13.769l3.856-3.825l-5.796-3.346c0,0-0.092-0.053-0.261-0.151
				c-0.042-0.023-0.088-0.05-0.139-0.08l-0.004-0.002c-0.006-0.004-0.013-0.007-0.02-0.012l-0.113-0.064
				c-0.002-0.001-0.003-0.003-0.005-0.004l-0.041-0.023c-0.002-0.001-0.004-0.002-0.005-0.004l-0.024-0.013
				c-0.002-0.001-0.003-0.001-0.003-0.002l-0.027-0.015c-0.003-0.002-0.007-0.004-0.009-0.006L10.875,8.703
				c-0.194-0.11-0.387-0.165-0.561-0.165C10.245,8.538,10.178,8.546,10.116,8.564"/>
		</defs>
		<clipPath id="SVGID_7_">
			<use xlink:href="#SVGID_6_"  overflow="visible"/>
		</clipPath>
		
			<linearGradient id="SVGID_8_" gradientUnits="userSpaceOnUse" x1="-362.0264" y1="647.869" x2="-361.0264" y2="647.869" gradientTransform="matrix(18.2154 0 0 -18.2154 6604.1128 11816.6543)">
			<stop  offset="0" style="stop-color:#5CB1A3"/>
			<stop  offset="1" style="stop-color:#E1E39A"/>
		</linearGradient>
		<rect x="10.116" y="8.538" clip-path="url(#SVGID_7_)" fill="url(#SVGID_8_)" width="17.741" height="13.795"/>
	</g>
	<g>
		<defs>
			<path id="SVGID_9_" d="M9.998,36.217c0.171,0.056,0.388,0.027,0.625-0.11c0.376-0.217,5.793-3.344,9.035-5.217l0.08-0.045
				c0.074-0.044,0.148-0.086,0.219-0.127l0.042-0.025c0.018-0.009,0.035-0.02,0.053-0.029l0.089-0.052
				c0.007-0.004,0.013-0.008,0.02-0.012l0.089-0.051c0.004-0.002,0.008-0.005,0.013-0.008l0.058-0.033
				c0.03-0.017,0.059-0.035,0.089-0.052l0.029-0.017c0.006-0.003,0.012-0.007,0.018-0.01l0.75-0.432
				c0.008-0.005,0.015-0.01,0.023-0.014l0.468-0.271c0.005-0.002,0.009-0.005,0.014-0.008l0.347-0.2l0.002-0.001l5.796-3.346
				l-3.856-3.824L9.998,36.217z"/>
		</defs>
		<clipPath id="SVGID_10_">
			<use xlink:href="#SVGID_9_"  overflow="visible"/>
		</clipPath>
		
			<linearGradient id="SVGID_11_" gradientUnits="userSpaceOnUse" x1="-394.4236" y1="608.3843" x2="-393.4236" y2="608.3843" gradientTransform="matrix(0 14.3409 14.3409 0 -8705.8291 5678.708)">
			<stop  offset="0" style="stop-color:#D24A43"/>
			<stop  offset="0.195" style="stop-color:#BF5052"/>
			<stop  offset="0.5886" style="stop-color:#A15670"/>
			<stop  offset="0.866" style="stop-color:#8F5885"/>
			<stop  offset="1" style="stop-color:#88588D"/>
		</linearGradient>
		<rect x="9.998" y="22.333" clip-path="url(#SVGID_10_)" fill="url(#SVGID_11_)" width="17.859" height="13.94"/>
	</g>
	<g>
		<defs>
			<path id="SVGID_12_" d="M24.001,22.333l3.856,3.824c0,0,0.003-0.002,0.009-0.006l0.005-0.002c0-0.001,0.001-0.001,0.001-0.001
				l0.005-0.003c0.337-0.194,4.922-2.841,5.551-3.205c0.627-0.362,0.595-0.853,0.106-1.155l-0.063-0.036
				c-0.001-0.001-0.002-0.001-0.003-0.001c-0.552-0.297-5.611-3.24-5.611-3.24L24.001,22.333z"/>
		</defs>
		<clipPath id="SVGID_13_">
			<use xlink:href="#SVGID_12_"  overflow="visible"/>
		</clipPath>
		
			<linearGradient id="SVGID_14_" gradientUnits="userSpaceOnUse" x1="-428.7318" y1="600.7773" x2="-427.7317" y2="600.7773" gradientTransform="matrix(0 7.648 7.648 0 -4565.7324 3297.4602)">
			<stop  offset="0" style="stop-color:#E0887D"/>
			<stop  offset="0.1355" style="stop-color:#E2907C"/>
			<stop  offset="0.7173" style="stop-color:#EDB67B"/>
			<stop  offset="1" style="stop-color:#F3C779"/>
		</linearGradient>
		<rect x="24.001" y="18.508" clip-path="url(#SVGID_13_)" fill="url(#SVGID_14_)" width="10.054" height="7.649"/>
	</g>
	<g>
		<defs>
			<rect id="SVGID_15_" width="128.544" height="42.049"/>
		</defs>
		<clipPath id="SVGID_16_">
			<use xlink:href="#SVGID_15_"  overflow="visible"/>
		</clipPath>
		<path clip-path="url(#SVGID_16_)" fill="#F9F9F9" d="M100.039,27.899c-0.539,0-1.032-0.099-1.477-0.298
			c-0.446-0.2-0.82-0.506-1.122-0.918h-0.091c0.061,0.483,0.091,0.942,0.091,1.375v3.408h-1.254V19.467h1.02L97.38,20.6h0.06
			c0.323-0.453,0.699-0.78,1.126-0.982c0.428-0.201,0.92-0.302,1.473-0.302c1.099,0,1.946,0.375,2.543,1.125
			c0.597,0.751,0.896,1.804,0.896,3.158c0,1.361-0.304,2.417-0.91,3.171C101.96,27.523,101.118,27.899,100.039,27.899
			 M99.858,20.381c-0.847,0-1.458,0.234-1.836,0.703c-0.378,0.468-0.572,1.213-0.582,2.236v0.279c0,1.165,0.194,1.997,0.582,2.498
			c0.388,0.502,1.01,0.752,1.866,0.752c0.716,0,1.277-0.289,1.682-0.869c0.406-0.579,0.608-1.377,0.608-2.396
			c0-1.031-0.202-1.824-0.608-2.376C101.165,20.657,100.593,20.381,99.858,20.381"/>
		<rect x="105.127" y="15.991" clip-path="url(#SVGID_16_)" fill="#F9F9F9" width="1.254" height="11.757"/>
		<path clip-path="url(#SVGID_16_)" fill="#F9F9F9" d="M113.592,27.748l-0.25-1.179h-0.06c-0.413,0.519-0.824,0.87-1.235,1.054
			c-0.41,0.185-0.923,0.276-1.538,0.276c-0.821,0-1.464-0.212-1.93-0.634c-0.466-0.424-0.699-1.025-0.699-1.806
			c0-1.673,1.338-2.549,4.012-2.63l1.406-0.045V22.27c0-0.65-0.14-1.13-0.42-1.439c-0.28-0.31-0.727-0.465-1.341-0.465
			c-0.691,0-1.471,0.211-2.342,0.635l-0.386-0.96c0.409-0.221,0.855-0.395,1.342-0.521c0.486-0.126,0.973-0.189,1.462-0.189
			c0.987,0,1.718,0.219,2.194,0.657c0.477,0.438,0.714,1.141,0.714,2.108v5.652H113.592z M110.76,26.864
			c0.781,0,1.393-0.214,1.839-0.642c0.446-0.428,0.67-1.028,0.67-1.799v-0.747l-1.255,0.052c-0.997,0.036-1.716,0.19-2.158,0.465
			c-0.44,0.274-0.66,0.702-0.66,1.281c0,0.453,0.136,0.799,0.411,1.035C109.881,26.746,110.266,26.864,110.76,26.864"/>
		<path clip-path="url(#SVGID_16_)" fill="#F9F9F9" d="M115.25,19.467h1.344l1.814,4.722c0.397,1.079,0.645,1.856,0.741,2.336h0.06
			c0.065-0.258,0.203-0.697,0.412-1.32c0.209-0.622,0.893-2.534,2.051-5.738h1.346l-3.56,9.43c-0.352,0.931-0.764,1.593-1.235,1.984
			c-0.471,0.39-1.049,0.585-1.734,0.585c-0.383,0-0.76-0.043-1.134-0.128v-1.006c0.277,0.061,0.587,0.092,0.93,0.092
			c0.862,0,1.475-0.484,1.843-1.452l0.461-1.178L115.25,19.467z"/>
		<path clip-path="url(#SVGID_16_)" fill="#F9F9F9" d="M76.805,20.236c0.399,0.33,1.23,1.023,1.23,2.339
			c0,1.281-0.727,1.889-1.455,2.459c-0.225,0.225-0.485,0.468-0.485,0.85c0,0.38,0.26,0.588,0.45,0.745l0.624,0.483
			c0.763,0.642,1.454,1.231,1.454,2.426c0,1.629-1.576,3.273-4.554,3.273c-2.512,0-3.724-1.194-3.724-2.477
			c0-0.623,0.31-1.506,1.333-2.113c1.073-0.658,2.53-0.744,3.309-0.797c-0.244-0.312-0.52-0.641-0.52-1.177
			c0-0.294,0.086-0.467,0.173-0.676c-0.192,0.017-0.381,0.035-0.555,0.035c-1.835,0-2.875-1.369-2.875-2.72
			c0-0.796,0.365-1.68,1.108-2.32c0.988-0.815,2.166-0.953,3.102-0.953h3.567l-1.109,0.623H76.805z M75.576,27.928
			c-0.139-0.019-0.226-0.019-0.399-0.019c-0.155,0-1.092,0.035-1.818,0.279c-0.382,0.137-1.491,0.553-1.491,1.783
			c0,1.229,1.197,2.115,3.049,2.115c1.663,0,2.547-0.799,2.547-1.872C77.464,29.329,76.892,28.863,75.576,27.928 M76.078,24.636
			c0.398-0.399,0.432-0.952,0.432-1.265c0-1.247-0.744-3.186-2.182-3.186c-0.45,0-0.935,0.225-1.213,0.571
			c-0.294,0.364-0.381,0.832-0.381,1.282c0,1.161,0.676,3.083,2.166,3.083C75.333,25.121,75.8,24.913,76.078,24.636"/>
		<path clip-path="url(#SVGID_16_)" fill="#F9F9F9" d="M65.901,27.651c-2.75,0-4.22-2.145-4.22-4.082
			c0-2.266,1.851-4.202,4.48-4.202c2.541,0,4.132,1.988,4.132,4.081C70.293,25.488,68.72,27.651,65.901,27.651 M68.062,26.25
			c0.416-0.554,0.52-1.246,0.52-1.92c0-1.523-0.727-4.427-2.871-4.427c-0.57,0-1.141,0.225-1.556,0.589
			c-0.675,0.604-0.796,1.365-0.796,2.11c0,1.711,0.847,4.529,2.94,4.529C66.973,27.131,67.665,26.802,68.062,26.25"/>
		<path clip-path="url(#SVGID_16_)" fill="#F9F9F9" d="M56.528,27.651c-2.75,0-4.219-2.145-4.219-4.082
			c0-2.266,1.85-4.202,4.479-4.202c2.542,0,4.132,1.988,4.132,4.081C60.92,25.488,59.347,27.651,56.528,27.651 M58.69,26.25
			c0.415-0.554,0.519-1.246,0.519-1.92c0-1.523-0.727-4.427-2.871-4.427c-0.57,0-1.142,0.225-1.556,0.589
			c-0.675,0.604-0.795,1.365-0.795,2.11c0,1.711,0.846,4.529,2.94,4.529C57.601,27.131,58.293,26.802,58.69,26.25"/>
		<path clip-path="url(#SVGID_16_)" fill="#F9F9F9" d="M50.987,27.379l-2.486,0.574c-1.009,0.156-1.913,0.295-2.869,0.295
			c-4.799,0-6.624-3.53-6.624-6.294c0-3.373,2.59-6.501,7.025-6.501c0.938,0,1.842,0.138,2.659,0.364
			c1.304,0.365,1.912,0.817,2.295,1.078l-1.443,1.374l-0.609,0.138l0.435-0.695c-0.591-0.573-1.67-1.634-3.721-1.634
			c-2.747,0-4.816,2.087-4.816,5.13c0,3.267,2.365,6.344,6.154,6.344c1.115,0,1.687-0.225,2.208-0.435v-2.798l-2.624,0.139
			l1.39-0.748h3.687l-0.453,0.434c-0.122,0.105-0.139,0.14-0.174,0.278c-0.017,0.157-0.034,0.661-0.034,0.835V27.379z"/>
		<path clip-path="url(#SVGID_16_)" fill="#F9F9F9" d="M82.301,26.878c-0.574-0.052-0.694-0.156-0.694-0.835v-0.191v-9.649
			c0.003-0.038,0.006-0.076,0.01-0.112c0.069-0.608,0.243-0.713,0.783-1.027h-2.488l-1.304,0.627h1.329v0.008l-0.001-0.007v10.16
			v0.574c0,0.347-0.068,0.4-0.469,0.921h3.078l0.643-0.382C82.893,26.93,82.597,26.913,82.301,26.878"/>
		<path clip-path="url(#SVGID_16_)" fill="#F9F9F9" d="M89.375,27.038c-0.189,0.103-0.379,0.225-0.568,0.311
			c-0.571,0.259-1.158,0.328-1.676,0.328c-0.552,0-1.416-0.036-2.297-0.674c-1.225-0.864-1.76-2.349-1.76-3.643
			c0-2.676,2.175-3.988,3.953-3.988c0.622,0,1.262,0.155,1.78,0.484c0.862,0.569,1.087,1.311,1.207,1.708l-4.057,1.641l-1.329,0.103
			c0.43,2.194,1.915,3.47,3.557,3.47c0.88,0,1.519-0.31,2.106-0.603L89.375,27.038z M87.753,21.892c0.327-0.121,0.5-0.224,0.5-0.466
			c0-0.69-0.777-1.485-1.71-1.485c-0.691,0-1.985,0.536-1.985,2.4c0,0.293,0.035,0.604,0.053,0.916L87.753,21.892z"/>
		<polygon clip-path="url(#SVGID_16_)" fill="#F9F9F9" points="91.042,19.49 91.042,20.629 90.904,20.629 90.904,19.49 
			90.527,19.49 90.527,19.372 91.419,19.372 91.419,19.49 		"/>
		<polygon clip-path="url(#SVGID_16_)" fill="#F9F9F9" points="92.595,20.629 92.595,19.479 92.589,19.479 92.237,20.629 
			92.129,20.629 91.775,19.479 91.772,19.479 91.772,20.629 91.645,20.629 91.645,19.372 91.861,19.372 92.181,20.388 
			92.186,20.388 92.501,19.372 92.72,19.372 92.72,20.629 		"/>
		<path clip-path="url(#SVGID_16_)" fill="#FCFCFC" d="M42.461,12.067h-0.864c0-0.118-0.082-0.455-0.245-1.009h-1.248
			c-0.169,0.545-0.253,0.881-0.253,1.009h-0.813c0-0.07,0.21-0.646,0.631-1.728c0.419-1.081,0.63-1.677,0.63-1.787h1.02
			c0,0.103,0.191,0.69,0.571,1.762C42.271,11.385,42.461,11.97,42.461,12.067 M41.214,10.542c-0.308-0.928-0.462-1.431-0.462-1.506
			h-0.043c0,0.07-0.159,0.572-0.477,1.506H41.214z"/>
		<path clip-path="url(#SVGID_16_)" fill="#FCFCFC" d="M45.943,12.067h-0.667c0-0.074-0.247-0.463-0.742-1.169
			c-0.519-0.743-0.813-1.251-0.886-1.526h-0.043c0.045,0.395,0.068,0.752,0.068,1.069c0,0.446,0.012,0.987,0.037,1.626h-0.664
			c0.027-0.558,0.041-1.171,0.041-1.839c0-0.656-0.014-1.216-0.041-1.676h0.802c0,0.095,0.222,0.476,0.667,1.142
			c0.473,0.707,0.745,1.187,0.815,1.439h0.041c-0.043-0.401-0.066-0.761-0.066-1.08c0-0.487-0.011-0.988-0.037-1.501h0.675
			c-0.025,0.447-0.038,1.006-0.038,1.676C45.905,10.905,45.918,11.518,45.943,12.067"/>
		<path clip-path="url(#SVGID_16_)" fill="#FCFCFC" d="M49.856,10.188c0,0.511-0.164,0.957-0.491,1.339
			c-0.328,0.382-0.787,0.573-1.377,0.573c-0.266,0-0.634-0.011-1.102-0.033c0.024-0.544,0.035-1.157,0.035-1.839
			c0-0.654-0.011-1.213-0.035-1.676h0.473c0.077,0,0.192-0.003,0.345-0.008s0.253-0.009,0.3-0.009c0.65,0,1.121,0.163,1.413,0.487
			C49.71,9.345,49.856,9.734,49.856,10.188 M49.119,10.304c0-0.346-0.101-0.637-0.302-0.874c-0.202-0.236-0.51-0.354-0.924-0.354
			c-0.077,0-0.183,0.008-0.318,0.024c0.018,0.36,0.027,0.736,0.027,1.128c0,0.431,0.009,0.857,0.027,1.28
			c0.116,0.023,0.233,0.035,0.351,0.035c0.387,0,0.673-0.12,0.859-0.361C49.026,10.942,49.119,10.65,49.119,10.304"/>
		<path clip-path="url(#SVGID_16_)" fill="#FCFCFC" d="M53.464,12.067h-0.8c-0.208-0.637-0.369-1.031-0.48-1.18
			c-0.112-0.15-0.292-0.224-0.541-0.224c-0.104,0-0.204,0.001-0.299,0.003c0,0.462,0.008,0.93,0.024,1.401h-0.75
			c0.023-0.544,0.035-1.157,0.035-1.839c0-0.655-0.012-1.213-0.035-1.676h0.467c0.054,0,0.167-0.003,0.339-0.009
			c0.172-0.004,0.331-0.008,0.476-0.008c0.826,0,1.239,0.283,1.239,0.848c0,0.448-0.236,0.76-0.707,0.937v0.04
			c0.182,0.05,0.341,0.193,0.478,0.426C53.046,11.019,53.232,11.446,53.464,12.067 M52.451,9.583c0-0.358-0.23-0.537-0.691-0.537
			c-0.169,0-0.318,0.012-0.448,0.038c0.02,0.279,0.029,0.642,0.029,1.09c0.1,0.004,0.183,0.006,0.252,0.006
			C52.165,10.18,52.451,9.981,52.451,9.583"/>
		<path clip-path="url(#SVGID_16_)" fill="#FCFCFC" d="M57.334,10.245c0,0.553-0.169,1.01-0.507,1.374
			c-0.339,0.364-0.757,0.545-1.255,0.545c-0.476,0-0.874-0.167-1.194-0.501c-0.321-0.334-0.48-0.758-0.48-1.272
			c0-0.553,0.169-1.012,0.507-1.375c0.338-0.363,0.756-0.545,1.256-0.545c0.474,0,0.872,0.166,1.193,0.499
			C57.174,9.303,57.334,9.728,57.334,10.245 M56.589,10.323c0-0.376-0.096-0.681-0.289-0.915c-0.193-0.234-0.43-0.351-0.713-0.351
			c-0.263,0-0.485,0.117-0.669,0.353c-0.183,0.237-0.276,0.534-0.276,0.894c0,0.374,0.097,0.679,0.29,0.914
			c0.194,0.235,0.431,0.352,0.712,0.352c0.263,0,0.486-0.118,0.67-0.355C56.498,10.979,56.589,10.681,56.589,10.323"/>
		<path clip-path="url(#SVGID_16_)" fill="#FCFCFC" d="M58.86,12.067h-0.764c0.023-0.558,0.035-1.171,0.035-1.839
			c0-0.656-0.012-1.216-0.035-1.676h0.764c-0.024,0.453-0.035,1.013-0.035,1.676C58.825,10.907,58.836,11.52,58.86,12.067"/>
		<path clip-path="url(#SVGID_16_)" fill="#FCFCFC" d="M62.773,10.188c0,0.511-0.164,0.957-0.491,1.339
			c-0.328,0.382-0.787,0.573-1.377,0.573c-0.266,0-0.634-0.011-1.102-0.033c0.024-0.544,0.035-1.157,0.035-1.839
			c0-0.654-0.011-1.213-0.035-1.676h0.473c0.077,0,0.192-0.003,0.345-0.008c0.154-0.005,0.253-0.009,0.3-0.009
			c0.65,0,1.121,0.163,1.413,0.487C62.627,9.345,62.773,9.734,62.773,10.188 M62.036,10.304c0-0.346-0.101-0.637-0.302-0.874
			c-0.202-0.236-0.51-0.354-0.924-0.354c-0.077,0-0.183,0.008-0.318,0.024c0.018,0.36,0.027,0.736,0.027,1.128
			c0,0.431,0.008,0.857,0.027,1.28c0.116,0.023,0.233,0.035,0.351,0.035c0.386,0,0.673-0.12,0.859-0.361
			C61.943,10.942,62.036,10.65,62.036,10.304"/>
		<path clip-path="url(#SVGID_16_)" fill="#FCFCFC" d="M67.964,12.067H67.1c0-0.118-0.082-0.455-0.245-1.009h-1.248
			c-0.169,0.545-0.253,0.881-0.253,1.009h-0.813c0-0.07,0.21-0.646,0.63-1.728c0.42-1.081,0.63-1.677,0.63-1.787h1.021
			c0,0.103,0.191,0.69,0.571,1.762C67.774,11.385,67.964,11.97,67.964,12.067 M66.717,10.542c-0.308-0.928-0.462-1.431-0.462-1.506
			h-0.043c0,0.07-0.159,0.572-0.477,1.506H66.717z"/>
		<path clip-path="url(#SVGID_16_)" fill="#FCFCFC" d="M71.113,9.472c0,0.43-0.159,0.748-0.479,0.953
			c-0.319,0.205-0.711,0.308-1.176,0.308c-0.084,0-0.144-0.002-0.18-0.005c0,0.338,0.009,0.785,0.029,1.339h-0.758
			c0.023-0.52,0.035-1.133,0.035-1.839c0-0.648-0.012-1.206-0.035-1.676h0.47c0.066,0,0.194-0.003,0.383-0.008
			c0.189-0.006,0.353-0.008,0.491-0.008c0.342,0,0.631,0.077,0.867,0.232C70.996,8.923,71.113,9.158,71.113,9.472 M70.417,9.621
			c0-0.385-0.255-0.578-0.767-0.578c-0.127,0-0.262,0.014-0.405,0.041c0.02,0.34,0.03,0.725,0.03,1.155
			c0.045,0.004,0.098,0.006,0.156,0.006C70.089,10.245,70.417,10.037,70.417,9.621"/>
		<path clip-path="url(#SVGID_16_)" fill="#FCFCFC" d="M74.351,9.472c0,0.43-0.16,0.748-0.478,0.953
			c-0.32,0.205-0.712,0.308-1.177,0.308c-0.084,0-0.144-0.002-0.18-0.005c0,0.338,0.009,0.785,0.029,1.339h-0.758
			c0.023-0.52,0.035-1.133,0.035-1.839c0-0.648-0.012-1.206-0.035-1.676h0.47c0.066,0,0.194-0.003,0.383-0.008
			c0.189-0.006,0.353-0.008,0.491-0.008c0.342,0,0.631,0.077,0.867,0.232C74.234,8.923,74.351,9.158,74.351,9.472 M73.655,9.621
			c0-0.385-0.255-0.578-0.767-0.578c-0.127,0-0.262,0.014-0.405,0.041c0.02,0.34,0.03,0.725,0.03,1.155
			c0.045,0.004,0.098,0.006,0.156,0.006C73.327,10.245,73.655,10.037,73.655,9.621"/>
		<path clip-path="url(#SVGID_16_)" fill="#FCFCFC" d="M79.645,10.245c0,0.553-0.169,1.01-0.507,1.374
			c-0.339,0.364-0.757,0.545-1.255,0.545c-0.476,0-0.874-0.167-1.194-0.501c-0.321-0.334-0.48-0.758-0.48-1.272
			c0-0.553,0.169-1.012,0.507-1.375c0.338-0.363,0.757-0.545,1.256-0.545c0.474,0,0.872,0.166,1.193,0.499
			C79.485,9.303,79.645,9.728,79.645,10.245 M78.9,10.323c0-0.376-0.096-0.681-0.289-0.915c-0.193-0.234-0.43-0.351-0.713-0.351
			c-0.263,0-0.485,0.117-0.669,0.353c-0.183,0.237-0.276,0.534-0.276,0.894c0,0.374,0.097,0.679,0.291,0.914
			c0.193,0.235,0.43,0.352,0.711,0.352c0.263,0,0.486-0.118,0.67-0.355C78.809,10.979,78.9,10.681,78.9,10.323"/>
		<path clip-path="url(#SVGID_16_)" fill="#FCFCFC" d="M83.305,12.067h-0.667c0-0.074-0.247-0.463-0.742-1.169
			c-0.519-0.743-0.813-1.251-0.886-1.526h-0.043c0.045,0.395,0.068,0.752,0.068,1.069c0,0.446,0.012,0.987,0.037,1.626h-0.664
			c0.027-0.558,0.041-1.171,0.041-1.839c0-0.656-0.014-1.216-0.041-1.676h0.802c0,0.095,0.222,0.476,0.667,1.142
			c0.473,0.707,0.745,1.187,0.815,1.439h0.041c-0.043-0.401-0.065-0.761-0.065-1.08c0-0.487-0.012-0.988-0.038-1.501h0.675
			c-0.025,0.447-0.038,1.006-0.038,1.676C83.267,10.905,83.28,11.518,83.305,12.067"/>
	</g>
</g>
</svg>
