<?xml version="1.0" encoding="utf-8"?>
<!-- Generator: Adobe Illustrator 19.1.0, SVG Export Plug-In . SVG Version: 6.00 Build 0)  -->
<svg version="1.1" id="Слой_1" xmlns="http://www.w3.org/2000/svg" xmlns:xlink="http://www.w3.org/1999/xlink" x="0px" y="0px"
	 viewBox="0 0 30.449 32.344" enable-background="new 0 0 30.449 32.344" xml:space="preserve">
<path fill="#FFFFFF" d="M20.594,11.181c-0.126-1.305-0.379-2.579-0.758-3.821c-0.379-1.242-0.958-2.201-1.737-2.875
	c-0.78-0.673-1.759-1.011-2.937-1.011c-1.18,0-2.148,0.327-2.906,0.98c-0.758,0.653-1.317,1.61-1.674,2.874
	c-0.358,1.263-0.601,2.527-0.727,3.79c-0.126,1.264-0.189,2.801-0.189,4.612c0,1.137,0.021,2.095,0.063,2.874
	c0.041,0.78,0.116,1.727,0.221,2.843c0.105,1.116,0.274,2.053,0.505,2.811c0.231,0.758,0.547,1.506,0.948,2.243
	c0.399,0.737,0.916,1.295,1.548,1.674c0.631,0.379,1.368,0.568,2.211,0.568c0.841,0,1.589-0.189,2.242-0.568
	c0.652-0.379,1.179-0.937,1.58-1.674c0.399-0.737,0.726-1.485,0.979-2.243c0.252-0.758,0.442-1.695,0.568-2.811
	c0.127-1.116,0.2-2.074,0.221-2.874c0.021-0.8,0.032-1.748,0.032-2.843C20.784,14.003,20.721,12.487,20.594,11.181 M26.122,4.422
	c2.884,2.948,4.327,6.823,4.327,11.624c0,4.38-1.443,8.192-4.327,11.434c-2.885,3.242-6.538,4.864-10.96,4.864
	c-4.381,0-8.002-1.622-10.866-4.864C1.432,24.238,0,20.426,0,16.046C0,11.245,1.411,7.37,4.233,4.422C7.054,1.474,10.697,0,15.162,0
	C19.584,0,23.237,1.474,26.122,4.422"/>
</svg>
