<?xml version="1.0" encoding="utf-8"?>
<!-- Generator: Adobe Illustrator 19.1.0, SVG Export Plug-In . SVG Version: 6.00 Build 0)  -->
<svg version="1.1" id="Слой_1" xmlns="http://www.w3.org/2000/svg" xmlns:xlink="http://www.w3.org/1999/xlink" x="0px" y="0px"
	 viewBox="0 0 39.331 35.012" enable-background="new 0 0 39.331 35.012" xml:space="preserve">
<path fill="#FFFFFF" d="M39.331,11.813c0,0.487-0.038,1.434-0.115,2.842c-0.078,1.409-0.244,2.792-0.5,4.148
	c-0.256,1.358-0.729,2.881-1.421,4.571s-1.536,3.214-2.535,4.571c-0.998,1.357-2.369,2.638-4.109,3.841
	c-1.742,1.203-3.714,2.062-5.915,2.573c-1.18,0.307-2.382,0.486-3.611,0.538c-0.052,0-0.153,0.025-0.307,0.077
	c-1.025,0.05-2.049,0.05-3.073,0c-6.351-0.512-11.19-3.636-14.519-9.372c-1.536-2.714-2.407-5.301-2.611-7.759
	c-0.154,0.718-0.257,1.332-0.308,1.844c-0.153-2.919,0.077-5.301,0.692-7.144C0.538,13.311,0.204,14.029,0,14.694
	c0.409-2.305,0.947-4.122,1.613-5.454c0.051-0.308,0.358-0.871,0.922-1.69V7.319C2.432,5.886,2.573,4.592,2.958,3.44
	c0.384-1.152,0.703-1.869,0.96-2.151C4.173,1.008,4.379,0.79,4.532,0.636C4.583,1.865,5.224,3.044,6.453,4.17
	C6.76,4.221,7.041,4.247,7.298,4.247c1.279-0.256,2.612-0.231,3.994,0.076c0.819-1.024,2.074-1.715,3.764-2.074l1.46-0.077
	c-1.486,0.872-2.382,2.126-2.689,3.764c0.563,1.179,1.306,1.767,2.228,1.767h1.69c0.87,0,1.331,0.077,1.383,0.231v0.077v0.076
	c0.05,0.052,0.05,0.129,0,0.231v0.077v0.076c-0.052,0.513-0.231,0.897-0.538,1.153c-0.052,0-0.077,0.013-0.077,0.038
	c0,0.026-0.026,0.039-0.077,0.039c0,0.051-0.23,0.205-0.691,0.46c-0.615,0.411-1.102,0.743-1.46,0.999
	c-0.666,0.41-0.998,0.691-0.998,0.845v0.077H15.21c0.154,0.307,0.256,0.691,0.307,1.152c0.102,0.461,0.128,0.743,0.077,0.845v0.691
	c-0.615-0.307-1.204-0.511-1.767-0.614c-0.717,0.307-1.127,0.641-1.229,0.999c-0.051,0.205-0.103,0.41-0.153,0.614
	c0,0.973,0.691,1.87,2.074,2.689c0.563,0.358,1.139,0.564,1.728,0.614c0.588,0.052,1.049,0.027,1.383-0.077
	c0.332-0.102,0.742-0.256,1.229-0.46c0.486-0.205,0.832-0.333,1.037-0.385c1.537-0.409,2.791-0.05,3.764,1.076
	c0.307,0.307,0.371,0.602,0.192,0.883c-0.18,0.283-0.449,0.372-0.807,0.269c-0.153,0.051-0.257,0.065-0.307,0.039
	c-0.051-0.025-0.167,0-0.346,0.076c-0.18,0.077-0.307,0.128-0.383,0.154c-0.078,0.026-0.206,0.103-0.384,0.231
	c-0.181,0.128-0.321,0.218-0.424,0.268c-0.103,0.052-0.268,0.167-0.499,0.346c-0.23,0.18-0.422,0.295-0.576,0.346
	c-0.614,0.461-1.498,0.794-2.65,0.998c-1.152,0.205-2.112,0.205-2.881,0c0.615,0.461,1.101,0.795,1.46,0.999
	c0.358,0.205,0.947,0.526,1.767,0.96c0.818,0.436,1.523,0.718,2.112,0.845c0.588,0.129,1.331,0.192,2.228,0.192
	c0.896,0,1.715-0.153,2.458-0.461c0.742-0.307,1.536-0.831,2.382-1.574c0.844-0.742,1.651-1.677,2.42-2.804
	c0.153-0.256,0.255-0.41,0.306-0.461c0.103,0-0.026,0.691-0.384,2.074c-0.154,0.718-0.205,1.075-0.154,1.075
	c0.871-0.614,1.472-1.792,1.806-3.533c0.333-1.741,0.371-3.431,0.115-5.07c0.614,0.256,1.049,0.743,1.306,1.459l0.154,0.154
	c0.307-0.972,0.486-2.24,0.538-3.803c0.05-1.561-0.103-2.854-0.461-3.879c0.664,0.205,1.279,0.871,1.844,1.997
	c-0.154-0.818-0.385-1.574-0.692-2.266c-0.308-0.691-0.653-1.279-1.038-1.767c-0.383-0.486-0.794-0.947-1.229-1.382
	c-0.435-0.435-0.882-0.794-1.343-1.076c-0.462-0.281-0.91-0.537-1.345-0.768C28.409,3.517,28,3.338,27.616,3.209
	c-0.384-0.127-0.73-0.23-1.037-0.307c-0.308-0.077-0.538-0.127-0.691-0.153c-0.154-0.026-0.206-0.039-0.154-0.039
	c1.279-0.358,2.585-0.538,3.918-0.538c-0.154-0.255-0.449-0.486-0.883-0.691c-0.436-0.204-0.911-0.384-1.422-0.538
	c-0.512-0.153-1.012-0.281-1.497-0.384c-0.488-0.102-1.064-0.23-1.729-0.384h-0.077h0.153c1.434-0.409,3.688-0.102,6.76,0.922
	c1.126,0.359,2.152,1.012,3.073,1.959c0.922,0.948,1.499,1.651,1.729,2.112c0.23,0.461,0.396,0.845,0.499,1.153V6.013
	c0.05-0.255,0.012-0.653-0.115-1.19c-0.129-0.538-0.321-1.114-0.576-1.729c0.05,0,0.127,0.039,0.23,0.115
	c0.102,0.077,0.294,0.359,0.577,0.845c0.281,0.488,0.601,1.191,0.959,2.113c0.563,1.383,1.049,3.867,1.46,7.451l0.461-2.919
	C39.304,10.956,39.331,11.327,39.331,11.813"/>
</svg>
