<?xml version="1.0" encoding="utf-8"?>
<!-- Generator: Adobe Illustrator 19.1.0, SVG Export Plug-In . SVG Version: 6.00 Build 0)  -->
<svg version="1.1" id="Слой_1" xmlns="http://www.w3.org/2000/svg" xmlns:xlink="http://www.w3.org/1999/xlink" x="0px" y="0px"
	 viewBox="280 402.731 35.578 35.579" enable-background="new 280 402.731 35.578 35.579" xml:space="preserve">
<path fill="#FFFFFF" d="M304.182,413.988h10.145c0.834,2.085,1.251,4.263,1.251,6.532c0,4.865-1.714,9.034-5.142,12.508
	c-3.429,3.475-7.574,5.235-12.439,5.282l7.297-12.578c1.065-1.575,1.598-3.312,1.598-5.212
	C306.892,417.973,305.99,415.795,304.182,413.988 M293.237,425.072c-1.274-1.274-1.911-2.791-1.911-4.552
	c0-1.76,0.637-3.277,1.911-4.551c1.274-1.274,2.791-1.911,4.552-1.911c1.76,0,3.277,0.637,4.551,1.911
	c1.274,1.274,1.911,2.791,1.911,4.551c0,1.761-0.637,3.278-1.911,4.552c-1.274,1.274-2.791,1.911-4.551,1.911
	S294.512,426.346,293.237,425.072 M288.965,418.227l-5.073-8.825c1.668-2.085,3.706-3.718,6.115-4.899
	c2.408-1.181,5.003-1.772,7.783-1.772c3.196,0,6.15,0.788,8.86,2.363s4.852,3.706,6.428,6.393h-14.524
	c-0.232-0.046-0.486-0.07-0.764-0.07c-2.085,0-3.95,0.637-5.594,1.911C290.551,414.603,289.474,416.236,288.965,418.227
	 M300.221,429.276l-5.073,8.825c-4.308-0.649-7.911-2.628-10.805-5.941c-2.896-3.312-4.343-7.192-4.343-11.64
	c0-3.103,0.764-6.022,2.293-8.755l7.227,12.647c0.74,1.528,1.852,2.779,3.335,3.752c1.482,0.973,3.127,1.459,4.934,1.459
	C298.624,429.623,299.434,429.508,300.221,429.276"/>
</svg>
