<?xml version="1.0" encoding="utf-8"?>
<!-- Generator: Adobe Illustrator 19.1.0, SVG Export Plug-In . SVG Version: 6.00 Build 0)  -->
<svg version="1.1" id="Слой_1" xmlns="http://www.w3.org/2000/svg" xmlns:xlink="http://www.w3.org/1999/xlink" x="0px" y="0px"
	 viewBox="0 0 34.113 33.076" enable-background="new 0 0 34.113 33.076" xml:space="preserve">
<path fill="#FFFFFF" d="M24.426,3.048c2.995,1.217,5.381,3.182,7.16,5.896c1.076-2.901,1.029-4.937-0.141-6.107
	C30.182,1.528,27.842,1.598,24.426,3.048 M25.198,15.051c-0.094-1.685-0.772-3.124-2.035-4.317c-1.264-1.193-2.75-1.79-4.457-1.79
	c-1.709,0-3.194,0.597-4.457,1.79c-1.264,1.193-1.943,2.632-2.036,4.317H25.198z M10.739,30.633
	c-3.136-1.918-5.335-4.608-6.598-8.072c-2.106,4.118-2.386,6.949-0.842,8.493C4.655,32.411,7.135,32.271,10.739,30.633
	 M12.213,19.122v0.07c0,1.123,0.257,2.199,0.772,3.229c0.608,1.076,1.439,1.93,2.492,2.561c1.053,0.632,2.222,0.948,3.509,0.948
	s2.457-0.316,3.51-0.948c1.053-0.631,1.883-1.485,2.492-2.561h8.353c-1.077,3.042-2.948,5.533-5.616,7.475
	c-2.667,1.942-5.662,2.913-8.984,2.913c-2.481,0-4.82-0.538-7.019-1.615c-4.914,2.387-8.447,2.503-10.599,0.351
	C0.374,30.844,0,29.674,0,28.036c0-1.638,0.316-3.462,0.947-5.475c0.632-2.011,1.685-4.223,3.159-6.633
	c1.474-2.41,3.217-4.598,5.229-6.563c1.169-1.216,1.918-1.965,2.246-2.246c-2.902,1.404-5.522,3.58-7.861,6.528
	c0.842-3.416,2.655-6.223,5.44-8.423c2.783-2.199,5.977-3.299,9.581-3.299c0.374,0,0.748,0.024,1.123,0.07
	c2.62-1.169,5.006-1.825,7.159-1.965c2.152-0.141,3.673,0.21,4.563,1.052c1.777,1.825,1.941,4.68,0.491,8.564
	c1.357,2.386,2.036,4.96,2.036,7.721c0,0.655-0.024,1.24-0.07,1.755H25.76H12.213z"/>
</svg>
