<?xml version="1.0" encoding="utf-8"?>
<!-- Generator: Adobe Illustrator 19.1.0, SVG Export Plug-In . SVG Version: 6.00 Build 0)  -->
<svg version="1.1" id="Слой_1" xmlns="http://www.w3.org/2000/svg" xmlns:xlink="http://www.w3.org/1999/xlink" x="0px" y="0px"
	 viewBox="0 0 35.744 38.127" enable-background="new 0 0 35.744 38.127" xml:space="preserve">
<path fill="#FFFFFF" d="M21.148,21.67c0.298-0.695,0.373-1.415,0.224-2.16c-0.05-0.198-0.125-0.421-0.224-0.67l-2.01,2.681
	l-2.681,2.01c0.298,0.149,0.62,0.249,0.968,0.298h0.447c0.248,0,0.495-0.024,0.745-0.074c0.396-0.099,0.769-0.248,1.117-0.447
	C20.378,22.912,20.851,22.366,21.148,21.67 M14.893,18.319c-0.547,0.844-0.72,1.738-0.521,2.681c0.048,0.199,0.123,0.422,0.223,0.67
	l2.011-2.681l2.681-2.011c-0.298-0.148-0.622-0.247-0.968-0.297h-0.447c-0.249,0-0.497,0.025-0.745,0.074
	C16.183,16.954,15.439,17.475,14.893,18.319 M13.106,2.383c0.197-0.298,0.458-0.484,0.782-0.558
	c0.322-0.075,0.633-0.012,0.931,0.186c0.346-0.248,0.495-0.521,0.447-0.819c-0.101-0.397-0.497-0.596-1.192-0.596
	c-0.149,0-0.298,0.025-0.447,0.074c-0.398,0.05-0.72,0.199-0.968,0.447c-0.249,0.249-0.348,0.472-0.298,0.67
	C12.46,2.085,12.708,2.284,13.106,2.383 M21.595,18.319v0.074l4.468,0.149l-4.021,1.862c0,0.547-0.125,1.092-0.372,1.638
	l1.712,1.787L21,23.01c-0.349,0.398-0.771,0.72-1.266,0.968l-0.149,4.468l-1.862-4.021c-0.646-0.049-1.242-0.198-1.787-0.447
	l-7.298,5.511l5.511-7.298v-0.074l-4.468-0.149l4.021-1.862c0-0.546,0.123-1.091,0.372-1.638l-1.713-1.787l2.383,0.819
	c0.347-0.397,0.769-0.719,1.266-0.968l0.149-4.468l1.862,4.021c0.644,0.05,1.24,0.199,1.787,0.447l7.298-5.511L21.595,18.319z
	 M31.425,20.255c0-0.596-0.05-1.191-0.149-1.787l-2.979-0.447l2.607-1.564c-0.646-2.234-1.788-4.17-3.426-5.808
	c-2.681-2.631-5.883-3.947-9.606-3.947c-0.596,0-1.191,0.05-1.787,0.149L15.638,9.83l-1.564-2.607
	c-2.234,0.646-4.17,1.788-5.808,3.426c-2.633,2.681-3.947,5.883-3.947,9.606c0,0.596,0.049,1.191,0.149,1.787l2.979,0.447
	L4.84,24.053c0.645,2.234,1.788,4.17,3.426,5.808c2.681,2.632,5.883,3.947,9.606,3.947c0.596,0,1.191-0.049,1.787-0.149l0.447-2.979
	l1.564,2.607c2.234-0.645,4.17-1.788,5.808-3.426C30.109,27.18,31.425,23.978,31.425,20.255 M30.494,7.633
	c3.5,3.5,5.25,7.707,5.25,12.622s-1.75,9.122-5.25,12.622s-7.707,5.25-12.622,5.25c-4.915,0-9.122-1.75-12.622-5.25
	S0,25.17,0,20.255c0-4.021,1.216-7.62,3.649-10.798c2.431-3.176,5.535-5.311,9.308-6.404V2.979
	c-0.646-0.149-1.018-0.496-1.117-1.043c-0.1-0.396,0.011-0.782,0.335-1.154c0.322-0.372,0.756-0.607,1.303-0.707
	C13.676,0.026,13.875,0,14.074,0c0.992,0,1.564,0.373,1.713,1.117c0.149,0.497-0.05,0.944-0.596,1.341c0,0.05,0.024,0.1,0.075,0.149
	c0.843-0.149,1.712-0.224,2.606-0.224C22.787,2.383,26.994,4.133,30.494,7.633"/>
</svg>
