<?xml version="1.0" encoding="utf-8"?>
<!-- Generator: Adobe Illustrator 19.1.0, SVG Export Plug-In . SVG Version: 6.00 Build 0)  -->
<svg version="1.1" id="Слой_1" xmlns="http://www.w3.org/2000/svg" xmlns:xlink="http://www.w3.org/1999/xlink" x="0px" y="0px"
	 viewBox="0 0 51.807 32.157" enable-background="new 0 0 51.807 32.157" xml:space="preserve">
<g>
	<path fill="#FFFFFF" d="M50.113,24.895h0.057c0.02,0,0.049-0.003,0.065,0.007c0.016,0.013,0.029,0.029,0.029,0.048
		c0,0.021-0.01,0.042-0.029,0.055c-0.016,0.008-0.042,0.008-0.061,0.008h-0.061V24.895z M50.113,25.088h0.077l0.07,0.183h0.119
		l-0.083-0.202c0.048-0.019,0.08-0.064,0.08-0.117c0-0.044-0.026-0.092-0.058-0.116c-0.035-0.024-0.08-0.024-0.118-0.024h-0.193
		v0.459h0.106V25.088z M50.183,25.438c0.219,0,0.398-0.18,0.398-0.395c0-0.218-0.179-0.395-0.398-0.395
		c-0.218,0-0.394,0.177-0.394,0.395C49.789,25.258,49.965,25.438,50.183,25.438 M49.663,25.043c0-0.285,0.235-0.52,0.52-0.52
		c0.286,0,0.52,0.235,0.52,0.52c0,0.286-0.234,0.52-0.52,0.52C49.898,25.563,49.663,25.329,49.663,25.043 M48.804,19.39h0.057
		c0.023,0,0.045,0,0.065-0.01c0.019-0.011,0.025-0.033,0.025-0.053c0-0.019-0.009-0.036-0.025-0.048
		c-0.016-0.01-0.048-0.006-0.068-0.006h-0.054V19.39z M48.804,19.645h-0.106v-0.452h0.192c0.039,0,0.081,0,0.116,0.022
		c0.035,0.022,0.058,0.069,0.058,0.112c0,0.053-0.029,0.1-0.081,0.119l0.084,0.199h-0.119l-0.067-0.176h-0.077V19.645z
		 M48.476,19.421c0-0.219,0.177-0.397,0.395-0.397c0.222,0,0.395,0.178,0.395,0.397c0,0.215-0.173,0.394-0.395,0.394
		C48.653,19.815,48.476,19.636,48.476,19.421 M48.871,19.94c0.289,0,0.523-0.234,0.523-0.519c0-0.288-0.234-0.52-0.523-0.52
		c-0.285,0-0.517,0.232-0.517,0.52C48.354,19.706,48.586,19.94,48.871,19.94 M27.648,13.906c-0.189,1.775-0.526,3.573-0.787,5.351
		l-0.07,0.386h1.51c0.541-3.508,0.671-4.193,1.516-4.107c0.136-0.72,0.388-1.347,0.575-1.665c-0.631-0.132-0.987,0.228-1.448,0.907
		c0.037-0.296,0.103-0.58,0.09-0.872H27.648z M40.843,13.906c-0.189,1.775-0.524,3.573-0.786,5.351l-0.069,0.386h1.508
		c0.541-3.508,0.672-4.193,1.518-4.107c0.134-0.72,0.385-1.347,0.574-1.665c-0.633-0.132-0.986,0.228-1.447,0.907
		c0.037-0.296,0.103-0.58,0.089-0.872H40.843z M45.5,18.318c0.703,0,1.199-0.797,1.199-1.933c0-0.73-0.281-1.125-0.801-1.125
		c-0.685,0-1.171,0.798-1.171,1.926C44.727,17.938,44.987,18.318,45.5,18.318 M47.729,19.643h-1.43l0.072-0.534
		c-0.415,0.442-0.84,0.634-1.392,0.634c-1.097,0-1.822-0.945-1.822-2.379c0-1.911,1.124-3.519,2.456-3.519
		c0.584,0,1.03,0.238,1.442,0.782l0.334-2.039h1.489L47.729,19.643z M15.218,15.719c0,0.727,0.35,1.226,1.149,1.603
		c0.611,0.289,0.706,0.372,0.706,0.634c0,0.356-0.27,0.516-0.868,0.516c-0.449,0-0.87-0.067-1.353-0.224
		c0,0-0.198,1.264-0.208,1.325c0.345,0.074,0.65,0.144,1.572,0.17c1.593,0,2.328-0.608,2.328-1.917c0-0.791-0.307-1.25-1.064-1.598
		c-0.632-0.292-0.706-0.356-0.706-0.624c0-0.312,0.252-0.469,0.741-0.469c0.296,0,0.701,0.032,1.083,0.087l0.215-1.332
		c-0.391-0.061-0.983-0.112-1.328-0.112C15.796,13.778,15.212,14.659,15.218,15.719 M25.251,16.109
		c0.01-0.119,0.159-1.027-0.698-1.027c-0.478,0-0.821,0.368-0.959,1.027H25.251z M26.095,19.512
		c-0.516,0.157-1.014,0.231-1.54,0.231c-1.681-0.003-2.557-0.881-2.557-2.561c0-1.96,1.115-3.404,2.628-3.404
		c1.237,0,2.028,0.807,2.028,2.077c0,0.421-0.057,0.83-0.187,1.413H23.48c-0.101,0.829,0.432,1.175,1.304,1.175
		c0.538,0,1.021-0.109,1.56-0.359L26.095,19.512z M21.478,18.286c-0.101,0.036-0.234,0.054-0.406,0.054
		c-0.359,0-0.518-0.128-0.518-0.425c0.003-0.182,0.252-1.54,0.425-2.629h0.775l0.205-1.38h-0.771l0.175-0.866h-1.501
		c0,0-0.567,3.377-0.652,3.911c-0.097,0.612-0.219,1.277-0.209,1.531c0,0.817,0.42,1.261,1.192,1.261
		c0.35,0,0.672-0.058,1.086-0.186L21.478,18.286z M39.226,19.643h-1.249l0.028-0.595c-0.383,0.47-0.893,0.695-1.583,0.695
		c-0.818,0-1.38-0.64-1.38-1.566c0-1.399,0.977-2.212,2.65-2.212c0.172,0,0.392,0.016,0.617,0.045
		c0.046-0.191,0.057-0.272,0.057-0.374c0-0.379-0.261-0.522-0.966-0.522c-0.739-0.009-1.347,0.175-1.598,0.259
		c0.015-0.097,0.209-1.29,0.209-1.29c0.752-0.222,1.25-0.305,1.805-0.305c1.298,0,1.985,0.581,1.983,1.681
		c0.003,0.295-0.046,0.66-0.122,1.14C39.547,17.428,39.265,19.209,39.226,19.643 M38.129,17.086
		c-0.157-0.016-0.228-0.022-0.339-0.022c-0.855,0-1.288,0.293-1.288,0.871c0,0.358,0.212,0.585,0.542,0.585
		C37.659,18.52,38.103,17.935,38.129,17.086 M33.778,12.414c-2,0-3.4,1.762-3.4,4.284c0,1.874,1.013,3.045,2.638,3.045
		c0.417,0,0.778-0.055,1.333-0.209l0.265-1.606c-0.499,0.246-0.91,0.363-1.282,0.363c-0.878,0-1.407-0.648-1.407-1.718
		c0-1.555,0.788-2.644,1.916-2.644c0.418,0,0.81,0.109,1.349,0.382l0.247-1.531C35.215,12.694,34.437,12.414,33.778,12.414
		 M14.058,19.643h-1.251l0.029-0.595c-0.382,0.47-0.891,0.695-1.582,0.695c-0.82,0-1.378-0.64-1.378-1.566
		c0-1.399,0.974-2.212,2.649-2.212c0.171,0,0.391,0.016,0.616,0.045c0.046-0.191,0.057-0.272,0.057-0.374
		c0-0.379-0.261-0.522-0.967-0.522c-0.738-0.009-1.348,0.175-1.598,0.259c0.016-0.097,0.21-1.29,0.21-1.29
		c0.751-0.222,1.248-0.305,1.807-0.305c1.296,0,1.983,0.581,1.981,1.681c0.002,0.295-0.047,0.66-0.122,1.14
		C14.378,17.428,14.097,19.209,14.058,19.643 M12.961,17.086c-0.159-0.016-0.228-0.022-0.337-0.022
		c-0.857,0-1.288,0.293-1.288,0.871c0,0.358,0.212,0.585,0.539,0.585C12.491,18.52,12.934,17.935,12.961,17.086 M10.154,12.588H7.81
		l-1.465,4.366l-0.061-4.366H4.112l-1.179,7.055h1.413l0.908-5.39l0.127,5.39h1.03l1.93-5.422l-0.865,5.422h1.51L10.154,12.588z
		 M35.729,1.438c-3.262,0-6.273,1.068-8.705,2.872c2.206,2.053,3.838,4.719,4.617,7.724h-1.49c-0.764-2.657-2.256-5.002-4.248-6.807
		c-1.991,1.805-3.485,4.15-4.245,6.807h-1.492c0.781-3.005,2.413-5.671,4.618-7.724c-2.433-1.804-5.443-2.872-8.706-2.872
		c-8.084,0-14.637,6.553-14.637,14.639c0,8.084,6.553,14.639,14.637,14.639c3.263,0,6.273-1.068,8.706-2.871
		c-2.075-1.934-3.641-4.411-4.469-7.199h1.506c0.801,2.441,2.222,4.596,4.082,6.281c1.861-1.685,3.284-3.84,4.084-6.281h1.507
		c-0.83,2.788-2.395,5.265-4.47,7.199c2.432,1.803,5.443,2.871,8.705,2.871c8.084,0,14.637-6.555,14.637-14.639
		C50.366,7.991,43.813,1.438,35.729,1.438 M51.807,16.077c0,8.865-7.213,16.08-16.078,16.08c-3.698,0-7.107-1.258-9.826-3.361
		c-2.718,2.103-6.127,3.361-9.825,3.361C7.213,32.157,0,24.942,0,16.077C0,7.212,7.213,0,16.078,0c3.698,0,7.107,1.254,9.825,3.36
		C28.622,1.254,32.031,0,35.729,0C44.594,0,51.807,7.212,51.807,16.077"/>
</g>
</svg>
