<?xml version="1.0" encoding="utf-8"?>
<!-- Generator: Adobe Illustrator 19.1.0, SVG Export Plug-In . SVG Version: 6.00 Build 0)  -->
<svg version="1.1" id="Слой_1" xmlns="http://www.w3.org/2000/svg" xmlns:xlink="http://www.w3.org/1999/xlink" x="0px" y="0px"
	 viewBox="0 0 37.273 60.983" enable-background="new 0 0 37.273 60.983" xml:space="preserve">
<g>
	<g>
		<path fill="#FFFFFF" d="M31.146,26.368c-0.322-1.49-1.011-2.611-1.976-3.457c-0.333-0.352-0.736-0.6-1.193-0.865
			c-0.23-0.133-0.399-0.214-0.699-0.328c-0.501-0.191-1.159-0.412-1.976-0.329c0.409-0.208,1.019-0.216,1.646-0.207
			c0.521,0.056,0.952,0.2,1.398,0.329c0.374,0.203,0.744,0.41,1.112,0.618c0.902-2.697,0.557-6.387-0.452-8.766
			c-0.976-2.495-2.394-4.548-4.238-6.173c-1.814-1.657-3.993-2.949-6.873-3.539c-1.426-0.308-3.219-0.258-4.528,0.041
			C12,4.052,10.863,4.644,9.869,5.379C8.946,6.198,8.05,7.045,7.441,8.178c-0.219,0.22-0.314,0.565-0.494,0.823
			c-0.126,0.312-0.268,0.61-0.411,0.905c-0.213,0.652-0.456,1.272-0.577,2.017c-0.329,1.347-0.388,3.198-0.164,4.65
			c0.169,1.56,0.626,2.831,1.112,4.074c0.299,0.579,0.572,1.184,0.904,1.729c0.315,0.549,0.706,1.023,1.071,1.523
			c0.829,0.899,1.72,1.736,2.757,2.428c2.102,1.369,4.515,2.426,7.819,2.592c0.065-0.134-0.089-0.403-0.123-0.576
			c-0.05-0.198-0.069-0.425-0.124-0.617c-0.047-0.443-0.062-0.96,0-1.399c0.131,0.034,0.127,0.202,0.206,0.288
			c0.07,0.081,0.097,0.205,0.206,0.247c0.083,0.232,0.262,0.368,0.37,0.576c0.311,0.32,0.553,0.709,0.947,0.946
			c0.313,0.318,0.733,0.529,1.111,0.782c0.407,0.211,0.757,0.478,1.235,0.617c0.817,0.431,1.913,0.582,3.004,0.741
			c1.099,0.149,2.16,0.337,3.168,0.577c0.93,0.319,1.876,0.619,2.635,1.11c0.4,0.231,0.794,0.468,1.151,0.742
			c0.175,0.14,0.396,0.235,0.535,0.411c0.217,0.086,0.312,0.292,0.535,0.37c0.639,0.609,1.27,1.227,1.812,1.934
			c0.223,0.407,0.528,0.733,0.699,1.194c0.151,0.165,0.195,0.436,0.329,0.617c0.009,0.233,0.236,0.514,0.041,0.7
			c-0.305,0.044-0.243-0.278-0.37-0.412c-0.099-0.161-0.222-0.3-0.289-0.493c-0.482-0.506-0.913-1.062-1.44-1.523
			c-0.521-0.452-1.034-0.915-1.646-1.276c-1.15-0.813-2.482-1.441-4.033-1.852c-1.528-0.442-3.241-0.62-5.226-0.494
			c-0.872,0.115-1.704,0.272-2.429,0.534c-0.78,0.195-1.648,0.301-2.51,0.412c-3.368,0.208-7.119-0.596-9.63-1.81
			c-1.34-0.62-2.573-1.35-3.621-2.263c-0.573-0.414-1.041-0.935-1.523-1.441c-0.44-0.533-0.904-1.045-1.235-1.687
			c-0.44-0.548-0.7-1.276-1.07-1.893c-0.24-0.733-0.581-1.366-0.74-2.181c-0.252-0.736-0.406-1.569-0.494-2.469
			c-0.014-0.248-0.125-0.725-0.124-1.112c0-0.034,0.045-0.065,0.042-0.123c-0.019-0.351-0.102-0.892,0-1.193
			c-0.019-0.816,0.128-1.819,0.288-2.593c0.148-0.826,0.367-1.581,0.618-2.305c0.244-0.742,0.569-1.406,0.863-2.099
			C2.824,9.61,2.974,9.267,3.161,8.96c0.157-0.323,0.393-0.567,0.536-0.906c0.158-0.088,0.186-0.306,0.328-0.411
			C4.089,7.46,4.26,7.383,4.313,7.19c0.135-0.112,0.242-0.252,0.33-0.412c0.125-0.121,0.256-0.237,0.329-0.411
			c0.49-0.484,0.929-1.019,1.44-1.481C6.921,4.407,7.491,3.99,8.018,3.528c0.334-0.16,0.575-0.413,0.905-0.577
			c0.25-0.229,0.615-0.345,0.864-0.576c0.686-0.301,1.271-0.704,2.017-0.947c0.642-0.331,1.413-0.535,2.14-0.781
			c1.58-0.406,3.174-0.684,5.143-0.618c0.071,0.009,0.107-0.07,0.124,0c3.729,0.113,6.447,1.236,8.766,2.758
			c2.297,1.53,4.076,3.578,5.35,6.132c1.246,2.529,1.947,5.967,1.358,9.589c-0.295,1.626-0.771,3.07-1.358,4.403
			c-0.337,0.624-0.637,1.284-1.029,1.852c-0.172,0.307-0.357,0.603-0.576,0.864c-0.074,0.159-0.179,0.287-0.288,0.412
			c-0.048,0.075-0.108,0.139-0.165,0.206c-0.018,0.036-0.036,0.073-0.082,0.082C31.199,26.4,31.149,26.411,31.146,26.368"/>
		<path fill="#FFFFFF" d="M30.158,27.438c-0.483-0.19-0.564-0.781-0.783-1.235c-0.039-0.166-0.073-0.417,0-0.576
			c0.033-0.008,0.041-0.041,0.083-0.041c0.121-0.078,0.237,0.021,0.411,0.082c0.236,0.271,0.387,0.629,0.494,1.029
			C30.372,27.021,30.396,27.361,30.158,27.438"/>
		<path fill="#FFFFFF" d="M26.536,26.739c0.008-0.047,0.042-0.023,0.042,0c0.729,0.093,1.064,0.581,1.11,1.358
			c-0.065,0.429-0.305,0.683-0.7,0.782c-0.982,0.017-1.541-0.888-1.193-1.811C25.991,26.908,26.13,26.69,26.536,26.739"/>
		<path fill="#FFFFFF" d="M4.807,43.776c-0.359,0.025-0.574,0.194-0.864,0.288c-0.192,0.178-0.431,0.31-0.577,0.535
			c-0.237,0.133-0.302,0.438-0.493,0.617c-0.161,0.4-0.315,0.843-0.412,1.358c-0.096,0.508-0.16,1.084-0.164,1.647
			c-0.011,1.417,0.292,2.825,0.863,3.663c0.331,0.407,0.737,0.743,1.235,0.986c0.287,0.029,0.513,0.118,0.823,0.124
			c0.172-0.062,0.465-0.003,0.576-0.124c0.253,0.019,0.315-0.151,0.535-0.164c0.116-0.118,0.249-0.218,0.412-0.288
			c0.148-0.167,0.292-0.338,0.453-0.494c0.083-0.122,0.127-0.284,0.246-0.371c0.716-1.369,0.798-3.881,0.33-5.473
			c-0.172-0.584-0.425-1.054-0.7-1.44C6.767,44.325,6.409,44.065,6,43.857c-0.329-0.068-0.638-0.157-1.07-0.122
			c-0.025,0.002-0.048,0.006-0.042,0.041H4.807z M6.782,54.146c0.117,0.501,0.373,0.863,0.658,1.194
			c0.285,0.333,0.622,0.613,1.03,0.824c0.379,0.237,0.794,0.438,1.274,0.575c0.233,0.083,0.458,0.175,0.741,0.205
			c0.196,0.107,0.441,0.166,0.454,0.454c-0.011,0.345-0.243,0.471-0.535,0.535c-0.295-0.062-0.661-0.053-0.906-0.165
			c-0.625-0.074-1.125-0.274-1.646-0.453c-1.005-0.394-1.845-0.953-2.552-1.647c-0.144-0.239-0.34-0.427-0.493-0.658
			c-0.153-0.231-0.255-0.513-0.412-0.74c-1.223-0.162-2.059-0.712-2.798-1.358c-0.68-0.774-1.215-1.694-1.441-2.922
			c-0.26-1.181-0.18-2.649,0.123-3.787c0.674-2.206,2.095-3.668,4.775-3.868c0.739,0.023,1.383,0.114,1.975,0.33
			c0.594,0.215,1.16,0.612,1.606,1.028c0.036,0.034,0.052,0.038,0.081,0.083c0.093,0.14,0.325,0.324,0.453,0.493
			c0.025,0.033,0.014,0.087,0.041,0.124c0.05,0.067,0.123,0.1,0.164,0.165c0.028,0.041,0.018,0.085,0.042,0.123
			c0.031,0.051,0.075,0.122,0.124,0.205c0.018,0.033,0.069,0.059,0.081,0.083c0.071,0.135,0.101,0.301,0.165,0.453
			c0.066,0.156,0.155,0.298,0.206,0.453c0.157,0.472,0.261,1.023,0.329,1.604c0.16,1.657-0.168,3.137-0.781,4.239
			c-0.29,0.575-0.687,1.043-1.153,1.44C7.953,53.589,7.358,53.859,6.782,54.146"/>
		<path fill="#FFFFFF" d="M13.491,42.623c0.646,0.026,1.397-0.053,1.975,0.042c0.129,0.203,0.079,0.435,0.083,0.658
			c0.045,3.02,0,6.255,0,9.341c0,0.249,0.005,0.499,0,0.742c-0.006,0.205,0.045,0.427-0.083,0.618
			c-0.289,0.071-0.698,0.04-1.07,0.04c-0.388,0-0.772,0.053-1.029-0.083c-0.069-3.649-0.069-7.586,0-11.235
			C13.39,42.687,13.432,42.645,13.491,42.623"/>
		<path fill="#FFFFFF" d="M18.429,42.623h1.934c0.174,0.238,0.228,0.595,0.288,0.947c0.581,2.217,1.159,4.439,1.687,6.708
			c0.125,0.015,0.087-0.135,0.125-0.206c0.056-0.053,0.025-0.195,0.082-0.247c0.022-0.183,0.133-0.278,0.123-0.493
			c0.148-0.278,0.191-0.661,0.328-0.947c0.171-0.668,0.387-1.288,0.577-1.934c0.181-0.67,0.429-1.274,0.577-1.976
			c0.272-0.564,0.337-1.335,0.659-1.852h0.822c0.296,0.554,0.402,1.3,0.659,1.893c0.164,0.671,0.4,1.274,0.575,1.935
			c0.408,1.28,0.825,2.549,1.194,3.868c0.164-0.247,0.165-0.658,0.288-0.947c0.072-0.327,0.135-0.662,0.246-0.946
			c0.319-1.301,0.618-2.62,0.989-3.868c0.14-0.656,0.274-1.318,0.493-1.893c0.476-0.068,1.213-0.068,1.688,0
			c0.041,0.483-0.187,1.007-0.329,1.44c-0.075,0.528-0.272,0.934-0.37,1.44c-0.294,0.928-0.521,1.921-0.824,2.84
			c-0.232,0.987-0.543,1.898-0.782,2.881c-0.158,0.458-0.274,0.959-0.411,1.44c-0.16,0.444-0.215,0.993-0.454,1.358h-1.151
			c-0.293-0.516-0.398-1.22-0.658-1.769c-0.574-1.816-1.214-3.561-1.77-5.392c-0.195,0.203-0.19,0.605-0.329,0.865
			c-0.087,0.31-0.175,0.621-0.288,0.904c-0.156,0.628-0.398,1.167-0.535,1.811c-0.228,0.567-0.4,1.192-0.576,1.812
			c-0.243,0.539-0.329,1.234-0.618,1.729c-0.305,0.091-0.779,0.015-1.151,0.04c-0.291-0.328-0.318-0.918-0.496-1.358
			c-0.138-0.463-0.234-0.972-0.41-1.399c-0.22-1.002-0.556-1.888-0.783-2.881c-0.299-0.921-0.552-1.889-0.822-2.84
			c-0.148-0.455-0.264-0.943-0.412-1.399c-0.067-0.496-0.403-0.94-0.288-1.481C18.337,42.667,18.38,42.644,18.429,42.623"/>
		<path fill="#FFFFFF" d="M34.685,42.623c0.645,0.026,1.397-0.053,1.975,0.042c0.142,0.433,0.083,0.892,0.083,1.357v8.642
			c0,0.468,0.059,0.925-0.083,1.36c-0.445,0.05-1.099,0.067-1.647,0.04c-0.156-0.007-0.347,0.038-0.452-0.083
			c-0.142-0.427-0.082-0.888-0.082-1.357v-8.56c0-0.519-0.048-1.017,0.082-1.358C34.592,42.667,34.637,42.644,34.685,42.623"/>
		<path fill="#FFFFFF" d="M23.326,60.154c0.21-0.844-0.544-1.251-1.358-1.069c-0.097,0.411-0.014,1.002-0.041,1.481
			C22.533,60.613,23.089,60.574,23.326,60.154 M23.12,58.22c0.105-0.786-0.535-0.92-1.193-0.822v1.317
			C22.537,58.764,22.943,58.605,23.12,58.22 M23.12,58.797c0.253,0.13,0.521,0.247,0.7,0.453c0.149,0.233,0.223,0.674,0.124,1.029
			c-0.366,0.759-1.638,0.821-2.593,0.575V57.11c0.281-0.144,0.728-0.122,1.151-0.124c0.278,0.037,0.55,0.081,0.783,0.164
			c0.305,0.191,0.565,0.593,0.412,1.111C23.549,58.485,23.415,58.721,23.12,58.797"/>
		<path fill="#FFFFFF" d="M13.861,57.027c0.09,0.446,0.017,1.052,0.041,1.564c0.025,0.076,0.173-0.072,0.164-0.165
			c0.072-0.052,0.163-0.085,0.165-0.206c0.14-0.107,0.253-0.24,0.33-0.411c0.277-0.216,0.415-0.572,0.699-0.782
			c0.152,0.014,0.364-0.035,0.453,0.042c-0.141,0.352-0.415,0.573-0.617,0.864c-0.191,0.289-0.451,0.511-0.617,0.823
			c0.213,0.389,0.518,0.688,0.74,1.07c0.262,0.342,0.561,0.646,0.741,1.069c-0.148,0.087-0.446,0.023-0.658,0.041
			c-0.251-0.298-0.456-0.641-0.7-0.945c-0.204-0.346-0.484-0.615-0.659-0.988c-0.096,0.549-0.013,1.276-0.041,1.892
			c-0.123,0.083-0.389,0.024-0.575,0.041c-0.072-1.189-0.066-2.852,0-3.909H13.861z"/>
		<path fill="#FFFFFF" d="M19.458,58.139C19.518,58.114,19.454,58.088,19.458,58.139c-0.714,0.905-1.349,1.889-2.059,2.798h-0.493
			c-0.068-1.208-0.068-2.702,0-3.91h0.453v2.964c0.036,0.11,0.1-0.087,0.124-0.124c0.057-0.067,0.116-0.13,0.164-0.206
			c0.086-0.147,0.203-0.263,0.288-0.411c0.195-0.272,0.412-0.521,0.576-0.824c0.244-0.222,0.368-0.565,0.618-0.782
			c0.057-0.175,0.172-0.294,0.288-0.41c0.011-0.238,0.28-0.215,0.534-0.207c-0.026,1.291,0.056,2.689-0.041,3.91h-0.411
			C19.405,60.085,19.484,59.06,19.458,58.139"/>
		<path fill="#FFFFFF" d="M25.63,57.068v2.716c0.038,0.112,0.1-0.087,0.124-0.123c0.085-0.012,0.083-0.111,0.124-0.165
			c0.113-0.092,0.153-0.259,0.287-0.329c0.125-0.288,0.341-0.482,0.495-0.742c0.356-0.453,0.673-0.943,1.029-1.399h0.494
			c0.068,1.208,0.068,2.703,0,3.91h-0.412c-0.096-0.906-0.015-1.988-0.043-2.963c-0.035-0.078-0.023,0.045-0.081,0.041
			c-0.019,0.037-0.036,0.074-0.083,0.083c-0.004,0.104-0.074,0.144-0.123,0.205c-0.091,0.142-0.185,0.281-0.288,0.412
			c-0.183,0.284-0.407,0.525-0.575,0.823c-0.198,0.268-0.424,0.51-0.577,0.823c-0.286,0.181-0.251,0.682-0.823,0.576
			c-0.068-1.207-0.068-2.702,0-3.91C25.328,57.041,25.542,56.991,25.63,57.068"/>
	</g>
</g>
</svg>
