<?xml version="1.0" encoding="utf-8"?>
<!-- Generator: Adobe Illustrator 19.1.0, SVG Export Plug-In . SVG Version: 6.00 Build 0)  -->
<svg version="1.1" id="Слой_1" xmlns="http://www.w3.org/2000/svg" xmlns:xlink="http://www.w3.org/1999/xlink" x="0px" y="0px"
	 viewBox="0 0 67.201 20.827" enable-background="new 0 0 67.201 20.827" xml:space="preserve">
<g>
	<path fill="#FFFFFF" d="M18.303,0.369l-5.099,13.755l-0.546-2.795c-1.093-2.933-3.777-5.627-6.795-6.866l4.243,16.048l5.514-0.004
		l8.204-20.138H18.303z"/>
	<polygon fill="#FFFFFF" points="22.673,20.528 25.932,0.352 31.141,0.352 27.883,20.528 	"/>
	<path fill="#FFFFFF" d="M46.78,0.847C45.75,0.442,44.129,0,42.111,0c-5.15,0-8.776,2.738-8.807,6.659
		c-0.031,2.9,2.589,4.518,4.564,5.482c2.03,0.988,2.712,1.62,2.704,2.503c-0.014,1.352-1.621,1.971-3.119,1.971
		c-2.085,0-3.193-0.305-4.907-1.058l-0.67-0.321l-0.729,4.516c1.215,0.562,3.466,1.049,5.805,1.075c5.474,0,9.031-2.705,9.073-6.892
		c0.017-2.3-1.37-4.042-4.377-5.481c-1.82-0.937-2.938-1.556-2.925-2.503c0.001-0.838,0.944-1.736,2.985-1.736
		c1.704-0.028,2.936,0.365,3.899,0.775l0.468,0.23L46.78,0.847z"/>
	<path fill="#FFFFFF" d="M53.717,13.374c0.432-1.16,2.076-5.639,2.076-5.639c-0.031,0.053,0.428-1.169,0.691-1.925l0.352,1.74
		c0,0,0.999,4.815,1.206,5.824H53.717z M60.144,0.372h-4.025c-1.249,0-2.185,0.357-2.731,1.672L45.65,20.535h5.473
		c0,0,0.893-2.488,1.095-3.033c0.597,0,5.912,0.01,6.672,0.01c0.155,0.703,0.635,3.023,0.635,3.023h4.835L60.144,0.372z"/>
	<path fill="#FFFFFF" d="M8.47,0.355h-8.4L0,0.773c5.78,1.455,10.512,4.602,12.658,10.555l-1.826-9.271
		C10.517,0.778,9.603,0.4,8.47,0.355"/>
	<path fill="#FFFFFF" d="M65.843,19.209h0.247c0.174,0,0.21-0.102,0.21-0.184c0-0.14-0.092-0.173-0.234-0.173h-0.223V19.209z
		 M65.63,18.695h0.508c0.119,0,0.379,0.031,0.379,0.33c0,0.08-0.024,0.191-0.193,0.264v0.006c0.146,0.025,0.154,0.164,0.163,0.276
		c0.011,0.178,0,0.21,0.046,0.273h-0.221c-0.042-0.043-0.032-0.075-0.042-0.262c0-0.106-0.013-0.215-0.252-0.215h-0.175v0.477H65.63
		V18.695z M66.05,20.254c0.523,0,0.933-0.433,0.933-0.975c0-0.543-0.41-0.976-0.933-0.976c-0.523,0-0.933,0.433-0.933,0.976
		C65.117,19.821,65.527,20.254,66.05,20.254 M66.05,18.128c0.644,0,1.151,0.516,1.151,1.151c0,0.634-0.507,1.15-1.151,1.15
		c-0.644,0-1.15-0.516-1.15-1.15C64.9,18.644,65.406,18.128,66.05,18.128"/>
</g>
</svg>
