<?xml version="1.0" encoding="utf-8"?>
<!-- Generator: Adobe Illustrator 19.1.0, SVG Export Plug-In . SVG Version: 6.00 Build 0)  -->
<svg version="1.1" id="Слой_1" xmlns="http://www.w3.org/2000/svg" xmlns:xlink="http://www.w3.org/1999/xlink" x="0px" y="0px"
	 viewBox="0 0 117.866 29.472" enable-background="new 0 0 117.866 29.472" xml:space="preserve">
<g>
	<path fill="#FFFFFF" d="M103.019,0c2.314,0,4.505,0.539,6.457,1.495c0.306,0.146,0.612,0.306,0.918,0.482l-1.356,1.215L107,1.084
		l-3.44,3.068l-2.043-2.229l-6.408,5.775l4.108,4.528l-1.614,1.419l4.046,4.535l-1.605,1.416l5.782,6.436l3.432-3.16l2.967,3.386
		c-0.59,0.459-1.233,0.891-1.941,1.29c-2.146,1.224-4.626,1.924-7.265,1.924c-8.116,0-14.736-6.62-14.736-14.736
		C88.283,6.619,94.903,0,103.019,0"/>
	
		<rect x="101.306" y="11.621" transform="matrix(-0.743 0.6692 -0.6692 -0.743 190.0456 -45.0098)" fill="#FFFFFF" width="4.716" height="4.716"/>
	
		<rect x="103.798" y="17.677" transform="matrix(-0.7431 0.6691 -0.6691 -0.7431 198.4502 -36.1088)" fill="#FFFFFF" width="4.715" height="4.716"/>
	
		<rect x="98.798" y="5.638" transform="matrix(-0.7431 0.6691 -0.6691 -0.7431 181.6794 -53.7493)" fill="#FFFFFF" width="4.715" height="4.715"/>
	
		<rect x="104.985" y="4.486" transform="matrix(-0.7432 0.6691 -0.6691 -0.7432 190.275 -60.5262)" fill="#FFFFFF" width="3.536" height="3.536"/>
	
		<rect x="109.655" y="15.324" transform="matrix(-0.7432 0.6691 -0.6691 -0.7432 205.6664 -44.7593)" fill="#FFFFFF" width="3.538" height="3.537"/>
	
		<rect x="111.967" y="20.632" transform="matrix(-0.7429 0.6694 -0.6694 -0.7429 213.2249 -37.0912)" fill="#FFFFFF" width="3.536" height="3.537"/>
	
		<rect x="112.782" y="9.012" transform="matrix(-0.7433 0.669 -0.669 -0.7433 205.4805 -58.4766)" fill="#FFFFFF" width="2.357" height="2.357"/>
	
		<rect x="110.544" y="3.806" transform="matrix(-0.7433 0.669 -0.669 -0.7433 198.0963 -66.0541)" fill="#FFFFFF" width="2.357" height="2.358"/>
	
		<rect x="115.023" y="14.218" transform="matrix(-0.7433 0.669 -0.669 -0.7433 212.8682 -50.9006)" fill="#FFFFFF" width="2.357" height="2.357"/>
	
		<rect x="107.408" y="9.77" transform="matrix(-0.743 0.6692 -0.6692 -0.743 198.0204 -52.9534)" fill="#FFFFFF" width="3.537" height="3.536"/>
	<polygon fill="#FFFFFF" points="6.877,12.196 6.759,12.196 4.54,20.586 2.724,20.586 0,8.665 1.883,8.665 3.766,17.56 3.884,17.56 
		6.07,8.665 7.566,8.665 9.904,17.56 10.021,17.56 11.736,8.665 13.703,8.665 10.979,20.586 9.163,20.586 	"/>
	<g>
		<path fill="#FFFFFF" d="M15.958,15.575h3.85c-0.084-1.765-0.941-2.471-1.849-2.471C16.934,13.104,16.144,13.894,15.958,15.575
			 M21.154,18.736v1.278c-0.756,0.437-1.765,0.774-2.976,0.774c-2.824,0-3.985-1.749-3.985-4.406c0-2.555,1.295-4.405,3.817-4.405
			c2.102,0,3.396,1.363,3.396,4.103v0.622h-5.481c0,2.017,0.824,2.908,2.556,2.908C19.388,19.61,20.229,19.291,21.154,18.736"/>
		<path fill="#FFFFFF" d="M24.667,19.342c0.538,0.235,1.127,0.269,1.547,0.269c1.245,0,2.186-0.774,2.186-3.497
			c0-2.135-0.774-2.825-1.9-2.825c-0.673,0-1.16,0.185-1.833,0.555V19.342z M24.684,12.6c0.504-0.269,1.362-0.622,2.27-0.622
			c2.084,0,3.211,1.446,3.211,4.136c0,3.144-1.513,4.674-3.951,4.674c-0.891,0-2.27-0.286-3.279-0.824V8.228l1.749-0.42V12.6z"/>
	</g>
	<polygon fill="#FFFFFF" points="37.815,18.064 37.899,18.064 41.497,8.665 43.582,8.665 43.582,20.586 41.767,20.586 
		41.767,11.944 41.615,11.944 38.185,20.586 37.109,20.586 33.679,12.146 33.528,12.146 33.528,20.586 32.015,20.586 32.015,8.665 
		34.049,8.665 	"/>
	<g>
		<path fill="#FFFFFF" d="M51.332,16.383c0-2.269-0.925-3.228-2.068-3.228c-1.109,0-2.068,0.959-2.068,3.228
			c0,2.304,0.875,3.228,2.068,3.228C50.458,19.611,51.332,18.687,51.332,16.383 M45.431,16.383c0-2.942,1.614-4.405,3.833-4.405
			c2.22,0,3.834,1.463,3.834,4.405c0,2.875-1.53,4.406-3.834,4.406C46.961,20.789,45.431,19.258,45.431,16.383"/>
		<path fill="#FFFFFF" d="M54.695,13.222c0.757-0.454,2.354-1.244,4.287-1.244c2.018,0,2.774,0.79,2.774,2.522v6.086h-1.748v-5.699
			c0-1.328-0.655-1.564-1.513-1.564c-0.673,0-1.53,0.303-2.051,0.605v6.658h-1.749V13.222z"/>
		<path fill="#FFFFFF" d="M65.086,15.575h3.849c-0.083-1.765-0.941-2.471-1.849-2.471C66.06,13.104,65.271,13.894,65.086,15.575
			 M70.28,18.736v1.278c-0.756,0.437-1.765,0.774-2.976,0.774c-2.824,0-3.984-1.749-3.984-4.406c0-2.555,1.295-4.405,3.817-4.405
			c2.102,0,3.397,1.363,3.397,4.103v0.622h-5.482c0,2.017,0.824,2.908,2.556,2.908C68.515,19.61,69.356,19.291,70.28,18.736"/>
		<path fill="#FFFFFF" d="M77.074,12.263h1.799L75.83,20.67c-0.841,2.32-1.867,3.53-3.8,3.53v-1.378
			c1.143,0,1.849-0.908,2.253-2.152l-3.228-8.407h1.85l2.151,6.187h0.101L77.074,12.263z"/>
	</g>
</g>
</svg>
