<?xml version="1.0" encoding="utf-8"?>
<!-- Generator: Adobe Illustrator 19.1.0, SVG Export Plug-In . SVG Version: 6.00 Build 0)  -->
<svg version="1.1" id="Слой_1" xmlns="http://www.w3.org/2000/svg" xmlns:xlink="http://www.w3.org/1999/xlink" x="0px" y="0px"
	 viewBox="0 0 131.688 61.343" enable-background="new 0 0 131.688 61.343" xml:space="preserve">
<g>
	<defs>
		<rect id="SVGID_1_" width="131.688" height="61.342"/>
	</defs>
	<clipPath id="SVGID_2_">
		<use xlink:href="#SVGID_1_"  overflow="visible"/>
	</clipPath>
	<path clip-path="url(#SVGID_2_)" fill="#0C0E0F" d="M21.246,41.112c0-3.383-0.603-6.004-1.807-7.865
		c-1.205-1.86-3.352-2.79-6.437-2.79c-0.508,0-1.079,0.011-1.713,0.032c-0.634,0.021-1.29,0.042-1.966,0.063
		c-0.677,0.022-1.343,0.063-1.998,0.127c-0.656,0.063-1.237,0.138-1.744,0.221V56.08c1.099,0.085,2.335,0.169,3.711,0.253
		c1.373,0.086,2.609,0.127,3.71,0.127c3.127,0,5.284-0.929,6.468-2.79c1.183-1.861,1.776-4.524,1.776-7.991V41.112z M26.827,45.678
		c0,2.368-0.276,4.525-0.824,6.469c-0.55,1.945-1.396,3.594-2.537,4.947c-1.142,1.353-2.58,2.399-4.313,3.139
		c-1.734,0.739-3.785,1.11-6.151,1.11c-1.903,0-3.827-0.086-5.772-0.254c-1.945-0.169-3.911-0.444-5.898-0.824
		c-0.593-0.085-0.962-0.233-1.11-0.445C0.073,59.61,0,59.271,0,58.807V14.714c0-0.338,0.105-0.623,0.317-0.856
		c0.211-0.233,0.486-0.349,0.825-0.349h3.234c0.338,0,0.623,0.116,0.856,0.349c0.232,0.233,0.349,0.518,0.349,0.856v11.494
		c1.226-0.212,2.515-0.37,3.868-0.476c1.354-0.105,2.538-0.158,3.553-0.158c4.607,0,8.064,1.342,10.369,4.026
		c2.303,2.686,3.456,6.523,3.456,11.512V45.678z"/>
	<path clip-path="url(#SVGID_2_)" fill="#0C0E0F" d="M36.452,59.631c0,0.339-0.127,0.635-0.381,0.888
		c-0.253,0.253-0.992,0.38-1.33,0.38h-2.299c-0.339,0-0.937-0.127-1.19-0.38c-0.254-0.253-0.381-0.549-0.381-0.888V27.286
		c0-0.337,0.127-0.634,0.381-0.887c0.253-0.254,0.548-0.381,0.888-0.381h3.043c0.338,0,0.635,0.127,0.888,0.381
		c0.254,0.253,0.381,0.55,0.381,0.887V59.631z M36.579,19.851c0,0.339-0.127,0.634-0.381,0.888s-0.55,0.381-0.888,0.381h-3.234
		c-0.339,0-0.635-0.127-0.888-0.381c-0.254-0.254-0.381-0.549-0.381-0.888v-5.074c0-0.337,0.127-0.634,0.381-0.888
		c0.253-0.253,0.549-0.38,0.888-0.38h3.234c0.338,0,0.634,0.127,0.888,0.38c0.254,0.254,0.381,0.551,0.381,0.888V19.851z"/>
	<path clip-path="url(#SVGID_2_)" fill="#0C0E0F" d="M67.729,60.519c-0.254,0.253-0.551,0.38-0.888,0.38h-3.044
		c-0.339,0-0.634-0.126-0.888-0.38c-0.253-0.252-0.381-0.547-0.381-0.886V38.812c0-1.604-0.137-2.942-0.412-4.018
		c-0.276-1.077-0.698-1.931-1.268-2.564c-0.571-0.632-1.3-1.086-2.188-1.361c-0.888-0.273-1.925-0.411-3.108-0.411
		c-1.354,0-2.749,0.233-4.186,0.697c-1.437,0.463-2.896,1.054-4.376,1.772v26.707c0,0.339-0.127,0.634-0.381,0.886
		c-0.253,0.254-0.549,0.38-0.888,0.38h-3.107c-0.339,0-0.624-0.127-0.856-0.38c-0.233-0.254-0.349-0.55-0.349-0.888V27.286
		c0-0.338,0.116-0.635,0.349-0.888c0.232-0.254,0.517-0.38,0.856-0.38h3.171c0.338,0,0.623,0.128,0.856,0.386
		c0.232,0.258,0.349,0.559,0.349,0.902v1.224c1.776-0.986,3.425-1.725,4.947-2.217c1.522-0.493,3.235-0.739,5.137-0.739
		c3.847,0,6.648,1.141,8.404,3.424c1.753,2.283,2.631,5.54,2.631,9.767v20.866C68.109,59.969,67.982,60.265,67.729,60.519"/>
	<path clip-path="url(#SVGID_2_)" fill="#0C0E0F" d="M94.587,40.415c0-3.594-0.688-6.153-2.061-7.675
		c-1.375-1.522-3.457-2.283-6.247-2.283c-2.749,0-4.852,0.804-6.311,2.41c-1.458,1.608-2.188,4.122-2.188,7.548v0.57h16.807V40.415z
		 M100.168,43.839c0,0.931-0.401,1.395-1.202,1.395H77.78v0.888c0,3.764,0.74,6.427,2.22,7.991c1.48,1.565,3.678,2.347,6.596,2.347
		c1.86,0,3.837-0.064,5.93-0.191c2.092-0.127,3.878-0.295,5.359-0.507h0.317c0.253,0,0.486,0.063,0.698,0.19
		c0.21,0.128,0.316,0.36,0.316,0.698v2.156c0,0.423-0.085,0.751-0.253,0.983c-0.169,0.233-0.508,0.392-1.015,0.476
		c-1.818,0.339-3.625,0.602-5.422,0.793c-1.797,0.19-3.774,0.285-5.93,0.285c-1.818,0-3.594-0.243-5.328-0.73
		c-1.733-0.485-3.265-1.31-4.597-2.472c-1.333-1.163-2.41-2.717-3.235-4.662c-0.824-1.944-1.236-4.397-1.236-7.357v-5.707
		c0-4.567,1.202-8.182,3.605-10.846c2.405-2.663,5.886-3.995,10.442-3.995c2.32,0,4.344,0.348,6.075,1.046
		c1.729,0.698,3.173,1.692,4.334,2.981c1.159,1.29,2.036,2.854,2.626,4.693c0.591,1.839,0.886,3.88,0.886,6.121V43.839z"/>
	<path clip-path="url(#SVGID_2_)" fill="#0C0E0F" d="M131.688,60.201c0,0.465-0.275,0.698-0.825,0.698h-4.376
		c-0.38,0-0.676-0.169-0.888-0.508l-9.068-13.254l-9.069,13.128c-0.213,0.296-0.371,0.475-0.476,0.539
		c-0.106,0.063-0.307,0.095-0.603,0.095h-3.804c-0.508,0-0.762-0.212-0.762-0.634c0-0.296,0.105-0.571,0.317-0.825l11.416-16.299
		l-10.782-15.538c-0.212-0.339-0.317-0.612-0.317-0.825c0-0.507,0.317-0.761,0.951-0.761h4.123c0.254,0,0.475,0.064,0.666,0.191
		c0.19,0.127,0.39,0.359,0.602,0.698l8.054,11.922l8.118-11.922c0.296-0.423,0.518-0.677,0.666-0.762
		c0.148-0.084,0.37-0.127,0.667-0.127h3.678c0.549,0,0.824,0.254,0.824,0.761c0,0.213-0.105,0.486-0.317,0.825L119.828,42.76
		l11.607,16.68C131.603,59.652,131.688,59.906,131.688,60.201"/>
</g>
<g>
	<defs>
		<path id="SVGID_3_" d="M102.768,19.535c-0.212,0.338-0.316,0.612-0.316,0.824c0,0.507,0.316,0.761,0.951,0.761h4.122
			c0.254,0,0.475-0.063,0.666-0.19c0.19-0.128,0.39-0.36,0.603-0.697l8.053-11.925l8.118,11.925c0.296,0.422,0.518,0.674,0.667,0.76
			c0.147,0.085,0.369,0.127,0.666,0.127h3.678c0.548,0,0.823-0.254,0.823-0.761c0-0.212-0.104-0.486-0.316-0.824L116.53,0.001
			L102.768,19.535z"/>
	</defs>
	<clipPath id="SVGID_4_">
		<use xlink:href="#SVGID_3_"  overflow="visible"/>
	</clipPath>
	
		<linearGradient id="SVGID_5_" gradientUnits="userSpaceOnUse" x1="-610.1727" y1="2890.6514" x2="-609.1727" y2="2890.6514" gradientTransform="matrix(-22.3493 17.6442 17.7647 22.502 -64867.1523 -54272.5391)">
		<stop  offset="0" style="stop-color:#487755"/>
		<stop  offset="0.1407" style="stop-color:#467052"/>
		<stop  offset="0.3979" style="stop-color:#3E5D48"/>
		<stop  offset="0.74" style="stop-color:#2C4034"/>
		<stop  offset="1" style="stop-color:#1E2B23"/>
	</linearGradient>
	<polygon clip-path="url(#SVGID_4_)" fill="url(#SVGID_5_)" points="141.07,13.011 113.336,34.906 92.181,8.11 119.915,-13.785 	"/>
</g>
</svg>
