<svg xmlns="http://www.w3.org/2000/svg" xmlns:xlink="http://www.w3.org/1999/xlink" viewBox="0 0 131.688 61.343"><defs><path id="a" d="M0 0h131.688v61.342H0z"/></defs><clipPath id="b"><use xlink:href="#a" overflow="visible"/></clipPath><path clip-path="url(#b)" fill="#0C0E0F" d="M21.246 41.112c0-3.383-.603-6.004-1.807-7.865-1.205-1.86-3.352-2.79-6.437-2.79-.508 0-1.079.011-1.713.032l-1.966.063c-.677.022-1.343.063-1.998.127a26.61 26.61 0 0 0-1.744.221v25.18c1.099.085 2.335.169 3.711.253 1.373.086 2.609.127 3.71.127 3.127 0 5.284-.929 6.468-2.79 1.183-1.861 1.776-4.524 1.776-7.991v-4.567zm5.581 4.566c0 2.368-.276 4.525-.824 6.469-.55 1.945-1.396 3.594-2.537 4.947-1.142 1.353-2.58 2.399-4.313 3.139-1.734.739-3.785 1.11-6.151 1.11-1.903 0-3.827-.086-5.772-.254a58.223 58.223 0 0 1-5.898-.824c-.593-.085-.962-.233-1.11-.445C.073 59.61 0 59.271 0 58.807V14.714c0-.338.105-.623.317-.856.211-.233.486-.349.825-.349h3.234c.338 0 .623.116.856.349.232.233.349.518.349.856v11.494a41.94 41.94 0 0 1 3.868-.476 46.704 46.704 0 0 1 3.553-.158c4.607 0 8.064 1.342 10.369 4.026 2.303 2.686 3.456 6.523 3.456 11.512v4.566zM36.452 59.631c0 .339-.127.635-.381.888-.253.253-.992.38-1.33.38h-2.299c-.339 0-.937-.127-1.19-.38a1.214 1.214 0 0 1-.381-.888V27.286c0-.337.127-.634.381-.887.253-.254.548-.381.888-.381h3.043c.338 0 .635.127.888.381.254.253.381.55.381.887v32.345zm.127-39.78c0 .339-.127.634-.381.888s-.55.381-.888.381h-3.234c-.339 0-.635-.127-.888-.381a1.216 1.216 0 0 1-.381-.888v-5.074c0-.337.127-.634.381-.888.253-.253.549-.38.888-.38h3.234c.338 0 .634.127.888.38.254.254.381.551.381.888v5.074zM67.729 60.519c-.254.253-.551.38-.888.38h-3.044c-.339 0-.634-.126-.888-.38a1.212 1.212 0 0 1-.381-.886V38.812c0-1.604-.137-2.942-.412-4.018-.276-1.077-.698-1.931-1.268-2.564-.571-.632-1.3-1.086-2.188-1.361-.888-.273-1.925-.411-3.108-.411-1.354 0-2.749.233-4.186.697a33.764 33.764 0 0 0-4.376 1.772v26.707c0 .339-.127.634-.381.886-.253.254-.549.38-.888.38h-3.107c-.339 0-.624-.127-.856-.38a1.272 1.272 0 0 1-.349-.888V27.286c0-.338.116-.635.349-.888.232-.254.517-.38.856-.38h3.171c.338 0 .623.128.856.386.232.258.349.559.349.902v1.224c1.776-.986 3.425-1.725 4.947-2.217 1.522-.493 3.235-.739 5.137-.739 3.847 0 6.648 1.141 8.404 3.424 1.753 2.283 2.631 5.54 2.631 9.767v20.866c0 .338-.127.634-.38.888M94.587 40.415c0-3.594-.688-6.153-2.061-7.675-1.375-1.522-3.457-2.283-6.247-2.283-2.749 0-4.852.804-6.311 2.41-1.458 1.608-2.188 4.122-2.188 7.548v.57h16.807v-.57zm5.581 3.424c0 .931-.401 1.395-1.202 1.395H77.78v.888c0 3.764.74 6.427 2.22 7.991 1.48 1.565 3.678 2.347 6.596 2.347 1.86 0 3.837-.064 5.93-.191 2.092-.127 3.878-.295 5.359-.507h.317c.253 0 .486.063.698.19.21.128.316.36.316.698v2.156c0 .423-.085.751-.253.983-.169.233-.508.392-1.015.476a69.82 69.82 0 0 1-5.422.793c-1.797.19-3.774.285-5.93.285-1.818 0-3.594-.243-5.328-.73a11.698 11.698 0 0 1-4.597-2.472c-1.333-1.163-2.41-2.717-3.235-4.662-.824-1.944-1.236-4.397-1.236-7.357v-5.707c0-4.567 1.202-8.182 3.605-10.846 2.405-2.663 5.886-3.995 10.442-3.995 2.32 0 4.344.348 6.075 1.046 1.729.698 3.173 1.692 4.334 2.981 1.159 1.29 2.036 2.854 2.626 4.693.591 1.839.886 3.88.886 6.121v3.424zM131.688 60.201c0 .465-.275.698-.825.698h-4.376c-.38 0-.676-.169-.888-.508l-9.068-13.254-9.069 13.128c-.213.296-.371.475-.476.539-.106.063-.307.095-.603.095h-3.804c-.508 0-.762-.212-.762-.634 0-.296.105-.571.317-.825l11.416-16.299-10.782-15.538c-.212-.339-.317-.612-.317-.825 0-.507.317-.761.951-.761h4.123c.254 0 .475.064.666.191.19.127.39.359.602.698l8.054 11.922 8.118-11.922c.296-.423.518-.677.666-.762.148-.084.37-.127.667-.127h3.678c.549 0 .824.254.824.761 0 .213-.105.486-.317.825L119.828 42.76l11.607 16.68c.168.212.253.466.253.761"/><g><defs><path id="c" d="M102.768 19.535c-.212.338-.316.612-.316.824 0 .507.316.761.951.761h4.122c.254 0 .475-.063.666-.19.19-.128.39-.36.603-.697l8.053-11.925 8.118 11.925c.296.422.518.674.667.76.147.085.369.127.666.127h3.678c.548 0 .823-.254.823-.761 0-.212-.104-.486-.316-.824L116.53.001l-13.762 19.534z"/></defs><clipPath id="d"><use xlink:href="#c" overflow="visible"/></clipPath><linearGradient id="e" gradientUnits="userSpaceOnUse" x1="-610.173" y1="2890.651" x2="-609.173" y2="2890.651" gradientTransform="matrix(-22.3493 17.6442 17.7647 22.502 -64867.152 -54272.54)"><stop offset="0" stop-color="#487755"/><stop offset=".141" stop-color="#467052"/><stop offset=".398" stop-color="#3e5d48"/><stop offset=".74" stop-color="#2c4034"/><stop offset="1" stop-color="#1e2b23"/></linearGradient><path clip-path="url(#d)" fill="url(#e)" d="M141.07 13.011l-27.734 21.895L92.181 8.11l27.734-21.895z"/></g></svg>