<svg xmlns="http://www.w3.org/2000/svg" viewBox="0 0 127.495 43.409"><path fill="#1B1C1A" d="M127.495 39.058c0 2.404-1.775 4.351-3.97 4.351H3.974C1.781 43.409 0 41.462 0 39.058V4.357C0 1.954 1.781 0 3.974 0h119.55c2.196 0 3.97 1.954 3.97 4.357l.001 34.701z"/><path fill="#FFF" d="M28.245 21.632c-.028-3.142 2.573-4.671 2.692-4.742-1.473-2.148-3.757-2.442-4.559-2.465-1.918-.202-3.778 1.147-4.755 1.147-.997 0-2.501-1.128-4.123-1.094-2.086.032-4.038 1.24-5.109 3.116-2.209 3.824-.561 9.445 1.555 12.537 1.06 1.514 2.297 3.205 3.916 3.145 1.584-.065 2.177-1.01 4.088-1.01 1.895 0 2.451 1.01 4.102.972 1.701-.027 2.771-1.521 3.793-3.049 1.223-1.735 1.715-3.444 1.734-3.532-.04-.013-3.302-1.258-3.334-5.025M25.125 12.392c.852-1.066 1.435-2.516 1.273-3.987-1.233.055-2.776.853-3.664 1.896-.786.918-1.488 2.423-1.306 3.839 1.385.103 2.808-.699 3.697-1.748M44.457 27.649l-1.098-3.388c-.116-.346-.333-1.162-.654-2.445h-.039a90.611 90.611 0 0 1-.616 2.445l-1.077 3.388h3.484zm3.792 5.41h-2.214l-1.213-3.811h-4.216l-1.156 3.811h-2.155l4.177-12.975h2.579l4.198 12.975zM56.872 28.342c0-.911-.205-1.661-.616-2.252-.449-.616-1.053-.924-1.809-.924-.513 0-.979.171-1.396.509-.417.342-.69.787-.818 1.339a2.74 2.74 0 0 0-.096.634v1.56c0 .68.208 1.255.625 1.724.418.469.96.703 1.627.703.783 0 1.392-.303 1.828-.905.437-.604.655-1.399.655-2.388m2.118-.076c0 1.591-.43 2.849-1.29 3.772-.77.822-1.727 1.233-2.868 1.233-1.233 0-2.118-.443-2.657-1.328h-.039v4.928h-2.079V26.783c0-1-.026-2.027-.077-3.08h1.828l.116 1.483h.039c.694-1.117 1.746-1.675 3.157-1.675 1.104 0 2.025.436 2.762 1.308.74.874 1.108 2.023 1.108 3.447M67.633 28.342c0-.911-.205-1.661-.617-2.252-.449-.616-1.051-.924-1.808-.924-.514 0-.979.171-1.397.509a2.37 2.37 0 0 0-.817 1.339 2.795 2.795 0 0 0-.096.634v1.56c0 .68.208 1.255.624 1.724.417.468.959.703 1.628.703.783 0 1.392-.303 1.828-.905.437-.604.655-1.399.655-2.388m2.118-.076c0 1.591-.43 2.849-1.291 3.772-.769.822-1.726 1.233-2.867 1.233-1.233 0-2.118-.443-2.656-1.328h-.039v4.928h-2.079V26.783c0-1-.026-2.027-.077-3.08h1.828l.116 1.483h.039c.692-1.117 1.745-1.675 3.157-1.675 1.103 0 2.024.436 2.763 1.308.736.874 1.106 2.023 1.106 3.447M81.782 29.421c0 1.104-.383 2.002-1.152 2.695-.846.757-2.023 1.136-3.535 1.136-1.396 0-2.515-.269-3.363-.809l.482-1.732a5.696 5.696 0 0 0 3.005.829c.783 0 1.392-.178 1.83-.531.436-.353.653-.827.653-1.417 0-.527-.179-.97-.539-1.33-.358-.36-.955-.694-1.79-1.004-2.272-.847-3.407-2.088-3.407-3.72 0-1.067.398-1.941 1.195-2.622.793-.681 1.852-1.022 3.176-1.022 1.181 0 2.162.206 2.945.617l-.52 1.694c-.731-.398-1.558-.597-2.483-.597-.731 0-1.303.181-1.712.54-.346.32-.52.711-.52 1.174 0 .513.198.937.596 1.271.346.308.975.641 1.888 1.001 1.116.45 1.936.975 2.463 1.578.526.6.788 1.352.788 2.249M88.655 25.263h-2.291v4.542c0 1.156.403 1.733 1.212 1.733.372 0 .68-.032.924-.097l.058 1.579c-.41.153-.949.23-1.617.23-.821 0-1.463-.25-1.926-.751-.461-.501-.693-1.341-.693-2.522v-4.716h-1.365v-1.56h1.365v-1.713l2.042-.616v2.329h2.291v1.562zM96.836 28.371c0-.863-.184-1.603-.558-2.22-.435-.747-1.058-1.119-1.866-1.119-.835 0-1.47.373-1.906 1.119-.373.618-.557 1.37-.557 2.259 0 .863.184 1.603.557 2.219.45.747 1.078 1.12 1.888 1.12.794 0 1.417-.381 1.866-1.139.383-.629.576-1.377.576-2.239m2.157-.067c0 1.438-.411 2.619-1.232 3.542-.861.951-2.004 1.425-3.429 1.425-1.372 0-2.465-.456-3.28-1.366-.815-.911-1.223-2.061-1.223-3.446 0-1.45.419-2.637 1.261-3.561.839-.924 1.972-1.386 3.397-1.386 1.372 0 2.477.455 3.311 1.367.797.884 1.195 2.026 1.195 3.425M105.749 25.531a3.612 3.612 0 0 0-.655-.058c-.731 0-1.297.276-1.694.829-.347.488-.52 1.104-.52 1.848v4.909h-2.078l.02-6.41c0-1.078-.027-2.06-.078-2.945h1.81l.076 1.79h.058c.219-.615.565-1.111 1.039-1.482a2.515 2.515 0 0 1 1.502-.501c.193 0 .366.013.52.038v1.982zM113.064 27.4c.013-.616-.122-1.149-.404-1.598-.36-.578-.912-.867-1.656-.867-.68 0-1.233.282-1.655.847-.346.45-.552.989-.615 1.617l4.33.001zm1.982.539c0 .372-.024.686-.076.943h-6.236c.024.924.326 1.631.905 2.118.525.436 1.205.655 2.04.655.923 0 1.765-.148 2.523-.443l.325 1.443c-.885.386-1.93.578-3.136.578-1.451 0-2.59-.427-3.418-1.28-.827-.853-1.242-1.999-1.242-3.436 0-1.411.386-2.586 1.157-3.523.807-1 1.898-1.5 3.271-1.5 1.348 0 2.369.5 3.062 1.5.549.795.825 1.778.825 2.945M42.691 12.13c0-.744-.197-1.314-.591-1.712-.394-.397-.969-.596-1.727-.596-.322 0-.596.022-.823.067v4.767c.126.019.356.028.691.028.781 0 1.385-.218 1.81-.652.425-.435.64-1.069.64-1.902m1.077-.028c0 1.148-.344 2.011-1.031 2.592-.637.535-1.542.803-2.714.803-.581 0-1.078-.025-1.495-.076v-6.27a11.011 11.011 0 0 1 1.761-.133c1.116 0 1.957.243 2.524.728.636.549.955 1.334.955 2.356M48.421 13.137c0-.424-.092-.788-.274-1.091-.215-.366-.52-.55-.916-.55-.411 0-.723.184-.937.55-.184.303-.274.673-.274 1.11 0 .424.091.787.274 1.091.221.366.529.55.927.55.39 0 .696-.187.916-.56.189-.309.284-.676.284-1.1m1.06-.033c0 .707-.202 1.286-.606 1.74-.423.467-.983.7-1.684.7-.674 0-1.211-.223-1.612-.671-.4-.448-.599-1.012-.599-1.693 0-.712.205-1.296.619-1.749.413-.453.969-.681 1.669-.681.674 0 1.216.224 1.627.671.39.435.586.997.586 1.683M57.14 10.844l-1.438 4.596h-.936l-.596-1.996a14.762 14.762 0 0 1-.369-1.485h-.018c-.09.505-.212 1-.37 1.485l-.633 1.996h-.947l-1.352-4.596h1.05l.52 2.185c.126.517.229 1.009.312 1.475h.018c.076-.384.202-.873.38-1.465l.652-2.194h.832l.625 2.147c.152.523.274 1.028.369 1.513h.028c.069-.473.174-.977.312-1.513l.558-2.147h1.003v-.001zM62.437 15.44h-1.021v-2.632c0-.812-.309-1.217-.927-1.217a.923.923 0 0 0-.738.334 1.188 1.188 0 0 0-.284.788v2.726h-1.021v-3.282c0-.403-.013-.841-.038-1.315h.898l.048.719h.029a1.47 1.47 0 0 1 .529-.555c.277-.172.587-.259.926-.259.429 0 .786.139 1.07.417.353.34.529.848.529 1.523v2.753zM64.235 8.735h1.021v6.705h-1.021z"/><g fill="#FFF"><path d="M70.21 13.137c0-.424-.091-.788-.273-1.091-.214-.366-.52-.55-.916-.55-.411 0-.723.184-.937.55-.183.303-.274.673-.274 1.11 0 .424.092.787.274 1.091.221.366.529.55.927.55.39 0 .695-.187.916-.56.19-.309.283-.676.283-1.1m1.061-.033c0 .707-.202 1.286-.605 1.74-.424.467-.985.7-1.684.7-.676 0-1.213-.223-1.613-.671-.4-.448-.599-1.012-.599-1.693 0-.712.205-1.296.619-1.749.413-.453.969-.681 1.668-.681.675 0 1.217.224 1.628.671.39.435.586.997.586 1.683M75.155 13.861v-.709c-1.127-.02-1.69.289-1.69.926 0 .24.064.419.195.539.132.12.3.18.5.18.224 0 .434-.072.625-.213a.871.871 0 0 0 .37-.723m1.061 1.579h-.917l-.077-.529h-.028c-.314.422-.761.633-1.343.633-.433 0-.784-.139-1.048-.416a1.305 1.305 0 0 1-.36-.936c0-.562.234-.99.705-1.286.47-.296 1.131-.442 1.982-.435v-.086c0-.605-.318-.907-.955-.907-.453 0-.853.114-1.198.34l-.208-.671c.427-.264.955-.397 1.577-.397 1.201 0 1.804.634 1.804 1.902v1.692c0 .459.022.825.066 1.096M80.963 13.502v-.767a1.164 1.164 0 0 0-.398-.94 1.002 1.002 0 0 0-.683-.251c-.381 0-.68.151-.899.454-.218.304-.328.691-.328 1.163 0 .455.105.823.314 1.107.221.302.52.453.893.453a.98.98 0 0 0 .807-.378 1.26 1.26 0 0 0 .294-.841m1.059 1.938h-.907l-.047-.738h-.029c-.29.562-.783.842-1.476.842-.554 0-1.015-.217-1.381-.652-.365-.435-.548-.999-.548-1.693 0-.743.199-1.346.596-1.806.385-.429.857-.644 1.419-.644.617 0 1.049.208 1.294.624h.02V8.735h1.023v5.467c0 .447.012.86.036 1.238M89.702 13.137c0-.424-.091-.788-.274-1.091-.215-.366-.519-.55-.917-.55-.41 0-.722.184-.937.55-.183.303-.274.673-.274 1.11 0 .424.092.787.274 1.091.221.366.529.55.927.55.39 0 .698-.187.918-.56.188-.309.283-.676.283-1.1m1.059-.033c0 .707-.202 1.286-.605 1.74-.424.467-.983.7-1.684.7-.674 0-1.211-.223-1.613-.671-.4-.448-.599-1.012-.599-1.693 0-.712.205-1.296.619-1.749.413-.453.969-.681 1.67-.681.673 0 1.217.224 1.626.671.39.435.586.997.586 1.683M96.255 15.44h-1.021v-2.632c0-.812-.308-1.217-.927-1.217a.92.92 0 0 0-.737.334 1.183 1.183 0 0 0-.284.788v2.726h-1.022v-3.282c0-.403-.012-.841-.037-1.315h.897l.048.719h.029c.119-.224.297-.408.529-.555.278-.172.587-.259.927-.259.428 0 .785.139 1.069.417.353.34.529.848.529 1.523v2.753zM103.132 11.61h-1.125v2.233c0 .567.2.851.596.851.183 0 .335-.016.455-.048l.026.775c-.202.076-.467.114-.794.114-.403 0-.717-.123-.944-.368-.228-.246-.342-.659-.342-1.24V11.61h-.671v-.765h.671v-.843l1.002-.302v1.144h1.125v.766h.001zM108.541 15.44h-1.023v-2.613c0-.824-.308-1.236-.925-1.236-.474 0-.797.239-.975.716-.03.101-.048.224-.048.368v2.764h-1.021V8.735h1.021v2.77h.02c.322-.504.783-.756 1.38-.756.424 0 .773.139 1.051.417.346.346.52.861.52 1.541v2.733zM113.146 12.661a1.37 1.37 0 0 0-.198-.785c-.177-.284-.447-.426-.813-.426a.969.969 0 0 0-.813.416c-.17.221-.27.486-.303.795h2.127zm.975.264c0 .183-.013.337-.038.463h-3.064c.013.454.16.801.443 1.041.26.214.594.321 1.004.321.453 0 .866-.072 1.239-.217l.159.71c-.435.189-.948.283-1.542.283-.711 0-1.272-.209-1.678-.629-.407-.419-.609-.981-.609-1.687 0-.693.188-1.271.567-1.731.396-.491.932-.737 1.607-.737.661 0 1.163.246 1.503.737.274.39.409.873.409 1.446"/></g></svg>