<svg xmlns="http://www.w3.org/2000/svg" xmlns:xlink="http://www.w3.org/1999/xlink" viewBox="0 0 128.544 42.049"><path fill="#F9F9F9" d="M84.039 27.899a3.58 3.58 0 0 1-1.477-.298c-.446-.2-.82-.506-1.122-.918h-.091c.061.483.091.942.091 1.375v3.408h-1.254V19.467h1.02l.174 1.133h.06c.323-.453.699-.78 1.126-.982.428-.201.92-.302 1.473-.302 1.099 0 1.946.375 2.543 1.125.597.751.896 1.804.896 3.158 0 1.361-.304 2.417-.91 3.171-.608.753-1.45 1.129-2.529 1.129m-.181-7.518c-.847 0-1.458.234-1.836.703-.378.468-.572 1.213-.582 2.236v.279c0 1.165.194 1.997.582 2.498.388.502 1.01.752 1.866.752.716 0 1.277-.289 1.682-.869.406-.579.608-1.377.608-2.396 0-1.031-.202-1.824-.608-2.376-.405-.551-.977-.827-1.712-.827M89.127 15.991h1.254v11.757h-1.254zM97.592 27.748l-.25-1.179h-.06c-.413.519-.824.87-1.235 1.054-.41.185-.923.276-1.538.276-.821 0-1.464-.212-1.93-.634-.466-.424-.699-1.025-.699-1.806 0-1.673 1.338-2.549 4.012-2.63l1.406-.045v-.514c0-.65-.14-1.13-.42-1.439-.28-.31-.727-.465-1.341-.465-.691 0-1.471.211-2.342.635l-.386-.96a5.935 5.935 0 0 1 1.342-.521 5.802 5.802 0 0 1 1.462-.189c.987 0 1.718.219 2.194.657.477.438.714 1.141.714 2.108v5.652h-.929zm-2.832-.884c.781 0 1.393-.214 1.839-.642.446-.428.67-1.028.67-1.799v-.747l-1.255.052c-.997.036-1.716.19-2.158.465-.44.274-.66.702-.66 1.281 0 .453.136.799.411 1.035.274.237.659.355 1.153.355M99.25 19.467h1.344l1.814 4.722c.397 1.079.645 1.856.741 2.336h.06c.065-.258.203-.697.412-1.32.209-.622.893-2.534 2.051-5.738h1.346l-3.56 9.43c-.352.931-.764 1.593-1.235 1.984-.471.39-1.049.585-1.734.585-.383 0-.76-.043-1.134-.128v-1.006c.277.061.587.092.93.092.862 0 1.475-.484 1.843-1.452l.461-1.178-3.339-8.327zM60.805 20.236c.399.33 1.23 1.023 1.23 2.339 0 1.281-.727 1.889-1.455 2.459-.225.225-.485.468-.485.85 0 .38.26.588.45.745l.624.483c.763.642 1.454 1.231 1.454 2.426 0 1.629-1.576 3.273-4.554 3.273-2.512 0-3.724-1.194-3.724-2.477 0-.623.31-1.506 1.333-2.113 1.073-.658 2.53-.744 3.309-.797-.244-.312-.52-.641-.52-1.177 0-.294.086-.467.173-.676-.192.017-.381.035-.555.035-1.835 0-2.875-1.369-2.875-2.72 0-.796.365-1.68 1.108-2.32.988-.815 2.166-.953 3.102-.953h3.567l-1.109.623h-1.073zm-1.229 7.692c-.139-.019-.226-.019-.399-.019-.155 0-1.092.035-1.818.279-.382.137-1.491.553-1.491 1.783 0 1.229 1.197 2.115 3.049 2.115 1.663 0 2.547-.799 2.547-1.872 0-.885-.572-1.351-1.888-2.286m.502-3.292c.398-.399.432-.952.432-1.265 0-1.247-.744-3.186-2.182-3.186-.45 0-.935.225-1.213.571-.294.364-.381.832-.381 1.282 0 1.161.676 3.083 2.166 3.083.433 0 .9-.208 1.178-.485M49.901 27.651c-2.75 0-4.22-2.145-4.22-4.082 0-2.266 1.851-4.202 4.48-4.202 2.541 0 4.132 1.988 4.132 4.081 0 2.04-1.573 4.203-4.392 4.203m2.161-1.401c.416-.554.52-1.246.52-1.92 0-1.523-.727-4.427-2.871-4.427-.57 0-1.141.225-1.556.589-.675.604-.796 1.365-.796 2.11 0 1.711.847 4.529 2.94 4.529.674 0 1.366-.329 1.763-.881M40.528 27.651c-2.75 0-4.219-2.145-4.219-4.082 0-2.266 1.85-4.202 4.479-4.202 2.542 0 4.132 1.988 4.132 4.081 0 2.04-1.573 4.203-4.392 4.203m2.162-1.401c.415-.554.519-1.246.519-1.92 0-1.523-.727-4.427-2.871-4.427-.57 0-1.142.225-1.556.589-.675.604-.795 1.365-.795 2.11 0 1.711.846 4.529 2.94 4.529.674 0 1.366-.329 1.763-.881M34.987 27.379l-2.486.574c-1.009.156-1.913.295-2.869.295-4.799 0-6.624-3.53-6.624-6.294 0-3.373 2.59-6.501 7.025-6.501.938 0 1.842.138 2.659.364 1.304.365 1.912.817 2.295 1.078l-1.443 1.374-.609.138.435-.695c-.591-.573-1.67-1.634-3.721-1.634-2.747 0-4.816 2.087-4.816 5.13 0 3.267 2.365 6.344 6.154 6.344 1.115 0 1.687-.225 2.208-.435v-2.798l-2.624.139 1.39-.748h3.687l-.453.434c-.122.105-.139.14-.174.278a13.17 13.17 0 0 0-.034.835v2.122z"/><path fill="#F9F9F9" d="M66.301 26.878c-.574-.052-.694-.156-.694-.835v-9.84l.01-.112c.069-.608.243-.713.783-1.027h-2.488l-1.304.627h1.329v.008l-.001-.007v10.734c0 .347-.068.4-.469.921h3.078l.643-.382c-.295-.035-.591-.052-.887-.087M73.375 27.038c-.189.103-.379.225-.568.311-.571.259-1.158.328-1.676.328-.552 0-1.416-.036-2.297-.674-1.225-.864-1.76-2.349-1.76-3.643 0-2.676 2.175-3.988 3.953-3.988.622 0 1.262.155 1.78.484.862.569 1.087 1.311 1.207 1.708l-4.057 1.641-1.329.103c.43 2.194 1.915 3.47 3.557 3.47.88 0 1.519-.31 2.106-.603l-.916.863zm-1.622-5.146c.327-.121.5-.224.5-.466 0-.69-.777-1.485-1.71-1.485-.691 0-1.985.536-1.985 2.4 0 .293.035.604.053.916l3.142-1.365zM75.042 19.49v1.139h-.138V19.49h-.377v-.118h.892v.118zM76.595 20.629v-1.15h-.006l-.352 1.15h-.108l-.354-1.15h-.003v1.15h-.127v-1.257h.216l.32 1.016h.005l.315-1.016h.219v1.257z"/><path fill="#FCFCFC" d="M26.461 12.067h-.864c0-.118-.082-.455-.245-1.009h-1.248c-.169.545-.253.881-.253 1.009h-.813c0-.07.21-.646.631-1.728.419-1.081.63-1.677.63-1.787h1.02c0 .103.191.69.571 1.762.381 1.071.571 1.656.571 1.753m-1.247-1.525c-.308-.928-.462-1.431-.462-1.506h-.043c0 .07-.159.572-.477 1.506h.982zM29.943 12.067h-.667c0-.074-.247-.463-.742-1.169-.519-.743-.813-1.251-.886-1.526h-.043c.045.395.068.752.068 1.069 0 .446.012.987.037 1.626h-.664a38.233 38.233 0 0 0 0-3.515h.802c0 .095.222.476.667 1.142.473.707.745 1.187.815 1.439h.041a10.264 10.264 0 0 1-.066-1.08c0-.487-.011-.988-.037-1.501h.675a30.874 30.874 0 0 0-.038 1.676c0 .677.013 1.29.038 1.839M33.856 10.188c0 .511-.164.957-.491 1.339-.328.382-.787.573-1.377.573-.266 0-.634-.011-1.102-.033.024-.544.035-1.157.035-1.839 0-.654-.011-1.213-.035-1.676h.473c.077 0 .192-.003.345-.008s.253-.009.3-.009c.65 0 1.121.163 1.413.487.293.323.439.712.439 1.166m-.737.116c0-.346-.101-.637-.302-.874-.202-.236-.51-.354-.924-.354a2.87 2.87 0 0 0-.318.024c.018.36.027.736.027 1.128 0 .431.009.857.027 1.28.116.023.233.035.351.035.387 0 .673-.12.859-.361.187-.24.28-.532.28-.878M37.464 12.067h-.8c-.208-.637-.369-1.031-.48-1.18-.112-.15-.292-.224-.541-.224-.104 0-.204.001-.299.003 0 .462.008.93.024 1.401h-.75a43.88 43.88 0 0 0 0-3.515h.467c.054 0 .167-.003.339-.009.172-.004.331-.008.476-.008.826 0 1.239.283 1.239.848 0 .448-.236.76-.707.937v.04c.182.05.341.193.478.426.136.233.322.66.554 1.281m-1.013-2.484c0-.358-.23-.537-.691-.537-.169 0-.318.012-.448.038.02.279.029.642.029 1.09.1.004.183.006.252.006.572 0 .858-.199.858-.597M41.334 10.245c0 .553-.169 1.01-.507 1.374a1.645 1.645 0 0 1-1.255.545c-.476 0-.874-.167-1.194-.501-.321-.334-.48-.758-.48-1.272 0-.553.169-1.012.507-1.375a1.647 1.647 0 0 1 1.256-.545c.474 0 .872.166 1.193.499.32.333.48.758.48 1.275m-.745.078c0-.376-.096-.681-.289-.915a.89.89 0 0 0-.713-.351c-.263 0-.485.117-.669.353-.183.237-.276.534-.276.894 0 .374.097.679.29.914.194.235.431.352.712.352.263 0 .486-.118.67-.355.184-.236.275-.534.275-.892M42.86 12.067h-.764a44.864 44.864 0 0 0 0-3.515h.764a32.723 32.723 0 0 0-.035 1.676c0 .679.011 1.292.035 1.839M46.773 10.188c0 .511-.164.957-.491 1.339-.328.382-.787.573-1.377.573-.266 0-.634-.011-1.102-.033.024-.544.035-1.157.035-1.839 0-.654-.011-1.213-.035-1.676h.473c.077 0 .192-.003.345-.008.154-.005.253-.009.3-.009.65 0 1.121.163 1.413.487.293.323.439.712.439 1.166m-.737.116c0-.346-.101-.637-.302-.874-.202-.236-.51-.354-.924-.354a2.87 2.87 0 0 0-.318.024c.018.36.027.736.027 1.128 0 .431.008.857.027 1.28.116.023.233.035.351.035.386 0 .673-.12.859-.361.187-.24.28-.532.28-.878M51.964 12.067H51.1c0-.118-.082-.455-.245-1.009h-1.248c-.169.545-.253.881-.253 1.009h-.813c0-.07.21-.646.63-1.728.42-1.081.63-1.677.63-1.787h1.021c0 .103.191.69.571 1.762.381 1.071.571 1.656.571 1.753m-1.247-1.525c-.308-.928-.462-1.431-.462-1.506h-.043c0 .07-.159.572-.477 1.506h.982zM55.113 9.472c0 .43-.159.748-.479.953-.319.205-.711.308-1.176.308-.084 0-.144-.002-.18-.005 0 .338.009.785.029 1.339h-.758c.023-.52.035-1.133.035-1.839 0-.648-.012-1.206-.035-1.676h.47c.066 0 .194-.003.383-.008.189-.006.353-.008.491-.008.342 0 .631.077.867.232.236.155.353.39.353.704m-.696.149c0-.385-.255-.578-.767-.578a2.19 2.19 0 0 0-.405.041c.02.34.03.725.03 1.155a1.8 1.8 0 0 0 .156.006c.658 0 .986-.208.986-.624M58.351 9.472c0 .43-.16.748-.478.953-.32.205-.712.308-1.177.308-.084 0-.144-.002-.18-.005 0 .338.009.785.029 1.339h-.758c.023-.52.035-1.133.035-1.839 0-.648-.012-1.206-.035-1.676h.47c.066 0 .194-.003.383-.008.189-.006.353-.008.491-.008.342 0 .631.077.867.232.236.155.353.39.353.704m-.696.149c0-.385-.255-.578-.767-.578a2.19 2.19 0 0 0-.405.041c.02.34.03.725.03 1.155a1.8 1.8 0 0 0 .156.006c.658 0 .986-.208.986-.624M63.645 10.245c0 .553-.169 1.01-.507 1.374a1.645 1.645 0 0 1-1.255.545c-.476 0-.874-.167-1.194-.501-.321-.334-.48-.758-.48-1.272 0-.553.169-1.012.507-1.375a1.648 1.648 0 0 1 1.256-.545c.474 0 .872.166 1.193.499.32.333.48.758.48 1.275m-.745.078c0-.376-.096-.681-.289-.915a.89.89 0 0 0-.713-.351c-.263 0-.485.117-.669.353-.183.237-.276.534-.276.894 0 .374.097.679.291.914.193.235.43.352.711.352.263 0 .486-.118.67-.355.184-.236.275-.534.275-.892M67.305 12.067h-.667c0-.074-.247-.463-.742-1.169-.519-.743-.813-1.251-.886-1.526h-.043c.045.395.068.752.068 1.069 0 .446.012.987.037 1.626h-.664a38.233 38.233 0 0 0 0-3.515h.802c0 .095.222.476.667 1.142.473.707.745 1.187.815 1.439h.041a10.242 10.242 0 0 1-.065-1.08c0-.487-.012-.988-.038-1.501h.675a30.874 30.874 0 0 0-.038 1.676c0 .677.013 1.29.038 1.839"/><defs><path id="a" d="M0 0h128.544v42.049H0z"/></defs><clipPath id="b"><use xlink:href="#a" overflow="visible"/></clipPath><path clip-path="url(#b)" fill="#1B1C1A" d="M128.545 36.366a5.683 5.683 0 0 1-5.681 5.683H5.683a5.683 5.683 0 0 1-5.682-5.683V5.682A5.683 5.683 0 0 1 5.683 0h117.181a5.683 5.683 0 0 1 5.681 5.683v30.683z"/><defs><path id="c" d="M9.642 9.315v26.3c0 .315.14.529.356.602l14.003-13.884L10.116 8.564c-.279.079-.474.331-.474.751"/></defs><clipPath id="d"><use xlink:href="#c" overflow="visible"/></clipPath><linearGradient id="e" gradientUnits="userSpaceOnUse" x1="-374.964" y1="612.664" x2="-373.964" y2="612.664" gradientTransform="matrix(0 28.4751 28.4751 0 -17428.822 10685.208)"><stop offset="0" stop-color="#4c7aa1"/><stop offset=".374" stop-color="#6393aa"/><stop offset=".795" stop-color="#84b6b4"/><stop offset="1" stop-color="#94c7b8"/></linearGradient><path clip-path="url(#d)" fill="url(#e)" d="M9.642 8.564h14.359v27.653H9.642z"/><g><defs><path id="f" d="M10.116 8.564l13.885 13.769 3.856-3.825-5.796-3.346-.261-.151a5.42 5.42 0 0 1-.139-.08l-.004-.002-.02-.012-.113-.064-.005-.004-.041-.023-.005-.004-.024-.013-.003-.002-.027-.015-.009-.006-10.535-6.083a1.155 1.155 0 0 0-.561-.165.712.712 0 0 0-.198.026"/></defs><clipPath id="g"><use xlink:href="#f" overflow="visible"/></clipPath><linearGradient id="h" gradientUnits="userSpaceOnUse" x1="-362.026" y1="647.869" x2="-361.026" y2="647.869" gradientTransform="matrix(18.2154 0 0 -18.2154 6604.113 11816.654)"><stop offset="0" stop-color="#5cb1a3"/><stop offset="1" stop-color="#e1e39a"/></linearGradient><path clip-path="url(#g)" fill="url(#h)" d="M10.116 8.538h17.741v13.795H10.116z"/></g><g><defs><path id="i" d="M9.998 36.217c.171.056.388.027.625-.11l9.035-5.217.08-.045.219-.127.042-.025.053-.029.089-.052.02-.012.089-.051.013-.008.058-.033.089-.052.029-.017.018-.01.75-.432.023-.014.468-.271.014-.008.347-.2.002-.001 5.796-3.346-3.856-3.824L9.998 36.217z"/></defs><clipPath id="j"><use xlink:href="#i" overflow="visible"/></clipPath><linearGradient id="k" gradientUnits="userSpaceOnUse" x1="-394.424" y1="608.384" x2="-393.424" y2="608.384" gradientTransform="matrix(0 14.3409 14.3409 0 -8705.83 5678.708)"><stop offset="0" stop-color="#d24a43"/><stop offset=".195" stop-color="#bf5052"/><stop offset=".589" stop-color="#a15670"/><stop offset=".866" stop-color="#8f5885"/><stop offset="1" stop-color="#88588d"/></linearGradient><path clip-path="url(#j)" fill="url(#k)" d="M9.998 22.333h17.859v13.94H9.998z"/></g><g><defs><path id="l" d="M24.001 22.333l3.856 3.824.009-.006.005-.002.001-.001.005-.003 5.551-3.205c.627-.362.595-.853.106-1.155l-.063-.036-.003-.001c-.552-.297-5.611-3.24-5.611-3.24l-3.856 3.825z"/></defs><clipPath id="m"><use xlink:href="#l" overflow="visible"/></clipPath><linearGradient id="n" gradientUnits="userSpaceOnUse" x1="-428.732" y1="600.777" x2="-427.732" y2="600.777" gradientTransform="matrix(0 7.648 7.648 0 -4565.732 3297.46)"><stop offset="0" stop-color="#e0887d"/><stop offset=".136" stop-color="#e2907c"/><stop offset=".717" stop-color="#edb67b"/><stop offset="1" stop-color="#f3c779"/></linearGradient><path clip-path="url(#m)" fill="url(#n)" d="M24.001 18.508h10.054v7.649H24.001z"/></g><g><defs><path id="o" d="M0 0h128.544v42.049H0z"/></defs><clipPath id="p"><use xlink:href="#o" overflow="visible"/></clipPath><path clip-path="url(#p)" fill="#F9F9F9" d="M100.039 27.899a3.58 3.58 0 0 1-1.477-.298c-.446-.2-.82-.506-1.122-.918h-.091c.061.483.091.942.091 1.375v3.408h-1.254V19.467h1.02l.174 1.133h.06c.323-.453.699-.78 1.126-.982.428-.201.92-.302 1.473-.302 1.099 0 1.946.375 2.543 1.125.597.751.896 1.804.896 3.158 0 1.361-.304 2.417-.91 3.171-.608.753-1.45 1.129-2.529 1.129m-.181-7.518c-.847 0-1.458.234-1.836.703-.378.468-.572 1.213-.582 2.236v.279c0 1.165.194 1.997.582 2.498.388.502 1.01.752 1.866.752.716 0 1.277-.289 1.682-.869.406-.579.608-1.377.608-2.396 0-1.031-.202-1.824-.608-2.376-.405-.551-.977-.827-1.712-.827M105.127 15.991h1.254v11.757h-1.254zM113.592 27.748l-.25-1.179h-.06c-.413.519-.824.87-1.235 1.054-.41.185-.923.276-1.538.276-.821 0-1.464-.212-1.93-.634-.466-.424-.699-1.025-.699-1.806 0-1.673 1.338-2.549 4.012-2.63l1.406-.045v-.514c0-.65-.14-1.13-.42-1.439-.28-.31-.727-.465-1.341-.465-.691 0-1.471.211-2.342.635l-.386-.96a5.935 5.935 0 0 1 1.342-.521 5.802 5.802 0 0 1 1.462-.189c.987 0 1.718.219 2.194.657.477.438.714 1.141.714 2.108v5.652h-.929zm-2.832-.884c.781 0 1.393-.214 1.839-.642.446-.428.67-1.028.67-1.799v-.747l-1.255.052c-.997.036-1.716.19-2.158.465-.44.274-.66.702-.66 1.281 0 .453.136.799.411 1.035.274.237.659.355 1.153.355M115.25 19.467h1.344l1.814 4.722c.397 1.079.645 1.856.741 2.336h.06c.065-.258.203-.697.412-1.32.209-.622.893-2.534 2.051-5.738h1.346l-3.56 9.43c-.352.931-.764 1.593-1.235 1.984-.471.39-1.049.585-1.734.585-.383 0-.76-.043-1.134-.128v-1.006c.277.061.587.092.93.092.862 0 1.475-.484 1.843-1.452l.461-1.178-3.339-8.327zM76.805 20.236c.399.33 1.23 1.023 1.23 2.339 0 1.281-.727 1.889-1.455 2.459-.225.225-.485.468-.485.85 0 .38.26.588.45.745l.624.483c.763.642 1.454 1.231 1.454 2.426 0 1.629-1.576 3.273-4.554 3.273-2.512 0-3.724-1.194-3.724-2.477 0-.623.31-1.506 1.333-2.113 1.073-.658 2.53-.744 3.309-.797-.244-.312-.52-.641-.52-1.177 0-.294.086-.467.173-.676-.192.017-.381.035-.555.035-1.835 0-2.875-1.369-2.875-2.72 0-.796.365-1.68 1.108-2.32.988-.815 2.166-.953 3.102-.953h3.567l-1.109.623h-1.073zm-1.229 7.692c-.139-.019-.226-.019-.399-.019-.155 0-1.092.035-1.818.279-.382.137-1.491.553-1.491 1.783 0 1.229 1.197 2.115 3.049 2.115 1.663 0 2.547-.799 2.547-1.872 0-.885-.572-1.351-1.888-2.286m.502-3.292c.398-.399.432-.952.432-1.265 0-1.247-.744-3.186-2.182-3.186-.45 0-.935.225-1.213.571-.294.364-.381.832-.381 1.282 0 1.161.676 3.083 2.166 3.083.433 0 .9-.208 1.178-.485M65.901 27.651c-2.75 0-4.22-2.145-4.22-4.082 0-2.266 1.851-4.202 4.48-4.202 2.541 0 4.132 1.988 4.132 4.081 0 2.04-1.573 4.203-4.392 4.203m2.161-1.401c.416-.554.52-1.246.52-1.92 0-1.523-.727-4.427-2.871-4.427-.57 0-1.141.225-1.556.589-.675.604-.796 1.365-.796 2.11 0 1.711.847 4.529 2.94 4.529.674 0 1.366-.329 1.763-.881M56.528 27.651c-2.75 0-4.219-2.145-4.219-4.082 0-2.266 1.85-4.202 4.479-4.202 2.542 0 4.132 1.988 4.132 4.081 0 2.04-1.573 4.203-4.392 4.203m2.162-1.401c.415-.554.519-1.246.519-1.92 0-1.523-.727-4.427-2.871-4.427-.57 0-1.142.225-1.556.589-.675.604-.795 1.365-.795 2.11 0 1.711.846 4.529 2.94 4.529.674 0 1.366-.329 1.763-.881M50.987 27.379l-2.486.574c-1.009.156-1.913.295-2.869.295-4.799 0-6.624-3.53-6.624-6.294 0-3.373 2.59-6.501 7.025-6.501.938 0 1.842.138 2.659.364 1.304.365 1.912.817 2.295 1.078l-1.443 1.374-.609.138.435-.695c-.591-.573-1.67-1.634-3.721-1.634-2.747 0-4.816 2.087-4.816 5.13 0 3.267 2.365 6.344 6.154 6.344 1.115 0 1.687-.225 2.208-.435v-2.798l-2.624.139 1.39-.748h3.687l-.453.434c-.122.105-.139.14-.174.278a13.17 13.17 0 0 0-.034.835v2.122z"/><path clip-path="url(#p)" fill="#F9F9F9" d="M82.301 26.878c-.574-.052-.694-.156-.694-.835v-9.84l.01-.112c.069-.608.243-.713.783-1.027h-2.488l-1.304.627h1.329v.008l-.001-.007v10.734c0 .347-.068.4-.469.921h3.078l.643-.382c-.295-.035-.591-.052-.887-.087M89.375 27.038c-.189.103-.379.225-.568.311-.571.259-1.158.328-1.676.328-.552 0-1.416-.036-2.297-.674-1.225-.864-1.76-2.349-1.76-3.643 0-2.676 2.175-3.988 3.953-3.988.622 0 1.262.155 1.78.484.862.569 1.087 1.311 1.207 1.708l-4.057 1.641-1.329.103c.43 2.194 1.915 3.47 3.557 3.47.88 0 1.519-.31 2.106-.603l-.916.863zm-1.622-5.146c.327-.121.5-.224.5-.466 0-.69-.777-1.485-1.71-1.485-.691 0-1.985.536-1.985 2.4 0 .293.035.604.053.916l3.142-1.365zM91.042 19.49v1.139h-.138V19.49h-.377v-.118h.892v.118zM92.595 20.629v-1.15h-.006l-.352 1.15h-.108l-.354-1.15h-.003v1.15h-.127v-1.257h.216l.32 1.016h.005l.315-1.016h.219v1.257z"/><path clip-path="url(#p)" fill="#FCFCFC" d="M42.461 12.067h-.864c0-.118-.082-.455-.245-1.009h-1.248c-.169.545-.253.881-.253 1.009h-.813c0-.07.21-.646.631-1.728.419-1.081.63-1.677.63-1.787h1.02c0 .103.191.69.571 1.762.381 1.071.571 1.656.571 1.753m-1.247-1.525c-.308-.928-.462-1.431-.462-1.506h-.043c0 .07-.159.572-.477 1.506h.982zM45.943 12.067h-.667c0-.074-.247-.463-.742-1.169-.519-.743-.813-1.251-.886-1.526h-.043c.045.395.068.752.068 1.069 0 .446.012.987.037 1.626h-.664a38.233 38.233 0 0 0 0-3.515h.802c0 .095.222.476.667 1.142.473.707.745 1.187.815 1.439h.041a10.264 10.264 0 0 1-.066-1.08c0-.487-.011-.988-.037-1.501h.675a30.874 30.874 0 0 0-.038 1.676c0 .677.013 1.29.038 1.839M49.856 10.188c0 .511-.164.957-.491 1.339-.328.382-.787.573-1.377.573-.266 0-.634-.011-1.102-.033.024-.544.035-1.157.035-1.839 0-.654-.011-1.213-.035-1.676h.473c.077 0 .192-.003.345-.008s.253-.009.3-.009c.65 0 1.121.163 1.413.487.293.323.439.712.439 1.166m-.737.116c0-.346-.101-.637-.302-.874-.202-.236-.51-.354-.924-.354a2.87 2.87 0 0 0-.318.024c.018.36.027.736.027 1.128 0 .431.009.857.027 1.28.116.023.233.035.351.035.387 0 .673-.12.859-.361.187-.24.28-.532.28-.878M53.464 12.067h-.8c-.208-.637-.369-1.031-.48-1.18-.112-.15-.292-.224-.541-.224-.104 0-.204.001-.299.003 0 .462.008.93.024 1.401h-.75a43.88 43.88 0 0 0 0-3.515h.467c.054 0 .167-.003.339-.009.172-.004.331-.008.476-.008.826 0 1.239.283 1.239.848 0 .448-.236.76-.707.937v.04c.182.05.341.193.478.426.136.233.322.66.554 1.281m-1.013-2.484c0-.358-.23-.537-.691-.537-.169 0-.318.012-.448.038.02.279.029.642.029 1.09.1.004.183.006.252.006.572 0 .858-.199.858-.597M57.334 10.245c0 .553-.169 1.01-.507 1.374a1.645 1.645 0 0 1-1.255.545c-.476 0-.874-.167-1.194-.501-.321-.334-.48-.758-.48-1.272 0-.553.169-1.012.507-1.375a1.647 1.647 0 0 1 1.256-.545c.474 0 .872.166 1.193.499.32.333.48.758.48 1.275m-.745.078c0-.376-.096-.681-.289-.915a.89.89 0 0 0-.713-.351c-.263 0-.485.117-.669.353-.183.237-.276.534-.276.894 0 .374.097.679.29.914.194.235.431.352.712.352.263 0 .486-.118.67-.355.184-.236.275-.534.275-.892M58.86 12.067h-.764a44.864 44.864 0 0 0 0-3.515h.764a32.723 32.723 0 0 0-.035 1.676c0 .679.011 1.292.035 1.839M62.773 10.188c0 .511-.164.957-.491 1.339-.328.382-.787.573-1.377.573-.266 0-.634-.011-1.102-.033.024-.544.035-1.157.035-1.839 0-.654-.011-1.213-.035-1.676h.473c.077 0 .192-.003.345-.008.154-.005.253-.009.3-.009.65 0 1.121.163 1.413.487.293.323.439.712.439 1.166m-.737.116c0-.346-.101-.637-.302-.874-.202-.236-.51-.354-.924-.354a2.87 2.87 0 0 0-.318.024c.018.36.027.736.027 1.128 0 .431.008.857.027 1.28.116.023.233.035.351.035.386 0 .673-.12.859-.361.187-.24.28-.532.28-.878M67.964 12.067H67.1c0-.118-.082-.455-.245-1.009h-1.248c-.169.545-.253.881-.253 1.009h-.813c0-.07.21-.646.63-1.728.42-1.081.63-1.677.63-1.787h1.021c0 .103.191.69.571 1.762.381 1.071.571 1.656.571 1.753m-1.247-1.525c-.308-.928-.462-1.431-.462-1.506h-.043c0 .07-.159.572-.477 1.506h.982zM71.113 9.472c0 .43-.159.748-.479.953-.319.205-.711.308-1.176.308-.084 0-.144-.002-.18-.005 0 .338.009.785.029 1.339h-.758c.023-.52.035-1.133.035-1.839 0-.648-.012-1.206-.035-1.676h.47c.066 0 .194-.003.383-.008.189-.006.353-.008.491-.008.342 0 .631.077.867.232.236.155.353.39.353.704m-.696.149c0-.385-.255-.578-.767-.578a2.19 2.19 0 0 0-.405.041c.02.34.03.725.03 1.155a1.8 1.8 0 0 0 .156.006c.658 0 .986-.208.986-.624M74.351 9.472c0 .43-.16.748-.478.953-.32.205-.712.308-1.177.308-.084 0-.144-.002-.18-.005 0 .338.009.785.029 1.339h-.758c.023-.52.035-1.133.035-1.839 0-.648-.012-1.206-.035-1.676h.47c.066 0 .194-.003.383-.008.189-.006.353-.008.491-.008.342 0 .631.077.867.232.236.155.353.39.353.704m-.696.149c0-.385-.255-.578-.767-.578a2.19 2.19 0 0 0-.405.041c.02.34.03.725.03 1.155a1.8 1.8 0 0 0 .156.006c.658 0 .986-.208.986-.624M79.645 10.245c0 .553-.169 1.01-.507 1.374a1.645 1.645 0 0 1-1.255.545c-.476 0-.874-.167-1.194-.501-.321-.334-.48-.758-.48-1.272 0-.553.169-1.012.507-1.375a1.648 1.648 0 0 1 1.256-.545c.474 0 .872.166 1.193.499.32.333.48.758.48 1.275m-.745.078c0-.376-.096-.681-.289-.915a.89.89 0 0 0-.713-.351c-.263 0-.485.117-.669.353-.183.237-.276.534-.276.894 0 .374.097.679.291.914.193.235.43.352.711.352.263 0 .486-.118.67-.355.184-.236.275-.534.275-.892M83.305 12.067h-.667c0-.074-.247-.463-.742-1.169-.519-.743-.813-1.251-.886-1.526h-.043c.045.395.068.752.068 1.069 0 .446.012.987.037 1.626h-.664a38.233 38.233 0 0 0 0-3.515h.802c0 .095.222.476.667 1.142.473.707.745 1.187.815 1.439h.041a10.242 10.242 0 0 1-.065-1.08c0-.487-.012-.988-.038-1.501h.675a30.874 30.874 0 0 0-.038 1.676c0 .677.013 1.29.038 1.839"/></g></svg>