<svg xmlns="http://www.w3.org/2000/svg" viewBox="0 0 39.331 35.012"><path fill="#FFF" d="M39.331 11.813c0 .487-.038 1.434-.115 2.842a31.818 31.818 0 0 1-.5 4.148c-.256 1.358-.729 2.881-1.421 4.571s-1.536 3.214-2.535 4.571c-.998 1.357-2.369 2.638-4.109 3.841-1.742 1.203-3.714 2.062-5.915 2.573-1.18.307-2.382.486-3.611.538-.052 0-.153.025-.307.077-1.025.05-2.049.05-3.073 0-6.351-.512-11.19-3.636-14.519-9.372C1.69 22.888.819 20.301.615 17.843a17.1 17.1 0 0 0-.308 1.844c-.153-2.919.077-5.301.692-7.144-.461.768-.795 1.486-.999 2.151.409-2.305.947-4.122 1.613-5.454.051-.308.358-.871.922-1.69v-.231c-.103-1.433.038-2.727.423-3.879.384-1.152.703-1.869.96-2.151.255-.281.461-.499.614-.653.051 1.229.692 2.408 1.921 3.534.307.051.588.077.845.077 1.279-.256 2.612-.231 3.994.076.819-1.024 2.074-1.715 3.764-2.074l1.46-.077c-1.486.872-2.382 2.126-2.689 3.764.563 1.179 1.306 1.767 2.228 1.767h1.69c.87 0 1.331.077 1.383.231v.153c.05.052.05.129 0 .231v.153c-.052.513-.231.897-.538 1.153-.052 0-.077.013-.077.038 0 .026-.026.039-.077.039 0 .051-.23.205-.691.46-.615.411-1.102.743-1.46.999-.666.41-.998.691-.998.845v.077h-.077c.154.307.256.691.307 1.152.102.461.128.743.077.845v.691a6.66 6.66 0 0 0-1.767-.614c-.717.307-1.127.641-1.229.999l-.153.614c0 .973.691 1.87 2.074 2.689.563.358 1.139.564 1.728.614.588.052 1.049.027 1.383-.077.332-.102.742-.256 1.229-.46.486-.205.832-.333 1.037-.385 1.537-.409 2.791-.05 3.764 1.076.307.307.371.602.192.883-.18.283-.449.372-.807.269-.153.051-.257.065-.307.039-.051-.025-.167 0-.346.076-.18.077-.307.128-.383.154-.078.026-.206.103-.384.231a3.372 3.372 0 0 1-.424.268 3.729 3.729 0 0 0-.499.346c-.23.18-.422.295-.576.346-.614.461-1.498.794-2.65.998-1.152.205-2.112.205-2.881 0 .615.461 1.101.795 1.46.999.358.205.947.526 1.767.96.818.436 1.523.718 2.112.845.588.129 1.331.192 2.228.192.896 0 1.715-.153 2.458-.461.742-.307 1.536-.831 2.382-1.574.844-.742 1.651-1.677 2.42-2.804.153-.256.255-.41.306-.461.103 0-.026.691-.384 2.074-.154.718-.205 1.075-.154 1.075.871-.614 1.472-1.792 1.806-3.533.333-1.741.371-3.431.115-5.07.614.256 1.049.743 1.306 1.459l.154.154c.307-.972.486-2.24.538-3.803.05-1.561-.103-2.854-.461-3.879.664.205 1.279.871 1.844 1.997A10.246 10.246 0 0 0 33.8 8.74c-.308-.691-.653-1.279-1.038-1.767a15.686 15.686 0 0 0-1.229-1.382 7.294 7.294 0 0 0-1.343-1.076c-.462-.281-.91-.537-1.345-.768a8.364 8.364 0 0 0-1.229-.538c-.384-.127-.73-.23-1.037-.307a9.952 9.952 0 0 0-.691-.153c-.154-.026-.206-.039-.154-.039a14.469 14.469 0 0 1 3.918-.538c-.154-.255-.449-.486-.883-.691a10.518 10.518 0 0 0-1.422-.538A19.083 19.083 0 0 0 25.85.559a83.9 83.9 0 0 1-1.729-.384h-.077.153c1.434-.409 3.688-.102 6.76.922 1.126.359 2.152 1.012 3.073 1.959.922.948 1.499 1.651 1.729 2.112.23.461.396.845.499 1.153v-.308c.05-.255.012-.653-.115-1.19a11.621 11.621 0 0 0-.576-1.729c.05 0 .127.039.23.115.102.077.294.359.577.845.281.488.601 1.191.959 2.113.563 1.383 1.049 3.867 1.46 7.451l.461-2.919c.05.257.077.628.077 1.114"/></svg>