<svg xmlns="http://www.w3.org/2000/svg" viewBox="0 0 30.449 32.344"><path fill="#FFF" d="M20.594 11.181a19.472 19.472 0 0 0-.758-3.821c-.379-1.242-.958-2.201-1.737-2.875-.78-.673-1.759-1.011-2.937-1.011-1.18 0-2.148.327-2.906.98s-1.317 1.61-1.674 2.874a21.829 21.829 0 0 0-.727 3.79c-.126 1.264-.189 2.801-.189 4.612 0 1.137.021 2.095.063 2.874.041.78.116 1.727.221 2.843.105 1.116.274 2.053.505 2.811.231.758.547 1.506.948 2.243.399.737.916 1.295 1.548 1.674.631.379 1.368.568 2.211.568.841 0 1.589-.189 2.242-.568.652-.379 1.179-.937 1.58-1.674.399-.737.726-1.485.979-2.243.252-.758.442-1.695.568-2.811.127-1.116.2-2.074.221-2.874.021-.8.032-1.748.032-2.843 0-1.727-.063-3.243-.19-4.549m5.528-6.759c2.884 2.948 4.327 6.823 4.327 11.624 0 4.38-1.443 8.192-4.327 11.434-2.885 3.242-6.538 4.864-10.96 4.864-4.381 0-8.002-1.622-10.866-4.864C1.432 24.238 0 20.426 0 16.046 0 11.245 1.411 7.37 4.233 4.422 7.054 1.474 10.697 0 15.162 0c4.422 0 8.075 1.474 10.96 4.422"/></svg>