<svg xmlns="http://www.w3.org/2000/svg" viewBox="0 0 35.744 38.127"><path fill="#FFF" d="M21.148 21.67a3.58 3.58 0 0 0 .224-2.16 5.47 5.47 0 0 0-.224-.67l-2.01 2.681-2.681 2.01c.298.149.62.249.968.298h.447c.248 0 .495-.024.745-.074a4.38 4.38 0 0 0 1.117-.447 3.489 3.489 0 0 0 1.414-1.638m-6.255-3.351c-.547.844-.72 1.738-.521 2.681.048.199.123.422.223.67l2.011-2.681 2.681-2.011a3.19 3.19 0 0 0-.968-.297h-.447c-.249 0-.497.025-.745.074-.944.199-1.688.72-2.234 1.564M13.106 2.383c.197-.298.458-.484.782-.558.322-.075.633-.012.931.186.346-.248.495-.521.447-.819-.101-.397-.497-.596-1.192-.596-.149 0-.298.025-.447.074-.398.05-.72.199-.968.447-.249.249-.348.472-.298.67.099.298.347.497.745.596m8.489 15.936v.074l4.468.149-4.021 1.862c0 .547-.125 1.092-.372 1.638l1.712 1.787L21 23.01c-.349.398-.771.72-1.266.968l-.149 4.468-1.862-4.021a5.215 5.215 0 0 1-1.787-.447l-7.298 5.511 5.511-7.298v-.074l-4.468-.149 4.021-1.862c0-.546.123-1.091.372-1.638l-1.713-1.787 2.383.819a4.095 4.095 0 0 1 1.266-.968l.149-4.468 1.862 4.021c.644.05 1.24.199 1.787.447l7.298-5.511-5.511 7.298zm9.83 1.936c0-.596-.05-1.191-.149-1.787l-2.979-.447 2.607-1.564a13.314 13.314 0 0 0-3.426-5.808c-2.681-2.631-5.883-3.947-9.606-3.947-.596 0-1.191.05-1.787.149l-.447 2.979-1.564-2.607a13.314 13.314 0 0 0-5.808 3.426c-2.633 2.681-3.947 5.883-3.947 9.606 0 .596.049 1.191.149 1.787l2.979.447-2.607 1.564a13.305 13.305 0 0 0 3.426 5.808c2.681 2.632 5.883 3.947 9.606 3.947.596 0 1.191-.049 1.787-.149l.447-2.979 1.564 2.607a13.305 13.305 0 0 0 5.808-3.426c2.631-2.681 3.947-5.883 3.947-9.606m-.931-12.622c3.5 3.5 5.25 7.707 5.25 12.622s-1.75 9.122-5.25 12.622-7.707 5.25-12.622 5.25-9.122-1.75-12.622-5.25S0 25.17 0 20.255c0-4.021 1.216-7.62 3.649-10.798 2.431-3.176 5.535-5.311 9.308-6.404v-.074c-.646-.149-1.018-.496-1.117-1.043-.1-.396.011-.782.335-1.154.322-.372.756-.607 1.303-.707.198-.049.397-.075.596-.075.992 0 1.564.373 1.713 1.117.149.497-.05.944-.596 1.341 0 .05.024.1.075.149a14.95 14.95 0 0 1 2.606-.224c4.915 0 9.122 1.75 12.622 5.25"/></svg>