<svg xmlns="http://www.w3.org/2000/svg" viewBox="280 402.731 35.578 35.579"><path fill="#FFF" d="M304.182 413.988h10.145a17.43 17.43 0 0 1 1.251 6.532c0 4.865-1.714 9.034-5.142 12.508-3.429 3.475-7.574 5.235-12.439 5.282l7.297-12.578a9.105 9.105 0 0 0 1.598-5.212c0-2.547-.902-4.725-2.71-6.532m-10.945 11.084c-1.274-1.274-1.911-2.791-1.911-4.552 0-1.76.637-3.277 1.911-4.551s2.791-1.911 4.552-1.911c1.76 0 3.277.637 4.551 1.911s1.911 2.791 1.911 4.551c0 1.761-.637 3.278-1.911 4.552-1.274 1.274-2.791 1.911-4.551 1.911s-3.277-.637-4.552-1.911m-4.272-6.845l-5.073-8.825a17.728 17.728 0 0 1 6.115-4.899c2.408-1.181 5.003-1.772 7.783-1.772 3.196 0 6.15.788 8.86 2.363s4.852 3.706 6.428 6.393h-14.524a3.926 3.926 0 0 0-.764-.07c-2.085 0-3.95.637-5.594 1.911-1.645 1.275-2.722 2.908-3.231 4.899m11.256 11.049l-5.073 8.825c-4.308-.649-7.911-2.628-10.805-5.941-2.896-3.312-4.343-7.192-4.343-11.64 0-3.103.764-6.022 2.293-8.755l7.227 12.647c.74 1.528 1.852 2.779 3.335 3.752 1.482.973 3.127 1.459 4.934 1.459.835 0 1.645-.115 2.432-.347"/></svg>