<svg xmlns="http://www.w3.org/2000/svg" viewBox="0 0 34.113 33.076"><path fill="#FFF" d="M24.426 3.048c2.995 1.217 5.381 3.182 7.16 5.896 1.076-2.901 1.029-4.937-.141-6.107-1.263-1.309-3.603-1.239-7.019.211m.772 12.003c-.094-1.685-.772-3.124-2.035-4.317-1.264-1.193-2.75-1.79-4.457-1.79-1.709 0-3.194.597-4.457 1.79-1.264 1.193-1.943 2.632-2.036 4.317h12.985zM10.739 30.633c-3.136-1.918-5.335-4.608-6.598-8.072-2.106 4.118-2.386 6.949-.842 8.493 1.356 1.357 3.836 1.217 7.44-.421m1.474-11.511v.07a7.13 7.13 0 0 0 .772 3.229 6.882 6.882 0 0 0 2.492 2.561c1.053.632 2.222.948 3.509.948s2.457-.316 3.51-.948a6.89 6.89 0 0 0 2.492-2.561h8.353c-1.077 3.042-2.948 5.533-5.616 7.475-2.667 1.942-5.662 2.913-8.984 2.913-2.481 0-4.82-.538-7.019-1.615-4.914 2.387-8.447 2.503-10.599.351C.374 30.844 0 29.674 0 28.036s.316-3.462.947-5.475c.632-2.011 1.685-4.223 3.159-6.633a33.755 33.755 0 0 1 5.229-6.563c1.169-1.216 1.918-1.965 2.246-2.246-2.902 1.404-5.522 3.58-7.861 6.528.842-3.416 2.655-6.223 5.44-8.423 2.783-2.199 5.977-3.299 9.581-3.299.374 0 .748.024 1.123.07C22.484.826 24.87.17 27.023.03c2.152-.141 3.673.21 4.563 1.052 1.777 1.825 1.941 4.68.491 8.564a15.36 15.36 0 0 1 2.036 7.721c0 .655-.024 1.24-.07 1.755h-21.83z"/></svg>