<svg xmlns="http://www.w3.org/2000/svg" viewBox="0 0 51.807 32.157"><path fill="#FFF" d="M50.113 24.895h.057c.02 0 .049-.003.065.007.016.013.029.029.029.048 0 .021-.01.042-.029.055-.016.008-.042.008-.061.008h-.061v-.118zm0 .193h.077l.07.183h.119l-.083-.202a.125.125 0 0 0 .08-.117.156.156 0 0 0-.058-.116c-.035-.024-.08-.024-.118-.024h-.193v.459h.106v-.183zm.07.35a.4.4 0 0 0 .398-.395.397.397 0 0 0-.398-.395.394.394 0 0 0 0 .79m-.52-.395c0-.285.235-.52.52-.52.286 0 .52.235.52.52 0 .286-.234.52-.52.52a.522.522 0 0 1-.52-.52m-.859-5.653h.057c.023 0 .045 0 .065-.01.019-.011.025-.033.025-.053a.06.06 0 0 0-.025-.048c-.016-.01-.048-.006-.068-.006h-.054v.117zm0 .255h-.106v-.452h.192c.039 0 .081 0 .116.022a.138.138 0 0 1 .058.112c0 .053-.029.1-.081.119l.084.199h-.119l-.067-.176h-.077v.176zm-.328-.224c0-.219.177-.397.395-.397.222 0 .395.178.395.397a.394.394 0 0 1-.395.394.396.396 0 0 1-.395-.394m.395.519a.522.522 0 0 0 .523-.519.52.52 0 0 0-1.04 0 .52.52 0 0 0 .517.519m-21.223-6.034c-.189 1.775-.526 3.573-.787 5.351l-.07.386h1.51c.541-3.508.671-4.193 1.516-4.107.136-.72.388-1.347.575-1.665-.631-.132-.987.228-1.448.907.037-.296.103-.58.09-.872h-1.386zm13.195 0c-.189 1.775-.524 3.573-.786 5.351l-.069.386h1.508c.541-3.508.672-4.193 1.518-4.107.134-.72.385-1.347.574-1.665-.633-.132-.986.228-1.447.907.037-.296.103-.58.089-.872h-1.387zm4.657 4.412c.703 0 1.199-.797 1.199-1.933 0-.73-.281-1.125-.801-1.125-.685 0-1.171.798-1.171 1.926 0 .752.26 1.132.773 1.132m2.229 1.325h-1.43l.072-.534c-.415.442-.84.634-1.392.634-1.097 0-1.822-.945-1.822-2.379 0-1.911 1.124-3.519 2.456-3.519.584 0 1.03.238 1.442.782l.334-2.039h1.489l-1.149 7.055zm-32.511-3.924c0 .727.35 1.226 1.149 1.603.611.289.706.372.706.634 0 .356-.27.516-.868.516-.449 0-.87-.067-1.353-.224l-.208 1.325c.345.074.65.144 1.572.17 1.593 0 2.328-.608 2.328-1.917 0-.791-.307-1.25-1.064-1.598-.632-.292-.706-.356-.706-.624 0-.312.252-.469.741-.469.296 0 .701.032 1.083.087l.215-1.332a10.404 10.404 0 0 0-1.328-.112c-1.689 0-2.273.881-2.267 1.941m10.033.39c.01-.119.159-1.027-.698-1.027-.478 0-.821.368-.959 1.027h1.657zm.844 3.403a5.186 5.186 0 0 1-1.54.231c-1.681-.003-2.557-.881-2.557-2.561 0-1.96 1.115-3.404 2.628-3.404 1.237 0 2.028.807 2.028 2.077 0 .421-.057.83-.187 1.413H23.48c-.101.829.432 1.175 1.304 1.175.538 0 1.021-.109 1.56-.359l-.249 1.428zm-4.617-1.226a1.232 1.232 0 0 1-.406.054c-.359 0-.518-.128-.518-.425.003-.182.252-1.54.425-2.629h.775l.205-1.38h-.771l.175-.866h-1.501s-.567 3.377-.652 3.911c-.097.612-.219 1.277-.209 1.531 0 .817.42 1.261 1.192 1.261.35 0 .672-.058 1.086-.186l.199-1.271zm17.748 1.357h-1.249l.028-.595c-.383.47-.893.695-1.583.695-.818 0-1.38-.64-1.38-1.566 0-1.399.977-2.212 2.65-2.212.172 0 .392.016.617.045.046-.191.057-.272.057-.374 0-.379-.261-.522-.966-.522a4.937 4.937 0 0 0-1.598.259l.209-1.29c.752-.222 1.25-.305 1.805-.305 1.298 0 1.985.581 1.983 1.681.003.295-.046.66-.122 1.14-.13.829-.412 2.61-.451 3.044m-1.097-2.557a2.933 2.933 0 0 0-.339-.022c-.855 0-1.288.293-1.288.871 0 .358.212.585.542.585.615 0 1.059-.585 1.085-1.434m-4.351-4.672c-2 0-3.4 1.762-3.4 4.284 0 1.874 1.013 3.045 2.638 3.045.417 0 .778-.055 1.333-.209l.265-1.606c-.499.246-.91.363-1.282.363-.878 0-1.407-.648-1.407-1.718 0-1.555.788-2.644 1.916-2.644.418 0 .81.109 1.349.382l.247-1.531c-.222-.086-1-.366-1.659-.366m-19.72 7.229h-1.251l.029-.595c-.382.47-.891.695-1.582.695-.82 0-1.378-.64-1.378-1.566 0-1.399.974-2.212 2.649-2.212.171 0 .391.016.616.045.046-.191.057-.272.057-.374 0-.379-.261-.522-.967-.522a4.937 4.937 0 0 0-1.598.259l.21-1.29c.751-.222 1.248-.305 1.807-.305 1.296 0 1.983.581 1.981 1.681.002.295-.047.66-.122 1.14-.131.829-.412 2.61-.451 3.044m-1.097-2.557a2.956 2.956 0 0 0-.337-.022c-.857 0-1.288.293-1.288.871 0 .358.212.585.539.585.616 0 1.059-.585 1.086-1.434m-2.807-4.498H7.81l-1.465 4.366-.061-4.366H4.112l-1.179 7.055h1.413l.908-5.39.127 5.39h1.03l1.93-5.422-.865 5.422h1.51l1.168-7.055zm25.575-11.15a14.56 14.56 0 0 0-8.705 2.872 16.075 16.075 0 0 1 4.617 7.724h-1.49a14.655 14.655 0 0 0-4.248-6.807 14.625 14.625 0 0 0-4.245 6.807h-1.492a16.1 16.1 0 0 1 4.618-7.724 14.563 14.563 0 0 0-8.706-2.872c-8.084 0-14.637 6.553-14.637 14.639 0 8.084 6.553 14.639 14.637 14.639 3.263 0 6.273-1.068 8.706-2.871a16.133 16.133 0 0 1-4.469-7.199h1.506a14.632 14.632 0 0 0 4.082 6.281 14.618 14.618 0 0 0 4.084-6.281h1.507a16.153 16.153 0 0 1-4.47 7.199 14.566 14.566 0 0 0 8.705 2.871c8.084 0 14.637-6.555 14.637-14.639 0-8.086-6.553-14.639-14.637-14.639m16.078 14.639c0 8.865-7.213 16.08-16.078 16.08a16.013 16.013 0 0 1-9.826-3.361 16.008 16.008 0 0 1-9.825 3.361C7.213 32.157 0 24.942 0 16.077 0 7.212 7.213 0 16.078 0c3.698 0 7.107 1.254 9.825 3.36A15.993 15.993 0 0 1 35.729 0c8.865 0 16.078 7.212 16.078 16.077"/></svg>