<svg xmlns="http://www.w3.org/2000/svg" viewBox="0 0 37.273 60.983"><g fill="#FFF"><path d="M31.146 26.368c-.322-1.49-1.011-2.611-1.976-3.457-.333-.352-.736-.6-1.193-.865a4.23 4.23 0 0 0-.699-.328c-.501-.191-1.159-.412-1.976-.329.409-.208 1.019-.216 1.646-.207.521.056.952.2 1.398.329.374.203.744.41 1.112.618.902-2.697.557-6.387-.452-8.766-.976-2.495-2.394-4.548-4.238-6.173-1.814-1.657-3.993-2.949-6.873-3.539-1.426-.308-3.219-.258-4.528.041-1.367.36-2.504.952-3.498 1.687-.923.819-1.819 1.666-2.428 2.799-.219.22-.314.565-.494.823-.126.312-.268.61-.411.905-.213.652-.456 1.272-.577 2.017-.329 1.347-.388 3.198-.164 4.65.169 1.56.626 2.831 1.112 4.074.299.579.572 1.184.904 1.729.315.549.706 1.023 1.071 1.523.829.899 1.72 1.736 2.757 2.428 2.102 1.369 4.515 2.426 7.819 2.592.065-.134-.089-.403-.123-.576-.05-.198-.069-.425-.124-.617-.047-.443-.062-.96 0-1.399.131.034.127.202.206.288.07.081.097.205.206.247.083.232.262.368.37.576.311.32.553.709.947.946.313.318.733.529 1.111.782.407.211.757.478 1.235.617.817.431 1.913.582 3.004.741a32.67 32.67 0 0 1 3.168.577c.93.319 1.876.619 2.635 1.11.4.231.794.468 1.151.742.175.14.396.235.535.411.217.086.312.292.535.37.639.609 1.27 1.227 1.812 1.934.223.407.528.733.699 1.194.151.165.195.436.329.617.009.233.236.514.041.7-.305.044-.243-.278-.37-.412-.099-.161-.222-.3-.289-.493-.482-.506-.913-1.062-1.44-1.523-.521-.452-1.034-.915-1.646-1.276-1.15-.813-2.482-1.441-4.033-1.852-1.528-.442-3.241-.62-5.226-.494-.872.115-1.704.272-2.429.534-.78.195-1.648.301-2.51.412-3.368.208-7.119-.596-9.63-1.81-1.34-.62-2.573-1.35-3.621-2.263-.573-.414-1.041-.935-1.523-1.441-.44-.533-.904-1.045-1.235-1.687-.44-.548-.7-1.276-1.07-1.893-.24-.733-.581-1.366-.74-2.181-.252-.736-.406-1.569-.494-2.469-.014-.248-.125-.725-.124-1.112 0-.034.045-.065.042-.123-.019-.351-.102-.892 0-1.193-.019-.816.128-1.819.288-2.593.148-.826.367-1.581.618-2.305.244-.742.569-1.406.863-2.099.198-.296.348-.639.535-.946.157-.323.393-.567.536-.906.158-.088.186-.306.328-.411.064-.183.235-.26.288-.453.135-.112.242-.252.33-.412.125-.121.256-.237.329-.411.49-.484.929-1.019 1.44-1.481.509-.479 1.079-.896 1.606-1.358.334-.16.575-.413.905-.577.25-.229.615-.345.864-.576.686-.301 1.271-.704 2.017-.947.642-.331 1.413-.535 2.14-.781 1.58-.406 3.174-.684 5.143-.618.071.009.107-.07.124 0 3.729.113 6.447 1.236 8.766 2.758 2.297 1.53 4.076 3.578 5.35 6.132 1.246 2.529 1.947 5.967 1.358 9.589a19.418 19.418 0 0 1-1.358 4.403c-.337.624-.637 1.284-1.029 1.852a5.574 5.574 0 0 1-.576.864 1.758 1.758 0 0 1-.288.412c-.048.075-.108.139-.165.206-.018.036-.036.073-.082.082.012.073-.038.084-.041.041"/><path d="M30.158 27.438c-.483-.19-.564-.781-.783-1.235-.039-.166-.073-.417 0-.576.033-.008.041-.041.083-.041.121-.078.237.021.411.082.236.271.387.629.494 1.029.009.324.033.664-.205.741M26.536 26.739c.008-.047.042-.023.042 0 .729.093 1.064.581 1.11 1.358-.065.429-.305.683-.7.782-.982.017-1.541-.888-1.193-1.811.196-.16.335-.378.741-.329M4.807 43.776c-.359.025-.574.194-.864.288-.192.178-.431.31-.577.535-.237.133-.302.438-.493.617-.161.4-.315.843-.412 1.358a9.429 9.429 0 0 0-.164 1.647c-.011 1.417.292 2.825.863 3.663.331.407.737.743 1.235.986.287.029.513.118.823.124.172-.062.465-.003.576-.124.253.019.315-.151.535-.164.116-.118.249-.218.412-.288.148-.167.292-.338.453-.494.083-.122.127-.284.246-.371.716-1.369.798-3.881.33-5.473a4.784 4.784 0 0 0-.7-1.44A3.962 3.962 0 0 0 6 43.857c-.329-.068-.638-.157-1.07-.122-.025.002-.048.006-.042.041h-.081zm1.975 10.37c.117.501.373.863.658 1.194.285.333.622.613 1.03.824.379.237.794.438 1.274.575.233.083.458.175.741.205.196.107.441.166.454.454-.011.345-.243.471-.535.535-.295-.062-.661-.053-.906-.165-.625-.074-1.125-.274-1.646-.453A7.508 7.508 0 0 1 5.3 55.668c-.144-.239-.34-.427-.493-.658-.153-.231-.255-.513-.412-.74-1.223-.162-2.059-.712-2.798-1.358-.68-.774-1.215-1.694-1.441-2.922-.26-1.181-.18-2.649.123-3.787.674-2.206 2.095-3.668 4.775-3.868.739.023 1.383.114 1.975.33.594.215 1.16.612 1.606 1.028.036.034.052.038.081.083.093.14.325.324.453.493.025.033.014.087.041.124.05.067.123.1.164.165.028.041.018.085.042.123.031.051.075.122.124.205.018.033.069.059.081.083.071.135.101.301.165.453.066.156.155.298.206.453.157.472.261 1.023.329 1.604.16 1.657-.168 3.137-.781 4.239a4.608 4.608 0 0 1-1.153 1.44c-.434.431-1.029.701-1.605.988M13.491 42.623c.646.026 1.397-.053 1.975.042.129.203.079.435.083.658.045 3.02 0 6.255 0 9.341 0 .249.005.499 0 .742-.006.205.045.427-.083.618-.289.071-.698.04-1.07.04-.388 0-.772.053-1.029-.083a304.918 304.918 0 0 1 0-11.235.207.207 0 0 1 .124-.123M18.429 42.623h1.934c.174.238.228.595.288.947.581 2.217 1.159 4.439 1.687 6.708.125.015.087-.135.125-.206.056-.053.025-.195.082-.247.022-.183.133-.278.123-.493.148-.278.191-.661.328-.947.171-.668.387-1.288.577-1.934.181-.67.429-1.274.577-1.976.272-.564.337-1.335.659-1.852h.822c.296.554.402 1.3.659 1.893.164.671.4 1.274.575 1.935.408 1.28.825 2.549 1.194 3.868.164-.247.165-.658.288-.947.072-.327.135-.662.246-.946.319-1.301.618-2.62.989-3.868.14-.656.274-1.318.493-1.893a7.01 7.01 0 0 1 1.688 0c.041.483-.187 1.007-.329 1.44-.075.528-.272.934-.37 1.44-.294.928-.521 1.921-.824 2.84-.232.987-.543 1.898-.782 2.881-.158.458-.274.959-.411 1.44-.16.444-.215.993-.454 1.358h-1.151c-.293-.516-.398-1.22-.658-1.769-.574-1.816-1.214-3.561-1.77-5.392-.195.203-.19.605-.329.865-.087.31-.175.621-.288.904-.156.628-.398 1.167-.535 1.811-.228.567-.4 1.192-.576 1.812-.243.539-.329 1.234-.618 1.729-.305.091-.779.015-1.151.04-.291-.328-.318-.918-.496-1.358-.138-.463-.234-.972-.41-1.399-.22-1.002-.556-1.888-.783-2.881-.299-.921-.552-1.889-.822-2.84-.148-.455-.264-.943-.412-1.399-.067-.496-.403-.94-.288-1.481a.298.298 0 0 1 .123-.083M34.685 42.623c.645.026 1.397-.053 1.975.042.142.433.083.892.083 1.357v8.642c0 .468.059.925-.083 1.36-.445.05-1.099.067-1.647.04-.156-.007-.347.038-.452-.083-.142-.427-.082-.888-.082-1.357v-8.56c0-.519-.048-1.017.082-1.358a.308.308 0 0 1 .124-.083M23.326 60.154c.21-.844-.544-1.251-1.358-1.069-.097.411-.014 1.002-.041 1.481.606.047 1.162.008 1.399-.412m-.206-1.934c.105-.786-.535-.92-1.193-.822v1.317c.61.049 1.016-.11 1.193-.495m0 .577c.253.13.521.247.7.453.149.233.223.674.124 1.029-.366.759-1.638.821-2.593.575V57.11c.281-.144.728-.122 1.151-.124.278.037.55.081.783.164a.958.958 0 0 1 .412 1.111c-.148.224-.282.46-.577.536M13.861 57.027c.09.446.017 1.052.041 1.564.025.076.173-.072.164-.165.072-.052.163-.085.165-.206.14-.107.253-.24.33-.411.277-.216.415-.572.699-.782.152.014.364-.035.453.042-.141.352-.415.573-.617.864-.191.289-.451.511-.617.823.213.389.518.688.74 1.07.262.342.561.646.741 1.069-.148.087-.446.023-.658.041-.251-.298-.456-.641-.7-.945-.204-.346-.484-.615-.659-.988-.096.549-.013 1.276-.041 1.892-.123.083-.389.024-.575.041a36.911 36.911 0 0 1 0-3.909h.534zM19.458 58.139c.06-.025-.004-.051 0 0-.714.905-1.349 1.889-2.059 2.798h-.493a37.496 37.496 0 0 1 0-3.91h.453v2.964c.036.11.1-.087.124-.124.057-.067.116-.13.164-.206.086-.147.203-.263.288-.411.195-.272.412-.521.576-.824.244-.222.368-.565.618-.782.057-.175.172-.294.288-.41.011-.238.28-.215.534-.207-.026 1.291.056 2.689-.041 3.91h-.411c-.094-.852-.015-1.877-.041-2.798M25.63 57.068v2.716c.038.112.1-.087.124-.123.085-.012.083-.111.124-.165.113-.092.153-.259.287-.329.125-.288.341-.482.495-.742.356-.453.673-.943 1.029-1.399h.494a37.496 37.496 0 0 1 0 3.91h-.412c-.096-.906-.015-1.988-.043-2.963-.035-.078-.023.045-.081.041-.019.037-.036.074-.083.083-.004.104-.074.144-.123.205a5.222 5.222 0 0 1-.288.412c-.183.284-.407.525-.575.823-.198.268-.424.51-.577.823-.286.181-.251.682-.823.576a37.496 37.496 0 0 1 0-3.91c.15.015.364-.035.452.042"/></g></svg>