<svg xmlns="http://www.w3.org/2000/svg" viewBox="0 0 67.201 20.827"><g fill="#FFF"><path d="M18.303.369l-5.099 13.755-.546-2.795c-1.093-2.933-3.777-5.627-6.795-6.866l4.243 16.048 5.514-.004L23.824.369h-5.521zM22.673 20.528L25.932.352h5.209l-3.258 20.176zM46.78.847C45.75.442 44.129 0 42.111 0c-5.15 0-8.776 2.738-8.807 6.659-.031 2.9 2.589 4.518 4.564 5.482 2.03.988 2.712 1.62 2.704 2.503-.014 1.352-1.621 1.971-3.119 1.971-2.085 0-3.193-.305-4.907-1.058l-.67-.321-.729 4.516c1.215.562 3.466 1.049 5.805 1.075 5.474 0 9.031-2.705 9.073-6.892.017-2.3-1.37-4.042-4.377-5.481-1.82-.937-2.938-1.556-2.925-2.503.001-.838.944-1.736 2.985-1.736a9.153 9.153 0 0 1 3.899.775l.468.23.705-4.373zM53.717 13.374c.432-1.16 2.076-5.639 2.076-5.639-.031.053.428-1.169.691-1.925l.352 1.74s.999 4.815 1.206 5.824h-4.325zM60.144.372h-4.025c-1.249 0-2.185.357-2.731 1.672L45.65 20.535h5.473s.893-2.488 1.095-3.033c.597 0 5.912.01 6.672.01.155.703.635 3.023.635 3.023h4.835L60.144.372z"/><path d="M8.47.355H.07L0 .773c5.78 1.455 10.512 4.602 12.658 10.555l-1.826-9.271C10.517.778 9.603.4 8.47.355M65.843 19.209h.247c.174 0 .21-.102.21-.184 0-.14-.092-.173-.234-.173h-.223v.357zm-.213-.514h.508c.119 0 .379.031.379.33 0 .08-.024.191-.193.264v.006c.146.025.154.164.163.276.011.178 0 .21.046.273h-.221c-.042-.043-.032-.075-.042-.262 0-.106-.013-.215-.252-.215h-.175v.477h-.213v-1.149zm.42 1.559c.523 0 .933-.433.933-.975 0-.543-.41-.976-.933-.976-.523 0-.933.433-.933.976 0 .542.41.975.933.975m0-2.126c.644 0 1.151.516 1.151 1.151 0 .634-.507 1.15-1.151 1.15s-1.15-.516-1.15-1.15c0-.635.506-1.151 1.15-1.151"/></g></svg>