<svg xmlns="http://www.w3.org/2000/svg" viewBox="0 0 117.866 29.472"><g fill="#FFF"><path d="M103.019 0c2.314 0 4.505.539 6.457 1.495.306.146.612.306.918.482l-1.356 1.215L107 1.084l-3.44 3.068-2.043-2.229-6.408 5.775 4.108 4.528-1.614 1.419 4.046 4.535-1.605 1.416 5.782 6.436 3.432-3.16 2.967 3.386a15.72 15.72 0 0 1-1.941 1.29 14.62 14.62 0 0 1-7.265 1.924c-8.116 0-14.736-6.62-14.736-14.736C88.283 6.619 94.903 0 103.019 0"/><path d="M106.998 14.15l-3.504 3.156-3.155-3.504 3.504-3.156zM109.49 20.207l-3.503 3.154-3.156-3.504 3.504-3.155zM104.49 8.167l-3.503 3.155-3.155-3.504 3.503-3.155zM109.249 6.385l-2.628 2.366-2.366-2.628 2.628-2.366zM113.918 17.222l-2.63 2.367-2.367-2.628 2.63-2.368zM116.234 22.532l-2.627 2.367-2.368-2.628 2.627-2.367zM115.62 10.276l-1.751 1.577-1.577-1.752 1.752-1.577zM113.383 5.07l-1.752 1.578-1.578-1.753 1.752-1.577zM117.86 15.482l-1.752 1.576-1.577-1.752 1.752-1.576zM111.678 11.665l-2.628 2.367-2.366-2.627 2.628-2.367zM6.877 12.196h-.118l-2.219 8.39H2.724L0 8.665h1.883l1.883 8.895h.118L6.07 8.665h1.496l2.338 8.895h.117l1.715-8.895h1.967l-2.724 11.921H9.163zM15.958 15.575h3.85c-.084-1.765-.941-2.471-1.849-2.471-1.025 0-1.815.79-2.001 2.471m5.196 3.161v1.278a5.928 5.928 0 0 1-2.976.774c-2.824 0-3.985-1.749-3.985-4.406 0-2.555 1.295-4.405 3.817-4.405 2.102 0 3.396 1.363 3.396 4.103v.622h-5.481c0 2.017.824 2.908 2.556 2.908.907 0 1.748-.319 2.673-.874M24.667 19.342c.538.235 1.127.269 1.547.269 1.245 0 2.186-.774 2.186-3.497 0-2.135-.774-2.825-1.9-2.825-.673 0-1.16.185-1.833.555v5.498zm.017-6.742c.504-.269 1.362-.622 2.27-.622 2.084 0 3.211 1.446 3.211 4.136 0 3.144-1.513 4.674-3.951 4.674-.891 0-2.27-.286-3.279-.824V8.228l1.749-.42V12.6zM37.815 18.064h.084l3.598-9.399h2.085v11.921h-1.815v-8.642h-.152l-3.43 8.642h-1.076l-3.43-8.44h-.151v8.44h-1.513V8.665h2.034z"/><g><path d="M51.332 16.383c0-2.269-.925-3.228-2.068-3.228-1.109 0-2.068.959-2.068 3.228 0 2.304.875 3.228 2.068 3.228 1.194 0 2.068-.924 2.068-3.228m-5.901 0c0-2.942 1.614-4.405 3.833-4.405 2.22 0 3.834 1.463 3.834 4.405 0 2.875-1.53 4.406-3.834 4.406-2.303 0-3.833-1.531-3.833-4.406M54.695 13.222c.757-.454 2.354-1.244 4.287-1.244 2.018 0 2.774.79 2.774 2.522v6.086h-1.748v-5.699c0-1.328-.655-1.564-1.513-1.564-.673 0-1.53.303-2.051.605v6.658h-1.749v-7.364zM65.086 15.575h3.849c-.083-1.765-.941-2.471-1.849-2.471-1.026 0-1.815.79-2 2.471m5.194 3.161v1.278a5.928 5.928 0 0 1-2.976.774c-2.824 0-3.984-1.749-3.984-4.406 0-2.555 1.295-4.405 3.817-4.405 2.102 0 3.397 1.363 3.397 4.103v.622h-5.482c0 2.017.824 2.908 2.556 2.908.907 0 1.748-.319 2.672-.874M77.074 12.263h1.799L75.83 20.67c-.841 2.32-1.867 3.53-3.8 3.53v-1.378c1.143 0 1.849-.908 2.253-2.152l-3.228-8.407h1.85l2.151 6.187h.101l1.917-6.187z"/></g></g></svg>